<svg width="246" height="156" viewBox="0 0 246 156" fill="none" xmlns="http://www.w3.org/2000/svg">
<g clip-path="url(#clip0_915_773)">
<path d="M95.2738 56.4917H104.577V59.5313H100.151V80.8885H95.2738V56.4917ZM110.092 71.7297L110.928 59.5313H111.208L112.044 71.7297H110.092ZM104.691 80.8885H109.466L109.918 74.4092H112.218L112.671 80.8885H117.445L114.901 56.4917H107.234L104.691 80.8885ZM124.43 72.3497V76.9489C124.43 77.5689 124.91 77.7489 125.19 77.7489C125.65 77.7489 125.97 77.3689 125.97 76.9489V71.2701C125.97 70.51 125.83 69.6702 124.01 69.6702H122.03V66.9907H124.09C125.47 66.9907 125.97 66.6706 125.97 65.1708V60.3313C125.97 59.9113 125.65 59.5313 125.19 59.5313C124.91 59.5313 124.43 59.6912 124.43 60.3313V64.3107H119.55V60.8513C119.55 59.1514 119.75 56.4917 123.17 56.4917H127.209C130.629 56.4917 130.849 59.1514 130.849 60.8513V64.7505C130.849 67.4102 128.989 68.1302 127.529 68.0701V68.3102C130.809 68.2302 130.849 70.7496 130.849 71.6097V76.5291C130.849 78.2488 130.629 80.8885 127.209 80.8885H123.17C119.75 80.8885 119.55 78.2486 119.55 76.5289V72.3497H124.43ZM134.049 56.4917H145.347V80.8885H140.468V59.5313H138.928V80.8885H134.049V56.4917ZM153.426 69.91V59.5315H154.066C154.586 59.5315 154.966 59.9712 154.966 60.7513V68.6901C154.966 69.4702 154.586 69.9098 154.066 69.9098L153.426 69.91ZM148.547 80.8885H153.426V72.5896H156.225C159.625 72.5896 159.845 69.9499 159.845 68.23V60.8513C159.845 59.1514 159.625 56.4917 156.225 56.4917H148.547V80.8885ZM169.464 76.9489C169.464 77.3689 169.144 77.7489 168.684 77.7489C168.404 77.7489 167.924 77.5689 167.924 76.9489V60.3313C167.924 59.6912 168.404 59.5313 168.684 59.5313C169.144 59.5313 169.464 59.9113 169.464 60.3313V76.9489ZM163.045 76.5291C163.045 78.2488 163.264 80.8885 166.664 80.8885H170.723C174.123 80.8885 174.343 78.2486 174.343 76.5289V60.8513C174.343 59.1514 174.123 56.4917 170.723 56.4917H166.664C163.265 56.4917 163.045 59.1514 163.045 60.8513V76.5291ZM190.221 56.4917H196.58V80.8885H191.701V65.5905H191.521L189.001 80.8885H185.101L182.602 65.5905H182.422V80.8885H177.543V56.4917H183.882L187.061 73.6494L190.221 56.4917ZM88.9506 47.4931C87.457 40.9539 83.7133 35.6347 83.1974 34.7747C82.3815 35.9944 79.396 40.694 77.8782 45.8932C76.2204 51.7123 75.9764 56.8716 76.5486 61.9309C77.1164 67.0103 79.262 72.2297 79.262 72.2297C80.402 74.9493 82.1096 77.8887 83.2216 79.3287C84.8512 77.209 88.5968 70.8897 89.7646 62.6509C90.4145 58.0515 90.4425 54.0322 88.9506 47.4931ZM83.1974 77.6889C82.4636 76.3091 81.3237 73.6893 81.2157 69.6098C81.1877 65.6905 82.7615 62.3108 83.2216 61.6111C83.6314 62.3111 84.9872 65.2505 85.1492 69.27C85.2591 73.1895 83.9553 76.2888 83.1974 77.6889ZM88.5168 58.5913C88.4608 61.0911 88.1628 63.7308 87.7828 65.3106C87.9188 62.591 87.593 58.7715 86.9689 55.7719C86.345 52.7922 84.5792 47.793 83.1696 45.4932C81.8678 47.693 80.2638 52.0123 79.424 55.7519C78.5801 59.4912 78.5562 64.0308 78.5562 65.3906C78.3321 64.2506 77.7722 60.1513 77.9302 56.0519C78.0623 52.6724 78.854 49.1729 79.288 47.573C80.9437 42.2338 82.8175 38.8142 83.1694 38.2742C83.5215 38.8142 85.8811 43.0337 87.1049 47.453C88.3229 51.8724 88.5688 56.1116 88.5168 58.5913Z" fill="#0079C2"/>
<path d="M85.731 80.8484H74.3746V88.4674C74.3847 88.4674 74.3927 88.4474 74.4026 88.4474C77.0782 85.7678 81.4178 85.7678 84.0954 88.4474C86.771 91.1071 86.771 95.4464 84.0954 98.1261C84.0833 98.146 84.0712 98.146 84.0594 98.166C84.0454 98.166 84.0314 98.186 84.0193 98.2061C81.3497 100.846 77.8622 102.165 74.3746 102.165C70.8712 102.165 67.3676 100.846 64.696 98.166C59.9846 93.4666 59.4266 86.1676 63.0182 80.8484C63.5112 80.1166 64.0731 79.4336 64.696 78.8087C67.3676 76.1292 70.8712 74.8092 74.3746 74.8092V56.4917C60.9125 56.4917 50 67.3902 50 80.8484C50 94.3066 60.9125 105.225 74.3746 105.225C81.3936 105.225 87.7169 102.245 92.1641 97.5061V80.8484H85.731ZM196.58 88.0161H95.2738V105.225H196.58V88.0161ZM187.82 100.03H189.105V97.4322H187.82V100.03ZM187.82 95.4841H189.765L191.067 96.1336L191.388 96.7829L191.709 98.0817V98.731C191.676 103.383 188.682 101.68 185.537 101.978V91.2631H187.82V95.4841ZM170.925 91.2631V93.2112H169.302V101.978H166.714V93.2112H165.091V91.2631H170.925ZM147.232 99.0558H147.554L148.196 98.731V94.1853H147.232V99.0558ZM144.628 94.1855H143.647V98.731L144.307 99.0558H144.628V94.1855ZM147.232 91.2631V92.2371H148.856L149.82 92.8864L150.479 93.536L150.801 94.8348V98.4065L150.48 99.7053L149.82 100.355L148.856 101.004H147.232V101.978H144.628V101.004H143.005L142.024 100.355L141.381 99.7053L141.06 98.4065V94.8348L141.381 93.536L142.024 92.8864L143.005 92.2371H144.628V91.2631H147.232ZM126.12 91.2631V93.2112H124.172V95.4841H126.12V97.4322H124.172V100.03H126.445V101.978H121.575V91.2631H126.12ZM102.742 95.4841H104.041V91.2631H106.314V101.978H104.041V97.4322H102.742V101.978H100.144V91.2631H102.742V95.4841Z" fill="#0079C2"/>
</g>
<defs>
<clipPath id="clip0_915_773">
<rect width="146.58" height="72" fill="white" transform="translate(50 34)"/>
</clipPath>
</defs>
</svg>
