<svg width="246" height="156" viewBox="0 0 246 156" fill="none" xmlns="http://www.w3.org/2000/svg">
<g clip-path="url(#clip0_915_773)">
<path d="M88.1738 42.9993H158.027V113H88.1738V42.9993Z" fill="#E22739"/>
<mask id="mask0_915_773" style="mask-type:luminance" maskUnits="userSpaceOnUse" x="-276" y="-75" width="4017" height="5680">
<path d="M-275.107 5604.68H3740.13V-74.0098H-275.107V5604.68Z" fill="white"/>
</mask>
<g mask="url(#mask0_915_773)">
<path d="M150.3 56.2821L142.455 68.9696C141.598 70.3928 141.727 71.5125 142.125 72.5917L154.037 103.066H104.702C100.277 103.066 96.8509 99.5119 96.8509 95.2759L96.8037 54.7102C96.9251 49.4692 104.561 49.3816 104.702 54.69V92.7127C104.689 93.9201 105.748 95.2759 107.144 95.2422H143.278L133.922 73.2257C133.68 72.3825 133.511 71.5464 133.511 70.7032C133.511 69.7724 133.922 68.2817 134.536 67.0676L143.123 52.9296C143.757 51.6616 145.038 50.8047 146.563 50.744C148.701 50.6495 150.529 52.1201 150.623 54.3932C150.63 54.8451 150.522 55.8369 150.3 56.2821Z" fill="white"/>
<path d="M123.089 81.9033V54.6933C123.089 49.3848 130.833 49.3443 130.921 54.6933V82.2001C130.921 88.4933 126.219 92.655 120.459 92.655C114.705 92.655 109.99 88.3922 109.99 82.2001V54.6933C109.99 49.3848 117.821 49.3848 117.821 54.6933V81.9033C117.821 85.5524 123.089 85.775 123.089 81.9033Z" fill="white"/>
</g>
</g>
<defs>
<clipPath id="clip0_915_773">
<rect width="70" height="70" fill="white" transform="translate(88 43)"/>
</clipPath>
</defs>
</svg>
