<svg width="246" height="156" viewBox="0 0 246 156" fill="none" xmlns="http://www.w3.org/2000/svg">
<g clip-path="url(#clip0_915_773)">
<path d="M57.1416 118.638C58.2684 118.638 58.9679 118.481 59.2927 118.136C59.6125 117.801 59.7792 117.53 59.7792 117.33C59.7792 117.112 59.6125 116.837 59.2927 116.502C58.9679 116.155 58.2684 115.983 57.1416 115.983H52.2089V118.638H57.1416ZM52.2089 126.237H48.0271L48 122.418V116.793L48.0271 112.97H59.0931C60.9747 112.97 62.2652 113.301 62.9481 113.959C63.6243 114.63 63.966 115.57 63.966 116.793V117.863C63.966 119.088 63.6243 120.027 62.9481 120.688C62.2652 121.346 60.9747 121.662 59.0931 121.662H52.2089V126.237Z" fill="#0D0B0B"/>
<path d="M78.1994 118.104C78.1994 117.366 78.0269 116.837 77.7105 116.502C77.389 116.155 76.6692 115.983 75.5766 115.983H73.2135C72.2006 115.983 71.5109 116.188 71.1641 116.556C70.8156 116.913 70.6616 117.426 70.6616 118.104V121.132C70.6616 121.779 70.8156 122.3 71.1641 122.657C71.5109 123.036 72.2006 123.218 73.2135 123.218H75.5766C76.6692 123.218 77.3809 123.04 77.7005 122.711C77.9815 122.396 78.16 121.845 78.1994 121.142V118.104ZM81.3641 125.274C80.6912 125.911 79.3925 126.237 77.5323 126.237H71.3698C69.5118 126.237 68.2063 125.938 67.5223 125.274C66.7814 124.663 66.4365 123.684 66.4365 122.418V116.793C66.4365 115.518 66.7814 114.555 67.5223 113.917C68.2063 113.301 69.5118 112.97 71.3698 112.97H77.5323C79.3925 112.97 80.6912 113.301 81.3641 113.959C82.0543 114.63 82.4111 115.57 82.4111 116.793V122.418C82.4111 123.662 82.0543 124.593 81.3641 125.274Z" fill="#0D0B0B"/>
<path d="M99.7715 125.274C99.0867 125.911 97.8065 126.237 95.952 126.237H89.8027C87.946 126.237 86.6532 125.938 85.9259 125.274C85.204 124.663 84.8438 123.684 84.8438 122.418V116.793C84.8438 115.518 85.204 114.555 85.9259 113.917C86.6532 113.301 87.946 112.97 89.8027 112.97H95.952C97.8065 112.97 99.0867 113.301 99.7715 113.959C100.481 114.63 100.82 115.57 100.82 116.793V118.104H96.615C96.615 117.366 96.4496 116.837 96.1417 116.502C95.8086 116.155 95.1087 115.983 94.0082 115.983H91.6461C90.628 115.983 89.9381 116.188 89.5732 116.556C89.2382 116.913 89.0519 117.426 89.0519 118.104V121.132C89.0519 121.779 89.2382 122.3 89.5732 122.657C89.9381 123.036 90.628 123.218 91.6461 123.218H94.0082C95.1087 123.218 95.8086 123.04 96.1417 122.711C96.4496 122.396 96.615 121.845 96.615 121.132H100.82V122.418C100.82 123.662 100.481 124.593 99.7715 125.274Z" fill="#0D0B0B"/>
<path d="M107.46 126.237H103.297L103.268 122.418V116.793L103.297 112.97H107.46V118.054H115.01V112.97H119.247V126.237H115.01V121.068H107.46V126.237Z" fill="#0D0B0B"/>
<path d="M127.088 121.068H125.891C125.915 121.752 126.082 122.3 126.434 122.657C126.769 123.036 127.468 123.218 128.492 123.218H137.664V126.237H126.646C124.784 126.237 123.5 125.938 122.759 125.274C122.053 124.664 121.688 123.685 121.688 122.418V116.793C121.688 115.518 122.053 114.555 122.759 113.917C123.5 113.301 124.784 112.97 126.646 112.97H137.664V115.983H128.492C127.468 115.983 126.769 116.188 126.434 116.556C126.082 116.913 125.915 117.4 125.891 118.054H137.664V121.068H127.088Z" fill="#0D0B0B"/>
<path d="M169.964 115.983H164.201V112.97H180.154V115.983H174.149V126.237H169.964V115.983Z" fill="#0D0B0B"/>
<path d="M186.239 120.556V123.207H191.17C192.28 123.207 192.993 123.036 193.313 122.711C193.63 122.364 193.787 122.095 193.787 121.899C193.787 121.683 193.63 121.39 193.313 121.068C192.993 120.709 192.28 120.556 191.17 120.556H186.239ZM186.239 117.539H193.131C194.991 117.539 196.283 117.875 196.964 118.546C197.657 119.184 198 120.135 198 121.368V122.417C198 123.641 197.657 124.593 196.964 125.241C196.283 125.902 194.991 126.237 193.131 126.237H182.05L182.022 122.417V116.772L182.05 112.96H186.239V117.539Z" fill="#0D0B0B"/>
<path d="M144.15 119.265C144.15 117.604 145.613 117.788 145.613 117.788H149.85V120.59H145.583C145.583 120.59 144.15 120.644 144.15 119.265ZM158.27 120.59H154.001V117.788H158.246C158.246 117.788 159.711 117.604 159.711 119.265C159.711 120.644 158.27 120.59 158.27 120.59ZM160.499 114.975H154.001V112.884H149.87V114.975H143.218C143.218 114.975 139.418 115.105 139.418 119.141C139.418 123.207 143.318 123.24 143.318 123.24H149.87V126.339H154.001V123.24H160.394C160.394 123.24 164.281 123.207 164.281 119.141C164.281 115.105 160.499 114.975 160.499 114.975Z" fill="#0D0B0B"/>
<path d="M114.955 30.0017V36.1448H108.113V42.2832H101.216V48.6056H94.3145V69.5577C94.3145 69.5577 106.467 80.0603 108.194 81.5862V103.879H138.063V81.6875C139.775 80.1898 151.876 69.5468 151.876 69.5468V48.6056H145.015V42.3429H138.063V36.1448H131.121V30.0017H114.955Z" fill="white"/>
<path d="M113.161 98.9893H119.02V71.3957H113.161V98.9893Z" fill="#FCD006"/>
<path d="M120.107 98.9893H125.967V65.6957H120.107V98.9893Z" fill="#FCD006"/>
<path d="M127.047 98.9893H132.894V71.3957H127.047V98.9893Z" fill="#FCD006"/>
<path d="M105.15 72.4888L99.2998 67.5458V53.4241H105.15V72.4888Z" fill="#0D0B0B"/>
<path d="M112.104 78.6438L106.232 73.1971V47.1682H112.104V78.6438Z" fill="#0D0B0B"/>
<path d="M113.161 70.5308H119.02V41.0119H113.161V70.5308Z" fill="#0D0B0B"/>
<path d="M120.107 64.4849H125.967V34.8478H120.107V64.4849Z" fill="#0D0B0B"/>
<path d="M140.924 72.4888L146.775 67.5458V53.4241H140.924V72.4888Z" fill="#0D0B0B"/>
<path d="M133.985 78.6438L139.82 73.1971V47.1682H133.985V78.6438Z" fill="#0D0B0B"/>
<path d="M127.047 70.5308H132.894V41.0119H127.047V70.5308Z" fill="#0D0B0B"/>
</g>
<defs>
<clipPath id="clip0_915_773">
<rect width="150" height="96.3389" fill="white" transform="translate(48 30)"/>
</clipPath>
</defs>
</svg>
