<svg width="246" height="156" viewBox="0 0 246 156" fill="none" xmlns="http://www.w3.org/2000/svg">
<g clip-path="url(#clip0_915_773)">
<path d="M57.1416 110.638C58.2684 110.638 58.9679 110.481 59.2927 110.136C59.6125 109.801 59.7792 109.53 59.7792 109.33C59.7792 109.112 59.6125 108.837 59.2927 108.502C58.9679 108.155 58.2684 107.983 57.1416 107.983H52.2089V110.638H57.1416ZM52.2089 118.237H48.0271L48 114.418V108.793L48.0271 104.97H59.0931C60.9747 104.97 62.2652 105.301 62.9481 105.959C63.6243 106.63 63.966 107.57 63.966 108.793V109.863C63.966 111.088 63.6243 112.027 62.9481 112.688C62.2652 113.346 60.9747 113.662 59.0931 113.662H52.2089V118.237Z" fill="#0D0B0B"/>
<path d="M78.1994 110.104C78.1994 109.366 78.0269 108.837 77.7105 108.502C77.389 108.155 76.6692 107.983 75.5766 107.983H73.2135C72.2006 107.983 71.5109 108.188 71.1641 108.556C70.8156 108.913 70.6616 109.426 70.6616 110.104V113.132C70.6616 113.779 70.8156 114.3 71.1641 114.657C71.5109 115.036 72.2006 115.218 73.2135 115.218H75.5766C76.6692 115.218 77.3809 115.04 77.7005 114.711C77.9815 114.396 78.16 113.845 78.1994 113.142V110.104ZM81.3641 117.274C80.6912 117.911 79.3925 118.237 77.5323 118.237H71.3698C69.5118 118.237 68.2063 117.938 67.5223 117.274C66.7814 116.663 66.4365 115.684 66.4365 114.418V108.793C66.4365 107.518 66.7814 106.555 67.5223 105.917C68.2063 105.301 69.5118 104.97 71.3698 104.97H77.5323C79.3925 104.97 80.6912 105.301 81.3641 105.959C82.0543 106.63 82.4111 107.57 82.4111 108.793V114.418C82.4111 115.662 82.0543 116.593 81.3641 117.274Z" fill="#0D0B0B"/>
<path d="M99.7715 117.274C99.0867 117.911 97.8065 118.237 95.952 118.237H89.8027C87.946 118.237 86.6532 117.938 85.9259 117.274C85.204 116.663 84.8438 115.684 84.8438 114.418V108.793C84.8438 107.518 85.204 106.555 85.9259 105.917C86.6532 105.301 87.946 104.97 89.8027 104.97H95.952C97.8065 104.97 99.0867 105.301 99.7715 105.959C100.481 106.63 100.82 107.57 100.82 108.793V110.104H96.615C96.615 109.366 96.4496 108.837 96.1417 108.502C95.8086 108.155 95.1087 107.983 94.0082 107.983H91.6461C90.628 107.983 89.9381 108.188 89.5732 108.556C89.2382 108.913 89.0519 109.426 89.0519 110.104V113.132C89.0519 113.779 89.2382 114.3 89.5732 114.657C89.9381 115.036 90.628 115.218 91.6461 115.218H94.0082C95.1087 115.218 95.8086 115.04 96.1417 114.711C96.4496 114.396 96.615 113.845 96.615 113.132H100.82V114.418C100.82 115.662 100.481 116.593 99.7715 117.274Z" fill="#0D0B0B"/>
<path d="M107.46 118.237H103.297L103.268 114.418V108.793L103.297 104.97H107.46V110.054H115.01V104.97H119.247V118.237H115.01V113.068H107.46V118.237Z" fill="#0D0B0B"/>
<path d="M127.088 113.068H125.891C125.915 113.752 126.082 114.3 126.434 114.657C126.769 115.036 127.468 115.218 128.492 115.218H137.664V118.237H126.646C124.784 118.237 123.5 117.938 122.759 117.274C122.053 116.664 121.688 115.685 121.688 114.418V108.793C121.688 107.518 122.053 106.555 122.759 105.917C123.5 105.301 124.784 104.97 126.646 104.97H137.664V107.983H128.492C127.468 107.983 126.769 108.188 126.434 108.556C126.082 108.913 125.915 109.4 125.891 110.054H137.664V113.068H127.088Z" fill="#0D0B0B"/>
<path d="M169.964 107.983H164.201V104.97H180.154V107.983H174.149V118.237H169.964V107.983Z" fill="#0D0B0B"/>
<path d="M186.239 112.556V115.207H191.17C192.28 115.207 192.993 115.036 193.313 114.711C193.63 114.364 193.787 114.095 193.787 113.899C193.787 113.683 193.63 113.39 193.313 113.068C192.993 112.709 192.28 112.556 191.17 112.556H186.239ZM186.239 109.539H193.131C194.991 109.539 196.283 109.875 196.964 110.546C197.657 111.184 198 112.135 198 113.368V114.417C198 115.641 197.657 116.593 196.964 117.241C196.283 117.902 194.991 118.237 193.131 118.237H182.05L182.022 114.417V108.772L182.05 104.96H186.239V109.539Z" fill="#0D0B0B"/>
<path d="M144.15 111.265C144.15 109.604 145.613 109.788 145.613 109.788H149.85V112.59H145.583C145.583 112.59 144.15 112.644 144.15 111.265ZM158.27 112.59H154.001V109.788H158.246C158.246 109.788 159.711 109.604 159.711 111.265C159.711 112.644 158.27 112.59 158.27 112.59ZM160.499 106.975H154.001V104.884H149.87V106.975H143.218C143.218 106.975 139.418 107.105 139.418 111.141C139.418 115.207 143.318 115.24 143.318 115.24H149.87V118.339H154.001V115.24H160.394C160.394 115.24 164.281 115.207 164.281 111.141C164.281 107.105 160.499 106.975 160.499 106.975Z" fill="#0D0B0B"/>
<path d="M114.955 22.0017V28.1448H108.113V34.2832H101.216V40.6056H94.3145V61.5577C94.3145 61.5577 106.467 72.0603 108.194 73.5862V95.8794H138.063V73.6875C139.775 72.1898 151.876 61.5468 151.876 61.5468V40.6056H145.015V34.3429H138.063V28.1448H131.121V22.0017H114.955Z" fill="white"/>
<path d="M113.161 90.9893H119.02V63.3957H113.161V90.9893Z" fill="#FCD006"/>
<path d="M120.107 90.9893H125.967V57.6957H120.107V90.9893Z" fill="#FCD006"/>
<path d="M127.047 90.9893H132.894V63.3957H127.047V90.9893Z" fill="#FCD006"/>
<path d="M105.15 64.4888L99.2998 59.5458V45.4241H105.15V64.4888Z" fill="#0D0B0B"/>
<path d="M112.104 70.6438L106.232 65.1971V39.1682H112.104V70.6438Z" fill="#0D0B0B"/>
<path d="M113.161 62.5308H119.02V33.0119H113.161V62.5308Z" fill="#0D0B0B"/>
<path d="M120.107 56.4849H125.967V26.8478H120.107V56.4849Z" fill="#0D0B0B"/>
<path d="M140.924 64.4888L146.775 59.5458V45.4241H140.924V64.4888Z" fill="#0D0B0B"/>
<path d="M133.985 70.6438L139.82 65.1971V39.1682H133.985V70.6438Z" fill="#0D0B0B"/>
<path d="M127.047 62.5308H132.894V33.0119H127.047V62.5308Z" fill="#0D0B0B"/>
</g>
<defs>
<clipPath id="clip0_915_773">
<rect width="150" height="96.3389" fill="white" transform="translate(48 22)"/>
</clipPath>
</defs>
</svg>
