<svg width="1091" height="677" viewBox="0 0 1091 677" fill="none" xmlns="http://www.w3.org/2000/svg">
<path d="M366.952 548.961H360.225V538.568H408.648V548.961H401.965H366.952Z" fill="white"/>
<path d="M773.945 251.614L710.085 237.426L525.276 196.371L540.583 137.204L649.459 169.332L759.112 201.719L957.934 260.412C961.94 261.467 965.366 264.062 967.466 267.633C969.566 271.203 970.17 275.459 969.145 279.473C968.646 281.469 967.751 283.345 966.514 284.989C965.277 286.634 963.724 288.013 961.945 289.047C958.371 291.157 954.106 291.762 950.087 290.729L773.772 251.571L773.945 251.614ZM951.38 286.373C952.293 286.629 953.236 286.759 954.183 286.761C957.045 286.794 959.812 285.735 961.921 283.8C964.03 281.865 965.323 279.199 965.536 276.345C965.749 273.49 964.867 270.662 963.069 268.435C961.27 266.208 958.692 264.75 955.856 264.357C953.021 263.964 950.143 264.667 947.808 266.321C945.472 267.976 943.855 270.458 943.285 273.263C942.714 276.068 943.234 278.985 944.738 281.421C946.242 283.856 948.617 285.627 951.38 286.373Z" fill="white"/>
<path d="M676.055 279.559V292.713H664.197H603.485H594.775V279.559H608.185H668.897H676.055Z" fill="white"/>
<path d="M480.048 170.151C479.229 172.135 478.323 174.119 477.375 176.102C477.249 176.412 477.105 176.715 476.944 177.008C475.866 179.207 474.744 181.32 473.494 183.563C469.441 189.169 410.583 270.46 396.311 330.447L376.519 334.759C367.895 307.461 313.435 117.194 446.501 9.12231L470.433 18.4373C471.166 29.7792 475.133 74.4998 493.286 97.0542C493.632 121.934 489.242 146.653 480.35 169.892L480.048 170.151Z" fill="white"/>
<path d="M673.391 237.383L665.715 271.624H613.153L623.286 226.257L673.391 237.383Z" fill="white"/>
<path d="M721.601 292.713H709.7V279.559H716.858H777.57H791.023V292.713H782.27H721.601Z" fill="white"/>
<path d="M720.059 271.624L714.453 246.482L769.775 258.773L772.664 271.624H720.059Z" fill="white"/>
<path d="M663.427 156.48C665.78 150.587 669.847 145.534 675.1 141.975C680.354 138.416 686.553 136.513 692.899 136.513C699.244 136.513 705.444 138.416 710.698 141.975C715.951 145.534 720.017 150.587 722.371 156.48C724.14 161.079 727.256 165.038 731.31 167.838C735.364 170.639 740.168 172.151 745.095 172.178C746.61 172.166 748.082 172.68 749.261 173.631C750.441 174.582 751.254 175.913 751.563 177.396L754.883 192.188L658.856 163.855C660.79 161.676 662.336 159.182 663.427 156.48Z" fill="white"/>
<path d="M764.516 507.13H621.273L623.3 498.074H637.012H748.777H762.532L764.516 507.13Z" fill="white"/>
<path d="M751.101 490.139L696.34 392.374C695.938 391.839 695.417 391.404 694.819 391.104C694.22 390.805 693.56 390.649 692.89 390.649C692.221 390.649 691.561 390.805 690.962 391.104C690.363 391.404 689.842 391.839 689.441 392.374L634.679 490.139H626.789L687.845 381.076C688.186 380.485 688.365 379.816 688.365 379.135C688.365 378.454 688.186 377.784 687.845 377.194L663.569 333.811H671.46L689.441 365.939C689.842 366.474 690.363 366.909 690.962 367.208C691.561 367.508 692.221 367.664 692.89 367.664C693.56 367.664 694.22 367.508 694.819 367.208C695.417 366.909 695.938 366.474 696.34 365.939L714.364 333.811H722.254L697.935 377.194C697.595 377.784 697.415 378.454 697.415 379.135C697.415 379.816 697.595 380.485 697.935 381.076L758.992 490.139H751.101Z" fill="white"/>
<path d="M724.055 325.876H712.024H673.778H661.747L663.774 316.819H722.028L724.055 325.876Z" fill="white"/>
<path d="M659.242 300.647L656.741 311.817L652.947 328.808L616.382 492.683V493.028L612.587 510.019C612.587 510.019 612.587 510.278 612.587 510.45L601.505 560.044H548.943L606.895 300.432L659.242 300.647Z" fill="white"/>
<path d="M370.878 556.896H398V592.302H370.878V556.896Z" fill="white"/>
<path d="M954.194 268.433C954.791 268.417 955.387 268.49 955.962 268.649C957.74 269.094 959.281 270.2 960.271 271.742C961.262 273.284 961.627 275.146 961.293 276.948C960.959 278.75 959.951 280.357 958.473 281.441C956.996 282.526 955.161 283.006 953.341 282.784C951.522 282.562 949.856 281.655 948.683 280.247C947.509 278.839 946.916 277.037 947.025 275.208C947.134 273.378 947.936 271.659 949.268 270.4C950.6 269.141 952.362 268.438 954.194 268.433Z" fill="white"/>
<path d="M533.893 131.252L527.598 155.704L513.8 209.179L468.05 205.341C475.122 194.819 479.865 188.307 480.037 188.091L480.296 187.703C481.245 186.021 482.193 184.253 483.056 182.528L483.659 181.364C485.47 177.698 487.066 174.032 488.532 170.324V169.936C496.315 148.981 500.513 126.865 500.95 104.515L536.523 120.471L533.721 131.296L533.893 131.252Z" fill="white"/>
<path d="M773.431 510.666C773.452 510.523 773.452 510.378 773.431 510.235L769.636 493.244C769.644 493.129 769.644 493.013 769.636 492.898L733.071 329.023L729.32 312.032L726.819 300.82H779.424L836.945 560.26H784.34L773.431 510.666Z" fill="white"/>
<path d="M905.618 547.71H939.294H969.004H1002.68V593.768H905.618V547.71Z" fill="white"/>
<path d="M323.568 601.703H507.127H878.686H901.711H1006.66H1057.16V618.565H323.568V601.703Z" fill="white"/>
<path d="M511.078 568.195H543.72H604.431H781.35H842.062H874.703V593.768H511.078V568.195Z" fill="white"/>
<path d="M943.279 529.426H965.055V539.819H943.279V529.426Z" fill="white"/>
<path d="M319.522 593.768H362.986V556.81H356.303C355.251 556.81 354.242 556.392 353.498 555.648C352.754 554.904 352.336 553.895 352.336 552.842V534.514C352.336 533.462 352.754 532.453 353.498 531.709C354.242 530.965 355.251 530.547 356.303 530.547H379.027V342.22L374.715 343.126H373.896C373.081 343.126 372.286 342.874 371.622 342.402C370.957 341.931 370.456 341.264 370.187 340.495C357.216 300.405 350.313 258.6 349.706 216.467C349.102 152.772 364.798 63.7617 443.145 1.35987C443.695 0.934427 444.345 0.659094 445.033 0.560814C445.721 0.462533 446.422 0.544724 447.069 0.799286L475.442 12.0117C476.163 12.2858 476.786 12.7686 477.231 13.3985C477.676 14.0284 477.924 14.7767 477.942 15.548C479 34.0877 482.346 52.4255 487.903 70.1442C490.526 78.3897 494.6 86.1006 499.933 92.9142C500.495 93.5792 500.815 94.4156 500.839 95.2861V95.6743L542.708 114.434C543.564 114.805 544.26 115.468 544.671 116.306C545.081 117.144 545.18 118.101 544.95 119.005L542.276 129.398L649.6 161.095C652.358 159.19 654.5 156.522 655.766 153.419C658.707 146.048 663.789 139.729 670.357 135.277C676.925 130.826 684.677 128.446 692.612 128.446C700.546 128.446 708.298 130.826 714.866 135.277C721.434 139.729 726.517 146.048 729.457 153.419C730.615 156.638 732.742 159.419 735.544 161.381C738.347 163.342 741.689 164.387 745.109 164.372C748.43 164.365 751.653 165.495 754.242 167.574C756.83 169.653 758.629 172.556 759.339 175.8L763.651 194.905L960.145 252.779C964.646 253.963 968.697 256.452 971.786 259.934C974.875 263.416 976.866 267.734 977.507 272.344C978.147 276.955 977.41 281.652 975.387 285.844C973.364 290.037 970.146 293.537 966.139 295.904C964.107 297.091 961.914 297.978 959.628 298.534V521.49H969.028C970.08 521.49 971.089 521.909 971.833 522.653C972.577 523.397 972.995 524.406 972.995 525.458V539.819H1006.67C1007.72 539.819 1008.73 540.237 1009.48 540.981C1010.22 541.725 1010.64 542.734 1010.64 543.786V593.768H1061.17C1062.23 593.768 1063.23 594.186 1063.98 594.93C1064.72 595.674 1065.14 596.683 1065.14 597.735V622.489C1065.14 623.542 1064.72 624.551 1063.98 625.295C1063.23 626.039 1062.23 626.457 1061.17 626.457H319.522C318.47 626.457 317.461 626.039 316.717 625.295C315.973 624.551 315.555 623.542 315.555 622.489V597.735C315.555 596.683 315.973 595.674 316.717 594.93C317.461 594.186 318.47 593.768 319.522 593.768ZM370.791 592.302H397.999V556.81H370.877L370.791 592.302ZM360.141 548.961H408.65V538.568H360.227L360.141 548.961ZM470.44 18.4374L446.552 8.99301C313.486 117.064 367.859 307.332 376.569 334.63L379.07 334.112V323.935C379.07 322.494 379.642 321.112 380.661 320.093C381.68 319.074 383.062 318.501 384.503 318.501C385.944 318.501 387.326 319.074 388.345 320.093C389.364 321.112 389.936 322.494 389.936 323.935V331.827L396.361 330.49C397.396 326.177 398.732 321.477 400.242 316.819H399.81C398.315 316.833 396.837 316.493 395.498 315.827C372.99 304.572 385.753 191.326 385.883 190.204C391.618 143.155 411.754 98.9517 440.903 68.9367C451.812 57.7242 461.988 52.9805 471.086 54.878C472.75 55.2228 474.359 55.7884 475.873 56.5599C473.071 44.0134 471.254 31.2671 470.44 18.4374ZM493.293 97.0543C487.858 89.8117 483.648 81.7261 480.831 73.1199C480.831 73.1199 477.166 64.1499 469.664 62.6405C463.454 61.3468 455.477 65.4436 446.724 74.4567C419.085 102.876 399.293 146.476 393.86 191.153C387.909 240.229 388.901 303.623 399.164 308.712C400.457 309.359 402.484 307.849 403.777 306.728C424.733 251.011 470.008 188.479 473.544 183.563C474.795 181.407 475.916 179.25 476.994 177.008C477.155 176.715 477.299 176.412 477.425 176.102C478.374 174.119 479.279 172.135 480.098 170.151V169.892C489.064 146.668 493.527 121.948 493.25 97.0543H493.293ZM501.184 104.472C500.747 126.821 496.549 148.938 488.765 169.892V170.28C487.299 173.989 485.704 177.655 483.893 181.32L483.289 182.485C482.427 184.21 481.478 185.978 480.53 187.66L480.271 188.048C480.271 188.307 475.355 194.819 468.284 205.298L514.033 209.136L527.831 155.661L534.127 131.209L536.93 120.385L501.184 104.472ZM520.674 214.397C520.454 215.248 519.958 216.002 519.263 216.541C518.569 217.08 517.715 217.372 516.836 217.373H516.491L463.109 213.06C443.361 243.248 412.272 294.998 403.519 334.845C403.36 335.598 402.986 336.287 402.442 336.831C401.899 337.374 401.209 337.748 400.457 337.907L389.936 340.107V530.849H412.66C413.181 530.849 413.697 530.951 414.178 531.151C414.659 531.35 415.097 531.642 415.465 532.011C415.833 532.379 416.126 532.817 416.325 533.298C416.524 533.779 416.627 534.295 416.627 534.816V553.144C416.627 553.665 416.524 554.181 416.325 554.663C416.126 555.144 415.833 555.581 415.465 555.95C415.097 556.318 414.659 556.61 414.178 556.81C413.697 557.009 413.181 557.112 412.66 557.112H405.761V593.984H503.167V564.443C503.167 563.391 503.585 562.382 504.329 561.638C505.073 560.894 506.082 560.476 507.134 560.476H540.552L598.547 300.863H590.829C589.777 300.863 588.768 300.445 588.024 299.701C587.28 298.957 586.862 297.948 586.862 296.896V275.807C586.862 274.755 587.28 273.746 588.024 273.002C588.768 272.258 589.777 271.84 590.829 271.84H605.015L615.536 224.747L523.304 204.263L520.674 214.397ZM681.164 239.108L673.92 271.624H680.086C681.138 271.624 682.147 272.042 682.891 272.786C683.635 273.53 684.053 274.54 684.053 275.592V296.68C684.053 297.732 683.635 298.741 682.891 299.485C682.147 300.229 681.138 300.647 680.086 300.647H667.408L665.598 308.884H720.273L718.419 300.647H705.742C704.693 300.636 703.69 300.215 702.949 299.473C702.207 298.731 701.786 297.729 701.775 296.68V275.592C701.775 274.54 702.193 273.53 702.936 272.786C703.68 272.042 704.689 271.624 705.742 271.624H711.908L705.871 244.585L681.164 239.108ZM697.98 377.108L722.299 333.724H714.408L696.385 365.852C695.983 366.388 695.462 366.823 694.863 367.122C694.265 367.422 693.605 367.577 692.935 367.577C692.266 367.577 691.606 367.422 691.007 367.122C690.408 366.823 689.887 366.388 689.486 365.852L671.505 333.724H663.614L687.89 377.108C688.231 377.698 688.41 378.367 688.41 379.049C688.41 379.73 688.231 380.399 687.89 380.989L626.833 490.052H634.724L689.486 392.288C689.887 391.752 690.408 391.318 691.007 391.018C691.606 390.719 692.266 390.563 692.935 390.563C693.605 390.563 694.265 390.719 694.863 391.018C695.462 391.318 695.983 391.752 696.385 392.288L751.146 490.052H759.037L697.98 380.989C697.649 380.413 697.471 379.762 697.463 379.097C697.456 378.433 697.619 377.778 697.937 377.194L697.98 377.108ZM705.31 333.724H680.56L692.935 355.804L705.31 333.724ZM643.822 490.052H742.091L692.978 402.336L643.822 490.052ZM762.573 497.987H623.341L621.314 507.044H764.556L762.573 497.987ZM679.913 379.049L658.353 340.754L629.895 468.231L679.913 379.049ZM661.803 325.789H724.067L722.041 316.733H663.786L661.803 325.789ZM727.431 340.754L705.871 379.049L755.889 468.317L727.431 340.754ZM766.238 514.979H619.417L609.327 560.174H776.586L766.238 514.979ZM612.259 510.666C612.259 510.666 612.259 510.364 612.259 510.235L616.053 493.244V492.899L652.619 329.024L656.413 312.032L658.914 300.863H606.309L548.356 560.476H601.264L612.259 510.666ZM603.419 292.712H676.075V279.559H594.796V292.712H603.419ZM665.641 271.624L673.316 237.383L623.211 226.257L613.078 271.624H665.641ZM769.687 258.687L714.452 246.31L720.057 271.452H772.663L769.687 258.687ZM777.492 279.473H709.622V292.626H790.988V279.473H777.492ZM726.439 300.561L728.94 311.774L732.691 328.765L769.256 492.64C769.264 492.755 769.264 492.87 769.256 492.985L773.051 509.976C773.073 510.119 773.073 510.264 773.051 510.407L784.132 560.001H836.953L778.958 300.389L726.439 300.561ZM841.998 567.936H510.972V593.509H874.726V567.936H841.998ZM751.448 177.137C751.139 175.654 750.326 174.323 749.147 173.372C747.967 172.421 746.495 171.907 744.98 171.919C740.053 171.892 735.249 170.38 731.195 167.579C727.141 164.779 724.026 160.821 722.256 156.222C719.903 150.328 715.837 145.275 710.583 141.716C705.329 138.157 699.13 136.254 692.784 136.254C686.439 136.254 680.239 138.157 674.985 141.716C669.732 145.275 665.666 150.328 663.312 156.222C662.221 158.923 660.675 161.417 658.742 163.596L755.027 192.188L751.448 177.137ZM961.999 289.09C963.786 288.045 965.347 286.655 966.593 285.002C967.839 283.349 968.745 281.466 969.258 279.461C969.772 277.455 969.882 275.368 969.584 273.32C969.285 271.271 968.583 269.303 967.519 267.527C966.483 265.759 965.107 264.212 963.472 262.976C961.837 261.74 959.974 260.839 957.989 260.326L759.166 201.632L649.514 169.246L540.638 137.117L525.331 196.285L710.14 237.34L773.999 251.528L948.762 290.34V285.122C946.956 284.099 945.472 282.59 944.478 280.768C943.485 278.945 943.021 276.88 943.139 274.807C943.258 272.735 943.954 270.736 945.148 269.039C946.343 267.341 947.989 266.011 949.9 265.2C951.811 264.389 953.91 264.129 955.961 264.449C958.012 264.769 959.933 265.657 961.506 267.012C963.079 268.366 964.241 270.134 964.862 272.116C965.482 274.097 965.536 276.212 965.018 278.222C964.642 279.676 963.974 281.037 963.055 282.223C962.136 283.41 960.984 284.396 959.671 285.122V290.082C960.469 289.804 961.246 289.473 961.999 289.09ZM954.065 270.417C954.78 270.411 955.49 270.548 956.151 270.819C956.813 271.09 957.414 271.49 957.92 271.995C958.426 272.501 958.826 273.102 959.097 273.764C959.368 274.426 959.504 275.135 959.498 275.851V280.163C960.216 279.345 960.733 278.37 961.008 277.317C961.441 275.488 961.142 273.563 960.175 271.951C959.209 270.34 957.65 269.17 955.833 268.692C955.258 268.533 954.662 268.46 954.065 268.476C952.474 268.475 950.927 269.004 949.67 269.98C948.412 270.957 947.516 272.324 947.123 273.867C946.824 274.976 946.801 276.142 947.057 277.262C947.312 278.382 947.838 279.423 948.589 280.292V275.98C948.571 275.241 948.704 274.506 948.98 273.82C949.256 273.134 949.669 272.511 950.194 271.991C950.719 271.47 951.344 271.062 952.032 270.791C952.72 270.52 953.456 270.393 954.195 270.417H954.065ZM948.589 298.534H948.287L778.182 260.757L780.64 271.711H794.826C795.347 271.711 795.863 271.813 796.344 272.012C796.825 272.212 797.263 272.504 797.631 272.873C797.999 273.241 798.292 273.678 798.491 274.16C798.69 274.641 798.793 275.157 798.793 275.678V296.766C798.793 297.287 798.69 297.803 798.491 298.284C798.292 298.766 797.999 299.203 797.631 299.572C797.263 299.94 796.825 300.232 796.344 300.432C795.863 300.631 795.347 300.734 794.826 300.734H787.108L845.103 560.346H878.564C879.084 560.346 879.6 560.449 880.082 560.648C880.563 560.848 881 561.14 881.369 561.508C881.737 561.877 882.029 562.314 882.229 562.795C882.428 563.277 882.531 563.793 882.531 564.314V593.854H897.622V543.872C897.622 542.82 898.04 541.811 898.784 541.067C899.528 540.323 900.537 539.905 901.589 539.905H935.222V525.544C935.222 524.492 935.64 523.483 936.384 522.739C937.128 521.995 938.137 521.577 939.189 521.577H948.589V298.534ZM964.931 529.425H943.372V539.819H964.931V529.425ZM1002.57 547.711H905.513V593.768H1002.7L1002.57 547.711ZM323.403 618.565H1057.16V601.703H323.532L323.403 618.565Z" fill="#2D3A4D"/>
<path d="M703.27 225.61C700.162 227.446 696.618 228.414 693.008 228.413C691.278 228.408 689.554 228.191 687.877 227.766C685.293 227.114 682.867 225.949 680.741 224.342C678.615 222.734 676.834 220.717 675.502 218.408C674.032 216.109 673.041 213.536 672.587 210.845C672.133 208.154 672.227 205.399 672.862 202.745C673.496 200.09 674.659 197.591 676.281 195.396C677.903 193.201 679.951 191.356 682.301 189.97C684.652 188.584 687.258 187.687 689.964 187.331C692.669 186.975 695.419 187.167 698.048 187.898C700.678 188.628 703.133 189.881 705.267 191.581C707.402 193.281 709.172 195.395 710.471 197.794C711.825 200.093 712.713 202.637 713.084 205.279C713.455 207.922 713.302 210.611 712.633 213.194C711.964 215.777 710.793 218.203 709.187 220.334C707.58 222.464 705.57 224.257 703.27 225.61ZM703.658 201.805C702.832 200.402 701.736 199.177 700.433 198.2C699.131 197.223 697.647 196.513 696.069 196.113C695.054 195.858 694.012 195.728 692.965 195.724C690.224 195.73 687.562 196.643 685.393 198.32C683.225 199.997 681.672 202.344 680.978 204.996C680.164 208.175 680.642 211.547 682.306 214.376C683.97 217.204 686.686 219.258 689.86 220.09C693.042 220.906 696.417 220.441 699.26 218.796C700.663 217.97 701.888 216.873 702.865 215.57C703.842 214.268 704.551 212.785 704.952 211.206C705.742 208.013 705.246 204.637 703.572 201.805H703.658Z" fill="#2D3A4D"/>
<path d="M718.28 245.318L767.953 260.11C748.205 255.496 728.628 251.485 708.707 247.517C710.073 246.526 711.625 245.82 713.269 245.442C714.914 245.064 716.618 245.022 718.28 245.318Z" fill="#2D3A4D"/>
<path d="M692.721 133.624C699.52 134.961 705.836 138.094 711.015 142.697C716.194 147.3 720.046 153.206 722.172 159.801C718.544 152.454 712.789 146.369 705.657 142.336C698.42 138.103 690.097 136.093 681.726 136.557L694.662 133.366C694.662 133.236 693.023 133.711 692.721 133.624Z" fill="#2D3A4D"/>
<path d="M968.598 262.87L876.581 238.461C908.403 248.38 940.139 258.643 971.961 268.648C970.926 267.053 969.589 264.336 968.598 262.87Z" fill="#2D3A4D"/>
<path d="M697.378 193.18C700.822 195.439 703.286 198.915 704.277 202.913C705.269 206.911 704.714 211.136 702.725 214.742C703.544 212.361 703.737 209.808 703.284 207.331C702.831 204.853 701.747 202.534 700.137 200.597C698.523 198.682 696.436 197.222 694.085 196.36C691.733 195.497 689.197 195.264 686.727 195.681C690.024 194.001 693.678 193.142 697.378 193.18Z" fill="#2D3A4D"/>
<path d="M541.356 135.694L539.416 135.392C563.448 144.707 587.882 152.887 612.719 159.93C586.847 153.634 561.234 147.51 535.104 141.171C536.096 138.152 538.554 137.074 541.356 135.694Z" fill="#2D3A4D"/>
<path d="M499.887 102.876C510.189 109.691 521.034 115.648 532.312 120.687C520.627 117.15 509.071 113.183 497.817 108.525C498.086 106.449 498.713 104.436 499.671 102.574C499.671 102.574 499.93 103.092 499.887 102.876Z" fill="#2D3A4D"/>
<path d="M475.786 61.4761L476.131 60.398C480.472 72.6455 485.128 84.7924 490.102 96.8386C482.728 83.9011 475.527 71.438 468.973 58.0261C471.128 59.3928 473.409 60.5482 475.786 61.4761Z" fill="#2D3A4D"/>
<path d="M478.008 57.4655V59.708C474.129 47.0665 470.934 34.2255 468.435 21.2405C469.159 33.9592 470.86 46.6034 473.523 59.0611C473.585 59.3539 473.702 59.6321 473.868 59.8805C474.163 60.0939 474.529 60.186 474.89 60.1379C475.251 60.0897 475.58 59.905 475.809 59.6218C476.326 59.0611 476.585 58.3711 477.102 57.8536C477.62 57.3361 477.534 56.8618 478.008 57.4655Z" fill="#2D3A4D"/>
<path d="M630.742 223.755L671.102 238.375C653.854 234.062 637.037 230.138 619.876 225.825L631.173 224.014C630.828 223.885 631.087 223.885 630.742 223.755Z" fill="#2D3A4D"/>
<path d="M676.413 275.376C652.87 277.015 629.356 278.884 605.87 280.982C630.276 282.017 654.552 281.715 678.914 280.378C678.224 278.783 677.103 276.928 676.413 275.376Z" fill="#2D3A4D"/>
<path d="M792.932 278.309C770.108 279.459 747.283 280.264 724.459 280.724C747.743 281.069 771.071 281.673 794.398 282.018C793.838 280.81 792.932 279.775 792.932 278.309Z" fill="#2D3A4D"/>
<path d="M665.679 313.498C682.811 316.132 700.094 317.673 717.422 318.113C698.292 319.501 679.074 319.053 660.03 316.776L666.11 312.765C665.894 312.636 665.937 313.628 665.679 313.498Z" fill="#2D3A4D"/>
<path d="M713.264 332.56L701.105 360.16C705.91 350.598 711.221 341.298 717.016 332.301C716.418 332.03 715.762 331.912 715.107 331.958C714.453 332.003 713.819 332.21 713.264 332.56Z" fill="#2D3A4D"/>
<path d="M761.75 490.872C748.441 467.872 734.542 445.217 720.054 422.907C732.99 446.324 745.537 469.956 758.43 493.373L761.75 490.872Z" fill="#2D3A4D"/>
<path d="M781.824 296.938C788.723 332.588 794.688 368.397 799.719 404.363C791.354 368.526 783.29 333.12 774.925 297.327C777.512 297.672 779.755 298.534 781.824 296.938Z" fill="#2D3A4D"/>
<path d="M661.094 299.095C654.108 331.18 645.829 362.963 636.257 394.444C643.199 362.014 649.84 330.317 656.825 297.887C658.377 298.06 659.541 299.095 661.094 299.095Z" fill="#2D3A4D"/>
<path d="M966.703 528.563L946.393 530.374C953.594 530.374 960.666 530.892 967.953 531.409C967.746 530.381 967.319 529.411 966.703 528.563Z" fill="#2D3A4D"/>
<path d="M1059.14 598.598L959.967 603.255C993.686 603.773 1027.58 604.635 1061.3 605.196C1060.65 603.04 1059.66 600.711 1059.14 598.598Z" fill="#2D3A4D"/>
<path d="M662.259 492.683L752.422 500.144C715.727 500.144 679.55 499.712 642.899 497.944C649.065 495.917 655.835 492.122 662.259 492.683Z" fill="#2D3A4D"/>
<path d="M876.964 567.419L712.809 571.731C768.088 572.594 824.1 574.319 879.422 575.224C878.344 572.982 876.317 569.747 876.964 567.419Z" fill="#2D3A4D"/>
<path d="M399.078 554.999C398.216 566.039 397.396 577.122 396.534 588.162C396.886 576.9 396.396 565.627 395.068 554.438C396.352 554.897 397.717 555.088 399.078 554.999Z" fill="#2D3A4D"/>
<path d="M411.202 536.886L372.697 540.034C386.02 540.034 399.344 540.595 412.625 541.242C412.237 539.56 411.547 538.439 411.202 536.886Z" fill="#2D3A4D"/>
<path d="M911.123 549.78L986.711 549.479C980.929 549.728 975.21 550.788 969.722 552.627C964.069 554.345 958.988 557.565 955.018 561.942C953.053 564.146 951.542 566.717 950.572 569.507C949.603 572.297 949.194 575.251 949.37 578.2C949.61 581.139 950.611 583.964 952.274 586.399C953.938 588.834 956.206 590.794 958.856 592.086C941.608 592.517 924.749 592.474 907.63 592.345C912.617 590.44 917.295 587.81 921.515 584.539C923.608 583.1 925.333 581.19 926.553 578.962C927.773 576.734 928.452 574.251 928.536 571.712C928.619 569.173 928.106 566.65 927.036 564.346C925.966 562.043 924.37 560.022 922.377 558.449C919.018 555.083 915.235 552.169 911.123 549.78Z" fill="#2D3A4D"/>
<path d="M944.11 531.194L959.633 531.711C958.426 531.708 957.243 532.053 956.226 532.703C955.685 533.024 955.268 533.517 955.041 534.104C954.814 534.69 954.791 535.336 954.976 535.937C955.242 536.451 955.627 536.894 956.097 537.231C957.173 538.084 958.363 538.781 959.633 539.301L943.808 538.999C944.862 538.72 945.818 538.153 946.568 537.36C946.956 536.857 947.197 536.257 947.266 535.625C947.334 534.994 947.227 534.356 946.956 533.781C946.382 532.579 945.36 531.65 944.11 531.194Z" fill="#2D3A4D"/>
<path d="M331.27 615.934C356.739 616.48 382.252 616.581 407.807 616.236C434.713 615.848 461.447 615.33 488.397 615.546L570.798 616.236L653.242 616.883L694.636 617.185H715.247C721.112 617.185 729.39 615.676 735.039 617.185C732.849 616.687 730.753 615.843 728.83 614.684C727.877 614.098 727.081 613.29 726.51 612.328C725.939 611.366 725.611 610.281 725.553 609.164C725.562 608.002 726.013 606.888 726.814 606.047C727.614 605.206 728.705 604.701 729.865 604.635H405.047C405.505 604.995 405.874 605.453 406.129 605.976C406.383 606.499 406.515 607.073 406.515 607.654C406.515 608.236 406.383 608.81 406.129 609.333C405.874 609.856 405.505 610.314 405.047 610.673C403.055 612.067 400.665 612.778 398.235 612.7C375.554 614.468 353.994 616.107 331.27 615.934Z" fill="#2D3A4D"/>
<path d="M372.208 557.759C378.848 558.104 385.532 558.19 392.172 557.759C389.635 559.627 387.493 561.98 385.872 564.682C384.251 567.384 383.183 570.381 382.729 573.499C381.683 577.004 381.579 580.723 382.427 584.281C382.852 586.062 383.834 587.662 385.229 588.848C386.625 590.035 388.362 590.746 390.188 590.879L372.208 590.663C373.415 586.782 374.752 583.073 375.959 579.192C376.272 578.381 376.419 577.516 376.39 576.648C376.364 576.216 376.211 575.801 375.95 575.456C375.689 575.111 375.332 574.85 374.924 574.707C374.511 574.633 374.086 574.684 373.702 574.853C373.318 575.022 372.993 575.301 372.768 575.656C372.292 576.336 371.981 577.119 371.863 577.941C372.529 571.234 372.644 564.484 372.208 557.759Z" fill="#2D3A4D"/>
<path d="M362.621 547.667H397.461C390.089 547.319 382.753 546.425 375.513 544.994C374.168 544.818 372.891 544.298 371.805 543.484C371.29 543.048 370.956 542.434 370.868 541.765C370.78 541.095 370.945 540.417 371.331 539.862H361.284C362.162 540.001 362.969 540.428 363.578 541.076C364.186 541.724 364.563 542.556 364.647 543.441C364.831 544.271 364.732 545.138 364.364 545.905C363.997 546.671 363.383 547.292 362.621 547.667Z" fill="#2D3A4D"/>
<path d="M522.183 591.31C592.324 592.23 662.479 591.597 732.648 589.412C718.675 589.769 704.725 588.055 691.254 584.324C687.914 583.813 684.804 582.311 682.328 580.011C681.755 579.397 681.312 578.673 681.027 577.883C680.742 577.093 680.619 576.254 680.668 575.415C680.716 574.577 680.934 573.757 681.309 573.005C681.683 572.253 682.206 571.585 682.846 571.041C627.696 571.904 571.382 571.817 516.276 572.68C518.886 573.494 521.605 573.901 524.339 573.887C527.407 573.83 530.442 574.526 533.179 575.914C534.528 576.615 535.636 577.705 536.359 579.043C537.082 580.381 537.386 581.905 537.232 583.418C536.898 584.74 536.225 585.953 535.28 586.936C534.335 587.919 533.15 588.639 531.842 589.024C528.747 590.24 525.495 591.01 522.183 591.31Z" fill="#2D3A4D"/>
<path d="M627.033 498.85L684.166 500.316C683.584 500.17 682.971 500.217 682.419 500.45C681.866 500.684 681.405 501.091 681.104 501.61C680.873 502.212 680.863 502.876 681.076 503.484C681.29 504.092 681.712 504.605 682.269 504.93C683.383 505.531 684.625 505.857 685.891 505.879C665.236 506.742 644.755 507.087 624.058 506.569C625.782 506.095 627.292 505.75 628.93 505.146C629.427 505.02 629.892 504.789 630.294 504.469C630.695 504.15 631.024 503.748 631.258 503.292C631.322 502.787 631.233 502.275 631.002 501.821C630.772 501.367 630.41 500.993 629.965 500.747C629.127 499.921 628.129 499.276 627.033 498.85Z" fill="#2D3A4D"/>
<path d="M680.426 395.652C681.59 393.614 683.042 391.755 684.738 390.132C685.593 389.326 686.605 388.704 687.709 388.304C688.814 387.903 689.989 387.733 691.162 387.803C695 388.321 697.415 392.116 699.312 395.479C704.616 405.01 709.919 414.368 715.223 423.899C714.481 422.915 714.006 421.756 713.843 420.535C713.801 419.924 713.983 419.32 714.357 418.835C714.73 418.35 715.269 418.019 715.87 417.904C716.208 417.916 716.541 417.999 716.846 418.148C717.15 418.296 717.42 418.507 717.638 418.767C718.005 419.155 718.298 419.608 718.5 420.104C711.428 408.546 704.917 396.601 699.01 384.396C699.398 385.345 698.234 386.682 697.199 386.682C696.175 386.525 695.241 386.005 694.569 385.216C692.116 382.301 690.295 378.909 689.222 375.254C688.586 373.911 688.347 372.415 688.532 370.941C688.877 369.518 690.3 368.224 691.68 368.612C688.489 367.276 687.368 363.912 685.729 360.807C681.469 352.423 676.687 344.314 671.414 336.528C672.794 339.546 674.13 342.565 675.467 345.584C676.079 346.707 676.474 347.936 676.631 349.206C676.691 349.843 676.584 350.485 676.319 351.068C676.054 351.65 675.642 352.153 675.122 352.527C677.527 357.759 680.552 362.681 684.134 367.189C685.873 369.446 687.105 372.051 687.745 374.827C688.385 377.603 688.418 380.485 687.842 383.275C686.333 388.105 682.754 391.167 680.426 395.652Z" fill="#2D3A4D"/>
<path d="M632.885 480.608C634.567 477.934 636.938 474.01 640.517 475.433C639.957 477.503 639.353 479.745 638.793 481.729L664.664 434.896C663.888 435.844 663.069 436.707 662.293 437.655C661.836 438.221 661.299 438.715 660.697 439.122C660.41 439.345 660.065 439.482 659.703 439.515C659.34 439.548 658.976 439.476 658.654 439.308C658.331 439.14 658.063 438.883 657.883 438.567C657.702 438.251 657.617 437.889 657.636 437.526C657.63 436.839 657.732 436.155 657.937 435.499C650.435 450.809 641.897 466.247 632.885 480.608Z" fill="#2D3A4D"/>
<path d="M663.708 324.927C673.711 324.927 683.327 325.272 693.331 325.272C693.046 324.786 692.915 324.226 692.953 323.664C692.992 323.103 693.198 322.566 693.546 322.124C694.234 321.22 695.233 320.606 696.349 320.399C697.33 320.101 698.343 319.927 699.367 319.881L666.855 319.666C667.933 319.407 669.054 320.916 668.968 322.037C668.883 322.603 668.645 323.135 668.28 323.575C667.916 324.016 667.438 324.349 666.898 324.539C665.867 324.861 664.786 324.993 663.708 324.927Z" fill="#2D3A4D"/>
<path d="M719.306 250.924L754.75 259.247C753.781 259.041 752.778 259.046 751.811 259.262C750.844 259.477 749.934 259.899 749.145 260.498C748.293 261.086 747.628 261.907 747.23 262.863C746.833 263.819 746.719 264.87 746.902 265.889C747.785 268.081 749.486 269.844 751.645 270.805C741.603 270.049 731.527 269.848 721.462 270.201C722.488 270.167 723.486 269.851 724.345 269.288C725.204 268.725 725.893 267.937 726.334 267.01C727.253 265.101 727.437 262.922 726.852 260.886C726.25 258.874 725.285 256.989 724.006 255.323C722.497 253.382 721.591 251.269 719.306 250.924Z" fill="#2D3A4D"/>
<path d="M625.064 228.499L659.344 237.124C656.625 236.758 653.859 237.035 651.268 237.934C648.676 238.833 646.332 240.328 644.425 242.299C642.43 244.294 640.932 246.729 640.049 249.408C639.167 252.088 638.926 254.937 639.346 257.726C639.765 260.516 640.833 263.168 642.464 265.47C644.095 267.771 646.244 269.658 648.736 270.977C637.137 270.977 625.926 270.589 614.241 270.46C619.092 264.885 622.825 258.428 625.236 251.442C625.754 249.932 626.099 247.992 624.891 247.129C624.368 246.787 623.746 246.628 623.123 246.674C622.499 246.721 621.909 246.972 621.442 247.388C620.523 248.243 619.802 249.288 619.329 250.45C621.356 243.248 623.512 235.486 625.064 228.499Z" fill="#2D3A4D"/>
<path d="M595.489 291.764C613.297 290.944 630.804 290.944 648.655 291.764C648.06 291.736 647.477 291.591 646.938 291.338C646.399 291.084 645.916 290.727 645.515 290.286C645.115 289.846 644.805 289.33 644.604 288.77C644.403 288.209 644.314 287.615 644.343 287.02C644.376 286.445 644.523 285.883 644.776 285.366C645.029 284.85 645.383 284.389 645.817 284.011C646.251 283.634 646.756 283.346 647.303 283.167C647.85 282.987 648.427 282.919 649 282.966L604.113 282.104C605.794 282.104 607.304 284.044 607.304 285.683C607.256 286.518 606.998 287.328 606.553 288.037C606.108 288.746 605.491 289.331 604.76 289.737C603.307 290.558 601.683 291.03 600.016 291.117C598.494 291.222 596.98 291.438 595.489 291.764Z" fill="#2D3A4D"/>
<path d="M711.898 291.117L767.953 291.419C762.717 291.448 757.498 290.795 752.43 289.478C750.766 289.118 749.257 288.243 748.118 286.977C747.597 286.379 747.309 285.613 747.309 284.82C747.309 284.027 747.597 283.261 748.118 282.664L712.415 281.888C713.938 282.128 715.401 282.655 716.727 283.44C717.401 283.858 717.947 284.453 718.304 285.161C718.662 285.868 718.817 286.661 718.754 287.451C718.567 288.128 718.218 288.748 717.737 289.259C717.257 289.77 716.658 290.156 715.994 290.384C714.674 290.832 713.293 291.08 711.898 291.117Z" fill="#2D3A4D"/>
<path d="M772.911 302.976C758.165 302.329 743.159 301.294 728.887 302.028C736.95 352.311 768.858 397.506 784.209 446.108C785.71 449.931 786.315 454.047 785.977 458.14C785.769 460.176 784.936 462.098 783.593 463.642C782.249 465.187 780.461 466.277 778.474 466.765C772.653 467.714 768.212 461.849 765.279 456.76C772.523 490.397 786.494 522.31 786.494 556.81V557.802C798.915 557.047 811.371 557.047 823.792 557.802C818.849 557.777 813.965 556.73 809.445 554.728C804.926 552.726 800.869 549.812 797.528 546.167C794.188 542.523 791.637 538.228 790.035 533.551C788.433 528.874 787.815 523.917 788.219 518.989C788.253 515.497 789.217 512.078 791.014 509.083C792.81 506.089 795.373 503.628 798.438 501.955C800.949 501.059 803.638 500.78 806.279 501.14C808.921 501.5 811.437 502.49 813.616 504.025C817.962 507.09 821.523 511.139 824.008 515.841C816.936 482.29 809.85 448.724 802.75 415.144C802.801 416.919 802.243 418.657 801.168 420.07C800.093 421.482 798.566 422.484 796.843 422.907C795.121 423.331 793.327 423.377 791.585 423.042C789.844 422.707 788.195 421.999 786.753 420.966C783.906 418.853 781.454 416.254 779.509 413.29C768.969 397.548 761.399 380.009 757.173 361.54C753.465 347.136 750.921 331.352 756.311 317.682C757.815 313.47 760.332 309.694 763.641 306.685C764.853 305.469 766.3 304.514 767.894 303.876C769.488 303.238 771.195 302.932 772.911 302.976Z" fill="#2D3A4D"/>
<path d="M553.746 555.042C568.254 554.573 582.778 555.12 597.21 556.68C590.373 555.028 584.079 551.639 578.935 546.842C573.791 542.045 569.971 536.001 567.846 529.296C565.841 522.559 565.277 515.475 566.191 508.506C567.105 501.536 569.476 494.837 573.15 488.845C576.944 482.548 582.938 476.554 590.397 476.554C593.546 476.796 596.577 477.859 599.187 479.637C601.797 481.415 603.896 483.846 605.273 486.688C607.926 492.228 609.548 498.205 610.06 504.327C618.08 471.005 626.071 437.684 634.034 404.363C631.231 409.624 630.11 415.662 626.919 420.707C623.728 425.753 617.562 429.807 611.914 427.737C606.265 425.667 604.627 420.017 603.29 414.799C598.164 393.506 599.015 371.211 605.748 350.37C609.142 339.244 614.843 328.958 622.478 320.183C630.209 311.36 640.721 305.441 652.273 303.407C637.354 304.917 622.607 305.046 607.602 305.219C598.633 344.505 590.354 383.792 581.213 423.079C581.946 420.578 585.913 420.578 587.551 422.605C588.262 423.696 588.749 424.917 588.986 426.197C589.223 427.478 589.204 428.792 588.931 430.065C586.948 451.369 576.815 470.862 569.183 490.872C561.367 511.53 556.181 533.089 553.746 555.042Z" fill="#2D3A4D"/>
<path d="M665.67 163.898C688.149 171.143 710.744 177.971 733.453 184.382C722.156 180.07 710.6 174.852 702.709 165.58C700.757 163.48 699.35 160.933 698.613 158.162C698.244 156.769 698.221 155.306 698.544 153.901C698.867 152.496 699.527 151.191 700.467 150.098C701.893 148.902 703.582 148.06 705.395 147.64C707.208 147.22 709.095 147.235 710.902 147.683C704.072 141.79 695.463 138.359 686.453 137.937C687.98 138.776 689.238 140.033 690.077 141.56C690.917 143.087 691.305 144.822 691.196 146.562C691.12 149.487 690.334 152.349 688.907 154.903C687.48 157.457 685.454 159.626 683.004 161.224C677.752 164.221 671.58 165.173 665.67 163.898Z" fill="#2D3A4D"/>
<path d="M690.33 197.061C688.399 197.444 686.596 198.309 685.088 199.576C683.581 200.842 682.417 202.47 681.707 204.306C680.998 206.089 680.757 208.023 681.006 209.925C681.255 211.827 681.986 213.633 683.13 215.174C682.923 214.408 682.886 213.606 683.02 212.824C683.154 212.042 683.456 211.299 683.906 210.645C684.302 210.234 684.789 209.921 685.329 209.734C685.868 209.547 686.445 209.489 687.01 209.567C688.144 209.701 689.226 210.116 690.158 210.775C691.819 211.737 693.076 213.269 693.694 215.087C693.995 215.969 694.002 216.925 693.714 217.811C693.426 218.697 692.86 219.466 692.098 220.004C693.653 219.896 695.166 219.455 696.534 218.711C697.903 217.967 699.096 216.937 700.032 215.691C700.954 214.419 701.593 212.964 701.905 211.424C702.218 209.884 702.197 208.295 701.843 206.764C701.537 207.72 700.972 208.573 700.211 209.228C699.45 209.883 698.523 210.313 697.531 210.473C695.517 210.885 693.422 210.564 691.624 209.567C689.98 208.767 688.603 207.509 687.657 205.945C687.187 205.162 686.883 204.291 686.764 203.386C686.645 202.481 686.714 201.561 686.967 200.684C687.089 199.808 687.477 198.99 688.078 198.342C688.68 197.695 689.466 197.247 690.33 197.061Z" fill="#2D3A4D"/>
<path d="M502.606 113.398C502.052 146.111 491.521 177.873 472.423 204.435C477.381 198.905 483.016 194.022 489.196 189.902C492.095 187.793 495.353 186.23 498.812 185.288C500.55 184.836 502.364 184.76 504.134 185.065C505.903 185.37 507.588 186.049 509.074 187.056C511.551 189.098 513.18 191.987 513.645 195.163C514.076 198.355 514.076 201.589 513.645 204.78L530.289 140.093C529.277 143.162 527.825 146.067 525.977 148.718C525.05 150.021 523.855 151.112 522.471 151.915C521.088 152.718 519.549 153.216 517.957 153.375C516.243 153.364 514.559 152.928 513.055 152.108C511.55 151.288 510.272 150.109 509.333 148.675C507.525 145.823 506.472 142.558 506.272 139.187C505.532 134.199 506.457 129.107 508.902 124.697C510.192 122.553 512.077 120.829 514.327 119.735C516.577 118.64 519.096 118.222 521.579 118.53C515.056 117.667 508.676 115.941 502.606 113.398Z" fill="#2D3A4D"/>
<path d="M719.304 211.81C718.727 215.597 717.13 219.156 714.684 222.104C712.238 225.052 709.035 227.278 705.419 228.542C698.098 230.983 690.156 230.8 682.954 228.025C675.699 225.673 669.393 221.046 664.974 214.828C662.82 211.72 661.435 208.144 660.933 204.395C660.43 200.647 660.825 196.832 662.085 193.266C663.314 189.674 665.64 186.56 668.735 184.362C671.83 182.164 675.537 180.995 679.332 181.019L616.464 162.302C624.131 168.472 630.196 176.402 634.143 185.417C635.227 187.375 635.886 189.538 636.079 191.767C636.272 193.996 635.995 196.24 635.264 198.355C633.857 201.029 631.482 203.065 628.624 204.047C625.847 205.004 622.937 205.513 620 205.557C606.523 206.37 593.058 203.774 580.848 198.01C568.597 192.178 558.631 182.438 552.519 170.324C550.038 166.053 549.181 161.031 550.104 156.179C550.661 153.789 552.122 151.709 554.181 150.374C556.239 149.04 558.734 148.554 561.142 149.02C554.114 147.597 548.207 146.087 541.135 144.707C541.566 154.238 542.084 163.725 542.558 173.256C542.764 175.092 542.617 176.951 542.127 178.733C541.867 179.633 541.355 180.439 540.653 181.058C539.95 181.677 539.085 182.082 538.16 182.226C535.314 182.485 533.287 179.294 532.942 176.447C531.218 182.614 529.493 188.781 527.725 194.948C564.626 203.054 602.115 208.202 639.835 210.344C641.761 210.343 643.673 210.679 645.484 211.335C646.396 211.687 647.201 212.269 647.821 213.025C648.44 213.781 648.854 214.685 649.019 215.648C649.067 216.118 649.017 216.594 648.873 217.044C648.73 217.495 648.495 217.911 648.183 218.267C647.872 218.622 647.491 218.91 647.064 219.113C646.636 219.315 646.172 219.428 645.699 219.443C722.883 236.693 799.808 254.547 876.991 271.926C900.793 277.274 924.077 281.414 947.836 287.063C944.521 286.115 941.535 284.263 939.212 281.715C938.036 280.435 937.164 278.904 936.664 277.238C936.164 275.573 936.047 273.816 936.323 272.099C936.65 270.394 937.483 268.828 938.714 267.605C939.945 266.381 941.516 265.558 943.222 265.242C917.782 255.797 892.686 247.388 866.729 239.367C868.618 240.696 870.303 242.294 871.73 244.11C872.428 244.95 872.923 245.939 873.178 247.001C873.432 248.063 873.438 249.169 873.196 250.234C872.291 253.382 868.885 254.935 865.607 255.797C849.395 260.11 832.147 257.264 815.762 253.382C801.144 249.932 786.311 245.577 774.367 236.477C769.468 233.108 765.673 228.368 763.458 222.85C762.414 220.078 762.196 217.062 762.831 214.168C763.466 211.275 764.927 208.628 767.037 206.549C748.366 202.926 730.429 197.924 712.189 192.49C715.014 194.763 717.168 197.761 718.422 201.164C719.675 204.567 719.98 208.247 719.304 211.81Z" fill="#2D3A4D"/>
<path d="M448.854 78.1223C428.415 97.0973 414.919 122.627 406.64 149.235C399.045 175.876 394.248 203.236 392.324 230.871C395.601 219.443 399.223 207.454 407.761 199.217C410.277 196.433 413.765 194.72 417.506 194.43C420.137 194.738 422.626 195.79 424.681 197.463C426.735 199.136 428.27 201.36 429.105 203.875C432.052 212.722 432.248 222.255 429.665 231.216C426.543 246.722 421.487 261.776 414.617 276.023C429.838 236.909 459.806 205.169 477.398 167.003C469.033 174.852 457.909 181.234 446.827 178.431C440.309 176.521 434.76 172.204 431.304 166.356C427.891 160.534 425.759 154.05 425.052 147.338C423.208 134.738 424.407 121.881 428.548 109.839C432.689 97.7976 439.651 86.9224 448.854 78.1223Z" fill="#2D3A4D"/>
<path d="M361.775 253.727C362.324 246.038 363.771 238.439 366.087 231.087C367.165 227.68 369.019 223.842 372.512 223.152C373.754 223.01 375.011 223.194 376.16 223.685C377.309 224.177 378.311 224.959 379.066 225.955C380.548 227.96 381.672 230.207 382.386 232.596C381.498 191.826 389.564 151.358 406.016 114.046C403.566 117.881 400.351 121.17 396.572 123.706C394.764 124.989 392.602 125.678 390.385 125.678C388.168 125.678 386.006 124.989 384.197 123.706C382.976 122.409 382.035 120.874 381.434 119.197C380.833 117.52 380.584 115.737 380.705 113.959C380.901 105.409 382.428 96.9408 385.232 88.8606C364.916 141.301 356.892 197.701 361.775 253.727Z" fill="#2D3A4D"/>
<path d="M361.388 259.247C363.002 263.928 365.052 268.448 367.511 272.745C368.073 274.057 368.911 275.233 369.967 276.193C371.024 277.153 372.274 277.874 373.633 278.309C374.912 278.707 376.292 278.619 377.51 278.062C378.727 277.505 379.696 276.518 380.231 275.29C381.416 271.839 381.943 268.197 381.783 264.552C382.006 276.764 383.232 288.938 385.448 300.949C386.055 304.434 387.22 307.797 388.898 310.911C390.632 314.043 393.528 316.367 396.961 317.38C394.23 315.983 391.332 314.94 388.337 314.275C386.616 313.75 384.789 313.674 383.03 314.054C381.271 314.434 379.638 315.257 378.286 316.445C376.934 317.633 375.908 319.146 375.305 320.842C374.702 322.538 374.542 324.359 374.841 326.134C369.839 303.795 365.053 281.629 361.388 259.247Z" fill="#2D3A4D"/>
<path d="M446.896 10.0713L467.938 18.6963C467.345 18.6316 466.747 18.7775 466.251 19.1086C465.754 19.4397 465.39 19.9349 465.221 20.5075C464.94 21.6694 464.94 22.8819 465.221 24.0438C466.092 33.8993 468.089 43.6226 471.172 53.0238C467.796 48.6067 465.294 43.5865 463.798 38.2319C462.125 32.8694 460.094 27.6251 457.719 22.5344C455.568 17.3097 451.767 12.9324 446.896 10.0713Z" fill="#2D3A4D"/>
<path d="M130.757 452.77V482.697H2.0872L0 459.201L73.1747 341.473H103.5L70.5964 396.38L37.324 452.77H130.757ZM111.604 341.473V521.527H73.2975V341.473H111.604Z" fill="white"/>
<path d="M271.827 415.424V447.453C271.827 460.643 270.353 472.062 267.407 481.707C264.542 491.353 260.368 499.309 254.884 505.574C249.481 511.84 243.015 516.498 235.485 519.548C228.037 522.516 219.77 524 210.684 524C203.399 524 196.606 523.052 190.303 521.156C184.001 519.26 178.312 516.333 173.237 512.376C168.244 508.336 163.947 503.307 160.346 497.289C156.744 491.271 153.962 484.098 151.997 475.771C150.115 467.445 149.173 458.005 149.173 447.453V415.424C149.173 402.068 150.606 390.609 153.47 381.045C156.417 371.482 160.632 363.568 166.116 357.302C171.6 351.037 178.067 346.42 185.515 343.452C193.045 340.484 201.353 339 210.439 339C217.723 339 224.476 339.948 230.697 341.844C236.999 343.74 242.688 346.667 247.763 350.624C252.837 354.582 257.135 359.569 260.654 365.588C264.256 371.606 266.998 378.778 268.88 387.105C270.845 395.349 271.827 404.789 271.827 415.424ZM233.521 452.275V410.354C233.521 404.17 233.152 398.812 232.416 394.277C231.761 389.661 230.779 385.745 229.469 382.529C228.241 379.314 226.686 376.717 224.803 374.739C222.921 372.76 220.752 371.317 218.296 370.41C215.923 369.421 213.303 368.926 210.439 368.926C206.837 368.926 203.604 369.668 200.739 371.152C197.874 372.636 195.46 374.986 193.495 378.201C191.531 381.334 190.017 385.58 188.953 390.939C187.971 396.215 187.479 402.687 187.479 410.354V452.275C187.479 458.459 187.807 463.859 188.462 468.475C189.198 473.092 190.181 477.049 191.408 480.347C192.718 483.562 194.314 486.2 196.197 488.261C198.079 490.24 200.248 491.683 202.704 492.59C205.159 493.496 207.819 493.95 210.684 493.95C214.286 493.95 217.478 493.249 220.261 491.848C223.044 490.364 225.417 488.014 227.382 484.799C229.428 481.501 230.942 477.173 231.924 471.814C232.989 466.455 233.521 459.943 233.521 452.275Z" fill="white"/>
<path d="M421 452.77V482.697H292.33L290.243 459.201L363.418 341.473H393.744L360.84 396.38L327.567 452.77H421ZM401.847 341.473V521.527H363.541V341.473H401.847Z" fill="white"/>
</svg>
