<svg width="32" height="32" viewBox="0 0 32 32" fill="none" xmlns="http://www.w3.org/2000/svg">
<rect width="32" height="32" fill="#CE0E2D"/>
<path d="M19.5544 15.5422H12.2383V14.1449H21.8949V12H9V20.9474H19.5398C20.3514 20.9474 21.1298 20.6755 21.7037 20.1917C22.2776 19.7078 22.6 19.0516 22.6 18.3673V18.1253C22.601 17.4426 22.281 16.7874 21.7101 16.3033C21.1393 15.8191 20.3641 15.5454 19.5544 15.5422ZM19.3763 18.1283C19.3763 18.2187 19.3551 18.3082 19.314 18.3917C19.2728 18.4752 19.2125 18.551 19.1365 18.6148C19.0606 18.6785 18.9704 18.729 18.8712 18.7633C18.772 18.7977 18.6657 18.8151 18.5585 18.8147H12.2383V17.396H18.5585C18.6657 17.3956 18.772 17.4131 18.8712 17.4474C18.9704 17.4817 19.0606 17.5322 19.1365 17.5959C19.2125 17.6597 19.2728 17.7355 19.314 17.819C19.3551 17.9025 19.3763 17.992 19.3763 18.0824V18.1283Z" fill="white"/>
</svg>
