<svg width="32" height="32" viewBox="0 0 32 32" fill="none" xmlns="http://www.w3.org/2000/svg">
<rect width="32" height="32" fill="#CE0E2D"/>
<path d="M15.8091 13.7136C15.2952 13.7136 14.8139 13.9129 14.4495 14.2773C14.0869 14.6417 13.8858 15.1229 13.8858 15.6368C13.8858 16.1507 14.0869 16.632 14.4495 16.9964C14.8139 17.359 15.2952 17.5601 15.8091 17.5601C16.323 17.5601 16.8042 17.359 17.1686 16.9964C17.5313 16.632 17.7323 16.1507 17.7323 15.6368C17.7323 15.1229 17.5313 14.6417 17.1686 14.2773C16.9906 14.098 16.7788 13.9558 16.5454 13.859C16.312 13.7622 16.0617 13.7128 15.8091 13.7136ZM22.8955 17.7612L21.7714 16.8004C21.8247 16.4739 21.8522 16.1404 21.8522 15.8087C21.8522 15.477 21.8247 15.1418 21.7714 14.817L22.8955 13.8562C22.9804 13.7835 23.0412 13.6867 23.0697 13.5786C23.0983 13.4706 23.0932 13.3564 23.0553 13.2512L23.0398 13.2065C22.7305 12.3415 22.267 11.5396 21.6717 10.8398L21.6408 10.8037C21.5685 10.7187 21.4722 10.6576 21.3645 10.6285C21.2568 10.5993 21.1428 10.6035 21.0375 10.6404L19.6419 11.1371C19.1263 10.7143 18.5522 10.3809 17.93 10.1489L17.6602 8.68965C17.6398 8.57972 17.5865 8.47859 17.5073 8.39969C17.4281 8.32079 17.3267 8.26786 17.2167 8.24793L17.1703 8.23934C16.2766 8.07777 15.3347 8.07777 14.4409 8.23934L14.3945 8.24793C14.2845 8.26786 14.1832 8.32079 14.104 8.39969C14.0248 8.47859 13.9715 8.57972 13.9511 8.68965L13.6795 10.1557C13.0632 10.3896 12.4891 10.7223 11.9797 11.1406L10.5738 10.6404C10.4685 10.6032 10.3544 10.5989 10.2467 10.6281C10.1389 10.6572 10.0426 10.7185 9.97047 10.8037L9.93953 10.8398C9.34535 11.5403 8.88194 12.342 8.57141 13.2065L8.55594 13.2512C8.4786 13.4661 8.54219 13.7067 8.71578 13.8562L9.8536 14.8273C9.80032 15.1504 9.77453 15.4804 9.77453 15.807C9.77453 16.137 9.80032 16.467 9.8536 16.7867L8.71922 17.7578C8.63431 17.8305 8.57353 17.9273 8.54498 18.0354C8.51643 18.1434 8.52145 18.2576 8.55938 18.3628L8.57485 18.4075C8.88594 19.272 9.34485 20.0712 9.94297 20.7742L9.97391 20.8103C10.0462 20.8953 10.1425 20.9564 10.2502 20.9855C10.3579 21.0147 10.4719 21.0105 10.5772 20.9736L11.9831 20.4734C12.4953 20.8945 13.0659 21.2279 13.683 21.4582L13.9545 22.9243C13.9749 23.0343 14.0282 23.1354 14.1074 23.2143C14.1866 23.2932 14.288 23.3461 14.398 23.3661L14.4444 23.3746C15.3469 23.5371 16.2712 23.5371 17.1738 23.3746L17.2202 23.3661C17.3302 23.3461 17.4315 23.2932 17.5107 23.2143C17.5899 23.1354 17.6432 23.0343 17.6636 22.9243L17.9334 21.4651C18.5556 21.2314 19.1297 20.8996 19.6453 20.4768L21.0409 20.9736C21.1462 21.0108 21.2603 21.0151 21.368 20.9859C21.4758 20.9568 21.5721 20.8955 21.6442 20.8103L21.6752 20.7742C22.2733 20.0678 22.7322 19.272 23.0433 18.4075L23.0588 18.3628C23.1327 18.1496 23.0691 17.9107 22.8955 17.7612ZM15.8091 18.6584C14.1402 18.6584 12.7875 17.3057 12.7875 15.6368C12.7875 13.9679 14.1402 12.6153 15.8091 12.6153C17.478 12.6153 18.8306 13.9679 18.8306 15.6368C18.8306 17.3057 17.478 18.6584 15.8091 18.6584Z" fill="white"/>
</svg>
