<svg width="32" height="32" viewBox="0 0 32 32" fill="none" xmlns="http://www.w3.org/2000/svg">
<rect width="32" height="32" fill="#CE0E2D"/>
<path d="M21.8396 20.808L17.5819 14.0214V10.7772H18.571V9H12.5313V10.779H13.5285V14.0232L9.26266 20.808C9.10316 21.0607 9.01255 21.3534 9.00042 21.6551C8.9883 21.9568 9.05511 22.2563 9.19379 22.5219C9.33246 22.7875 9.53785 23.0093 9.78822 23.1639C10.0386 23.3184 10.3246 23.4 10.6161 23.4H20.481C20.773 23.3995 21.0594 23.3174 21.3101 23.1622C21.5608 23.0071 21.7663 22.7847 21.9051 22.5186C22.0439 22.2524 22.1108 21.9524 22.0986 21.6502C22.0865 21.3479 21.9958 21.0547 21.8362 20.8014L21.8402 20.808H21.8396ZM21.3155 22.1892C21.2344 22.3441 21.1144 22.4734 20.9683 22.5636C20.8221 22.6538 20.6552 22.7015 20.4851 22.7016H10.6161C10.4452 22.7019 10.2775 22.6542 10.1307 22.5637C9.98381 22.4732 9.86334 22.3433 9.782 22.1876C9.70067 22.0319 9.66151 21.8563 9.66867 21.6795C9.67583 21.5026 9.72905 21.3311 9.82268 21.183L9.82037 21.1866L14.1922 14.2266V10.776H16.906V14.2284L21.2733 21.1884C21.3717 21.339 21.4308 21.525 21.4308 21.7254C21.4308 21.8964 21.3879 22.0572 21.3126 22.1964L21.3149 22.1916L21.3155 22.1892Z" fill="white"/>
<path d="M17.9465 15.5828H13.1752L10.6901 18.6685L9.59684 21.3428L9.6294 22.4331C9.60954 22.4677 9.59827 22.5079 9.59684 22.5495C9.5954 22.591 9.60386 22.6322 9.62127 22.6686L9.62059 22.6678C9.65448 22.7363 9.71684 22.782 9.78868 22.7828H21.3324C21.3665 22.7828 21.4 22.7722 21.4295 22.7521C21.4589 22.732 21.4832 22.7032 21.4998 22.6686L21.5005 22.6678C21.518 22.6316 21.5264 22.5904 21.5249 22.549C21.5233 22.5075 21.5118 22.4674 21.4917 22.4331L21.4924 22.4339L21.5249 21.6513L20.3322 19.0799L17.9465 15.5828Z" fill="white"/>
</svg>
