<svg width="43" height="60" viewBox="0 0 43 60" fill="none" xmlns="http://www.w3.org/2000/svg">
<path d="M43 21.8182C43 33.868 27.2333 60 21.5 60C15.05 60 0 33.868 0 21.8182C0 9.76833 9.62588 0 21.5 0C33.3741 0 43 9.76833 43 21.8182Z" fill="#2D3A4D"/>
<path d="M26.7451 22.5425H16.5241V20.3562H30.015V17H12V31H26.7247C27.8586 31 28.946 30.5747 29.7478 29.8176C30.5496 29.0605 31 28.0337 31 26.963V26.5842C31.0014 25.516 30.5543 24.4909 29.7568 23.7333C28.9593 22.9758 27.8763 22.5475 26.7451 22.5425ZM26.4963 26.589C26.4963 26.7305 26.4667 26.8705 26.4092 27.0011C26.3517 27.1317 26.2675 27.2504 26.1613 27.3501C26.0552 27.4499 25.9292 27.529 25.7906 27.5826C25.652 27.6363 25.5036 27.6636 25.3538 27.663H16.5241V25.4431H25.3538C25.5036 25.4425 25.652 25.4698 25.7906 25.5235C25.9292 25.5772 26.0552 25.6562 26.1613 25.756C26.2675 25.8558 26.3517 25.9744 26.4092 26.105C26.4667 26.2356 26.4963 26.3757 26.4963 26.5171V26.589Z" fill="white"/>
</svg>
