<svg width="66" height="91" viewBox="0 0 66 91" fill="none" xmlns="http://www.w3.org/2000/svg">
<path d="M66 33.0909C66 51.3665 41.8 91 33 91C23.1 91 0 51.3665 0 33.0909C0 14.8153 14.7746 0 33 0C51.2254 0 66 14.8153 66 33.0909Z" fill="#CE0E2D"/>
<path d="M42.6098 33.5014H24.8576V29.7534H48.2891V24H17V48H42.5746C44.5439 48 46.4326 47.2709 47.8251 45.973C49.2177 44.6751 50 42.9149 50 41.0794V40.4301C50.0023 38.5989 49.2259 36.8416 47.8407 35.5429C46.4556 34.2442 44.5746 33.5101 42.6098 33.5014ZM42.1777 40.4383C42.1777 40.6808 42.1263 40.9209 42.0265 41.1448C41.9267 41.3687 41.7804 41.572 41.596 41.7431C41.4116 41.9142 41.1928 42.0496 40.9521 42.1417C40.7115 42.2337 40.4536 42.2805 40.1935 42.2794H24.8576V38.474H40.1935C40.4536 38.4729 40.7115 38.5197 40.9521 38.6118C41.1928 38.7038 41.4116 38.8392 41.596 39.0103C41.7804 39.1813 41.9267 39.3847 42.0265 39.6086C42.1263 39.8325 42.1777 40.0726 42.1777 40.315V40.4383Z" fill="white"/>
</svg>
