<svg width="229" height="19" viewBox="0 0 229 19" fill="none" xmlns="http://www.w3.org/2000/svg">
<path d="M17.8586 7.61398H5.5687V4.87798H21.7904V0.677979H0.128906V18.198H17.8342C19.1976 18.198 20.5051 17.6657 21.4691 16.7183C22.4332 15.7708 22.9748 14.4858 22.9748 13.146V12.672C22.9764 11.3352 22.4389 10.0523 21.4799 9.10427C20.521 8.15623 19.2188 7.62033 17.8586 7.61398ZM17.5594 12.678C17.5594 12.855 17.5239 13.0302 17.4548 13.1937C17.3856 13.3571 17.2844 13.5056 17.1567 13.6305C17.0291 13.7553 16.8776 13.8542 16.711 13.9214C16.5443 13.9886 16.3659 14.0228 16.1857 14.022H5.5687V11.244H16.1857C16.3659 11.2432 16.5443 11.2774 16.711 11.3446C16.8776 11.4118 17.0291 11.5106 17.1567 11.6355C17.2844 11.7604 17.3856 11.9088 17.4548 12.0723C17.5239 12.2357 17.5594 12.411 17.5594 12.588V12.678Z" fill="white"/>
<path d="M172.723 8.65802C173.401 7.68205 173.763 6.52758 173.761 5.34601C173.761 4.73142 173.638 4.12286 173.399 3.55505C173.16 2.98725 172.809 2.47136 172.367 2.03678C171.924 1.6022 171.399 1.25746 170.822 1.02227C170.244 0.787074 169.625 0.666016 168.999 0.666016H152.094V18.186H170.171C171.444 18.186 172.665 17.6892 173.565 16.8047C174.465 15.9203 174.97 14.7208 174.97 13.47V12.996C174.967 12.1506 174.763 11.3176 174.372 10.5641C173.982 9.81065 173.417 9.15777 172.723 8.65802ZM157.54 4.87803H166.948C167.312 4.87803 167.662 5.02025 167.919 5.27343C168.177 5.5266 168.322 5.86999 168.322 6.22803V6.30002C168.322 6.47703 168.286 6.65227 168.217 6.81572C168.148 6.97918 168.046 7.12762 167.919 7.2525C167.791 7.37738 167.64 7.47627 167.473 7.54346C167.306 7.61065 167.128 7.64481 166.948 7.64402H157.54V4.87803ZM169.53 12.678C169.53 12.855 169.495 13.0303 169.426 13.1937C169.357 13.3572 169.255 13.5056 169.128 13.6305C169 13.7554 168.849 13.8543 168.682 13.9215C168.515 13.9886 168.337 14.0228 168.157 14.022H157.54V11.244H168.157C168.337 11.2432 168.515 11.2774 168.682 11.3446C168.849 11.4118 169 11.5107 169.128 11.6355C169.255 11.7604 169.357 11.9089 169.426 12.0723C169.495 12.2358 169.53 12.411 169.53 12.588V12.678Z" fill="white"/>
<path d="M105.705 0.671997H100.266V18.192H105.705H123.142V14.022H105.705V11.244H121.933V7.614H105.705V4.88399H123.142V0.671997H105.705Z" fill="white"/>
<path d="M34.8869 9.29996L34.7954 9.42598L34.3253 8.78397L28.3055 0.641968H23L28.5436 8.14197L32.1457 13.008C31.9583 13.2959 31.7038 13.5358 31.4034 13.7079C31.103 13.8801 30.7652 13.9795 30.4179 13.998H26.3945V18.198H30.9246C31.6435 18.2001 32.3554 18.0592 33.0174 17.7839C33.6795 17.5086 34.278 17.1045 34.7771 16.5959C34.7771 16.5959 34.9175 16.44 35.064 16.254L35.2105 16.062L35.5768 15.564L36.7124 14.028L37.4451 13.038L46.6029 0.67196H41.2975L34.8869 9.29996Z" fill="white"/>
<path d="M65.242 0.666016H47.9336V18.186H53.3734V13.596H65.242C66.6054 13.596 67.9129 13.0638 68.877 12.1163C69.8411 11.1689 70.3827 9.88389 70.3827 8.54402V5.70002C70.3778 4.36327 69.8341 3.0829 68.8705 2.13936C67.907 1.19581 66.6022 0.666007 65.242 0.666016ZM64.9429 7.41001C64.9437 7.67526 64.8912 7.93809 64.7885 8.18337C64.6857 8.42866 64.5348 8.6516 64.3442 8.83944C64.1536 9.02728 63.9272 9.17629 63.6779 9.27798C63.4286 9.37967 63.1614 9.43201 62.8915 9.43201H53.3734V4.83602H62.8854C63.1553 4.83602 63.4225 4.88836 63.6718 4.99005C63.9211 5.09174 64.1475 5.24079 64.3381 5.42863C64.5287 5.61646 64.6796 5.83941 64.7824 6.08469C64.8851 6.32998 64.9376 6.59277 64.9368 6.85802L64.9429 7.41001Z" fill="white"/>
<path d="M144.129 0.666016H126.82V18.186H132.26V13.596H144.129C145.492 13.596 146.8 13.0638 147.764 12.1163C148.728 11.1689 149.269 9.88389 149.269 8.54402V5.70002C149.265 4.36327 148.721 3.0829 147.757 2.13936C146.794 1.19581 145.489 0.666007 144.129 0.666016ZM143.83 7.41001C143.83 7.94628 143.613 8.46061 143.227 8.83981C142.841 9.21901 142.318 9.43201 141.772 9.43201H132.26V4.83602H141.772C142.318 4.83602 142.841 5.04906 143.227 5.42826C143.613 5.80746 143.83 6.32175 143.83 6.85802V7.41001Z" fill="white"/>
<path d="M92.3193 0.666016H77.8438C76.4798 0.667606 75.1723 1.20122 74.2084 2.14961C73.2445 3.098 72.7031 4.38358 72.7031 5.72401V13.074C72.7031 13.7372 72.8361 14.3938 73.0946 15.0064C73.353 15.619 73.7317 16.1756 74.2092 16.6442C74.6866 17.1128 75.2533 17.4844 75.877 17.7376C76.5006 17.9909 77.169 18.1208 77.8438 18.12H92.3193C92.9946 18.1216 93.6636 17.9922 94.288 17.7394C94.9124 17.4865 95.4798 17.115 95.9579 16.6463C96.436 16.1776 96.8153 15.6208 97.0741 15.0078C97.3329 14.3948 97.4661 13.7377 97.4661 13.074V11.274H92.0202C92.0137 11.9843 91.7221 12.6634 91.2087 13.1635C90.6953 13.6635 90.0017 13.944 89.2789 13.944H80.8842C80.1582 13.9424 79.4625 13.6579 78.9498 13.1529C78.437 12.6478 78.149 11.9635 78.149 11.25V7.60802C78.1482 7.25424 78.2183 6.90378 78.3553 6.57662C78.4924 6.24947 78.6936 5.95202 78.9476 5.70131C79.2016 5.45059 79.5033 5.25152 79.8356 5.11541C80.1679 4.97929 80.5242 4.90881 80.8842 4.90802H89.2789C89.6394 4.90802 89.9964 4.97789 90.3294 5.11365C90.6623 5.24941 90.9648 5.44838 91.2194 5.69918C91.4741 5.94998 91.6759 6.24769 91.8133 6.57523C91.9507 6.90278 92.021 7.25373 92.0202 7.60802V7.64402H97.4661V5.70002C97.4596 4.36272 96.9145 3.08236 95.95 2.13899C94.9855 1.19561 93.6801 0.666001 92.3193 0.666016Z" fill="white"/>
<path d="M228.163 7.61396V5.69996C228.163 4.35954 227.622 3.07391 226.658 2.12552C225.694 1.17714 224.386 0.643558 223.022 0.641968H208.547C207.871 0.641967 207.202 0.77285 206.578 1.02711C205.954 1.28137 205.387 1.65401 204.91 2.12377C204.432 2.59352 204.054 3.15117 203.796 3.76479C203.538 4.37842 203.405 5.03602 203.406 5.69996V13.05C203.406 13.7131 203.539 14.3698 203.798 14.9824C204.056 15.595 204.435 16.1515 204.912 16.6202C205.39 17.0888 205.956 17.4604 206.58 17.7136C207.204 17.9668 207.872 18.0967 208.547 18.0959H223.022C223.697 18.0967 224.366 17.9668 224.989 17.7136C225.613 17.4604 226.18 17.0888 226.657 16.6202C227.135 16.1515 227.513 15.595 227.772 14.9824C228.03 14.3698 228.163 13.7131 228.163 13.05V11.25H222.717C222.711 11.9593 222.42 12.6374 221.908 13.1373C221.396 13.6372 220.704 13.9184 219.982 13.92H211.587C210.86 13.92 210.163 13.6361 209.649 13.1309C209.135 12.6257 208.846 11.9405 208.846 11.226V7.58397C208.845 7.22969 208.916 6.87873 209.053 6.55118C209.19 6.22364 209.392 5.92593 209.647 5.67513C209.901 5.42434 210.204 5.22536 210.537 5.0896C210.87 4.95384 211.227 4.88397 211.587 4.88397H219.982C220.342 4.88476 220.698 4.95521 221.031 5.09132C221.363 5.22743 221.665 5.42654 221.919 5.67726C222.173 5.92798 222.374 6.22539 222.511 6.55254C222.648 6.87969 222.718 7.23019 222.717 7.58397V7.61997L228.163 7.61396Z" fill="white"/>
<path d="M194.519 2.48399L182.955 11.244V0.671997H177.516V18.192H182.955V16.38L194.519 7.614V18.192H199.965V0.671997H194.519V2.48399Z" fill="white"/>
</svg>
