<svg width="28" height="28" viewBox="0 0 28 28" fill="none" xmlns="http://www.w3.org/2000/svg">
<path d="M13.4749 2.8251C11.9391 4.47609 9.88222 6.71365 8.19254 9.11384C6.50317 11.514 5.13586 14.0749 5.13586 16.5271C5.13586 17.9971 5.6798 20.1204 7.06014 21.9841C8.44052 23.848 10.732 25.3979 14.0055 25.3979C17.2787 25.3979 19.5702 23.848 20.9509 21.9841C22.3312 20.1203 22.8751 17.997 22.8751 16.5271C22.8751 14.0596 21.4356 11.5091 19.7234 9.11384C18.0112 6.71863 15.9786 4.48179 14.6153 2.85678C14.1726 2.49193 13.9033 2.52304 13.475 2.82513L13.4749 2.8251ZM14.0133 4.49627C15.3629 6.07518 17.0395 7.9671 18.4876 9.9931C20.1271 12.2869 21.3545 14.6862 21.3545 16.5271C21.3545 17.5916 20.8848 19.5155 19.731 21.0732C18.5773 22.631 16.8142 23.8769 14.0057 23.8769C11.1972 23.8769 9.43381 22.6309 8.28033 21.0732C7.12657 19.5153 6.65689 17.5914 6.65689 16.5271C6.65689 14.6709 7.82567 12.2813 9.43657 9.9931C10.8666 7.96149 12.5703 6.06075 14.0139 4.49627H14.0133ZM7.92365 15.5135C6.40307 17.541 9.44422 23.3702 13.7522 22.3565C9.95096 20.5823 8.43047 15.5135 7.92365 15.5135Z" fill="white"/>
</svg>
