<svg width="28" height="28" viewBox="0 0 28 28" fill="none" xmlns="http://www.w3.org/2000/svg">
<path d="M13.4749 2.82513C11.9391 4.47612 9.88222 6.71368 8.19254 9.11387C6.50317 11.514 5.13586 14.0749 5.13586 16.5271C5.13586 17.9971 5.6798 20.1205 7.06014 21.9841C8.44052 23.848 10.732 25.3979 14.0055 25.3979C17.2787 25.3979 19.5702 23.848 20.9509 21.9841C22.3312 20.1203 22.8751 17.997 22.8751 16.5271C22.8751 14.0597 21.4356 11.5091 19.7234 9.11387C18.0112 6.71866 15.9786 4.48182 14.6153 2.85681C14.1726 2.49196 13.9033 2.52307 13.475 2.82516L13.4749 2.82513ZM14.0133 4.49631C15.3629 6.07521 17.0395 7.96713 18.4876 9.99313C20.1271 12.2869 21.3545 14.6863 21.3545 16.5271C21.3545 17.5916 20.8848 19.5156 19.731 21.0732C18.5773 22.6311 16.8142 23.8769 14.0057 23.8769C11.1972 23.8769 9.43381 22.6309 8.28033 21.0732C7.12657 19.5153 6.65689 17.5914 6.65689 16.5271C6.65689 14.6709 7.82567 12.2814 9.43657 9.99313C10.8666 7.96152 12.5703 6.06078 14.0139 4.49631H14.0133ZM7.92365 15.5135C6.40307 17.541 9.44422 23.3702 13.7522 22.3566C9.95096 20.5824 8.43047 15.5135 7.92365 15.5135Z" fill="#2D3A4D"/>
</svg>
