<svg width="246" height="156" viewBox="0 0 246 156" fill="none" xmlns="http://www.w3.org/2000/svg">
<path d="M83.3064 93.3308H96.4866V97.6302H90.2167V127.839H83.3064V93.3308Z" fill="#0079C2"/>
<path d="M104.301 114.884L105.485 97.6302H105.882L107.066 114.884H104.301ZM96.6481 127.839H103.414L104.054 118.675H107.312L107.956 127.839H114.718L111.115 93.3308H100.252L96.6481 127.839Z" fill="#0079C2"/>
<path d="M124.615 115.761V122.267C124.615 123.144 125.295 123.398 125.692 123.398C126.343 123.398 126.797 122.861 126.797 122.267V114.234C126.797 113.159 126.598 111.971 124.02 111.971H121.215V108.181H124.133C126.088 108.181 126.797 107.728 126.797 105.607V98.7617C126.797 98.1677 126.343 97.6302 125.692 97.6302C125.295 97.6302 124.615 97.8565 124.615 98.7617V104.391H117.702V99.4971C117.702 97.0928 117.985 93.3308 122.83 93.3308H128.553C133.398 93.3308 133.71 97.0928 133.71 99.4971V105.013C133.71 108.775 131.075 109.793 129.006 109.708V110.048C133.653 109.934 133.71 113.498 133.71 114.715V121.673C133.71 124.106 133.398 127.839 128.553 127.839H122.83C117.985 127.839 117.702 124.106 117.702 121.673V115.761H124.615Z" fill="#0079C2"/>
<path d="M138.243 93.3308H154.251V127.839H147.337V97.6302H145.156V127.839H138.243V93.3308Z" fill="#0079C2"/>
<path d="M165.697 112.31V97.6302H166.603C167.34 97.6302 167.878 98.2525 167.878 99.3557V110.585C167.878 111.688 167.34 112.31 166.603 112.31H165.697ZM158.784 127.839H165.697V116.101H169.663C174.48 116.101 174.792 112.367 174.792 109.934V99.4971C174.792 97.0928 174.48 93.3308 169.663 93.3308H158.784V127.839Z" fill="#0079C2"/>
<path d="M188.419 122.267C188.419 122.861 187.966 123.398 187.314 123.398C186.918 123.398 186.238 123.144 186.238 122.267V98.7617C186.238 97.8565 186.918 97.6302 187.314 97.6302C187.966 97.6302 188.419 98.1677 188.419 98.7617V122.267ZM179.325 121.673C179.325 124.106 179.636 127.839 184.453 127.839H190.204C195.021 127.839 195.332 124.106 195.332 121.673V99.4971C195.332 97.0928 195.021 93.3308 190.204 93.3308H184.453C179.636 93.3308 179.325 97.0928 179.325 99.4971V121.673Z" fill="#0079C2"/>
<path d="M217.828 93.3308H226.838V127.839H219.925V106.201H219.67L216.1 127.839H210.575L207.034 106.201H206.779V127.839H199.866V93.3308H208.847L213.352 117.6L217.828 93.3308Z" fill="#0079C2"/>
<path d="M74.3477 46.1504C72.2313 36.901 66.9275 29.377 66.1965 28.1607C65.0405 29.8861 60.8105 36.5332 58.6601 43.8875C56.3113 52.1186 55.9657 59.4163 56.776 66.5726C57.5806 73.7571 60.6207 81.1397 60.6207 81.1397C62.2356 84.9865 64.6552 89.1445 66.2305 91.1811C68.5396 88.1828 73.8462 79.2446 75.5008 67.5909C76.4216 61.0852 76.4613 55.3998 74.3477 46.1504ZM66.1965 88.8617C65.1567 86.91 63.5418 83.2046 63.3888 77.4343C63.3491 71.8903 65.5788 67.11 66.2305 66.12C66.8113 67.11 68.7322 71.268 68.9617 76.9534C69.1176 82.4974 67.2703 86.8817 66.1965 88.8617ZM73.7329 61.8489C73.6536 65.3846 73.2314 69.1183 72.6931 71.3529C72.8858 67.506 72.4239 62.1035 71.54 57.8606C70.656 53.6461 68.1542 46.5747 66.1568 43.3218C64.3124 46.4332 62.0401 52.5429 60.8502 57.8323C59.6546 63.1217 59.6206 69.5426 59.6206 71.466C59.3032 69.8537 58.5099 64.0552 58.7338 58.2566C58.9208 53.4763 60.0427 48.5264 60.6575 46.2635C63.0034 38.7113 65.6582 33.8744 66.1568 33.1107C66.6555 33.8744 69.9987 39.8427 71.7326 46.0938C73.4581 52.3449 73.8066 58.3415 73.7329 61.8489Z" fill="#0079C2"/>
<path d="M69.7862 93.3308H53.6963V104.108C53.7104 104.108 53.7218 104.079 53.7359 104.079C57.5268 100.289 63.6749 100.289 67.4686 104.079C71.2595 107.841 71.2595 113.979 67.4686 117.77C67.4516 117.798 67.4346 117.798 67.4176 117.826C67.3978 117.826 67.378 117.854 67.361 117.883C63.5786 121.616 58.6374 123.483 53.6963 123.483C48.7324 123.483 43.7686 121.616 39.9834 117.826C33.3083 111.179 32.5179 100.855 37.6063 93.3308C38.292 92.3125 39.0825 91.3508 39.9834 90.4457C43.7686 86.6554 48.7324 84.7885 53.6963 84.7885V58.8789C34.623 58.8789 19.162 74.2946 19.162 93.3308C19.162 112.367 34.623 127.811 53.6963 127.811C63.6409 127.811 72.5996 123.596 78.9007 116.893V93.3308H69.7862Z" fill="#0079C2"/>
</svg>
