<svg width="246" height="156" viewBox="0 0 246 156" fill="none" xmlns="http://www.w3.org/2000/svg">
<path d="M87.4494 60.4271H99.254V64.2689H93.6386V91.2619H87.4494V60.4271ZM106.252 79.6863L107.313 64.2689H107.668L108.729 79.6863H106.252ZM99.3986 91.2619H105.458L106.032 83.0729H108.95L109.526 91.2619H115.583L112.355 60.4271H102.626L99.3986 91.2619ZM124.447 80.4699V86.2828C124.447 87.0664 125.056 87.2938 125.411 87.2938C125.994 87.2938 126.4 86.8136 126.4 86.2828V79.1053C126.4 78.1447 126.223 77.0833 123.914 77.0833H121.401V73.6966H124.015C125.766 73.6966 126.4 73.2922 126.4 71.3965V65.2799C126.4 64.749 125.994 64.2689 125.411 64.2689C125.056 64.2689 124.447 64.471 124.447 65.2799V70.3094H118.255V65.9371C118.255 63.7887 118.508 60.4271 122.847 60.4271H127.973C132.313 60.4271 132.592 63.7887 132.592 65.9371V70.8654C132.592 74.2269 130.232 75.1369 128.379 75.0609V75.3643C132.541 75.2633 132.592 78.4475 132.592 79.5346V85.7522C132.592 87.9257 132.313 91.2619 127.973 91.2619H122.847C118.508 91.2619 118.255 87.9254 118.255 85.7519V80.4699H124.447ZM136.652 60.4271H150.989V91.2619H144.797V64.2689H142.844V91.2619H136.652V60.4271ZM161.241 77.3864V64.2691H162.053C162.712 64.2691 163.194 64.8248 163.194 65.8107V75.8445C163.194 76.8305 162.712 77.3861 162.052 77.3861L161.241 77.3864ZM155.049 91.2619H161.241V80.773H164.793C169.107 80.773 169.386 77.4368 169.386 75.263V65.9371C169.386 63.7887 169.107 60.4271 164.793 60.4271H155.049V91.2619ZM181.591 86.2828C181.591 86.8136 181.185 87.2938 180.602 87.2938C180.246 87.2938 179.638 87.0664 179.638 86.2828V65.2799C179.638 64.471 180.247 64.2689 180.602 64.2689C181.185 64.2689 181.591 64.749 181.591 65.2799V86.2828ZM173.446 85.7522C173.446 87.9257 173.725 91.2619 178.039 91.2619H183.19C187.504 91.2619 187.783 87.9254 187.783 85.7519V65.9371C187.783 63.7887 187.504 60.4271 183.19 60.4271H178.039C173.725 60.4271 173.446 63.7887 173.446 65.9371V85.7522ZM207.931 60.4271H216V91.2619H209.809V71.927H209.58L206.383 91.2619H201.435L198.263 71.927H198.035V91.2619H191.843V60.4271H199.887L203.921 82.1125L207.931 60.4271ZM79.4257 49.0538C77.5304 40.7891 72.7799 34.0662 72.1253 32.9792C71.09 34.5208 67.3015 40.4606 65.3756 47.0318C63.2719 54.3865 62.9623 60.9073 63.6883 67.3017C64.4089 73.7214 67.1314 80.3182 67.1314 80.3182C68.578 83.7555 70.7449 87.4706 72.1559 89.2905C74.2238 86.6115 78.9767 78.6246 80.4585 68.2117C81.2833 62.3985 81.3188 57.3186 79.4257 49.0538ZM72.1253 87.2181C71.1942 85.4741 69.7476 82.1629 69.6106 77.007C69.575 72.0534 71.5721 67.7819 72.1559 66.8975C72.676 67.7821 74.3963 71.4972 74.602 76.5775C74.7414 81.5313 73.087 85.4485 72.1253 87.2181ZM78.8752 63.0808C78.8041 66.2403 78.426 69.5765 77.9439 71.5732C78.1164 68.1359 77.7029 63.3085 76.911 59.5174C76.1194 55.7514 73.8787 49.433 72.09 46.5262C70.438 49.3066 68.4027 54.7657 67.3371 59.4921C66.2662 64.2182 66.2359 69.9556 66.2359 71.6743C65.9515 70.2335 65.241 65.0525 65.4415 59.8712C65.6091 55.5999 66.6138 51.1769 67.1645 49.1549C69.2655 42.4067 71.6432 38.0847 72.0897 37.4022C72.5365 38.0847 75.5306 43.4177 77.0836 49.0032C78.6291 54.5889 78.9411 59.9467 78.8752 63.0808Z" fill="#0079C2"/>
<path d="M75.3403 91.2113H60.9297V100.841C60.9426 100.841 60.9527 100.816 60.9653 100.816C64.3605 97.4289 69.8671 97.4289 73.2648 100.816C76.66 104.177 76.66 109.662 73.2648 113.048C73.2494 113.073 73.2341 113.073 73.2191 113.099C73.2013 113.099 73.1835 113.124 73.1682 113.149C69.7807 116.486 65.3553 118.154 60.9297 118.154C56.4842 118.154 52.0383 116.486 48.6483 113.099C42.6697 107.159 41.9618 97.9341 46.5192 91.2113C47.1448 90.2864 47.8578 89.4231 48.6483 88.6333C52.0383 85.2467 56.4842 83.5784 60.9297 83.5784V60.4271C43.8472 60.4271 30 74.2016 30 91.2113C30 108.221 43.8472 122.021 60.9297 122.021C69.8364 122.021 77.8602 118.255 83.5035 112.265V91.2113H75.3403ZM216 100.271H87.4494V122.021H216V100.271ZM204.884 115.455H206.515V112.171H204.884V115.455ZM204.884 109.709H207.352L209.004 110.53L209.412 111.351L209.82 112.992V113.813C209.777 119.693 205.979 117.541 201.987 117.917V104.374H204.884V109.709ZM183.446 104.374V106.837H181.386V117.917H178.103V106.837H176.043V104.374H183.446ZM153.381 114.223H153.789L154.605 113.813V108.068H153.381V114.223ZM150.077 108.068H148.832V113.813L149.669 114.223H150.077V108.068ZM153.381 104.374V105.605H155.442L156.665 106.426L157.502 107.247L157.909 108.889V113.403L157.502 115.044L156.665 115.865L155.442 116.686H153.381V117.917H150.077V116.686H148.017L146.772 115.865L145.957 115.044L145.549 113.403V108.889L145.956 107.247L146.772 106.426L148.017 105.605H150.077V104.374H153.381ZM126.592 104.374V106.837H124.12V109.709H126.592V112.171H124.12V115.455H127.004V117.917H120.823V104.374H126.592ZM96.926 109.709H98.5741V104.374H101.458V117.917H98.5741V112.171H96.926V117.917H93.6298V104.374H96.926V109.709Z" fill="#0079C2"/>
</svg>
