<svg width="246" height="156" viewBox="0 0 246 156" fill="none" xmlns="http://www.w3.org/2000/svg">
<path d="M71.8508 49.2933H14.6666V106.34H71.8508V49.2933Z" fill="#ED1A3A"/>
<path d="M62.6155 54.9763C61.3014 54.9763 60.3062 55.846 59.8104 56.8912L52.6102 68.7166C52.1109 69.8102 51.7464 71.0389 51.7464 71.8522C51.7464 72.579 51.8464 73.2211 52.1133 73.8129L59.9021 92.375H29.6567C28.5679 92.375 27.6694 91.284 27.6694 90.2769V58.3026C27.4405 53.9315 21.1429 53.9338 21.0042 58.4399L21.1418 92.375C21.1418 96.0643 24.0009 99.0201 27.6694 99.0201H68.9061L58.8549 73.3628C58.5775 72.4076 58.4539 71.5413 59.1301 70.4027L65.7799 59.6149C65.8736 59.3899 66.0093 58.4387 66.0093 58.1653C65.8775 56.2064 64.3388 54.8897 62.6155 54.9763ZM46.289 54.9915C44.6714 55.0023 43.0558 56.117 43.0558 58.3026V81.1828C43.0558 84.5053 38.5767 84.2319 38.5767 81.1828V58.3026C38.5767 53.9315 32.095 53.9315 32.095 58.3026V81.3659C32.095 86.6404 36.0429 90.1472 40.7551 90.1472C45.5955 90.1472 49.5298 86.6404 49.5298 81.3659V58.3026C49.5298 56.0738 47.9065 54.9807 46.289 54.9915Z" fill="white"/>
<path d="M83.0539 55.9971V71.0902C83.0539 74.8626 82.6691 76.96 79.59 76.96C79.0144 76.96 78.6295 76.96 78.054 76.7523V83.2485C79.2051 83.6707 79.9749 83.6707 80.9388 83.6707C89.5934 83.6707 89.9783 77.1711 89.9783 73.3952V62.4968H94.9783V83.2485H101.899V55.9971H83.0539Z" fill="black"/>
<path d="M104.208 55.9971L113.633 75.7037L110.172 83.2485H117.672L128.827 55.9971H121.327L117.287 67.5255L112.478 55.9971H104.208Z" fill="black"/>
<path d="M130.942 83.2485H137.866V71.509L144.981 83.2485H153.827L144.021 69.204L153.636 55.9971H145.366L137.866 67.5255V55.9971H130.942V83.2485Z" fill="black"/>
<path d="M165.176 84.0895C174.406 84.0895 178.636 76.96 178.636 69.6228C178.636 62.4968 174.406 55.3672 165.176 55.3672C156.136 55.3672 151.906 62.4968 151.906 69.6228C151.906 76.96 156.136 84.0895 165.176 84.0895ZM165.176 77.5899C162.097 77.5899 159.021 74.8627 159.021 69.6228C159.021 64.383 162.097 61.8669 165.176 61.8669C168.445 61.8669 171.521 64.383 171.521 69.6228C171.521 74.8627 168.445 77.5899 165.176 77.5899Z" fill="black"/>
<path d="M182.1 55.9971V83.2485H188.83L198.445 66.8991V83.2485H205.179V55.9971H198.445L188.83 72.35V55.9971H182.1ZM193.83 54.5297C196.715 54.5297 199.6 53.481 200.949 50.3351L196.909 48.66C196.33 50.7573 194.6 50.965 193.83 50.965C193.254 50.965 191.33 50.7573 190.945 48.66L186.909 50.3351C188.06 53.481 191.139 54.5297 193.83 54.5297Z" fill="black"/>
<path d="M212.488 55.9971V71.0902C212.488 74.8626 212.1 76.96 209.024 76.96C208.449 76.96 208.064 76.96 207.485 76.7523V83.2485C208.639 83.6707 209.409 83.6707 210.369 83.6707C219.024 83.6707 219.409 77.1711 219.409 73.3952V62.4968H224.409V83.2485H231.333V55.9971H212.488Z" fill="black"/>
<path d="M78.1094 98.5423H79.0838V93.4859H84.7738V98.5423H85.7481V88.6302H84.7738V92.6899H79.0838V88.6302H78.1094V98.5423Z" fill="black"/>
<path d="M88.2273 98.5423H93.5636V97.7463H89.2016V93.389H93.3902V92.593H89.2016V89.4297H93.5636V88.6302H88.2273V98.5423Z" fill="black"/>
<path d="M99.9852 98.5423H100.949V97.1787H101.355C104.566 97.1787 105.894 95.2821 105.894 93.2956C105.894 90.9698 104.17 89.4297 101.355 89.4297H100.949V88.2391H99.9852V89.4297H99.5934C96.7605 89.4297 95.0407 90.9698 95.0407 93.2956C95.0407 95.2821 96.3687 97.1787 99.5934 97.1787H99.9852V98.5423ZM100.949 90.2257C104.17 90.2672 104.878 91.7693 104.878 93.2956C104.878 95.6767 103.293 96.2962 100.949 96.3792V90.2257ZM99.9852 96.3792C97.6413 96.2962 96.0567 95.6767 96.0567 93.2956C96.0567 91.7693 96.7605 90.2672 99.9852 90.2257V96.3792Z" fill="black"/>
<path d="M109.413 98.5423H110.349V89.4297H112.991V88.6302H106.774V89.4297H109.413V98.5423Z" fill="black"/>
<path d="M114.143 98.5423H115.238L117.88 94.1885H118.719V98.5423H119.697V88.6302H117.405C114.399 88.6302 113.966 90.6203 113.966 91.4994C113.966 93.1744 115.28 94.1885 116.826 94.1331L114.143 98.5423ZM118.719 93.389H117.312C116.514 93.389 114.93 93.2956 114.93 91.4025C114.93 89.5647 116.608 89.4297 117.405 89.4297H118.719V93.389Z" fill="black"/>
<path d="M122.19 98.5423H123.165V93.4859H128.855V98.5423H129.829V88.6302H128.855V92.6899H123.165V88.6302H122.19V98.5423Z" fill="black"/>
<path d="M131.251 98.5424H132.228L133.595 95.3237H137.78L139.149 98.5424H140.124L135.668 88.3741L131.251 98.5424ZM133.948 94.5415L135.668 90.4853L137.43 94.5415H133.948Z" fill="black"/>
<path d="M141.251 98.5423H142.346L144.988 94.1885H145.828V98.5423H146.802V88.6302H144.513C141.507 88.6302 141.074 90.6203 141.074 91.4994C141.074 93.1744 142.388 94.1885 143.931 94.1331L141.251 98.5423ZM145.828 93.389H144.42C143.619 93.389 142.034 93.2956 142.034 91.4025C142.034 89.5647 143.716 89.4297 144.513 89.4297H145.828V93.389Z" fill="black"/>
<path d="M152.589 98.5423H153.563V93.742L158.019 98.5423H159.291L154.482 93.4306L159.212 88.6302H158.019L153.563 93.2541V88.6302H152.589V98.5423Z" fill="black"/>
<path d="M165.578 98.8538C168.532 98.8538 170.956 96.7323 170.956 93.6071C170.956 90.4853 168.532 88.3741 165.578 88.3741C162.665 88.3741 160.241 90.4853 160.241 93.6071C160.241 96.7323 162.665 98.8538 165.578 98.8538ZM165.578 98.0163C163.154 98.0163 161.257 96.2028 161.257 93.6071C161.257 91.0114 163.154 89.1598 165.578 89.1598C168.005 89.1598 169.94 91.0114 169.94 93.6071C169.94 96.2028 168.005 98.0163 165.578 98.0163Z" fill="black"/>
<path d="M172.298 98.5423H173.234L174.153 91.2259L177.811 98.9888L181.427 91.2259L182.405 98.5423H183.282L181.916 88.2391L177.811 97.0956L173.664 88.2391L172.298 98.5423Z" fill="black"/>
<path d="M185.113 88.6302V98.5423H186.087V89.4297H191.777V98.5423H192.752V88.6302H185.113Z" fill="black"/>
<path d="M194.177 98.5424H195.151L196.517 95.3237H200.706L202.072 98.5424H203.046L198.591 88.3741L194.177 98.5424ZM196.871 94.5415L198.591 90.4853L200.352 94.5415H196.871Z" fill="black"/>
<path d="M204.43 98.5423H205.404V93.4859H211.094V98.5423H212.072V88.6302H211.094V92.6899H205.404V88.6302H204.43V98.5423Z" fill="black"/>
<path d="M214.548 88.6302V98.9888L221.351 90.6999V98.5423H222.311V88.2391L215.525 96.4727V88.6302H214.548Z" fill="black"/>
<path d="M224.506 98.5423H225.602L228.244 94.1885H229.083V98.5423H230.061V88.6302H227.772C224.763 88.6302 224.329 90.6203 224.329 91.4994C224.329 93.1744 225.643 94.1885 227.19 94.1331L224.506 98.5423ZM229.083 93.389H227.675C226.878 93.389 225.293 93.2956 225.293 91.4025C225.293 89.5647 226.971 89.4297 227.772 89.4297H229.083V93.389Z" fill="black"/>
</svg>
