<svg width="246" height="156" viewBox="0 0 246 156" fill="none" xmlns="http://www.w3.org/2000/svg">
<path d="M43.8865 123.484C45.2389 123.484 46.0712 123.276 46.4873 122.859C46.8514 122.443 47.0595 122.131 47.0595 121.87C47.0595 121.61 46.8514 121.298 46.4873 120.882C46.0712 120.465 45.2389 120.257 43.8865 120.257H37.9568V123.432H43.8865M37.9568 132.644H32.9113L32.8593 128.064V121.298L32.9113 116.718H46.2272C48.4639 116.718 50.0243 117.134 50.8566 117.915C51.6888 118.696 52.105 119.841 52.105 121.298V122.599C52.105 124.056 51.6888 125.201 50.8566 125.982C50.0243 126.763 48.4639 127.127 46.2272 127.127H37.9568V132.644Z" fill="black"/>
<path d="M69.166 122.859C69.166 121.975 68.9579 121.35 68.5938 120.934C68.2297 120.517 67.3455 120.309 66.0451 120.309H63.1842C61.9879 120.309 61.1556 120.569 60.7395 120.986C60.3234 121.402 60.1153 122.027 60.1153 122.859V126.502C60.1153 127.283 60.3234 127.908 60.7395 128.324C61.1556 128.792 61.9879 129.001 63.1842 129.001H66.0451C67.3455 129.001 68.2297 128.792 68.5938 128.376C68.9059 128.012 69.166 127.335 69.218 126.502V122.859M72.9631 131.447C72.1309 132.227 70.5704 132.592 68.3858 132.592H60.9996C58.7629 132.592 57.2025 132.227 56.3702 131.447C55.4859 130.718 55.0698 129.521 55.0698 128.012V121.246C55.0698 119.737 55.4859 118.54 56.3702 117.811C57.2025 117.082 58.7629 116.666 60.9996 116.666H68.3858C70.6224 116.666 72.1829 117.082 72.9631 117.863C73.7954 118.644 74.2115 119.789 74.2115 121.246V128.012C74.2115 129.521 73.7954 130.666 72.9631 131.447Z" fill="black"/>
<path d="M95.0697 131.447C94.2375 132.227 92.729 132.592 90.4923 132.592H83.1062C80.8695 132.592 79.309 132.227 78.4248 131.447C77.5405 130.718 77.1244 129.521 77.1244 128.012V121.246C77.1244 119.737 77.5405 118.54 78.4248 117.811C79.309 117.082 80.8695 116.666 83.1062 116.666H90.4923C92.729 116.666 94.2375 117.082 95.0697 117.863C95.902 118.644 96.3181 119.789 96.3181 121.246V122.807H91.2726C91.2726 121.922 91.0645 121.298 90.7004 120.882C90.2843 120.465 89.452 120.257 88.1517 120.257H85.2908C84.0424 120.257 83.2622 120.517 82.7941 120.934C82.3779 121.35 82.1699 121.975 82.1699 122.807V126.45C82.1699 127.231 82.3779 127.856 82.7941 128.272C83.2102 128.74 84.0424 128.949 85.2908 128.949H88.1517C89.452 128.949 90.3363 128.74 90.7004 128.324C91.0645 127.96 91.2726 127.283 91.2726 126.45H96.3181V128.012C96.3701 129.521 95.954 130.666 95.0697 131.447Z" fill="black"/>
<path d="M104.328 132.644H99.335L99.283 128.012V121.298L99.335 116.666H104.328V122.807H113.379V116.666H118.477V132.644H113.379V126.398H104.328V132.644Z" fill="black"/>
<path d="M127.891 126.398H126.435C126.487 127.231 126.643 127.856 127.111 128.324C127.527 128.792 128.36 129.001 129.608 129.001H140.635V132.644H127.423C125.187 132.644 123.626 132.279 122.742 131.499C121.91 130.77 121.442 129.573 121.442 128.064V121.298C121.442 119.789 121.858 118.592 122.742 117.863C123.626 117.134 125.187 116.718 127.423 116.718H140.635V120.361H129.608C128.36 120.361 127.527 120.621 127.111 121.038C126.695 121.454 126.487 122.027 126.435 122.859H140.583V126.502H127.891" fill="black"/>
<path d="M179.387 120.309H172.469V116.666H191.61V120.309H184.432V132.644H179.387V120.309Z" fill="black"/>
<path d="M198.944 125.774V128.949H204.874C206.227 128.949 207.059 128.74 207.423 128.376C207.787 127.96 207.995 127.647 207.995 127.387C207.995 127.127 207.787 126.763 207.423 126.398C207.059 125.982 206.175 125.774 204.874 125.774H198.944ZM198.944 122.183H207.215C209.452 122.183 211.012 122.599 211.792 123.38C212.624 124.16 213.041 125.305 213.041 126.763V128.012C213.041 129.469 212.624 130.614 211.792 131.395C210.96 132.175 209.4 132.592 207.215 132.592H193.899L193.847 128.012V121.246L193.899 116.666H198.944V122.183Z" fill="black"/>
<path d="M148.386 124.264C148.386 122.287 150.154 122.495 150.154 122.495H155.252V125.878H150.102C150.102 125.826 148.386 125.878 148.386 124.264ZM165.343 125.826H160.193V122.443H165.291C165.291 122.443 167.059 122.235 167.059 124.212C167.059 125.878 165.343 125.826 165.343 125.826ZM167.995 119.112H160.193V116.614H155.252V119.112H147.241C147.241 119.112 142.664 119.268 142.664 124.108C142.664 129.001 147.345 129.053 147.345 129.053H155.2V132.8H160.141V129.001H167.839C167.839 129.001 172.521 128.949 172.521 124.056C172.573 119.268 167.995 119.112 167.995 119.112Z" fill="black"/>
<path d="M113.327 17V24.3904H105.109V31.7807H96.8382V39.3793H88.5677V64.569C88.5677 64.569 103.184 77.1639 105.213 79.0375V105.841H141.103V79.1936C143.184 77.3721 157.696 64.6211 157.696 64.6211V39.3273H149.478V31.8328H141.103V24.3383H132.781V17H113.327Z" fill="white"/>
<path d="M118.164 66.7028H111.142V99.8554H118.164V66.7028Z" fill="#FFD300"/>
<path d="M126.539 59.8849H119.517V99.9075H126.539V59.8849Z" fill="#FFD300"/>
<path d="M134.861 66.7028H127.839V99.8554H134.861V66.7028Z" fill="#FFD300"/>
<path d="M101.572 68.056L94.4976 62.0709V45.1042H101.572V68.056Z" fill="black"/>
<path d="M109.894 75.4464L102.82 68.8887V37.6097H109.894V75.4464Z" fill="black"/>
<path d="M118.164 30.2194H111.142V65.714H118.164V30.2194Z" fill="black"/>
<path d="M126.539 22.777H119.517V58.3757H126.539V22.777Z" fill="black"/>
<path d="M144.536 68.056L151.558 62.0709V45.1042H144.536V68.056Z" fill="black"/>
<path d="M136.162 75.4464L143.184 68.8887V37.6097H136.162V75.4464Z" fill="black"/>
<path d="M134.861 30.2194H127.839V65.714H134.861V30.2194Z" fill="black"/>
</svg>
