<svg width="174" height="47" viewBox="0 0 174 47" fill="none" xmlns="http://www.w3.org/2000/svg">
<path d="M9.95171 35.3082C8.49858 35.3082 7.20324 35.0587 6.0657 34.5597C4.93549 34.0606 4.03646 33.3671 3.36861 32.479C2.7081 31.5837 2.34848 30.5452 2.28977 29.3636H5.06392C5.12263 30.0902 5.37216 30.7177 5.8125 31.2461C6.25284 31.7672 6.82895 32.1708 7.54084 32.457C8.25272 32.7433 9.04167 32.8864 9.90767 32.8864C10.8764 32.8864 11.7351 32.7176 12.4837 32.38C13.2322 32.0424 13.8194 31.5727 14.245 30.9709C14.6707 30.3691 14.8835 29.6719 14.8835 28.8793C14.8835 28.05 14.678 27.3197 14.267 26.6886C13.8561 26.0501 13.2543 25.551 12.4616 25.1914C11.669 24.8318 10.7003 24.652 9.5554 24.652H7.75V22.2301H9.5554C10.4508 22.2301 11.236 22.0687 11.9112 21.7457C12.5938 21.4228 13.1258 20.9678 13.5075 20.3807C13.8964 19.7936 14.0909 19.1037 14.0909 18.3111C14.0909 17.5478 13.9221 16.8836 13.5845 16.3185C13.2469 15.7534 12.7699 15.3131 12.1534 14.9975C11.5443 14.6819 10.825 14.5241 9.99574 14.5241C9.2178 14.5241 8.4839 14.6673 7.79403 14.9535C7.11151 15.2324 6.55374 15.6397 6.12074 16.1754C5.68774 16.7038 5.45289 17.3423 5.41619 18.0909H2.77415C2.81818 16.9093 3.17412 15.8745 3.84197 14.9865C4.50982 14.0911 5.38317 13.3939 6.462 12.8949C7.54818 12.3958 8.74077 12.1463 10.0398 12.1463C11.4342 12.1463 12.6304 12.4289 13.6286 12.994C14.6267 13.5517 15.3936 14.2893 15.9293 15.2067C16.4651 16.1241 16.733 17.1148 16.733 18.179C16.733 19.4486 16.399 20.5311 15.7312 21.4265C15.0707 22.3219 14.1716 22.942 13.0341 23.2869V23.4631C14.4579 23.6979 15.5697 24.3034 16.3697 25.2795C17.1696 26.2482 17.5696 27.4482 17.5696 28.8793C17.5696 30.1049 17.2357 31.2057 16.5678 32.1818C15.9073 33.1506 15.0046 33.9138 13.8597 34.4716C12.7148 35.0294 11.4122 35.3082 9.95171 35.3082ZM29.5579 35.3082C28.6332 35.2936 27.7085 35.1174 26.7837 34.7798C25.859 34.4422 25.015 33.8735 24.2518 33.0735C23.4885 32.2662 22.8757 31.1764 22.4134 29.804C21.951 28.4242 21.7198 26.6922 21.7198 24.608C21.7198 22.6117 21.907 20.843 22.2812 19.3018C22.6555 17.7533 23.1986 16.4506 23.9105 15.3938C24.6224 14.3297 25.4811 13.5224 26.4865 12.9719C27.4993 12.4215 28.6405 12.1463 29.9102 12.1463C31.1725 12.1463 32.2953 12.3995 33.2788 12.9059C34.2695 13.4049 35.0768 14.1022 35.7006 14.9975C36.3245 15.8929 36.7281 16.924 36.9116 18.0909H34.2255C33.976 17.0781 33.4916 16.2378 32.7724 15.57C32.0531 14.9021 31.0991 14.5682 29.9102 14.5682C28.1635 14.5682 26.7874 15.3278 25.782 16.8469C24.7839 18.3661 24.2811 20.4981 24.2738 23.2429H24.4499C24.8609 22.6191 25.349 22.087 25.9141 21.6467C26.4865 21.199 27.1177 20.854 27.8075 20.6119C28.4974 20.3697 29.2276 20.2486 29.9982 20.2486C31.2899 20.2486 32.4715 20.5715 33.543 21.2173C34.6145 21.8558 35.4731 22.7402 36.119 23.8704C36.7648 24.9933 37.0877 26.2812 37.0877 27.7344C37.0877 29.1288 36.7758 30.4058 36.152 31.5653C35.5282 32.7176 34.6512 33.6349 33.521 34.3175C32.3981 34.9927 31.0771 35.3229 29.5579 35.3082ZM29.5579 32.8864C30.4826 32.8864 31.3119 32.6552 32.0458 32.1928C32.7871 31.7305 33.3705 31.1103 33.7962 30.3324C34.2292 29.5545 34.4457 28.6884 34.4457 27.7344C34.4457 26.8023 34.2365 25.9547 33.8182 25.1914C33.4072 24.4208 32.8384 23.808 32.1119 23.353C31.3926 22.898 30.5707 22.6705 29.646 22.6705C28.9487 22.6705 28.2992 22.8099 27.6974 23.0888C27.0956 23.3603 26.5672 23.7346 26.1122 24.2116C25.6645 24.6887 25.3123 25.2354 25.0554 25.8519C24.7985 26.4611 24.6701 27.1032 24.6701 27.7784C24.6701 28.6738 24.8793 29.5104 25.2976 30.2884C25.7232 31.0663 26.303 31.6938 27.0369 32.1708C27.7782 32.6478 28.6185 32.8864 29.5579 32.8864ZM48.7705 35.3082C47.1119 35.3082 45.6991 34.8569 44.5322 33.9542C43.3653 33.0442 42.4736 31.7268 41.8572 30.0021C41.2407 28.2701 40.9324 26.1785 40.9324 23.7273C40.9324 21.2907 41.2407 19.2101 41.8572 17.4854C42.481 15.7534 43.3763 14.4324 44.5432 13.5224C45.7175 12.605 47.1266 12.1463 48.7705 12.1463C50.4144 12.1463 51.8199 12.605 52.9868 13.5224C54.161 14.4324 55.0564 15.7534 55.6729 17.4854C56.2967 19.2101 56.6086 21.2907 56.6086 23.7273C56.6086 26.1785 56.3003 28.2701 55.6839 30.0021C55.0674 31.7268 54.1757 33.0442 53.0088 33.9542C51.8419 34.8569 50.4291 35.3082 48.7705 35.3082ZM48.7705 32.8864C50.4144 32.8864 51.6914 32.0937 52.6015 30.5085C53.5115 28.9233 53.9665 26.6629 53.9665 23.7273C53.9665 21.7751 53.7574 20.1128 53.339 18.7404C52.9281 17.368 52.3336 16.3222 51.5557 15.603C50.7851 14.8838 49.8567 14.5241 48.7705 14.5241C47.1412 14.5241 45.8679 15.3278 44.9506 16.935C44.0332 18.5349 43.5745 20.799 43.5745 23.7273C43.5745 25.6795 43.78 27.3381 44.191 28.7031C44.6019 30.0682 45.1927 31.1067 45.9633 31.8185C46.7413 32.5304 47.677 32.8864 48.7705 32.8864ZM65.5035 22.4062C64.5714 22.4062 63.7201 22.1787 62.9495 21.7237C62.1862 21.2687 61.5771 20.6596 61.1221 19.8963C60.6671 19.1257 60.4395 18.2744 60.4395 17.3423C60.4395 16.4103 60.6671 15.5626 61.1221 14.7994C61.5771 14.0288 62.1862 13.416 62.9495 12.9609C63.7201 12.5059 64.5714 12.2784 65.5035 12.2784C66.4355 12.2784 67.2832 12.5059 68.0464 12.9609C68.817 13.416 69.4298 14.0288 69.8849 14.7994C70.3399 15.5626 70.5674 16.4103 70.5674 17.3423C70.5674 18.2744 70.3399 19.1257 69.8849 19.8963C69.4298 20.6596 68.817 21.2687 68.0464 21.7237C67.2832 22.1787 66.4355 22.4062 65.5035 22.4062ZM65.5035 20.2045C66.0319 20.2045 66.5126 20.0761 66.9456 19.8192C67.3786 19.5624 67.7235 19.2174 67.9804 18.7844C68.2372 18.3514 68.3657 17.8707 68.3657 17.3423C68.3657 16.8139 68.2372 16.3332 67.9804 15.9002C67.7235 15.4672 67.3786 15.1223 66.9456 14.8654C66.5126 14.6085 66.0319 14.4801 65.5035 14.4801C64.9751 14.4801 64.4943 14.6085 64.0613 14.8654C63.6283 15.1223 63.2834 15.4672 63.0265 15.9002C62.7697 16.3332 62.6412 16.8139 62.6412 17.3423C62.6412 17.8707 62.7697 18.3514 63.0265 18.7844C63.2834 19.2174 63.6283 19.5624 64.0613 19.8192C64.4943 20.0761 64.9751 20.2045 65.5035 20.2045Z" fill="white"/>
<path d="M96 21C96 16.0294 113.237 12 134.5 12C155.763 12 173 16.0294 173 21C173 25.9706 155.763 30 134.5 30C127.59 30 121.106 29.5745 115.5 28.8295M115.5 28.8295L115.746 28.7621C121.241 27.2562 126.841 26.1657 132.5 25.5V25.5M115.5 28.8295L117.47 29.8562C121.482 31.9477 125.676 33.6694 130 35V35" stroke="white" stroke-width="2" stroke-linecap="round"/>
</svg>
