<svg width="24" height="24" viewBox="0 0 24 24" fill="none" xmlns="http://www.w3.org/2000/svg">
<g clip-path="url(#clip0_326_570)">
<path d="M20.3177 9.37069L13.9076 2.96044C13.8461 2.89888 13.7626 2.86428 13.6755 2.86425H10.6406V1.45256C10.64 1.06737 10.4867 0.698139 10.2143 0.425838C9.94182 0.153538 9.5725 0.000396695 9.18731 0L6.30469 0C5.91943 0.000446616 5.55008 0.153687 5.27767 0.426104C5.00525 0.698521 4.85201 1.06787 4.85156 1.45312V2.86481H3.91406C3.82705 2.86486 3.74362 2.89945 3.6821 2.96097C3.62057 3.0225 3.58599 3.10593 3.58594 3.19294V23.664C3.58594 23.751 3.62051 23.8345 3.68204 23.896C3.74358 23.9576 3.82704 23.9921 3.91406 23.9921H20.0859C20.129 23.9921 20.1717 23.9837 20.2115 23.9672C20.2514 23.9507 20.2875 23.9265 20.318 23.8961C20.3485 23.8656 20.3727 23.8294 20.3891 23.7896C20.4056 23.7498 20.4141 23.7071 20.4141 23.664V9.60262C20.414 9.55953 20.4055 9.51687 20.3889 9.47707C20.3724 9.43727 20.3482 9.40112 20.3177 9.37069ZM5.50781 1.45256C5.50806 1.24129 5.5921 1.03875 5.74149 0.889361C5.89088 0.739972 6.09342 0.655936 6.30469 0.655688H9.18731C9.39858 0.655936 9.60112 0.739972 9.75051 0.889361C9.8999 1.03875 9.98394 1.24129 9.98419 1.45256V2.86425H5.50781V1.45256ZM19.7578 23.3359H4.242V3.5205H13.5397L19.7576 9.73856L19.7578 23.3359Z" fill="white"/>
<path d="M13.031 5.73543C12.7508 5.79122 12.4909 5.92146 12.2785 6.11247C12.0662 6.30347 11.9092 6.54818 11.8241 6.82085C11.739 7.09352 11.729 7.38408 11.7951 7.66197C11.8612 7.93986 12.0009 8.19481 12.1996 8.4L14.7815 11.0668C14.9288 11.2202 15.1057 11.3422 15.3013 11.4256C15.497 11.5091 15.7075 11.5521 15.9202 11.5522C16.1302 11.552 16.3382 11.5104 16.5322 11.4298L16.5922 11.4051C16.8337 11.305 17.0468 11.1469 17.2126 10.9449C17.3784 10.7428 17.4918 10.5029 17.5428 10.2466C17.5938 9.99019 17.5808 9.7252 17.5049 9.47505C17.429 9.22491 17.2926 8.99734 17.1078 8.8125L14.4657 6.17043C14.2811 5.98507 14.0535 5.84832 13.8031 5.77242C13.5527 5.69651 13.2875 5.6838 13.031 5.73543ZM16.6439 9.27656C16.7524 9.38511 16.8325 9.51875 16.8771 9.66564C16.9216 9.81254 16.9292 9.96815 16.8993 10.1187C16.8693 10.2692 16.8027 10.4101 16.7053 10.5287C16.6079 10.6474 16.4827 10.7402 16.3409 10.7989L16.2809 10.8236C16.1081 10.8961 15.9174 10.9145 15.734 10.8765C15.5505 10.8385 15.3828 10.7458 15.253 10.6106L12.671 7.94343C12.5443 7.81276 12.4587 7.64788 12.4247 7.46912C12.3907 7.29036 12.4098 7.10555 12.4795 6.9375C12.5372 6.79499 12.6296 6.66923 12.7484 6.57171C12.8672 6.47419 13.0086 6.40804 13.1596 6.37931C13.2213 6.36694 13.2841 6.36066 13.3471 6.36056C13.4689 6.36062 13.5894 6.38489 13.7017 6.43195C13.814 6.479 13.9159 6.54792 14.0013 6.63468L16.6439 9.27656Z" fill="white"/>
<path d="M5.46094 13.4282V21.789C5.46094 21.876 5.49551 21.9595 5.55704 22.021C5.61858 22.0826 5.70204 22.1171 5.78906 22.1171H18.2109C18.254 22.1172 18.2967 22.1087 18.3365 22.0922C18.3764 22.0757 18.4125 22.0516 18.443 22.0211C18.4735 21.9906 18.4977 21.9544 18.5141 21.9146C18.5306 21.8748 18.5391 21.8321 18.5391 21.789V13.4282C18.5391 13.3851 18.5306 13.3424 18.5141 13.3026C18.4977 13.2628 18.4735 13.2266 18.443 13.1961C18.4125 13.1656 18.3764 13.1415 18.3365 13.125C18.2967 13.1085 18.254 13.1 18.2109 13.1001H5.78906C5.70204 13.1001 5.61858 13.1346 5.55704 13.1962C5.49551 13.2577 5.46094 13.3412 5.46094 13.4282ZM6.11719 13.7563H17.8828V21.4609H6.11719V13.7563Z" fill="white"/>
<path d="M12 15.2199C11.9409 15.2199 11.883 15.2358 11.8322 15.266C11.7815 15.2961 11.7398 15.3394 11.7116 15.3913C11.5022 15.777 10.457 17.7364 10.457 18.4545C10.457 18.8637 10.6196 19.2562 10.9089 19.5455C11.1983 19.8349 11.5908 19.9974 12 19.9974C12.4092 19.9974 12.8016 19.8349 13.091 19.5455C13.3803 19.2562 13.5429 18.8637 13.5429 18.4545C13.5429 17.7364 12.4978 15.777 12.2882 15.3913C12.26 15.3395 12.2184 15.2962 12.1676 15.266C12.1169 15.2358 12.059 15.2199 12 15.2199ZM12 19.341C11.7649 19.3408 11.5396 19.2473 11.3733 19.0811C11.2071 18.9149 11.1136 18.6896 11.1133 18.4545C11.1133 18.1251 11.5678 17.1064 12 16.2546C12.4323 17.1062 12.8867 18.1249 12.8867 18.4545C12.8864 18.6896 12.7928 18.9149 12.6266 19.0811C12.4604 19.2473 12.235 19.3408 12 19.341Z" fill="white"/>
</g>
<defs>
<clipPath id="clip0_326_570">
<rect width="24" height="24" fill="white"/>
</clipPath>
</defs>
</svg>
