<?xml version="1.0" encoding="UTF-8" standalone="no"?>
<!DOCTYPE svg PUBLIC "-//W3C//DTD SVG 1.1//EN" "http://www.w3.org/Graphics/SVG/1.1/DTD/svg11.dtd">
<!-- Created with Vectornator (http://vectornator.io/) -->
<svg height="100%" stroke-miterlimit="10" style="fill-rule:nonzero;clip-rule:evenodd;stroke-linecap:round;stroke-linejoin:round;" version="1.1" viewBox="0 0 860 859" width="100%" xml:space="preserve" xmlns="http://www.w3.org/2000/svg" xmlns:xlink="http://www.w3.org/1999/xlink">
<defs/>
<g id="Без-названия">
<path d="M379.269 14.3049C379.269 16.6259 381.15 18.5074 383.471 18.5074C385.792 18.5074 387.673 16.6259 387.673 14.3049C387.673 11.984 385.792 10.1025 383.471 10.1025C381.15 10.1025 379.269 11.984 379.269 14.3049Z" fill="#f9d833" fill-rule="nonzero" opacity="1" stroke="none"/>
<path d="M387.173 14.305C387.173 12.2602 385.516 10.6026 383.471 10.6026C381.427 10.6026 379.769 12.2602 379.769 14.305C379.769 16.3498 381.427 18.0074 383.471 18.0074C385.516 18.0074 387.173 16.3498 387.173 14.305Z" fill="#ee383a" fill-rule="nonzero" opacity="1" stroke="#ffffff" stroke-linecap="butt" stroke-linejoin="miter" stroke-width="1"/>
<path d="M8.2685 430.102C8.2685 433.968 11.4025 437.102 15.2685 437.102C19.1345 437.102 22.2685 433.968 22.2685 430.102C22.2685 426.236 19.1345 423.102 15.2685 423.102C11.4025 423.102 8.2685 426.236 8.2685 430.102Z" fill="#f9d833" fill-rule="nonzero" opacity="1" stroke="none"/>
<path d="M21.7685 430.102C21.7685 426.512 18.8584 423.602 15.2685 423.602C11.6787 423.602 8.7685 426.512 8.7685 430.102C8.7685 433.692 11.6787 436.602 15.2685 436.602C18.8584 436.602 21.7685 433.692 21.7685 430.102Z" fill="#ee383a" fill-rule="nonzero" opacity="1" stroke="#ffffff" stroke-linecap="butt" stroke-linejoin="miter" stroke-width="1"/>
<path d="M663.269 772.305C663.269 774.626 665.15 776.507 667.471 776.507C669.792 776.507 671.673 774.626 671.673 772.305C671.673 769.984 669.792 768.103 667.471 768.103C665.15 768.103 663.269 769.984 663.269 772.305Z" fill="#f9d833" fill-rule="nonzero" opacity="1" stroke="none"/>
<path d="M671.173 772.304C671.173 770.26 669.515 768.602 667.471 768.602C665.427 768.602 663.769 770.26 663.769 772.304C663.769 774.349 665.427 776.007 667.471 776.007C669.515 776.007 671.173 774.349 671.173 772.304Z" fill="#ee383a" fill-rule="nonzero" opacity="1" stroke="#ffffff" stroke-linecap="butt" stroke-linejoin="miter" stroke-width="1"/>
<path d="M845.731 429.05C845.731 659.821 659.679 846.897 430.175 846.897C200.67 846.897 14.6185 659.821 14.6185 429.05C14.6185 198.278 200.67 11.2025 430.175 11.2025C659.679 11.2025 845.731 198.278 845.731 429.05Z" fill="none" opacity="1" stroke="#c7c7c7" stroke-linecap="butt" stroke-linejoin="miter" stroke-width="0.2"/>
</g>
</svg>
