<?xml version="1.0" encoding="UTF-8" standalone="no"?>
<!DOCTYPE svg PUBLIC "-//W3C//DTD SVG 1.1//EN" "http://www.w3.org/Graphics/SVG/1.1/DTD/svg11.dtd">
<!-- Created with Vectornator (http://vectornator.io/) -->
<svg height="649.0pt" stroke-miterlimit="10" style="fill-rule:nonzero;clip-rule:evenodd;stroke-linecap:round;stroke-linejoin:round;" version="1.1" viewBox="0 0 671 649" width="671.0pt" xml:space="preserve" xmlns="http://www.w3.org/2000/svg" xmlns:xlink="http://www.w3.org/1999/xlink">
<defs/>
<g id="Без-названия">
<path d="M657.009 324.142C657.009 502.981 513.056 647.958 335.484 647.958C157.911 647.958 13.9586 502.981 13.9586 324.142C13.9586 145.302 157.911 0.325049 335.484 0.325049C513.056 0.325049 657.009 145.302 657.009 324.142Z" fill="none" opacity="1" stroke="#ffffff" stroke-linecap="butt" stroke-linejoin="miter" stroke-width="0.3"/>
<path d="M111 560.203C111 562.524 112.881 564.405 115.202 564.405C117.523 564.405 119.405 562.524 119.405 560.203C119.405 557.882 117.523 556 115.202 556C112.881 556 111 557.882 111 560.203Z" fill="#f9d833" fill-rule="nonzero" opacity="1" stroke="none"/>
<path d="M118.905 560.202C118.905 558.157 117.247 556.5 115.202 556.5C113.158 556.5 111.5 558.157 111.5 560.202C111.5 562.247 113.158 563.905 115.202 563.905C117.247 563.905 118.905 562.247 118.905 560.202Z" fill="#ee383a" fill-rule="nonzero" opacity="1" stroke="#ffffff" stroke-linecap="butt" stroke-linejoin="miter" stroke-width="1"/>
<path d="M526 66.2021C526 68.523 527.881 70.4045 530.202 70.4045C532.523 70.4045 534.405 68.523 534.405 66.2021C534.405 63.8812 532.523 61.9997 530.202 61.9997C527.881 61.9997 526 63.8812 526 66.2021Z" fill="#f9d833" fill-rule="nonzero" opacity="1" stroke="none"/>
<path d="M533.905 66.2021C533.905 64.1574 532.247 62.4997 530.202 62.4997C528.158 62.4997 526.5 64.1574 526.5 66.2021C526.5 68.2469 528.158 69.9045 530.202 69.9045C532.247 69.9045 533.905 68.2469 533.905 66.2021Z" fill="#ee383a" fill-rule="nonzero" opacity="1" stroke="#ffffff" stroke-linecap="butt" stroke-linejoin="miter" stroke-width="1"/>
<path d="M653 357.203C653 359.524 654.881 361.405 657.202 361.405C659.523 361.405 661.405 359.524 661.405 357.203C661.405 354.882 659.523 353 657.202 353C654.881 353 653 354.882 653 357.203Z" fill="#f9d833" fill-rule="nonzero" opacity="1" stroke="none"/>
<path d="M660.905 357.202C660.905 355.157 659.247 353.5 657.202 353.5C655.158 353.5 653.5 355.157 653.5 357.202C653.5 359.247 655.158 360.905 657.202 360.905C659.247 360.905 660.905 359.247 660.905 357.202Z" fill="#ee383a" fill-rule="nonzero" opacity="1" stroke="#ffffff" stroke-linecap="butt" stroke-linejoin="miter" stroke-width="1"/>
</g>
</svg>
