<?xml version="1.0" encoding="UTF-8" standalone="no"?>
<!DOCTYPE svg PUBLIC "-//W3C//DTD SVG 1.1//EN" "http://www.w3.org/Graphics/SVG/1.1/DTD/svg11.dtd">
<!-- Created with Vectornator (http://vectornator.io/) -->
<svg height="475.0pt" stroke-miterlimit="10" style="fill-rule:nonzero;clip-rule:evenodd;stroke-linecap:round;stroke-linejoin:round;" version="1.1" viewBox="0 0 468 475" width="468.0pt" xml:space="preserve" xmlns="http://www.w3.org/2000/svg" xmlns:xlink="http://www.w3.org/1999/xlink">
<defs/>
<g id="Без-названия">
<path d="M458.241 237.112C458.241 361.558 357.99 462.439 234.327 462.439C110.665 462.439 10.4141 361.558 10.4141 237.112C10.4141 112.665 110.665 11.7842 234.327 11.7842C357.99 11.7842 458.241 112.665 458.241 237.112Z" fill="none" opacity="1" stroke="#ffffff" stroke-linecap="butt" stroke-linejoin="miter" stroke-width="0.5"/>
<path d="M51 102.202C51 104.523 52.8815 106.405 55.2024 106.405C57.5233 106.405 59.4048 104.523 59.4048 102.202C59.4048 99.8813 57.5233 97.9998 55.2024 97.9998C52.8815 97.9998 51 99.8813 51 102.202Z" fill="#f9d833" fill-rule="nonzero" opacity="1" stroke="none"/>
<path d="M58.9048 102.202C58.9048 100.157 57.2472 98.4998 55.2024 98.4998C53.1576 98.4998 51.5 100.157 51.5 102.202C51.5 104.247 53.1576 105.905 55.2024 105.905C57.2472 105.905 58.9048 104.247 58.9048 102.202Z" fill="#ee383a" fill-rule="nonzero" opacity="1" stroke="#ffffff" stroke-linecap="butt" stroke-linejoin="miter" stroke-width="1"/>
<path d="M447 291.203C447 293.524 448.881 295.405 451.202 295.405C453.523 295.405 455.405 293.524 455.405 291.203C455.405 288.882 453.523 287 451.202 287C448.881 287 447 288.882 447 291.203Z" fill="#f9d833" fill-rule="nonzero" opacity="1" stroke="none"/>
<path d="M454.905 291.202C454.905 289.157 453.247 287.5 451.202 287.5C449.158 287.5 447.5 289.157 447.5 291.202C447.5 293.247 449.158 294.905 451.202 294.905C453.247 294.905 454.905 293.247 454.905 291.202Z" fill="#ee383a" fill-rule="nonzero" opacity="1" stroke="#ffffff" stroke-linecap="butt" stroke-linejoin="miter" stroke-width="1"/>
<path d="M193 459.203C193 461.524 194.881 463.405 197.202 463.405C199.523 463.405 201.405 461.524 201.405 459.203C201.405 456.882 199.523 455 197.202 455C194.881 455 193 456.882 193 459.203Z" fill="#f9d833" fill-rule="nonzero" opacity="1" stroke="none"/>
<path d="M200.905 459.202C200.905 457.158 199.247 455.5 197.202 455.5C195.158 455.5 193.5 457.158 193.5 459.202C193.5 461.247 195.158 462.905 197.202 462.905C199.247 462.905 200.905 461.247 200.905 459.202Z" fill="#ee383a" fill-rule="nonzero" opacity="1" stroke="#ffffff" stroke-linecap="butt" stroke-linejoin="miter" stroke-width="1"/>
</g>
</svg>
