<svg width="24" height="24" viewBox="0 0 24 24" fill="none" xmlns="http://www.w3.org/2000/svg">
<path d="M19.229 11.0012L19.053 11.1346L19.0721 11.3547C19.0912 11.5737 19.1006 11.7821 19.1006 12C19.1006 12.2181 19.0912 12.42 19.064 12.6283L19.034 12.8585L19.219 12.9988L21.0756 14.4062C21.0761 14.4065 21.0766 14.4069 21.0771 14.4073C21.3182 14.5953 21.3841 14.9249 21.2336 15.1911C21.2333 15.1916 21.2331 15.192 21.2329 15.1924L19.3645 18.4196L19.3629 18.4224C19.2133 18.6855 18.8917 18.7912 18.6201 18.6732L18.6166 18.6716L16.4666 17.7616L16.2622 17.6751L16.0807 17.8027C15.728 18.0506 15.3586 18.2682 14.9725 18.4471L14.7714 18.5403L14.7438 18.7602L14.4538 21.0702L14.4535 21.0723C14.4176 21.3714 14.1581 21.6 13.8606 21.6H10.1306C9.83318 21.6 9.57368 21.3714 9.5378 21.0723L9.53753 21.0702L9.24753 18.7602L9.21992 18.5403L9.01883 18.4471C8.63273 18.2682 8.2633 18.0506 7.91062 17.8027L7.72907 17.6751L7.52473 17.7616L5.37473 18.6716L5.37472 18.6716L5.37115 18.6732C5.09959 18.7912 4.77794 18.6855 4.62844 18.4224L4.62681 18.4196L2.75842 15.1924C2.75819 15.192 2.75796 15.1916 2.75772 15.1912C2.60496 14.9209 2.67714 14.5851 2.91064 14.41L2.91228 14.4088L4.77228 12.9988L4.94938 12.8645L4.92895 12.6432C4.88975 12.2186 4.88975 11.7914 4.92895 11.3668L4.94938 11.1455L4.77228 11.0112L2.91419 9.60268C2.67297 9.4146 2.60719 9.08494 2.75784 8.81864L4.62708 5.57995L4.62709 5.57996L4.62842 5.5776C4.77794 5.31446 5.09959 5.20876 5.37115 5.32683L5.37473 5.32836L7.52473 6.23836L7.72907 6.32485L7.91062 6.19728C8.2633 5.94945 8.63273 5.73185 9.01883 5.55292L9.21992 5.45973L9.24753 5.23983L9.53753 2.92983L9.53753 2.92983L9.53779 2.92766C9.57338 2.6311 9.83069 2.4 10.1406 2.4H13.8706C14.1681 2.4 14.4276 2.62864 14.4635 2.92766L14.4638 2.92983L14.7538 5.23983L14.7814 5.45973L14.9825 5.55292C15.3686 5.73185 15.738 5.94945 16.0907 6.19728L16.2722 6.32485L16.4766 6.23836L18.6266 5.32837L18.6291 5.32726C18.762 5.26991 18.9115 5.26368 19.0487 5.30979C19.1859 5.35589 19.3012 5.45108 19.3725 5.57705L19.3725 5.57706L19.3745 5.58041L21.2429 8.8076C21.2431 8.80803 21.2433 8.80845 21.2436 8.80888C21.3963 9.07914 21.3241 9.41488 21.0906 9.59L21.089 9.59124L19.229 11.0012ZM8.14064 12C8.14064 14.1509 9.88973 15.9 12.0406 15.9C14.1916 15.9 15.9406 14.1509 15.9406 12C15.9406 9.84909 14.1916 8.1 12.0406 8.1C9.88973 8.1 8.14064 9.84909 8.14064 12Z" stroke="white" stroke-width="0.8"/>
</svg>
