<svg width="150" height="32" viewBox="0 0 150 32" fill="none" xmlns="http://www.w3.org/2000/svg">
<path d="M7.58136 0.743465L0 23.1192L20.4663 23.1135L22.4608 17.2434L8.2953 17.2547L9.1509 14.7446H17.0439L19.0044 8.95376H11.1114L11.9047 6.60795H26.0645L28.0476 0.737793L7.58136 0.743465Z" fill="white"/>
<path d="M116.69 8.94897L111.903 23.0804L102.831 8.94897H96.5132L88.9375 31.3247C90.7903 31.3247 95.2496 31.3247 95.2496 31.3247C95.2496 31.3247 99.3803 19.2218 100.038 17.1989L109.109 31.3247H115.421L123.003 8.95465H116.69V8.94897Z" fill="white"/>
<path d="M92.5126 8.94897H86.2005L78.6191 31.3247H84.9313L92.5126 8.94897Z" fill="white"/>
<path d="M63.3963 25.4319L68.9831 8.94897H62.671L55.084 31.3247L75.3746 31.3191L77.3691 25.4262L63.3963 25.4319Z" fill="white"/>
<path d="M127.011 8.94897L119.424 31.3247L139.896 31.3191L141.885 25.4489L127.725 25.4602L128.575 22.9501H136.468L138.428 17.1593H130.541L131.334 14.8191L145.488 14.8135L147.477 8.94897H127.011Z" fill="white"/>
<path d="M27.2048 23.1192L37.7156 12.2232L33.7606 0.737793H29.6923L33.6473 12.2232L23.1309 23.1192H27.2048Z" fill="#E42932"/>
<path d="M33.1521 23.1192L43.6685 12.2232L39.7079 0.737793H35.6396L39.5946 12.2232L29.0781 23.1192H33.1521Z" fill="#E42932"/>
<path d="M54.628 8.94897L44.1172 19.8394L48.0722 31.3247H52.1462L48.1855 19.8394L58.7019 8.94897H54.628Z" fill="#E42932"/>
<path d="M48.6768 8.94897L38.166 19.8394L42.121 31.3247H46.1893L42.2343 19.8394L52.7508 8.94897H48.6768Z" fill="#E42932"/>
<path d="M52.854 0.737793L51.7491 4.01283H55.0412L54.6615 5.12908H49.8906L51.3752 0.737793H52.854Z" fill="white"/>
<path d="M62.4271 0.73907L61.7415 2.7619C61.5205 3.45318 61.5205 3.45883 61.4922 3.63448C61.4525 3.98578 61.6962 4.05377 62.8974 4.05377C63.872 4.05377 64.1723 4.01412 64.3819 3.85547C64.5293 3.74215 64.5973 3.62315 64.7559 3.24351C64.8182 3.07919 64.9032 2.85255 64.9372 2.75623L65.6228 0.733398H67.0337L66.3481 2.75623C65.9911 3.74781 65.9572 3.82147 65.8155 4.13311C65.5719 4.63173 65.0959 4.98303 64.5349 5.08502C64.093 5.16435 63.617 5.19268 62.5404 5.19268C60.7669 5.19268 60.2456 5.10204 60.0133 4.75074C59.866 4.53542 59.8773 4.27477 60.0417 3.67982C60.087 3.49284 60.087 3.49283 60.3306 2.75623L61.0163 0.733398H62.4271V0.73907Z" fill="white"/>
<path d="M74.9184 2.47189C75.4 2.47189 75.6096 2.46054 75.7116 2.42655C75.8363 2.38688 75.9326 2.27356 75.9836 2.10924C76.0459 1.93359 76.012 1.83161 75.8873 1.79761C75.8193 1.78061 75.8023 1.78062 75.1507 1.76929H73.1619L72.9239 2.46621H74.9184V2.47189ZM74.3801 4.07542C75.2074 4.06976 75.2073 4.06975 75.3263 4.03009C75.468 3.98476 75.553 3.88275 75.621 3.69577C75.689 3.49745 75.655 3.40682 75.5247 3.36715C75.451 3.35582 75.451 3.3558 74.6294 3.34447H72.6349L72.3856 4.07542H74.3801ZM72.1759 0.738037H75.502C77.0319 0.743703 77.0829 0.743687 77.2982 0.862676C77.5872 1.01566 77.6212 1.30467 77.4228 1.88262C77.2132 2.5059 76.9639 2.76652 76.4596 2.89118C77.0375 2.9875 77.1395 3.24814 76.9015 3.95075C76.6976 4.5627 76.4199 4.88001 75.9836 5.02167C75.8023 5.07833 75.5303 5.10665 75.111 5.11798C75.0544 5.11798 74.6917 5.11799 74.0231 5.12365H70.6914L72.1759 0.738037Z" fill="white"/>
<path d="M85.656 2.9195C86.353 2.90817 86.353 2.90817 86.472 2.85151C86.6193 2.77785 86.7043 2.6532 86.8006 2.36423C86.8969 2.07525 86.8913 1.95058 86.7723 1.88825C86.6816 1.84292 86.6703 1.84294 86.0187 1.83728H84.0299L83.6672 2.91383H85.656V2.9195ZM82.9986 0.738037H86.4096C88.0075 0.738037 88.0075 0.73803 88.2455 0.908016C88.5288 1.112 88.5401 1.40099 88.2795 2.16593C88.0642 2.8062 87.9112 3.04982 87.6222 3.23114C87.4466 3.33879 87.2992 3.38981 86.9933 3.42947C87.6845 3.5088 87.7412 3.7071 87.3729 4.72134L87.2369 5.12933H85.8487L85.928 4.89699C86.217 4.04707 86.183 4.00174 85.3047 4.01307H83.3102L82.9363 5.12366H81.5254L82.9986 0.738037Z" fill="white"/>
<path d="M95.272 0.737793L93.7875 5.12908H92.3086L93.7931 0.737793H95.272Z" fill="white"/>
<path d="M105.483 3.44015C105.404 3.68946 105.381 3.79144 105.359 3.85377C105.126 4.54504 104.826 4.86802 104.293 5.03234C103.88 5.15133 103.347 5.19665 102.288 5.19665C100.525 5.19665 99.9588 5.14566 99.6358 4.95868C99.3525 4.79436 99.2845 4.53935 99.3978 4.0464C99.4432 3.84808 99.5565 3.48546 99.7378 2.96417C100.083 1.94426 100.236 1.58729 100.435 1.33798C100.882 0.782697 101.438 0.675049 103.829 0.675049C105.024 0.675049 105.444 0.714687 105.71 0.862008C106.067 1.05466 106.112 1.37763 105.869 2.09723L105.795 2.31255H104.384C104.458 2.05757 104.463 1.99525 104.429 1.92725C104.384 1.81393 104.01 1.77429 103.053 1.77429C102.169 1.77429 101.902 1.80261 101.732 1.9046C101.523 2.03492 101.381 2.28989 101.154 2.9585C100.775 4.08607 100.792 4.09741 102.276 4.09741C103.823 4.09741 103.846 4.09176 104.078 3.44015H105.483Z" fill="white"/>
<path d="M114.304 1.76337H114.027L112.565 3.42923H114.633L114.304 1.76337ZM114.809 4.38681H111.743L111.097 5.12908H109.482L113.42 0.737793H115.613L116.554 5.12908H114.95L114.809 4.38681Z" fill="white"/>
<path d="M125.234 0.737793L126.555 4.01283H126.702L127.773 0.737793H129.212L127.727 5.12908H125.274L123.942 1.85401H123.789L122.718 5.12908H121.279L122.764 0.737793H125.234Z" fill="white"/>
<path d="M139.85 0.737793L139.471 1.85969H137.408L136.298 5.12908H134.819L135.929 1.85969H133.861L134.241 0.737793H139.85Z" fill="white"/>
<path d="M145.157 3.67812C145.072 3.92176 145.066 4.02375 145.157 4.09174C145.281 4.17673 145.293 4.17675 146.403 4.18242C147.922 4.17675 147.922 4.17672 148.046 3.79709C148.137 3.53078 148.052 3.46847 147.605 3.4628C147.446 3.4628 146.993 3.44013 146.505 3.42313C146.001 3.3948 145.548 3.37779 145.395 3.37779C144.726 3.35513 144.431 3.26449 144.301 3.04351C144.193 2.84519 144.205 2.56188 144.358 2.11992C144.579 1.46831 144.873 1.07166 145.253 0.901675C145.678 0.714691 146.092 0.675049 147.769 0.675049C149.061 0.675049 149.525 0.731707 149.797 0.918691C150.035 1.09434 150.064 1.37763 149.882 1.92158C149.871 1.94991 149.843 2.0406 149.809 2.12559H148.449C148.517 1.91028 148.517 1.84793 148.46 1.7856C148.375 1.70061 148.222 1.68928 147.163 1.68928C145.973 1.68928 145.871 1.71761 145.757 2.03491C145.706 2.19357 145.74 2.27856 145.854 2.31822C145.967 2.35222 146.324 2.36923 147.327 2.39756C148.806 2.43722 149.106 2.47688 149.344 2.6412C149.622 2.83385 149.644 3.13417 149.429 3.75745C149.18 4.49972 148.868 4.87934 148.358 5.04933C148.035 5.16832 147.469 5.20232 146.024 5.20232C144.635 5.20232 144.086 5.14567 143.814 4.96435C143.531 4.77737 143.508 4.51672 143.718 3.89344L143.791 3.68379H145.157V3.67812Z" fill="white"/>
</svg>
