<svg width="15" height="15" viewBox="0 0 15 15" fill="none" xmlns="http://www.w3.org/2000/svg">
<path d="M8.08594 10.5469C8.08594 10.6628 8.05158 10.776 7.98719 10.8724C7.92281 10.9688 7.8313 11.0439 7.72423 11.0882C7.61717 11.1326 7.49935 11.1442 7.38569 11.1216C7.27203 11.0989 7.16763 11.0431 7.08568 10.9612C7.00374 10.8793 6.94793 10.7748 6.92532 10.6612C6.90272 10.5475 6.91432 10.4297 6.95867 10.3226C7.00302 10.2156 7.07812 10.1241 7.17447 10.0597C7.27083 9.9953 7.38412 9.96094 7.5 9.96094C7.6554 9.96094 7.80444 10.0227 7.91432 10.1326C8.02421 10.2424 8.08594 10.3915 8.08594 10.5469ZM7.5 4.33594C6.26953 4.33594 5.27344 5.22949 5.27344 6.32813V6.5625C5.27344 6.65574 5.31048 6.74516 5.37641 6.81109C5.44234 6.87702 5.53176 6.91406 5.625 6.91406C5.71824 6.91406 5.80766 6.87702 5.8736 6.81109C5.93953 6.74516 5.97657 6.65574 5.97657 6.5625V6.32813C5.97657 5.61738 6.65977 5.03906 7.5 5.03906C8.34024 5.03906 9.02344 5.61738 9.02344 6.32813C9.02344 7.03887 8.34024 7.61719 7.5 7.61719C7.40676 7.61719 7.31734 7.65423 7.25141 7.72016C7.18548 7.78609 7.14844 7.87551 7.14844 7.96875V8.4375C7.14844 8.53074 7.18548 8.62016 7.25141 8.68609C7.31734 8.75202 7.40676 8.78906 7.5 8.78906C7.59324 8.78906 7.68266 8.75202 7.7486 8.68609C7.81453 8.62016 7.85157 8.53074 7.85157 8.4375V8.2957C8.9127 8.14453 9.72657 7.31953 9.72657 6.32813C9.72657 5.22949 8.73047 4.33594 7.5 4.33594ZM13.4766 7.5C13.4766 8.68205 13.126 9.83756 12.4693 10.8204C11.8126 11.8032 10.8792 12.5693 9.78713 13.0216C8.69506 13.474 7.49337 13.5923 6.33403 13.3617C5.17469 13.1311 4.10977 12.5619 3.27393 11.7261C2.4381 10.8902 1.86889 9.82531 1.63828 8.66597C1.40767 7.50663 1.52603 6.30494 1.97838 5.21287C2.43073 4.12079 3.19676 3.18738 4.1796 2.53067C5.16244 1.87396 6.31795 1.52344 7.5 1.52344C9.08452 1.5253 10.6036 2.15557 11.724 3.27599C12.8444 4.39641 13.4747 5.91549 13.4766 7.5ZM12.7734 7.5C12.7734 6.45701 12.4642 5.43745 11.8847 4.57024C11.3053 3.70302 10.4817 3.02711 9.51806 2.62798C8.55447 2.22885 7.49415 2.12441 6.47121 2.32789C5.44826 2.53137 4.50862 3.03361 3.77112 3.77112C3.03362 4.50862 2.53137 5.44826 2.32789 6.4712C2.12442 7.49415 2.22885 8.55446 2.62798 9.51806C3.02712 10.4817 3.70303 11.3053 4.57024 11.8847C5.43745 12.4642 6.45702 12.7734 7.5 12.7734C8.89813 12.7719 10.2385 12.2158 11.2272 11.2272C12.2158 10.2385 12.7719 8.89813 12.7734 7.5Z" fill="white"/>
</svg>
