<svg xmlns="http://www.w3.org/2000/svg">
   <symbol viewBox="0 0 150 32" id="logo">
      <path
         d="M7.58136 0.743465L0 23.1192L20.4663 23.1135L22.4608 17.2434L8.2953 17.2547L9.1509 14.7446H17.0439L19.0044 8.95376H11.1114L11.9047 6.60795H26.0645L28.0476 0.737793L7.58136 0.743465Z"
         fill="white" />
      <path
         d="M116.69 8.94897L111.903 23.0804L102.831 8.94897H96.5132L88.9375 31.3247C90.7903 31.3247 95.2496 31.3247 95.2496 31.3247C95.2496 31.3247 99.3803 19.2218 100.038 17.1989L109.109 31.3247H115.421L123.003 8.95465H116.69V8.94897Z"
         fill="white" />
      <path d="M92.5126 8.94897H86.2005L78.6191 31.3247H84.9313L92.5126 8.94897Z" fill="white" />
      <path
         d="M63.3963 25.4319L68.9831 8.94897H62.671L55.084 31.3247L75.3746 31.3191L77.3691 25.4262L63.3963 25.4319Z"
         fill="white" />
      <path
         d="M127.011 8.94897L119.424 31.3247L139.896 31.3191L141.885 25.4489L127.725 25.4602L128.575 22.9501H136.468L138.428 17.1593H130.541L131.334 14.8191L145.488 14.8135L147.477 8.94897H127.011Z"
         fill="white" />
      <path
         d="M27.2048 23.1192L37.7156 12.2232L33.7606 0.737793H29.6923L33.6473 12.2232L23.1309 23.1192H27.2048Z"
         fill="#E42932" />
      <path
         d="M33.1521 23.1192L43.6685 12.2232L39.7079 0.737793H35.6396L39.5946 12.2232L29.0781 23.1192H33.1521Z"
         fill="#E42932" />
      <path
         d="M54.628 8.94897L44.1172 19.8394L48.0722 31.3247H52.1462L48.1855 19.8394L58.7019 8.94897H54.628Z"
         fill="#E42932" />
      <path
         d="M48.6768 8.94897L38.166 19.8394L42.121 31.3247H46.1893L42.2343 19.8394L52.7508 8.94897H48.6768Z"
         fill="#E42932" />
      <path
         d="M52.854 0.737793L51.7491 4.01283H55.0412L54.6615 5.12908H49.8906L51.3752 0.737793H52.854Z"
         fill="white" />
      <path
         d="M62.4271 0.73907L61.7415 2.7619C61.5205 3.45318 61.5205 3.45883 61.4922 3.63448C61.4525 3.98578 61.6962 4.05377 62.8974 4.05377C63.872 4.05377 64.1723 4.01412 64.3819 3.85547C64.5293 3.74215 64.5973 3.62315 64.7559 3.24351C64.8182 3.07919 64.9032 2.85255 64.9372 2.75623L65.6228 0.733398H67.0337L66.3481 2.75623C65.9911 3.74781 65.9572 3.82147 65.8155 4.13311C65.5719 4.63173 65.0959 4.98303 64.5349 5.08502C64.093 5.16435 63.617 5.19268 62.5404 5.19268C60.7669 5.19268 60.2456 5.10204 60.0133 4.75074C59.866 4.53542 59.8773 4.27477 60.0417 3.67982C60.087 3.49284 60.087 3.49283 60.3306 2.75623L61.0163 0.733398H62.4271V0.73907Z"
         fill="white" />
      <path
         d="M74.9184 2.47189C75.4 2.47189 75.6096 2.46054 75.7116 2.42655C75.8363 2.38688 75.9326 2.27356 75.9836 2.10924C76.0459 1.93359 76.012 1.83161 75.8873 1.79761C75.8193 1.78061 75.8023 1.78062 75.1507 1.76929H73.1619L72.9239 2.46621H74.9184V2.47189ZM74.3801 4.07542C75.2074 4.06976 75.2073 4.06975 75.3263 4.03009C75.468 3.98476 75.553 3.88275 75.621 3.69577C75.689 3.49745 75.655 3.40682 75.5247 3.36715C75.451 3.35582 75.451 3.3558 74.6294 3.34447H72.6349L72.3856 4.07542H74.3801ZM72.1759 0.738037H75.502C77.0319 0.743703 77.0829 0.743687 77.2982 0.862676C77.5872 1.01566 77.6212 1.30467 77.4228 1.88262C77.2132 2.5059 76.9639 2.76652 76.4596 2.89118C77.0375 2.9875 77.1395 3.24814 76.9015 3.95075C76.6976 4.5627 76.4199 4.88001 75.9836 5.02167C75.8023 5.07833 75.5303 5.10665 75.111 5.11798C75.0544 5.11798 74.6917 5.11799 74.0231 5.12365H70.6914L72.1759 0.738037Z"
         fill="white" />
      <path
         d="M85.656 2.9195C86.353 2.90817 86.353 2.90817 86.472 2.85151C86.6193 2.77785 86.7043 2.6532 86.8006 2.36423C86.8969 2.07525 86.8913 1.95058 86.7723 1.88825C86.6816 1.84292 86.6703 1.84294 86.0187 1.83728H84.0299L83.6672 2.91383H85.656V2.9195ZM82.9986 0.738037H86.4096C88.0075 0.738037 88.0075 0.73803 88.2455 0.908016C88.5288 1.112 88.5401 1.40099 88.2795 2.16593C88.0642 2.8062 87.9112 3.04982 87.6222 3.23114C87.4466 3.33879 87.2992 3.38981 86.9933 3.42947C87.6845 3.5088 87.7412 3.7071 87.3729 4.72134L87.2369 5.12933H85.8487L85.928 4.89699C86.217 4.04707 86.183 4.00174 85.3047 4.01307H83.3102L82.9363 5.12366H81.5254L82.9986 0.738037Z"
         fill="white" />
      <path d="M95.272 0.737793L93.7875 5.12908H92.3086L93.7931 0.737793H95.272Z" fill="white" />
      <path
         d="M105.483 3.44015C105.404 3.68946 105.381 3.79144 105.359 3.85377C105.126 4.54504 104.826 4.86802 104.293 5.03234C103.88 5.15133 103.347 5.19665 102.288 5.19665C100.525 5.19665 99.9588 5.14566 99.6358 4.95868C99.3525 4.79436 99.2845 4.53935 99.3978 4.0464C99.4432 3.84808 99.5565 3.48546 99.7378 2.96417C100.083 1.94426 100.236 1.58729 100.435 1.33798C100.882 0.782697 101.438 0.675049 103.829 0.675049C105.024 0.675049 105.444 0.714687 105.71 0.862008C106.067 1.05466 106.112 1.37763 105.869 2.09723L105.795 2.31255H104.384C104.458 2.05757 104.463 1.99525 104.429 1.92725C104.384 1.81393 104.01 1.77429 103.053 1.77429C102.169 1.77429 101.902 1.80261 101.732 1.9046C101.523 2.03492 101.381 2.28989 101.154 2.9585C100.775 4.08607 100.792 4.09741 102.276 4.09741C103.823 4.09741 103.846 4.09176 104.078 3.44015H105.483Z"
         fill="white" />
      <path
         d="M114.304 1.76337H114.027L112.565 3.42923H114.633L114.304 1.76337ZM114.809 4.38681H111.743L111.097 5.12908H109.482L113.42 0.737793H115.613L116.554 5.12908H114.95L114.809 4.38681Z"
         fill="white" />
      <path
         d="M125.234 0.737793L126.555 4.01283H126.702L127.773 0.737793H129.212L127.727 5.12908H125.274L123.942 1.85401H123.789L122.718 5.12908H121.279L122.764 0.737793H125.234Z"
         fill="white" />
      <path
         d="M139.85 0.737793L139.471 1.85969H137.408L136.298 5.12908H134.819L135.929 1.85969H133.861L134.241 0.737793H139.85Z"
         fill="white" />
      <path
         d="M145.157 3.67812C145.072 3.92176 145.066 4.02375 145.157 4.09174C145.281 4.17673 145.293 4.17675 146.403 4.18242C147.922 4.17675 147.922 4.17672 148.046 3.79709C148.137 3.53078 148.052 3.46847 147.605 3.4628C147.446 3.4628 146.993 3.44013 146.505 3.42313C146.001 3.3948 145.548 3.37779 145.395 3.37779C144.726 3.35513 144.431 3.26449 144.301 3.04351C144.193 2.84519 144.205 2.56188 144.358 2.11992C144.579 1.46831 144.873 1.07166 145.253 0.901675C145.678 0.714691 146.092 0.675049 147.769 0.675049C149.061 0.675049 149.525 0.731707 149.797 0.918691C150.035 1.09434 150.064 1.37763 149.882 1.92158C149.871 1.94991 149.843 2.0406 149.809 2.12559H148.449C148.517 1.91028 148.517 1.84793 148.46 1.7856C148.375 1.70061 148.222 1.68928 147.163 1.68928C145.973 1.68928 145.871 1.71761 145.757 2.03491C145.706 2.19357 145.74 2.27856 145.854 2.31822C145.967 2.35222 146.324 2.36923 147.327 2.39756C148.806 2.43722 149.106 2.47688 149.344 2.6412C149.622 2.83385 149.644 3.13417 149.429 3.75745C149.18 4.49972 148.868 4.87934 148.358 5.04933C148.035 5.16832 147.469 5.20232 146.024 5.20232C144.635 5.20232 144.086 5.14567 143.814 4.96435C143.531 4.77737 143.508 4.51672 143.718 3.89344L143.791 3.68379H145.157V3.67812Z"
         fill="white" />
   </symbol>

   <symbol viewBox="0 0 174 47" id="rotate" fill="none">
      <path
         d="M9.95171 35.3082C8.49858 35.3082 7.20324 35.0587 6.0657 34.5597C4.93549 34.0606 4.03646 33.3671 3.36861 32.479C2.7081 31.5837 2.34848 30.5452 2.28977 29.3636H5.06392C5.12263 30.0902 5.37216 30.7177 5.8125 31.2461C6.25284 31.7672 6.82895 32.1708 7.54084 32.457C8.25272 32.7433 9.04167 32.8864 9.90767 32.8864C10.8764 32.8864 11.7351 32.7176 12.4837 32.38C13.2322 32.0424 13.8194 31.5727 14.245 30.9709C14.6707 30.3691 14.8835 29.6719 14.8835 28.8793C14.8835 28.05 14.678 27.3197 14.267 26.6886C13.8561 26.0501 13.2543 25.551 12.4616 25.1914C11.669 24.8318 10.7003 24.652 9.5554 24.652H7.75V22.2301H9.5554C10.4508 22.2301 11.236 22.0687 11.9112 21.7457C12.5938 21.4228 13.1258 20.9678 13.5075 20.3807C13.8964 19.7936 14.0909 19.1037 14.0909 18.3111C14.0909 17.5478 13.9221 16.8836 13.5845 16.3185C13.2469 15.7534 12.7699 15.3131 12.1534 14.9975C11.5443 14.6819 10.825 14.5241 9.99574 14.5241C9.2178 14.5241 8.4839 14.6673 7.79403 14.9535C7.11151 15.2324 6.55374 15.6397 6.12074 16.1754C5.68774 16.7038 5.45289 17.3423 5.41619 18.0909H2.77415C2.81818 16.9093 3.17412 15.8745 3.84197 14.9865C4.50982 14.0911 5.38317 13.3939 6.462 12.8949C7.54818 12.3958 8.74077 12.1463 10.0398 12.1463C11.4342 12.1463 12.6304 12.4289 13.6286 12.994C14.6267 13.5517 15.3936 14.2893 15.9293 15.2067C16.4651 16.1241 16.733 17.1148 16.733 18.179C16.733 19.4486 16.399 20.5311 15.7312 21.4265C15.0707 22.3219 14.1716 22.942 13.0341 23.2869V23.4631C14.4579 23.6979 15.5697 24.3034 16.3697 25.2795C17.1696 26.2482 17.5696 27.4482 17.5696 28.8793C17.5696 30.1049 17.2357 31.2057 16.5678 32.1818C15.9073 33.1506 15.0046 33.9138 13.8597 34.4716C12.7148 35.0294 11.4122 35.3082 9.95171 35.3082ZM29.5579 35.3082C28.6332 35.2936 27.7085 35.1174 26.7837 34.7798C25.859 34.4422 25.015 33.8735 24.2518 33.0735C23.4885 32.2662 22.8757 31.1764 22.4134 29.804C21.951 28.4242 21.7198 26.6922 21.7198 24.608C21.7198 22.6117 21.907 20.843 22.2812 19.3018C22.6555 17.7533 23.1986 16.4506 23.9105 15.3938C24.6224 14.3297 25.4811 13.5224 26.4865 12.9719C27.4993 12.4215 28.6405 12.1463 29.9102 12.1463C31.1725 12.1463 32.2953 12.3995 33.2788 12.9059C34.2695 13.4049 35.0768 14.1022 35.7006 14.9975C36.3245 15.8929 36.7281 16.924 36.9116 18.0909H34.2255C33.976 17.0781 33.4916 16.2378 32.7724 15.57C32.0531 14.9021 31.0991 14.5682 29.9102 14.5682C28.1635 14.5682 26.7874 15.3278 25.782 16.8469C24.7839 18.3661 24.2811 20.4981 24.2738 23.2429H24.4499C24.8609 22.6191 25.349 22.087 25.9141 21.6467C26.4865 21.199 27.1177 20.854 27.8075 20.6119C28.4974 20.3697 29.2276 20.2486 29.9982 20.2486C31.2899 20.2486 32.4715 20.5715 33.543 21.2173C34.6145 21.8558 35.4731 22.7402 36.119 23.8704C36.7648 24.9933 37.0877 26.2812 37.0877 27.7344C37.0877 29.1288 36.7758 30.4058 36.152 31.5653C35.5282 32.7176 34.6512 33.6349 33.521 34.3175C32.3981 34.9927 31.0771 35.3229 29.5579 35.3082ZM29.5579 32.8864C30.4826 32.8864 31.3119 32.6552 32.0458 32.1928C32.7871 31.7305 33.3705 31.1103 33.7962 30.3324C34.2292 29.5545 34.4457 28.6884 34.4457 27.7344C34.4457 26.8023 34.2365 25.9547 33.8182 25.1914C33.4072 24.4208 32.8384 23.808 32.1119 23.353C31.3926 22.898 30.5707 22.6705 29.646 22.6705C28.9487 22.6705 28.2992 22.8099 27.6974 23.0888C27.0956 23.3603 26.5672 23.7346 26.1122 24.2116C25.6645 24.6887 25.3123 25.2354 25.0554 25.8519C24.7985 26.4611 24.6701 27.1032 24.6701 27.7784C24.6701 28.6738 24.8793 29.5104 25.2976 30.2884C25.7232 31.0663 26.303 31.6938 27.0369 32.1708C27.7782 32.6478 28.6185 32.8864 29.5579 32.8864ZM48.7705 35.3082C47.1119 35.3082 45.6991 34.8569 44.5322 33.9542C43.3653 33.0442 42.4736 31.7268 41.8572 30.0021C41.2407 28.2701 40.9324 26.1785 40.9324 23.7273C40.9324 21.2907 41.2407 19.2101 41.8572 17.4854C42.481 15.7534 43.3763 14.4324 44.5432 13.5224C45.7175 12.605 47.1266 12.1463 48.7705 12.1463C50.4144 12.1463 51.8199 12.605 52.9868 13.5224C54.161 14.4324 55.0564 15.7534 55.6729 17.4854C56.2967 19.2101 56.6086 21.2907 56.6086 23.7273C56.6086 26.1785 56.3003 28.2701 55.6839 30.0021C55.0674 31.7268 54.1757 33.0442 53.0088 33.9542C51.8419 34.8569 50.4291 35.3082 48.7705 35.3082ZM48.7705 32.8864C50.4144 32.8864 51.6914 32.0937 52.6015 30.5085C53.5115 28.9233 53.9665 26.6629 53.9665 23.7273C53.9665 21.7751 53.7574 20.1128 53.339 18.7404C52.9281 17.368 52.3336 16.3222 51.5557 15.603C50.7851 14.8838 49.8567 14.5241 48.7705 14.5241C47.1412 14.5241 45.8679 15.3278 44.9506 16.935C44.0332 18.5349 43.5745 20.799 43.5745 23.7273C43.5745 25.6795 43.78 27.3381 44.191 28.7031C44.6019 30.0682 45.1927 31.1067 45.9633 31.8185C46.7413 32.5304 47.677 32.8864 48.7705 32.8864ZM65.5035 22.4062C64.5714 22.4062 63.7201 22.1787 62.9495 21.7237C62.1862 21.2687 61.5771 20.6596 61.1221 19.8963C60.6671 19.1257 60.4395 18.2744 60.4395 17.3423C60.4395 16.4103 60.6671 15.5626 61.1221 14.7994C61.5771 14.0288 62.1862 13.416 62.9495 12.9609C63.7201 12.5059 64.5714 12.2784 65.5035 12.2784C66.4355 12.2784 67.2832 12.5059 68.0464 12.9609C68.817 13.416 69.4298 14.0288 69.8849 14.7994C70.3399 15.5626 70.5674 16.4103 70.5674 17.3423C70.5674 18.2744 70.3399 19.1257 69.8849 19.8963C69.4298 20.6596 68.817 21.2687 68.0464 21.7237C67.2832 22.1787 66.4355 22.4062 65.5035 22.4062ZM65.5035 20.2045C66.0319 20.2045 66.5126 20.0761 66.9456 19.8192C67.3786 19.5624 67.7235 19.2174 67.9804 18.7844C68.2372 18.3514 68.3657 17.8707 68.3657 17.3423C68.3657 16.8139 68.2372 16.3332 67.9804 15.9002C67.7235 15.4672 67.3786 15.1223 66.9456 14.8654C66.5126 14.6085 66.0319 14.4801 65.5035 14.4801C64.9751 14.4801 64.4943 14.6085 64.0613 14.8654C63.6283 15.1223 63.2834 15.4672 63.0265 15.9002C62.7697 16.3332 62.6412 16.8139 62.6412 17.3423C62.6412 17.8707 62.7697 18.3514 63.0265 18.7844C63.2834 19.2174 63.6283 19.5624 64.0613 19.8192C64.4943 20.0761 64.9751 20.2045 65.5035 20.2045Z"
         fill="white" />
      <path
         d="M96 21C96 16.0294 113.237 12 134.5 12C155.763 12 173 16.0294 173 21C173 25.9706 155.763 30 134.5 30C127.59 30 121.106 29.5745 115.5 28.8295M115.5 28.8295L115.746 28.7621C121.241 27.2562 126.841 26.1657 132.5 25.5V25.5M115.5 28.8295L117.47 29.8562C121.482 31.9477 125.676 33.6694 130 35V35"
         stroke="white" stroke-width="2" stroke-linecap="round" />
   </symbol>

   <symbol viewBox="0 0 24 24" id="canister">
      <g clip-path="url(#clip0_326_570)">
         <path
            d="M20.3177 9.37069L13.9076 2.96044C13.8461 2.89888 13.7626 2.86428 13.6755 2.86425H10.6406V1.45256C10.64 1.06737 10.4867 0.698139 10.2143 0.425838C9.94182 0.153538 9.5725 0.000396695 9.18731 0L6.30469 0C5.91943 0.000446616 5.55008 0.153687 5.27767 0.426104C5.00525 0.698521 4.85201 1.06787 4.85156 1.45312V2.86481H3.91406C3.82705 2.86486 3.74362 2.89945 3.6821 2.96097C3.62057 3.0225 3.58599 3.10593 3.58594 3.19294V23.664C3.58594 23.751 3.62051 23.8345 3.68204 23.896C3.74358 23.9576 3.82704 23.9921 3.91406 23.9921H20.0859C20.129 23.9921 20.1717 23.9837 20.2115 23.9672C20.2514 23.9507 20.2875 23.9265 20.318 23.8961C20.3485 23.8656 20.3727 23.8294 20.3891 23.7896C20.4056 23.7498 20.4141 23.7071 20.4141 23.664V9.60262C20.414 9.55953 20.4055 9.51687 20.3889 9.47707C20.3724 9.43727 20.3482 9.40112 20.3177 9.37069ZM5.50781 1.45256C5.50806 1.24129 5.5921 1.03875 5.74149 0.889361C5.89088 0.739972 6.09342 0.655936 6.30469 0.655688H9.18731C9.39858 0.655936 9.60112 0.739972 9.75051 0.889361C9.8999 1.03875 9.98394 1.24129 9.98419 1.45256V2.86425H5.50781V1.45256ZM19.7578 23.3359H4.242V3.5205H13.5397L19.7576 9.73856L19.7578 23.3359Z"
            fill="white" />
         <path
            d="M13.031 5.73543C12.7508 5.79122 12.4909 5.92146 12.2785 6.11247C12.0662 6.30347 11.9092 6.54818 11.8241 6.82085C11.739 7.09352 11.729 7.38408 11.7951 7.66197C11.8612 7.93986 12.0009 8.19481 12.1996 8.4L14.7815 11.0668C14.9288 11.2202 15.1057 11.3422 15.3013 11.4256C15.497 11.5091 15.7075 11.5521 15.9202 11.5522C16.1302 11.552 16.3382 11.5104 16.5322 11.4298L16.5922 11.4051C16.8337 11.305 17.0468 11.1469 17.2126 10.9449C17.3784 10.7428 17.4918 10.5029 17.5428 10.2466C17.5938 9.99019 17.5808 9.7252 17.5049 9.47505C17.429 9.22491 17.2926 8.99734 17.1078 8.8125L14.4657 6.17043C14.2811 5.98507 14.0535 5.84832 13.8031 5.77242C13.5527 5.69651 13.2875 5.6838 13.031 5.73543ZM16.6439 9.27656C16.7524 9.38511 16.8325 9.51875 16.8771 9.66564C16.9216 9.81254 16.9292 9.96815 16.8993 10.1187C16.8693 10.2692 16.8027 10.4101 16.7053 10.5287C16.6079 10.6474 16.4827 10.7402 16.3409 10.7989L16.2809 10.8236C16.1081 10.8961 15.9174 10.9145 15.734 10.8765C15.5505 10.8385 15.3828 10.7458 15.253 10.6106L12.671 7.94343C12.5443 7.81276 12.4587 7.64788 12.4247 7.46912C12.3907 7.29036 12.4098 7.10555 12.4795 6.9375C12.5372 6.79499 12.6296 6.66923 12.7484 6.57171C12.8672 6.47419 13.0086 6.40804 13.1596 6.37931C13.2213 6.36694 13.2841 6.36066 13.3471 6.36056C13.4689 6.36062 13.5894 6.38489 13.7017 6.43195C13.814 6.479 13.9159 6.54792 14.0013 6.63468L16.6439 9.27656Z"
            fill="white" />
         <path
            d="M5.46094 13.4282V21.789C5.46094 21.876 5.49551 21.9595 5.55704 22.021C5.61858 22.0826 5.70204 22.1171 5.78906 22.1171H18.2109C18.254 22.1172 18.2967 22.1087 18.3365 22.0922C18.3764 22.0757 18.4125 22.0516 18.443 22.0211C18.4735 21.9906 18.4977 21.9544 18.5141 21.9146C18.5306 21.8748 18.5391 21.8321 18.5391 21.789V13.4282C18.5391 13.3851 18.5306 13.3424 18.5141 13.3026C18.4977 13.2628 18.4735 13.2266 18.443 13.1961C18.4125 13.1656 18.3764 13.1415 18.3365 13.125C18.2967 13.1085 18.254 13.1 18.2109 13.1001H5.78906C5.70204 13.1001 5.61858 13.1346 5.55704 13.1962C5.49551 13.2577 5.46094 13.3412 5.46094 13.4282ZM6.11719 13.7563H17.8828V21.4609H6.11719V13.7563Z"
            fill="white" />
         <path
            d="M12 15.2199C11.9409 15.2199 11.883 15.2358 11.8322 15.266C11.7815 15.2961 11.7398 15.3394 11.7116 15.3913C11.5022 15.777 10.457 17.7364 10.457 18.4545C10.457 18.8637 10.6196 19.2562 10.9089 19.5455C11.1983 19.8349 11.5908 19.9974 12 19.9974C12.4092 19.9974 12.8016 19.8349 13.091 19.5455C13.3803 19.2562 13.5429 18.8637 13.5429 18.4545C13.5429 17.7364 12.4978 15.777 12.2882 15.3913C12.26 15.3395 12.2184 15.2962 12.1676 15.266C12.1169 15.2358 12.059 15.2199 12 15.2199ZM12 19.341C11.7649 19.3408 11.5396 19.2473 11.3733 19.0811C11.2071 18.9149 11.1136 18.6896 11.1133 18.4545C11.1133 18.1251 11.5678 17.1064 12 16.2546C12.4323 17.1062 12.8867 18.1249 12.8867 18.4545C12.8864 18.6896 12.7928 18.9149 12.6266 19.0811C12.4604 19.2473 12.235 19.3408 12 19.341Z"
            fill="white" />
      </g>
      <defs>
         <clipPath id="clip0_326_570">
            <rect width="24" height="24" fill="white" />
         </clipPath>
      </defs>
   </symbol>

   <symbol viewBox="0 0 16 16" id="download" fill="none">
      <path
         d="M14 10V12.6667C14 13.0203 13.8595 13.3594 13.6095 13.6095C13.3594 13.8595 13.0203 14 12.6667 14H3.33333C2.97971 14 2.64057 13.8595 2.39052 13.6095C2.14048 13.3594 2 13.0203 2 12.6667V10"
         stroke="white" stroke-linecap="round" stroke-linejoin="round" />
      <path d="M4.66602 6.66666L7.99935 9.99999L11.3327 6.66666" stroke="white"
         stroke-linecap="round" stroke-linejoin="round" />
      <path d="M8 10V2" stroke="white" stroke-linecap="round" stroke-linejoin="round" />
   </symbol>

   <symbol viewBox="0 0 24 24" id="gear" fill="none">
      <path
         d="M19.229 11.0012L19.053 11.1346L19.0721 11.3547C19.0912 11.5737 19.1006 11.7821 19.1006 12C19.1006 12.2181 19.0912 12.42 19.064 12.6283L19.034 12.8585L19.219 12.9988L21.0756 14.4062C21.0761 14.4065 21.0766 14.4069 21.0771 14.4073C21.3182 14.5953 21.3841 14.9249 21.2336 15.1911C21.2333 15.1916 21.2331 15.192 21.2329 15.1924L19.3645 18.4196L19.3629 18.4224C19.2133 18.6855 18.8917 18.7912 18.6201 18.6732L18.6166 18.6716L16.4666 17.7616L16.2622 17.6751L16.0807 17.8027C15.728 18.0506 15.3586 18.2682 14.9725 18.4471L14.7714 18.5403L14.7438 18.7602L14.4538 21.0702L14.4535 21.0723C14.4176 21.3714 14.1581 21.6 13.8606 21.6H10.1306C9.83318 21.6 9.57368 21.3714 9.5378 21.0723L9.53753 21.0702L9.24753 18.7602L9.21992 18.5403L9.01883 18.4471C8.63273 18.2682 8.2633 18.0506 7.91062 17.8027L7.72907 17.6751L7.52473 17.7616L5.37473 18.6716L5.37472 18.6716L5.37115 18.6732C5.09959 18.7912 4.77794 18.6855 4.62844 18.4224L4.62681 18.4196L2.75842 15.1924C2.75819 15.192 2.75796 15.1916 2.75772 15.1912C2.60496 14.9209 2.67714 14.5851 2.91064 14.41L2.91228 14.4088L4.77228 12.9988L4.94938 12.8645L4.92895 12.6432C4.88975 12.2186 4.88975 11.7914 4.92895 11.3668L4.94938 11.1455L4.77228 11.0112L2.91419 9.60268C2.67297 9.4146 2.60719 9.08494 2.75784 8.81864L4.62708 5.57995L4.62709 5.57996L4.62842 5.5776C4.77794 5.31446 5.09959 5.20876 5.37115 5.32683L5.37473 5.32836L7.52473 6.23836L7.72907 6.32485L7.91062 6.19728C8.2633 5.94945 8.63273 5.73185 9.01883 5.55292L9.21992 5.45973L9.24753 5.23983L9.53753 2.92983L9.53753 2.92983L9.53779 2.92766C9.57338 2.6311 9.83069 2.4 10.1406 2.4H13.8706C14.1681 2.4 14.4276 2.62864 14.4635 2.92766L14.4638 2.92983L14.7538 5.23983L14.7814 5.45973L14.9825 5.55292C15.3686 5.73185 15.738 5.94945 16.0907 6.19728L16.2722 6.32485L16.4766 6.23836L18.6266 5.32837L18.6291 5.32726C18.762 5.26991 18.9115 5.26368 19.0487 5.30979C19.1859 5.35589 19.3012 5.45108 19.3725 5.57705L19.3725 5.57706L19.3745 5.58041L21.2429 8.8076C21.2431 8.80803 21.2433 8.80845 21.2436 8.80888C21.3963 9.07914 21.3241 9.41488 21.0906 9.59L21.089 9.59124L19.229 11.0012ZM8.14064 12C8.14064 14.1509 9.88973 15.9 12.0406 15.9C14.1916 15.9 15.9406 14.1509 15.9406 12C15.9406 9.84909 14.1916 8.1 12.0406 8.1C9.88973 8.1 8.14064 9.84909 8.14064 12Z"
         stroke="white" stroke-width="0.8" />
   </symbol>

   <symbol viewBox="0 0 24 24" id="mail" fill="none">
      <path
         d="M4 4H20C21.1 4 22 4.9 22 6V18C22 19.1 21.1 20 20 20H4C2.9 20 2 19.1 2 18V6C2 4.9 2.9 4 4 4Z"
         fill="#EE383A" />
      <path d="M22 6L12 13L2 6" stroke="#1E1E1E" stroke-width="2" stroke-linecap="round"
         stroke-linejoin="round" />
   </symbol>

   <symbol viewBox="0 0 16 16" id="mark" fill="none">
      <path
         d="M14 6.66675C14 11.3334 8 15.3334 8 15.3334C8 15.3334 2 11.3334 2 6.66675C2 5.07545 2.63214 3.54933 3.75736 2.42411C4.88258 1.29889 6.4087 0.666748 8 0.666748C9.5913 0.666748 11.1174 1.29889 12.2426 2.42411C13.3679 3.54933 14 5.07545 14 6.66675Z"
         stroke="white" stroke-linecap="round" stroke-linejoin="round" />
      <path
         d="M8 8.66675C9.10457 8.66675 10 7.77132 10 6.66675C10 5.56218 9.10457 4.66675 8 4.66675C6.89543 4.66675 6 5.56218 6 6.66675C6 7.77132 6.89543 8.66675 8 8.66675Z"
         stroke="white" stroke-linecap="round" stroke-linejoin="round" />
   </symbol>

   <symbol viewBox="0 0 24 24" id="phone" fill="none">
      <path
         d="M21.9994 16.9201V19.9201C22.0006 20.1986 21.9435 20.4743 21.832 20.7294C21.7204 20.9846 21.5567 21.2137 21.3515 21.402C21.1463 21.5902 20.904 21.7336 20.6402 21.8228C20.3764 21.912 20.0968 21.9452 19.8194 21.9201C16.7423 21.5857 13.7864 20.5342 11.1894 18.8501C8.77327 17.3148 6.72478 15.2663 5.18945 12.8501C3.49942 10.2413 2.44769 7.27109 2.11944 4.1801C2.09446 3.90356 2.12732 3.62486 2.21595 3.36172C2.30457 3.09859 2.44702 2.85679 2.63421 2.65172C2.82141 2.44665 3.04925 2.28281 3.30324 2.17062C3.55722 2.05843 3.83179 2.00036 4.10945 2.0001H7.10945C7.59475 1.99532 8.06524 2.16718 8.43321 2.48363C8.80118 2.80008 9.04152 3.23954 9.10944 3.7201C9.23607 4.68016 9.47089 5.62282 9.80945 6.5301C9.94399 6.88802 9.97311 7.27701 9.89335 7.65098C9.8136 8.02494 9.62831 8.36821 9.35944 8.6401L8.08945 9.9101C9.513 12.4136 11.5859 14.4865 14.0894 15.9101L15.3594 14.6401C15.6313 14.3712 15.9746 14.1859 16.3486 14.1062C16.7225 14.0264 17.1115 14.0556 17.4694 14.1901C18.3767 14.5286 19.3194 14.7635 20.2794 14.8901C20.7652 14.9586 21.2088 15.2033 21.526 15.5776C21.8431 15.9519 22.0116 16.4297 21.9994 16.9201Z"
         fill="#EE383A" />
   </symbol>


   <symbol viewBox="0 0 15 15" id="qm">
      <path
         d="M8.08594 10.5469C8.08594 10.6628 8.05158 10.776 7.98719 10.8724C7.92281 10.9688 7.8313 11.0439 7.72423 11.0882C7.61717 11.1326 7.49935 11.1442 7.38569 11.1216C7.27203 11.0989 7.16763 11.0431 7.08568 10.9612C7.00374 10.8793 6.94793 10.7748 6.92532 10.6612C6.90272 10.5475 6.91432 10.4297 6.95867 10.3226C7.00302 10.2156 7.07812 10.1241 7.17447 10.0597C7.27083 9.9953 7.38412 9.96094 7.5 9.96094C7.6554 9.96094 7.80444 10.0227 7.91432 10.1326C8.02421 10.2424 8.08594 10.3915 8.08594 10.5469ZM7.5 4.33594C6.26953 4.33594 5.27344 5.22949 5.27344 6.32813V6.5625C5.27344 6.65574 5.31048 6.74516 5.37641 6.81109C5.44234 6.87702 5.53176 6.91406 5.625 6.91406C5.71824 6.91406 5.80766 6.87702 5.8736 6.81109C5.93953 6.74516 5.97657 6.65574 5.97657 6.5625V6.32813C5.97657 5.61738 6.65977 5.03906 7.5 5.03906C8.34024 5.03906 9.02344 5.61738 9.02344 6.32813C9.02344 7.03887 8.34024 7.61719 7.5 7.61719C7.40676 7.61719 7.31734 7.65423 7.25141 7.72016C7.18548 7.78609 7.14844 7.87551 7.14844 7.96875V8.4375C7.14844 8.53074 7.18548 8.62016 7.25141 8.68609C7.31734 8.75202 7.40676 8.78906 7.5 8.78906C7.59324 8.78906 7.68266 8.75202 7.7486 8.68609C7.81453 8.62016 7.85157 8.53074 7.85157 8.4375V8.2957C8.9127 8.14453 9.72657 7.31953 9.72657 6.32813C9.72657 5.22949 8.73047 4.33594 7.5 4.33594ZM13.4766 7.5C13.4766 8.68205 13.126 9.83756 12.4693 10.8204C11.8126 11.8032 10.8792 12.5693 9.78713 13.0216C8.69506 13.474 7.49337 13.5923 6.33403 13.3617C5.17469 13.1311 4.10977 12.5619 3.27393 11.7261C2.4381 10.8902 1.86889 9.82531 1.63828 8.66597C1.40767 7.50663 1.52603 6.30494 1.97838 5.21287C2.43073 4.12079 3.19676 3.18738 4.1796 2.53067C5.16244 1.87396 6.31795 1.52344 7.5 1.52344C9.08452 1.5253 10.6036 2.15557 11.724 3.27599C12.8444 4.39641 13.4747 5.91549 13.4766 7.5ZM12.7734 7.5C12.7734 6.45701 12.4642 5.43745 11.8847 4.57024C11.3053 3.70302 10.4817 3.02711 9.51806 2.62798C8.55447 2.22885 7.49415 2.12441 6.47121 2.32789C5.44826 2.53137 4.50862 3.03361 3.77112 3.77112C3.03362 4.50862 2.53137 5.44826 2.32789 6.4712C2.12442 7.49415 2.22885 8.55446 2.62798 9.51806C3.02712 10.4817 3.70303 11.3053 4.57024 11.8847C5.43745 12.4642 6.45702 12.7734 7.5 12.7734C8.89813 12.7719 10.2385 12.2158 11.2272 11.2272C12.2158 10.2385 12.7719 8.89813 12.7734 7.5Z"
         fill="white" />
   </symbol>


   <symbol viewBox="0 0 24 24" id="temp">
      <path
         d="M10.93 20.905C10.3864 20.905 9.85504 20.7438 9.40308 20.4418C8.95112 20.1398 8.59886 19.7106 8.39085 19.2084C8.18283 18.7062 8.12841 18.1536 8.23445 17.6205C8.34049 17.0874 8.60225 16.5977 8.98661 16.2133C9.37097 15.8289 9.86067 15.5672 10.3938 15.4611C10.9269 15.3551 11.4795 15.4095 11.9817 15.6175C12.4839 15.8255 12.9131 16.1778 13.2151 16.6298C13.5171 17.0817 13.6783 17.6131 13.6783 18.1567C13.6775 18.8853 13.3877 19.5839 12.8725 20.0992C12.3572 20.6144 11.6586 20.9042 10.93 20.905ZM10.93 16.057C10.5147 16.057 10.1087 16.1801 9.76345 16.4108C9.41816 16.6415 9.14904 16.9695 8.99012 17.3531C8.8312 17.7368 8.78962 18.159 8.87063 18.5663C8.95165 18.9736 9.15163 19.3477 9.44527 19.6413C9.73892 19.935 10.113 20.135 10.5203 20.216C10.9276 20.297 11.3498 20.2554 11.7335 20.0965C12.1171 19.9376 12.4451 19.6685 12.6758 19.3232C12.9065 18.9779 13.0296 18.5719 13.0296 18.1567C13.029 17.6 12.8075 17.0663 12.4139 16.6727C12.0203 16.2791 11.4866 16.0577 10.93 16.057Z"
         fill="white" />
      <path
         d="M10.936 23.3514C10.7357 23.3516 10.5357 23.3408 10.3366 23.3189C9.25743 23.1956 8.24402 22.7371 7.43886 22.008C6.6337 21.2789 6.07726 20.3158 5.84777 19.2541C5.61828 18.1924 5.72727 17.0854 6.15942 16.0889C6.59157 15.0923 7.32515 14.2562 8.25705 13.6982V3.31589C8.25705 2.60858 8.53803 1.93024 9.03818 1.43009C9.53832 0.92995 10.2167 0.648972 10.924 0.648972C11.6313 0.648972 12.3096 0.92995 12.8098 1.43009C13.3099 1.93024 13.5909 2.60858 13.5909 3.31589V13.6943C14.2909 14.112 14.8828 14.6885 15.3187 15.3772C15.7547 16.066 16.0226 16.8476 16.1006 17.659C16.1787 18.4704 16.0647 19.2887 15.768 20.048C15.4713 20.8072 15.0002 21.4859 14.3926 22.0294C13.4447 22.8842 12.2124 23.3555 10.936 23.3514ZM10.924 1.2973C10.3888 1.29798 9.87584 1.51089 9.49748 1.88931C9.11912 2.26773 8.9063 2.78077 8.9057 3.31589V13.8853C8.90569 13.9434 8.8901 14.0003 8.86055 14.0503C8.831 14.1003 8.78857 14.1414 8.7377 14.1694C7.85286 14.6556 7.15496 15.4223 6.75401 16.3489C6.35306 17.2755 6.27187 18.3091 6.52322 19.287C6.77457 20.2648 7.34417 21.1311 8.14225 21.7495C8.94033 22.3678 9.9215 22.703 10.9311 22.7022C11.9407 22.7014 12.9213 22.3646 13.7184 21.7449C14.5155 21.1253 15.0836 20.258 15.3334 19.2798C15.5832 18.3015 15.5003 17.268 15.0978 16.3421C14.6954 15.4162 13.9962 14.6505 13.1106 14.1658C13.0593 14.138 13.0165 14.0969 12.9866 14.0468C12.9568 13.9966 12.941 13.9394 12.9409 13.8811V3.31589C12.9404 2.78096 12.7278 2.26807 12.3497 1.88967C11.9716 1.51127 11.4589 1.29824 10.924 1.2973Z"
         fill="white" />
      <path
         d="M10.9298 16.057C10.8438 16.057 10.7613 16.0228 10.7005 15.962C10.6396 15.9012 10.6055 15.8187 10.6055 15.7327V5.08833C10.6055 5.00232 10.6396 4.91982 10.7005 4.859C10.7613 4.79818 10.8438 4.76401 10.9298 4.76401C11.0158 4.76401 11.0983 4.79818 11.1591 4.859C11.2199 4.91982 11.2541 5.00232 11.2541 5.08833V15.7327C11.2541 15.8187 11.2199 15.9012 11.1591 15.962C11.0983 16.0228 11.0158 16.057 10.9298 16.057Z"
         fill="white" />
      <path
         d="M17.9446 4.24313H15.6017C15.5157 4.24313 15.4332 4.20896 15.3723 4.14814C15.3115 4.08732 15.2773 4.00482 15.2773 3.91881C15.2773 3.83279 15.3115 3.7503 15.3723 3.68947C15.4332 3.62865 15.5157 3.59448 15.6017 3.59448H17.9446C18.0306 3.59448 18.1131 3.62865 18.1739 3.68947C18.2347 3.7503 18.2689 3.83279 18.2689 3.91881C18.2689 4.00482 18.2347 4.08732 18.1739 4.14814C18.1131 4.20896 18.0306 4.24313 17.9446 4.24313Z"
         fill="white" />
      <path
         d="M16.7747 6.97297H15.6017C15.5157 6.97297 15.4332 6.9388 15.3723 6.87798C15.3115 6.81716 15.2773 6.73467 15.2773 6.64865C15.2773 6.56263 15.3115 6.48014 15.3723 6.41932C15.4332 6.3585 15.5157 6.32433 15.6017 6.32433H16.7747C16.8608 6.32433 16.9433 6.3585 17.0041 6.41932C17.0649 6.48014 17.0991 6.56263 17.0991 6.64865C17.0991 6.73467 17.0649 6.81716 17.0041 6.87798C16.9433 6.9388 16.8608 6.97297 16.7747 6.97297Z"
         fill="white" />
      <path
         d="M17.9446 9.70152H15.6017C15.5157 9.70152 15.4332 9.66735 15.3723 9.60653C15.3115 9.54571 15.2773 9.46321 15.2773 9.3772C15.2773 9.29118 15.3115 9.20869 15.3723 9.14786C15.4332 9.08704 15.5157 9.05287 15.6017 9.05287H17.9446C18.0306 9.05287 18.1131 9.08704 18.1739 9.14786C18.2347 9.20869 18.2689 9.29118 18.2689 9.3772C18.2689 9.46321 18.2347 9.54571 18.1739 9.60653C18.1131 9.66735 18.0306 9.70152 17.9446 9.70152Z"
         fill="white" />
      <path
         d="M16.7747 12.431H15.6017C15.5157 12.431 15.4332 12.3969 15.3723 12.336C15.3115 12.2752 15.2773 12.1927 15.2773 12.1067C15.2773 12.0207 15.3115 11.9382 15.3723 11.8774C15.4332 11.8165 15.5157 11.7824 15.6017 11.7824H16.7747C16.8608 11.7824 16.9433 11.8165 17.0041 11.8774C17.0649 11.9382 17.0991 12.0207 17.0991 12.1067C17.0991 12.1927 17.0649 12.2752 17.0041 12.336C16.9433 12.3969 16.8608 12.431 16.7747 12.431Z"
         fill="white" />
   </symbol>


   <symbol viewBox="0 0 24 24" id="tg">
      <g clip-path="url(#clip0_326_663)">
         <path
            d="M22.9705 2.21792L0.821644 10.8032C-0.0696642 11.203 -0.371129 12.0036 0.606215 12.4381L6.28834 14.2532L20.027 5.71855C20.7772 5.18276 21.5451 5.32563 20.8843 5.91504L9.08463 16.6541L8.71398 21.1988C9.05729 21.9005 9.6859 21.9038 10.0869 21.555L13.3514 18.45L18.9425 22.6584C20.2411 23.4312 20.9477 22.9325 21.2271 21.5161L24.8943 4.06152C25.2751 2.31812 24.6257 1.54995 22.9705 2.21792Z"
            fill="#EE383A" />
      </g>
      <defs>
         <clipPath id="clip0_326_663">
            <rect width="25" height="25" fill="white" />
         </clipPath>
      </defs>
   </symbol>

   <symbol viewBox="0 0 25 25" id="vk" fill="none">
      <path
         d="M22.399 19.1469H20.0229C19.124 19.1469 18.8531 18.4188 17.2417 16.8063C15.8333 15.449 15.2385 15.2803 14.8823 15.2803C14.3896 15.2803 14.2552 15.4157 14.2552 16.0938V18.2313C14.2552 18.8094 14.0677 19.148 12.5573 19.148C11.092 19.0495 9.671 18.6044 8.41143 17.8492C7.15185 17.094 6.08971 16.0503 5.3125 14.8042C3.46707 12.5074 2.18303 9.81161 1.5625 6.93131C1.5625 6.57506 1.69792 6.25215 2.37708 6.25215H4.75208C5.3625 6.25215 5.58229 6.52402 5.82188 7.15215C6.975 10.5459 8.94271 13.498 9.74167 13.498C10.0479 13.498 10.1812 13.3626 10.1812 12.599V9.10319C10.0802 7.5084 9.23333 7.37402 9.23333 6.79694C9.24405 6.64469 9.31369 6.50261 9.42747 6.40089C9.54126 6.29916 9.69022 6.24581 9.84271 6.25215H13.576C14.0865 6.25215 14.2552 6.50631 14.2552 7.11673V11.8355C14.2552 12.3449 14.474 12.5136 14.6281 12.5136C14.9344 12.5136 15.1698 12.3449 15.7312 11.7844C16.9347 10.3167 17.918 8.68149 18.65 6.93027C18.7249 6.72001 18.8666 6.54004 19.0533 6.41779C19.2401 6.29554 19.4617 6.23774 19.6844 6.25319H22.0604C22.7729 6.25319 22.924 6.60944 22.7729 7.11777C21.9087 9.05362 20.8394 10.8912 19.5833 12.599C19.3271 12.9896 19.225 13.1928 19.5833 13.6511C19.8187 14.0074 20.6521 14.7032 21.2115 15.3646C22.026 16.1771 22.7021 17.1167 23.2135 18.1459C23.4177 18.8084 23.0771 19.1469 22.399 19.1469Z"
         fill="#EE383A" />
   </symbol>

   <symbol viewBox="0 0 64 64" id="arrow" fill="none">
      <path
         d="M22.8921 29.72L22.9636 40.9623L31.8293 32.0965L41.0217 41.2889L41.1274 30.0463L31.8466 20.7656L22.8921 29.72Z"
          />
      <rect x="63.5" y="0.5" width="63" height="63" rx="31.5" transform="rotate(90 63.5 0.5)"
          />
   </symbol>

   <symbol viewBox="0 0 20 20" id="close" fill="none">
      <path d="M15 5L5 15" stroke="white" stroke-width="2" stroke-linecap="round"
         stroke-linejoin="round" />
      <path d="M5 5L15 15" stroke="white" stroke-width="2" stroke-linecap="round"
         stroke-linejoin="round" />
   </symbol>
</svg>