<svg width="24" height="24" viewBox="0 0 24 24" fill="none" xmlns="http://www.w3.org/2000/svg">
<path d="M10.93 20.905C10.3864 20.905 9.85504 20.7438 9.40308 20.4418C8.95112 20.1398 8.59886 19.7106 8.39085 19.2084C8.18283 18.7062 8.12841 18.1536 8.23445 17.6205C8.34049 17.0874 8.60225 16.5977 8.98661 16.2133C9.37097 15.8289 9.86067 15.5672 10.3938 15.4611C10.9269 15.3551 11.4795 15.4095 11.9817 15.6175C12.4839 15.8255 12.9131 16.1778 13.2151 16.6298C13.5171 17.0817 13.6783 17.6131 13.6783 18.1567C13.6775 18.8853 13.3877 19.5839 12.8725 20.0992C12.3572 20.6144 11.6586 20.9042 10.93 20.905ZM10.93 16.057C10.5147 16.057 10.1087 16.1801 9.76345 16.4108C9.41816 16.6415 9.14904 16.9695 8.99012 17.3531C8.8312 17.7368 8.78962 18.159 8.87063 18.5663C8.95165 18.9736 9.15163 19.3477 9.44527 19.6413C9.73892 19.935 10.113 20.135 10.5203 20.216C10.9276 20.297 11.3498 20.2554 11.7335 20.0965C12.1171 19.9376 12.4451 19.6685 12.6758 19.3232C12.9065 18.9779 13.0296 18.5719 13.0296 18.1567C13.029 17.6 12.8075 17.0663 12.4139 16.6727C12.0203 16.2791 11.4866 16.0577 10.93 16.057Z" fill="white"/>
<path d="M10.936 23.3514C10.7357 23.3516 10.5357 23.3408 10.3366 23.3189C9.25743 23.1956 8.24402 22.7371 7.43886 22.008C6.6337 21.2789 6.07726 20.3158 5.84777 19.2541C5.61828 18.1924 5.72727 17.0854 6.15942 16.0889C6.59157 15.0923 7.32515 14.2562 8.25705 13.6982V3.31589C8.25705 2.60858 8.53803 1.93024 9.03818 1.43009C9.53832 0.92995 10.2167 0.648972 10.924 0.648972C11.6313 0.648972 12.3096 0.92995 12.8098 1.43009C13.3099 1.93024 13.5909 2.60858 13.5909 3.31589V13.6943C14.2909 14.112 14.8828 14.6885 15.3187 15.3772C15.7547 16.066 16.0226 16.8476 16.1006 17.659C16.1787 18.4704 16.0647 19.2887 15.768 20.048C15.4713 20.8072 15.0002 21.4859 14.3926 22.0294C13.4447 22.8842 12.2124 23.3555 10.936 23.3514ZM10.924 1.2973C10.3888 1.29798 9.87584 1.51089 9.49748 1.88931C9.11912 2.26773 8.9063 2.78077 8.9057 3.31589V13.8853C8.90569 13.9434 8.8901 14.0003 8.86055 14.0503C8.831 14.1003 8.78857 14.1414 8.7377 14.1694C7.85286 14.6556 7.15496 15.4223 6.75401 16.3489C6.35306 17.2755 6.27187 18.3091 6.52322 19.287C6.77457 20.2648 7.34417 21.1311 8.14225 21.7495C8.94033 22.3678 9.9215 22.703 10.9311 22.7022C11.9407 22.7014 12.9213 22.3646 13.7184 21.7449C14.5155 21.1253 15.0836 20.258 15.3334 19.2798C15.5832 18.3015 15.5003 17.268 15.0978 16.3421C14.6954 15.4162 13.9962 14.6505 13.1106 14.1658C13.0593 14.138 13.0165 14.0969 12.9866 14.0468C12.9568 13.9966 12.941 13.9394 12.9409 13.8811V3.31589C12.9404 2.78096 12.7278 2.26807 12.3497 1.88967C11.9716 1.51127 11.4589 1.29824 10.924 1.2973Z" fill="white"/>
<path d="M10.9298 16.057C10.8438 16.057 10.7613 16.0228 10.7005 15.962C10.6396 15.9012 10.6055 15.8187 10.6055 15.7327V5.08833C10.6055 5.00232 10.6396 4.91982 10.7005 4.859C10.7613 4.79818 10.8438 4.76401 10.9298 4.76401C11.0158 4.76401 11.0983 4.79818 11.1591 4.859C11.2199 4.91982 11.2541 5.00232 11.2541 5.08833V15.7327C11.2541 15.8187 11.2199 15.9012 11.1591 15.962C11.0983 16.0228 11.0158 16.057 10.9298 16.057Z" fill="white"/>
<path d="M17.9446 4.24313H15.6017C15.5157 4.24313 15.4332 4.20896 15.3723 4.14814C15.3115 4.08732 15.2773 4.00482 15.2773 3.91881C15.2773 3.83279 15.3115 3.7503 15.3723 3.68947C15.4332 3.62865 15.5157 3.59448 15.6017 3.59448H17.9446C18.0306 3.59448 18.1131 3.62865 18.1739 3.68947C18.2347 3.7503 18.2689 3.83279 18.2689 3.91881C18.2689 4.00482 18.2347 4.08732 18.1739 4.14814C18.1131 4.20896 18.0306 4.24313 17.9446 4.24313Z" fill="white"/>
<path d="M16.7747 6.97297H15.6017C15.5157 6.97297 15.4332 6.9388 15.3723 6.87798C15.3115 6.81716 15.2773 6.73467 15.2773 6.64865C15.2773 6.56263 15.3115 6.48014 15.3723 6.41932C15.4332 6.3585 15.5157 6.32433 15.6017 6.32433H16.7747C16.8608 6.32433 16.9433 6.3585 17.0041 6.41932C17.0649 6.48014 17.0991 6.56263 17.0991 6.64865C17.0991 6.73467 17.0649 6.81716 17.0041 6.87798C16.9433 6.9388 16.8608 6.97297 16.7747 6.97297Z" fill="white"/>
<path d="M17.9446 9.70152H15.6017C15.5157 9.70152 15.4332 9.66735 15.3723 9.60653C15.3115 9.54571 15.2773 9.46321 15.2773 9.3772C15.2773 9.29118 15.3115 9.20869 15.3723 9.14786C15.4332 9.08704 15.5157 9.05287 15.6017 9.05287H17.9446C18.0306 9.05287 18.1131 9.08704 18.1739 9.14786C18.2347 9.20869 18.2689 9.29118 18.2689 9.3772C18.2689 9.46321 18.2347 9.54571 18.1739 9.60653C18.1131 9.66735 18.0306 9.70152 17.9446 9.70152Z" fill="white"/>
<path d="M16.7747 12.431H15.6017C15.5157 12.431 15.4332 12.3969 15.3723 12.336C15.3115 12.2752 15.2773 12.1927 15.2773 12.1067C15.2773 12.0207 15.3115 11.9382 15.3723 11.8774C15.4332 11.8165 15.5157 11.7824 15.6017 11.7824H16.7747C16.8608 11.7824 16.9433 11.8165 17.0041 11.8774C17.0649 11.9382 17.0991 12.0207 17.0991 12.1067C17.0991 12.1927 17.0649 12.2752 17.0041 12.336C16.9433 12.3969 16.8608 12.431 16.7747 12.431Z" fill="white"/>
</svg>
