<svg width="25" height="25" viewBox="0 0 25 25" fill="none" xmlns="http://www.w3.org/2000/svg">
<path d="M22.399 19.1469H20.0229C19.124 19.1469 18.8531 18.4188 17.2417 16.8063C15.8333 15.449 15.2385 15.2803 14.8823 15.2803C14.3896 15.2803 14.2552 15.4157 14.2552 16.0938V18.2313C14.2552 18.8094 14.0677 19.148 12.5573 19.148C11.092 19.0495 9.671 18.6044 8.41143 17.8492C7.15185 17.094 6.08971 16.0503 5.3125 14.8042C3.46707 12.5074 2.18303 9.81161 1.5625 6.93131C1.5625 6.57506 1.69792 6.25215 2.37708 6.25215H4.75208C5.3625 6.25215 5.58229 6.52402 5.82188 7.15215C6.975 10.5459 8.94271 13.498 9.74167 13.498C10.0479 13.498 10.1812 13.3626 10.1812 12.599V9.10319C10.0802 7.5084 9.23333 7.37402 9.23333 6.79694C9.24405 6.64469 9.31369 6.50261 9.42747 6.40089C9.54126 6.29916 9.69022 6.24581 9.84271 6.25215H13.576C14.0865 6.25215 14.2552 6.50631 14.2552 7.11673V11.8355C14.2552 12.3449 14.474 12.5136 14.6281 12.5136C14.9344 12.5136 15.1698 12.3449 15.7312 11.7844C16.9347 10.3167 17.918 8.68149 18.65 6.93027C18.7249 6.72001 18.8666 6.54004 19.0533 6.41779C19.2401 6.29554 19.4617 6.23774 19.6844 6.25319H22.0604C22.7729 6.25319 22.924 6.60944 22.7729 7.11777C21.9087 9.05362 20.8394 10.8912 19.5833 12.599C19.3271 12.9896 19.225 13.1928 19.5833 13.6511C19.8187 14.0074 20.6521 14.7032 21.2115 15.3646C22.026 16.1771 22.7021 17.1167 23.2135 18.1459C23.4177 18.8084 23.0771 19.1469 22.399 19.1469Z" fill="#EE383A"/>
</svg>
