<svg width="48" height="48" viewBox="0 0 48 48" fill="none" xmlns="http://www.w3.org/2000/svg">
<rect width="48" height="48" fill="#D8F5E7"/>
<circle cx="24" cy="24" r="24" fill="#D8F5E7"/>
<rect width="24" height="24" transform="translate(12 12)" fill="#D8F5E7"/>
<path d="M24.37 14.15L33.37 17.75C33.72 17.89 34 18.31 34 18.68V22C34 22.55 33.55 23 33 23H15C14.45 23 14 22.55 14 22V18.68C14 18.31 14.28 17.89 14.63 17.75L23.63 14.15C23.83 14.07 24.17 14.07 24.37 14.15Z" stroke="#333333" stroke-width="1.5" stroke-miterlimit="10" stroke-linecap="round" stroke-linejoin="round"/>
<path d="M34 34H14V31C14 30.45 14.45 30 15 30H33C33.55 30 34 30.45 34 31V34Z" stroke="#333333" stroke-width="1.5" stroke-miterlimit="10" stroke-linecap="round" stroke-linejoin="round"/>
<path d="M16 30V23" stroke="#333333" stroke-width="1.5" stroke-miterlimit="10" stroke-linecap="round" stroke-linejoin="round"/>
<path d="M20 30V23" stroke="#333333" stroke-width="1.5" stroke-miterlimit="10" stroke-linecap="round" stroke-linejoin="round"/>
<path d="M24 30V23" stroke="#333333" stroke-width="1.5" stroke-miterlimit="10" stroke-linecap="round" stroke-linejoin="round"/>
<path d="M28 30V23" stroke="#292D32" stroke-width="1.5" stroke-miterlimit="10" stroke-linecap="round" stroke-linejoin="round"/>
<path d="M32 30V23" stroke="#292D32" stroke-width="1.5" stroke-miterlimit="10" stroke-linecap="round" stroke-linejoin="round"/>
<path d="M13 34H35" stroke="#292D32" stroke-width="1.5" stroke-miterlimit="10" stroke-linecap="round" stroke-linejoin="round"/>
<path d="M24 20.5C24.8284 20.5 25.5 19.8284 25.5 19C25.5 18.1716 24.8284 17.5 24 17.5C23.1716 17.5 22.5 18.1716 22.5 19C22.5 19.8284 23.1716 20.5 24 20.5Z" stroke="#292D32" stroke-width="1.5" stroke-miterlimit="10" stroke-linecap="round" stroke-linejoin="round"/>
</svg>
