<svg width="1920" height="134" viewBox="0 0 1920 134" fill="none" xmlns="http://www.w3.org/2000/svg">
<path d="M1112.38 49.8915H1094.82H1083.35H1074.26L1071.24 58.2833L1047.04 125.608H964.566H0.0625V134H955.471H961.548H1044.02H1050.56H1064.59L1091.8 58.2833H1109.37L1082.15 134H1102.71L1132.94 49.8915H1127.97H1112.38Z" fill="#C59D74"/>
<path d="M1766.24 125.608H1733.84L1761.06 49.8916H1746.48H1740.5H1722.94H1712.32H1702.38L1699.36 58.2835L1675.15 125.608H1651.25L1662.19 95.1976H1642.44H1641.63H1556.15H1547.15H1535.59L1524.65 125.608H1503.97L1531.19 49.8916H1513.62H1510.63H1480.39H1466.59H1459.83L1456.82 58.2835L1432.61 125.608H1407.57L1430.11 62.889L1445.02 21.4392L1445.85 19.1214L1452.73 0H1436.75H1432.16H1406.09H1400.73H1385.53L1382.51 8.39186L1378.02 20.8797L1362.92 62.889L1348.02 104.349L1340.37 125.608H1310.14L1337.35 49.8916H1327.79H1323.39H1316.79H1294.03L1304.25 21.4392L1305.08 19.1214L1311.96 0H1295.02H1291.4H1255.82H1250.4H1235.26L1232.25 8.39186L1227.77 20.8797L1212.66 62.889L1197.75 104.349L1190.11 125.608H1158.69L1169.63 95.1976H1149.07L1135.11 134H1154.54H1155.68H1187.09H1190.56H1207.66L1233.22 62.889L1248.12 21.4392L1248.96 19.1214L1252.82 8.39186H1288.38L1283.89 20.8797L1273.46 49.8916L1270.44 58.2835H1313.78L1286.56 134H1291.78H1307.12H1337.35H1357.44H1357.91L1383.48 62.889L1398.38 21.4392L1399.22 19.1214L1403.08 8.39186H1429.14L1424.66 20.8797L1409.55 62.889L1394.65 104.349L1383.99 134H1401.27H1404.55H1429.59H1435.44H1450.16L1477.38 58.2835H1507.61L1480.39 134H1498.19H1500.95H1521.63H1532.34H1542.19L1553.13 103.59H1638.61L1627.67 134H1645.1H1648.23H1672.14H1679.27H1692.7L1719.92 58.2835H1737.48L1710.26 134H1726.9H1730.82H1763.23H1772.69H1919.06V125.608H1766.24Z" fill="#C59D74"/>
</svg>
