<svg width="49" height="48" viewBox="0 0 49 48" fill="none" xmlns="http://www.w3.org/2000/svg">
<g clip-path="url(#clip0_317_5850)">
<path d="M35.6446 38.0277V30.3378C35.6445 29.1852 34.7068 28.2476 33.5542 28.2476H6.59461C5.44205 28.2476 4.50427 29.1852 4.50427 30.3378V38.0277C3.64083 38.3212 3.01758 39.1393 3.01758 40.1008C3.01758 41.3082 3.99989 42.2905 5.20711 42.2905H34.9416C36.1489 42.2905 37.1311 41.3082 37.1311 40.1008C37.1312 39.1393 36.508 38.3212 35.6446 38.0277ZM5.91005 30.3377C5.91005 29.9603 6.21708 29.6532 6.59461 29.6532H33.5542C33.9316 29.6532 34.2388 29.9603 34.2388 30.3377V37.9112H5.91005V30.3377ZM34.9415 40.8847H5.2072C4.77511 40.8847 4.42345 40.533 4.42345 40.1008C4.42345 39.6687 4.77511 39.3171 5.2072 39.3171H34.9417C35.3738 39.3171 35.7255 39.6687 35.7255 40.1008C35.7254 40.533 35.3738 40.8847 34.9415 40.8847Z" fill="#767676"/>
<path d="M37.0368 30.943H36.4258V32.3488H37.0368C37.8316 32.3488 37.8316 32.5388 37.8316 32.8019V42.1963C37.8316 42.8369 37.4007 43.595 37.0368 43.595H3.11153C2.69641 43.595 2.12453 42.7846 2.12453 42.1963V32.802C2.12453 32.655 2.12453 32.3489 3.11153 32.3489H3.71781V30.9431H3.11153C2.48631 30.9431 1.97191 31.0557 1.58256 31.2777C1.0255 31.5953 0.71875 32.1367 0.71875 32.8022V42.1966C0.71875 42.7872 0.96175 43.4634 1.36881 44.0053C1.84403 44.6382 2.47938 45.0011 3.11163 45.0011H3.71791V48H5.12369V45.0009H35.6763V48H37.082V44.9992C38.4703 44.9641 39.2376 43.3303 39.2376 42.1964V32.802C39.2373 32.1077 38.9514 30.943 37.0368 30.943Z" fill="#767676"/>
<path d="M9.71633 32.4429H8.2168V33.8487H9.71633V32.4429Z" fill="#767676"/>
<path d="M32.0209 32.4429H30.4277V33.8487H32.0209V32.4429Z" fill="#767676"/>
<path d="M20.8687 32.4429H19.3691V33.8487H20.8687V32.4429Z" fill="#767676"/>
<path d="M0.787109 15.2729C0.787109 15.8252 1.23482 16.2729 1.78711 16.2729H22.7503C23.3026 16.2729 23.7503 15.8252 23.7503 15.2729V1C23.7503 0.447715 23.3026 0 22.7503 0H1.78711C1.23483 0 0.787109 0.447715 0.787109 1V15.2729ZM2.19289 2.40578C2.19289 1.8535 2.64061 1.40578 3.19289 1.40578H21.3445C21.8968 1.40578 22.3445 1.8535 22.3445 2.40578V13.8672C22.3445 14.4194 21.8968 14.8672 21.3445 14.8672H3.19289C2.64061 14.8672 2.19289 14.4194 2.19289 13.8672V2.40578Z" fill="#767676"/>
<path d="M24.5742 16.354V26.6801H37.8738V16.354H24.5742ZM36.468 25.2743H25.98V17.7598H36.468V25.2743Z" fill="#767676"/>
<path d="M26.8047 18.584V24.4499H35.6441V18.584H26.8047ZM34.2384 23.0441H28.2106V19.9899H34.2384V23.0441Z" fill="#767676"/>
<path d="M31.2245 2.97351C27.9676 2.97351 25.3181 5.62307 25.3181 8.87985C25.3181 12.1367 27.9677 14.7862 31.2245 14.7862C34.4812 14.7862 37.1308 12.1365 37.1308 8.87985C37.1309 5.62307 34.4813 2.97351 31.2245 2.97351ZM31.9272 13.3254V12.5742H30.5214V13.3253C28.6306 13.0274 27.1282 11.5477 26.7945 9.66885H27.6161V8.26298H26.7671C27.0372 6.30285 28.5732 4.74145 30.5214 4.43451V5.45132H31.9272V4.4346C33.8755 4.74145 35.4117 6.30295 35.6817 8.26307H34.7388V9.66885H35.6544C35.3207 11.5478 33.8182 13.0275 31.9272 13.3254Z" fill="#767676"/>
<path d="M30.5207 6.57617V8.26311H28.1777V9.66889H31.9265V6.57617H30.5207Z" fill="#767676"/>
<path d="M44.5789 44.3202V27.7563H43.1731V44.3202H39.4414V47.956H48.2807V44.3202H44.5789ZM46.875 46.5503H40.8473V45.7261H46.875V46.5503Z" fill="#767676"/>
<path d="M40.9277 9.66357V25.9365H43.1727V27.1004H44.5785V25.9366H46.7937V9.66357H40.9277ZM45.388 22.3208H43.1728V23.7265H45.388V24.5308H42.3336V11.0694H45.388V22.3208Z" fill="#767676"/>
<path d="M10.6566 5.40961L9.16992 6.89624L10.1639 7.89027L11.6506 6.40363L10.6566 5.40961Z" fill="#767676"/>
<path d="M14.3733 4.66609L9.16992 9.86951L10.1639 10.8635L15.3674 5.66012L14.3733 4.66609Z" fill="#767676"/>
<path d="M14.3734 8.38336L12.8867 9.87L13.8807 10.864L15.3674 9.37739L14.3734 8.38336Z" fill="#767676"/>
</g>
<defs>
<clipPath id="clip0_317_5850">
<rect width="48" height="48" fill="white" transform="translate(0.5)"/>
</clipPath>
</defs>
</svg>
