<svg width="94" height="94" viewBox="0 0 94 94" fill="none" xmlns="http://www.w3.org/2000/svg">
<rect width="94" height="94" rx="44" fill="#F9F5F1"/>
<path d="M61.2704 50.3674H30.9992C30.8099 50.3674 30.6562 50.5206 30.6562 50.7091C30.6562 50.8977 30.8099 51.0509 30.9992 51.0509H61.2704C61.6011 51.0509 61.8706 51.3193 61.8706 51.6488C61.8706 51.9783 61.6011 52.2468 61.2704 52.2468H30.9992C30.6684 52.2468 30.3989 51.9783 30.3989 51.6488C30.3989 51.4603 30.2452 51.3071 30.0559 51.3071C29.8666 51.3071 29.7129 51.4603 29.7129 51.6488C29.7129 52.3554 30.2899 52.9302 30.9992 52.9302H61.2703C61.9797 52.9302 62.5567 52.3554 62.5567 51.6488C62.5567 50.9423 61.9797 50.3674 61.2704 50.3674Z" fill="#1A1A1A"/>
<path d="M62.557 64.378C62.557 64.1895 62.4032 64.0363 62.214 64.0363C62.0247 64.0363 61.8709 64.1895 61.8709 64.378C61.8709 64.7075 61.6014 64.976 61.2706 64.976H30.9995C30.6687 64.976 30.3992 64.7075 30.3992 64.378C30.3992 64.0485 30.6687 63.78 30.9995 63.78H61.2706C61.4599 63.78 61.6137 63.6269 61.6137 63.4383C61.6137 63.2498 61.4599 63.0966 61.2706 63.0966H60.8844V53.8185C60.8844 53.63 60.7307 53.4768 60.5414 53.4768C60.3521 53.4768 60.1984 53.63 60.1984 53.8185V63.0966H56.7682V53.8185C56.7682 53.63 56.6145 53.4768 56.4252 53.4768C56.2359 53.4768 56.0822 53.63 56.0822 53.8185V63.0966H52.652V53.8185C52.652 53.63 52.4982 53.4768 52.309 53.4768C52.1197 53.4768 51.9659 53.63 51.9659 53.8185V63.0966H48.5358V53.8185C48.5358 53.63 48.382 53.4768 48.1927 53.4768C48.0035 53.4768 47.8497 53.63 47.8497 53.8185V63.0966H44.4195V53.8185C44.4195 53.63 44.2658 53.4768 44.0765 53.4768C43.8872 53.4768 43.7335 53.63 43.7335 53.8185V63.0966H40.3033V53.8185C40.3033 53.63 40.1495 53.4768 39.9603 53.4768C39.771 53.4768 39.6172 53.63 39.6172 53.8185V63.0966H36.1871V53.8185C36.1871 53.63 36.0333 53.4768 35.844 53.4768C35.6548 53.4768 35.501 53.63 35.501 53.8185V63.0966H32.0708V53.8185C32.0708 53.63 31.9171 53.4768 31.7278 53.4768C31.5385 53.4768 31.3848 53.63 31.3848 53.8185V63.0966H30.9992C30.2899 63.0966 29.7129 63.6714 29.7129 64.378C29.7129 65.0846 30.2893 65.6594 30.9992 65.6594H61.2704C61.9797 65.6594 62.5567 65.0846 62.5567 64.378L62.557 64.378Z" fill="#1A1A1A"/>
<path d="M30.9992 28.7547H61.2703C61.4596 28.7547 61.6134 28.6016 61.6134 28.413C61.6134 28.2244 61.4596 28.0713 61.2703 28.0713H30.9992C30.2899 28.0713 29.7129 28.6461 29.7129 29.3527C29.7129 30.0593 30.2893 30.6341 30.9992 30.6341H61.2703C61.9797 30.6341 62.5567 30.0593 62.5567 29.3527C62.5567 29.1641 62.4029 29.011 62.2136 29.011C62.0244 29.011 61.8706 29.1641 61.8706 29.3527C61.8706 29.6822 61.6011 29.9507 61.2703 29.9507H30.9992C30.6684 29.9507 30.3989 29.6822 30.3989 29.3527C30.3989 29.0232 30.6678 28.7547 30.9992 28.7547Z" fill="#1A1A1A"/>
<path d="M34.387 31.617C34.1977 31.617 34.0439 31.7701 34.0439 31.9587V49.2004C34.0439 49.3889 34.1977 49.5421 34.387 49.5421C34.5762 49.5421 34.73 49.3889 34.73 49.2004V36.363H45.7921V49.2011C45.7921 49.3897 45.9458 49.5429 46.1351 49.5429C46.3244 49.5429 46.4781 49.3897 46.4781 49.2011V36.363H57.5402V49.2011C57.5402 49.3897 57.6939 49.5429 57.8832 49.5429C58.0725 49.5429 58.2262 49.3897 58.2262 49.2011V31.9595C58.2262 31.7709 58.0725 31.6178 57.8832 31.6178C57.6939 31.6178 57.5402 31.7709 57.5402 31.9595V35.6792H46.4781V31.717C46.4781 31.5284 46.3244 31.3752 46.1351 31.3752C45.9458 31.3752 45.7921 31.5284 45.7921 31.717V35.6795L34.73 35.6792V31.9595C34.73 31.7709 34.5762 31.6178 34.387 31.6178V31.617Z" fill="#1A1A1A"/>
<path d="M43.9473 43.5622V45.2139C43.9473 45.4025 44.101 45.5556 44.2903 45.5556C44.4796 45.5556 44.6333 45.4025 44.6333 45.2139V43.5622C44.6333 43.3736 44.4796 43.2205 44.2903 43.2205C44.101 43.2205 43.9473 43.373 43.9473 43.5622Z" fill="#1A1A1A"/>
<path d="M47.6357 43.5622V45.2139C47.6357 45.4025 47.7895 45.5556 47.9788 45.5556C48.168 45.5556 48.3218 45.4025 48.3218 45.2139V43.5622C48.3218 43.3736 48.168 43.2205 47.9788 43.2205C47.7895 43.2205 47.6357 43.373 47.6357 43.5622Z" fill="#1A1A1A"/>
</svg>
