<svg width="158" height="18" viewBox="0 0 158 18" fill="none" xmlns="http://www.w3.org/2000/svg">
   <path
      d="M6.2528 0.299805L5.86103 1.3895L5.27856 3.01108L3.3184 8.46607L1.38288 13.8497L0 17.7H2.66847L5.98686 8.46607L7.92108 3.08373L8.02876 2.78276L8.92127 0.299805H6.2528Z"
      fill="#C39A74" />
   <path
      d="M29.0492 6.77844H26.7699H25.2807H24.1015L23.7097 7.86814L20.5677 16.6104H9.86403L13.3965 6.77844H10.728L10.3362 7.86814L6.80249 17.7001H8.68352H9.47225H20.176H21.0257H22.8457L26.3782 7.86814H28.6575L25.125 17.7001H27.7935L31.7177 6.77844H31.0717H29.0492Z"
      fill="#C39A74" />
   <path
      d="M133.415 1.3895L132.832 3.01108L131.478 6.77833L131.086 7.86803H136.711L133.178 17.7H134.941H135.847H139.771H140.884H142.441L145.758 8.46607L145.973 7.86803H149.357L145.824 17.7H147.556H148.493H153.521H155.539H156.189L158 12.6614H155.332L153.913 16.6103H148.884L152.417 6.77833H151.828H150.359H149.748H143.697L143.305 7.86803L143.089 8.46607L141.155 13.8497L140.163 16.6103H136.239L139.771 6.77833H139.113H138.414H137.103H134.147L135.475 3.08373L135.582 2.78276L136.475 0.299805H134.234H133.806H129.191H126.719H126.521L126.129 1.3895L125.548 3.01108L123.586 8.46607L121.652 13.8497L120.268 17.7H122.938L126.255 8.46607L128.189 3.08373L128.298 2.78276L128.799 1.3895H133.415Z"
      fill="#C39A74" />
   <path
      d="M113.914 16.6103H109.708L113.24 6.77833H111.349H110.572H108.293H106.915H105.624L105.232 7.86803L102.09 16.6103H98.9886L100.408 12.6614H97.8444H97.7393H86.6451H85.4776H83.9767L82.5575 16.6103H79.8734L83.4059 6.77833H81.1253H80.7374H76.8132H75.0217H74.1447L73.7529 7.86803L70.611 16.6103H67.3613L70.2867 8.46607L72.2222 3.08373L72.3298 2.78276L73.2224 0.299805H71.148H70.5526H67.1693H66.474H64.5009L64.1091 1.3895L63.5266 3.01108L61.5665 8.46607L59.6322 13.8497L58.6398 16.6103H54.7156L58.2481 6.77833H57.0066H56.4358H55.5796H52.6244L53.9515 3.08373L54.0592 2.78276L54.9517 0.299805H52.7529H52.2833H47.6663H46.9619H44.9978L44.6061 1.3895L44.0249 3.01108L42.0634 8.46607L40.1292 13.8497L39.1368 16.6103H35.0595L36.4787 12.6614H33.8102L31.9993 17.7H34.5211H34.669H38.745H39.1952H41.4148L44.7319 8.46607L46.6661 3.08373L46.7751 2.78276L47.2758 1.3895H51.8915L51.309 3.01108L49.9547 6.77833L49.5629 7.86803H55.1878L51.6554 17.7H52.3326H54.3238H58.2481H60.8556H60.9165L64.2349 8.46607L66.1691 3.08373L66.2781 2.78276L66.7789 1.3895H70.1608L69.5797 3.01108L67.6182 8.46607L65.684 13.8497L64.3011 17.7H66.5441H66.9696H70.2192H70.9781H72.889L76.4214 7.86803H80.3456L76.8132 17.7H79.1223H79.4817H82.1657H83.5551H84.8342L86.2534 13.7511H97.3475L95.9283 17.7H98.1908H98.5968H101.7H102.625H104.368L107.901 7.86803H110.18L106.648 17.7H108.808H109.316H113.522H114.75H116.192L118.001 12.6614H115.333L113.914 16.6103Z"
      fill="#063832" />
</svg>