<svg width="21" height="21" viewBox="0 0 21 21" fill="none" xmlns="http://www.w3.org/2000/svg">
<circle cx="10.5008" cy="9.97502" r="9" stroke="#063832" stroke-width="0.9"/>
<g clip-path="url(#clip0_392_10748)">
<path fill-rule="evenodd" clip-rule="evenodd" d="M13.3559 6.0311C13.4654 5.98503 13.5852 5.96914 13.7029 5.98508C13.8206 6.00103 13.9318 6.04823 14.0251 6.12177C14.1184 6.19531 14.1902 6.2925 14.2332 6.40323C14.2761 6.51396 14.2886 6.63417 14.2693 6.75137L13.2647 12.8453C13.1672 13.4331 12.5223 13.7702 11.9832 13.4774C11.5322 13.2324 10.8624 12.855 10.26 12.4612C9.95879 12.2641 9.03609 11.6329 9.14949 11.1837C9.24694 10.7997 10.7973 9.35647 11.6833 8.49843C12.031 8.16134 11.8724 7.96687 11.4618 8.27695C10.4416 9.04683 8.80486 10.2176 8.26355 10.5472C7.78603 10.8378 7.53708 10.8874 7.23941 10.8378C6.69633 10.7474 6.19267 10.6074 5.7816 10.4369C5.22611 10.2065 5.25313 9.44284 5.78115 9.22047L13.3559 6.0311Z" fill="#063832"/>
</g>
<defs>
<clipPath id="clip0_392_10748">
<rect width="10.6313" height="10.6313" fill="white" transform="translate(4.59375 4.06879)"/>
</clipPath>
</defs>
</svg>
