<svg width="211" height="124" viewBox="0 0 211 124" fill="none" xmlns="http://www.w3.org/2000/svg">
<g id="Group 113">
<path id="Vector" d="M104.774 51.599L114.743 23.2732H94.8727H83.9718H83.2455L58.3992 94.579H49.0541L53.3763 82.5154L70.2273 35.4453L74.5856 23.2732H42.6043L40.8991 28.0355H61.2532L58.6001 35.4453L41.7491 82.5154L35.7217 99.3465H56.7403H66.2296H68.3624L93.2242 28.0045L101.446 28.0355L91.4829 56.3614H105.851L90.4629 99.3465H102.09L119.183 51.599H104.774Z" fill="white"/>
<path id="Vector_2" d="M127.9 32.7774L134.664 25.2176H128.05V23.8008H136.504V25.2331L129.74 32.7929H136.581V34.2252H127.9V32.7774Z" fill="white"/>
<path id="Vector_3" d="M139.84 25.7346L142.416 23.7852H143.528V34.2096H142.076V25.7346L139.85 27.3892L139.84 25.7346Z" fill="white"/>
<path id="Vector_4" d="M151.695 32.9738C152.32 33.0139 152.94 32.8428 153.457 32.4878C153.658 32.3377 153.82 32.1406 153.929 31.9136C154.038 31.6865 154.089 31.4364 154.08 31.1847C154.086 30.974 154.046 30.7645 153.964 30.5707C153.881 30.377 153.757 30.2036 153.601 30.0627C153.129 29.7239 152.551 29.5678 151.973 29.6231H150.907V28.3718H151.973C152.225 28.3838 152.477 28.3442 152.714 28.2553C152.95 28.1664 153.166 28.0301 153.349 27.8547C153.504 27.6992 153.627 27.5136 153.709 27.3092C153.792 27.1048 153.832 26.8858 153.828 26.6654C153.837 26.4266 153.788 26.1892 153.684 25.9744C153.579 25.7596 153.424 25.5742 153.23 25.4348C152.723 25.1142 152.129 24.9606 151.53 24.9952C150.973 24.9883 150.43 25.172 149.991 25.516C149.552 25.8599 149.243 26.3438 149.114 26.8878H147.672C147.759 26.2602 148.006 25.6656 148.388 25.1607C148.756 24.6685 149.239 24.2744 149.794 24.0128C150.354 23.7446 150.967 23.6068 151.587 23.6095C152.257 23.5974 152.923 23.7205 153.544 23.9714C154.072 24.1806 154.527 24.5401 154.853 25.0056C155.165 25.461 155.326 26.0041 155.311 26.5568C155.32 27.0166 155.21 27.4707 154.992 27.8754C154.767 28.2792 154.438 28.6149 154.039 28.8475C154.501 29.0391 154.893 29.3696 155.16 29.7937C155.428 30.2177 155.558 30.7145 155.533 31.2157C155.546 31.8169 155.365 32.4062 155.018 32.8963C154.668 33.3874 154.185 33.7678 153.627 33.9925C152.986 34.2558 152.299 34.386 151.607 34.3751C150.954 34.379 150.308 34.2359 149.717 33.9563C149.139 33.6841 148.636 33.2762 148.249 32.767C147.854 32.2396 147.605 31.6171 147.527 30.9624H148.98C149.116 31.5694 149.465 32.107 149.964 32.4765C150.462 32.8459 151.077 33.0225 151.695 32.9738Z" fill="white"/>
<path id="Vector_5" d="M128.568 39.5767H133.107C133.726 39.5594 134.34 39.6943 134.895 39.9697C135.372 40.2114 135.768 40.5891 136.033 41.0555C136.298 41.5289 136.435 42.0638 136.43 42.6068C136.456 43.3545 136.195 44.0836 135.7 44.643C135.205 45.2024 134.514 45.549 133.771 45.611L137.228 49.9752H135.379L132.01 45.6576H130.067V49.9752H128.584L128.568 39.5767ZM133.019 44.3235C133.515 44.3569 134.005 44.1997 134.39 43.884C134.698 43.5387 134.869 43.0912 134.869 42.6275C134.869 42.1637 134.698 41.7162 134.39 41.3709C134.005 41.0552 133.515 40.8981 133.019 40.9314H130.052V44.3235H133.019Z" fill="white"/>
<path id="Vector_6" d="M147.908 39.5769V40.973H142.421V44.0755H147.465V45.4768H142.421V48.5793H147.908V49.9755H140.938V39.5769H147.908Z" fill="white"/>
<path id="Vector_7" d="M155.831 39.5769H157.49L162.127 49.9961H160.422L159.391 47.6124H153.812L152.782 49.9961H151.164L155.831 39.5769ZM158.84 46.2473L156.63 41.1075L154.404 46.2473H158.84Z" fill="white"/>
<path id="Vector_8" d="M167.32 39.5769V48.569H172.807V49.9961H165.857V39.5769H167.32Z" fill="white"/>
<path id="Vector_9" d="M135.538 55.3425V56.7438H130.052V59.8463H135.095V61.2476H130.052V64.3501H135.538V65.7462H128.568V55.3425H135.538Z" fill="white"/>
<path id="Vector_10" d="M140.278 65.0328C139.871 64.7388 139.528 64.3649 139.269 63.9338C139.011 63.5027 138.842 63.0234 138.773 62.525H140.257C140.451 63.1382 140.845 63.6681 141.375 64.0297C141.982 64.373 142.673 64.5379 143.369 64.5054C144.045 64.5364 144.718 64.3846 145.316 64.0659C145.532 63.9632 145.716 63.8026 145.846 63.6019C145.977 63.4012 146.05 63.1681 146.058 62.9283C146.059 62.7292 146.008 62.5333 145.912 62.3594C145.815 62.1855 145.676 62.0395 145.507 61.9355C144.95 61.6111 144.336 61.3969 143.698 61.3047L142.57 61.0978C141.609 60.9796 140.697 60.6066 139.927 60.0171C139.65 59.7862 139.428 59.4958 139.278 59.1674C139.127 58.8391 139.051 58.4809 139.057 58.1194C139.046 57.5679 139.229 57.0301 139.572 56.5992C139.955 56.1299 140.457 55.7727 141.025 55.565C141.714 55.3099 142.444 55.1854 143.178 55.1979C144.155 55.1768 145.117 55.4486 145.939 55.9787C146.712 56.4894 147.264 57.2744 147.485 58.1763H145.939C145.742 57.6723 145.363 57.2609 144.878 57.0232C144.333 56.7524 143.73 56.6176 143.121 56.6302C142.479 56.596 141.84 56.7372 141.272 57.0387C141.068 57.1458 140.897 57.307 140.778 57.5049C140.659 57.7028 140.596 57.9297 140.597 58.1608C140.594 58.349 140.64 58.5348 140.731 58.6997C140.821 58.8647 140.952 59.0033 141.112 59.1019C141.643 59.3976 142.225 59.5889 142.828 59.6655L143.956 59.8569C144.948 59.9649 145.894 60.3361 146.697 60.9324C147.189 61.3669 147.498 61.9737 147.56 62.629C147.623 63.2843 147.433 63.9388 147.031 64.4589C146.631 64.9405 146.113 65.3093 145.527 65.5293C144.822 65.7989 144.072 65.9305 143.317 65.9171C142.236 65.9565 141.17 65.6466 140.278 65.0328Z" fill="white"/>
<path id="Vector_11" d="M159.079 56.7904H155.374V65.7824H153.891V56.7904H150.182V55.3425H159.079V56.7904Z" fill="white"/>
<path id="Vector_12" d="M164.852 55.3425H166.511L171.147 65.7618H169.442L168.411 63.3832H162.832L161.802 65.7618H160.189L164.852 55.3425ZM167.86 62.0129L165.65 56.8938L163.425 62.0284L167.86 62.0129Z" fill="white"/>
<path id="Vector_13" d="M181.183 56.7904H177.474V65.7824H175.99V56.7904H172.281V55.3425H181.183V56.7904Z" fill="white"/>
<path id="Vector_14" d="M191.933 55.3425V56.7438H186.447V59.8463H191.49V61.2476H186.447V64.3501H191.933V65.7462H184.963V55.3425H191.933Z" fill="white"/>
</g>
</svg>
