<svg width="21" height="21" viewBox="0 0 21 21" fill="none" xmlns="http://www.w3.org/2000/svg">
<g id="system-uicons:mail">
<g id="Group">
<path id="Vector" fill-rule="evenodd" clip-rule="evenodd" d="M2 5.35714V14.7857C2 15.4109 2.24834 16.0104 2.69039 16.4525C3.13244 16.8945 3.73199 17.1429 4.35714 17.1429H16.1429C16.768 17.1429 17.3676 16.8945 17.8096 16.4525C18.2517 16.0104 18.5 15.4109 18.5 14.7857V5.35714C18.5 4.73199 18.2517 4.13244 17.8096 3.69039C17.3676 3.24834 16.768 3 16.1429 3H4.35714C3.73199 3 3.13244 3.24834 2.69039 3.69039C2.24834 4.13244 2 4.73199 2 5.35714Z" stroke="white" stroke-linecap="round" stroke-linejoin="round"/>
<path id="Vector_2" d="M4.35547 6.53571L10.2483 10.0714L16.1412 6.53571" stroke="white" stroke-linecap="round" stroke-linejoin="round"/>
</g>
</g>
</svg>
