<svg width="81" height="80" viewBox="0 0 81 80" fill="none" xmlns="http://www.w3.org/2000/svg">
<g id="Frame 4420">
<path id="Vector" d="M40.8758 26.2938C44.351 26.2938 47.168 23.4798 47.168 20.0085V17.3972C47.168 13.9258 44.351 11.1118 40.8758 11.1118H40.0656C36.5905 11.1118 33.7734 13.9258 33.7734 17.3972V20.0085C33.7734 23.4798 36.5905 26.2938 40.0656 26.2938H40.8758ZM35.3804 20.0085V17.3972C35.3804 14.8167 37.4823 12.717 40.0656 12.717H40.8759C43.4592 12.717 45.5611 14.8167 45.5611 17.3972V20.0085C45.5611 22.589 43.4592 24.6886 40.8759 24.6886H40.0656C37.4819 24.6886 35.3804 22.5894 35.3804 20.0085Z" fill="#646464"/>
<path id="Vector_2" d="M64.7731 51.0797C64.4302 51.524 64.0484 51.9343 63.6309 52.3089C66.2495 53.4697 68.0828 56.0869 68.0828 59.128V68.8592L69.6892 68.8588V59.1279C69.6892 55.6276 67.6887 52.5897 64.773 51.0796L64.7731 51.0797Z" fill="#646464"/>
<path id="Vector_3" d="M62.8652 60.5569H64.4716V68.8595H62.8652V60.5569Z" fill="#646464"/>
<path id="Vector_4" d="M51.5756 34.0499C52.0692 33.7423 52.5923 33.4813 53.1431 33.2718C52.832 30.1574 50.9343 27.5081 48.2731 26.1296C47.9302 26.5739 47.5484 26.9842 47.1309 27.3588C49.7115 28.5034 51.5244 31.0645 51.5756 34.0499Z" fill="#646464"/>
<path id="Vector_5" d="M33.8126 27.3581C33.395 26.9839 33.0132 26.5731 32.6703 26.1289C30.0096 27.5069 28.112 30.1566 27.8008 33.2711C28.3515 33.481 28.8746 33.742 29.3683 34.0501C29.419 31.0642 31.2319 28.503 33.8126 27.3581Z" fill="#646464"/>
<path id="Vector_6" d="M36.6849 60.2847V59.1284C36.6849 55.6281 34.6844 52.5902 31.7692 51.0801C31.4263 51.5243 31.0445 51.9347 30.627 52.3092C33.2447 53.4701 35.0785 56.0873 35.0785 59.1284V68.8596H36.7683V60.2847L36.6849 60.2847Z" fill="#646464"/>
<path id="Vector_7" d="M49.1715 51.0796C46.523 52.4509 44.6358 55.0838 44.3105 58.1783V68.8583H45.8613V59.1279C45.8613 56.0872 47.6945 53.4697 50.3132 52.3087C49.8961 51.9351 49.5135 51.5247 49.1715 51.0796Z" fill="#646464"/>
<path id="Vector_8" d="M16.1696 51.0796C13.2543 52.5897 11.2539 55.6277 11.2539 59.1279V68.8591H12.8603V59.1279C12.8603 56.0868 14.6932 53.4697 17.3119 52.3087C16.8943 51.9351 16.5125 51.5247 16.1696 51.0796Z" fill="#646464"/>
<path id="Vector_9" d="M30.6661 42.3469C30.6661 38.8755 27.849 36.0615 24.3739 36.0615H23.5637C20.0885 36.0615 17.2715 38.8755 17.2715 42.3469V44.9582C17.2715 48.4295 20.0885 51.2435 23.5637 51.2435H24.3739C27.849 51.2435 30.6661 48.4295 30.6661 44.9582V42.3469ZM29.0588 44.9582C29.0588 47.5387 26.9569 49.6383 24.3735 49.6383H23.5633C20.98 49.6383 18.8781 47.5387 18.8781 44.9582V42.3469C18.8781 39.7664 20.98 37.6667 23.5633 37.6667H24.3735C26.9569 37.6667 29.0588 39.7664 29.0588 42.3469V44.9582Z" fill="#646464"/>
<path id="Vector_10" d="M16.4688 60.5569H18.0751V68.8595H16.4688V60.5569Z" fill="#646464"/>
<path id="Vector_11" d="M29.8633 61.2539H31.4697V68.8584H29.8633V61.2539Z" fill="#646464"/>
<path id="Vector_12" d="M57.3758 36.0615H56.5656C53.0905 36.0615 50.2734 38.8755 50.2734 42.3469V44.9582C50.2734 48.4295 53.0905 51.2435 56.5656 51.2435H57.3758C60.851 51.2435 63.668 48.4295 63.668 44.9582V42.3469C63.668 38.876 60.851 36.0615 57.3758 36.0615ZM62.0615 44.9581C62.0615 47.5386 59.9596 49.6382 57.3763 49.6382H56.5661C53.9828 49.6382 51.8809 47.5386 51.8809 44.9581V42.3468C51.8809 39.7663 53.9828 37.6666 56.5661 37.6666H57.3763C59.9596 37.6666 62.0615 39.7663 62.0615 42.3468V44.9581Z" fill="#646464"/>
<path id="Vector_13" d="M49.4707 60.5566H51.0771V68.8593H49.4707V60.5566Z" fill="#646464"/>
</g>
</svg>
