<svg width="81" height="80" viewBox="0 0 81 80" fill="none" xmlns="http://www.w3.org/2000/svg">
<g id="Frame 4421">
<g id="Group 4421">
<path id="Vector" d="M21.1099 43.4449H8.78857C8.5058 43.4449 8.27734 43.6713 8.27734 43.9514V65.4605C8.27734 65.7407 8.50579 65.9671 8.78857 65.9671H21.1104C21.3932 65.9671 21.6216 65.7407 21.6216 65.4605V62.7668C24.7162 64.5589 36.1967 71.0001 41.3547 71.0001C41.4624 71.0001 41.5686 70.9973 41.6714 70.991C44.7291 70.8228 49.6615 68.8577 56.3371 65.1505L58.382 63.9851C59.081 63.5881 59.7712 63.1796 60.439 62.7721L62.4873 61.5342C67.7271 58.3104 71.8092 55.4351 71.8064 55.4342C72.9874 54.7676 73.7218 53.52 73.7218 52.1782C73.7218 50.8869 73.0627 49.7047 71.9582 49.017C70.849 48.3273 69.4835 48.2509 68.3044 48.8142L54.8916 55.2453C54.9416 54.9958 54.9673 54.7397 54.9673 54.4773C54.9673 52.3825 53.2424 50.6778 51.1229 50.6778H43.6902C40.0941 47.5146 35.5906 45.5794 31.604 45.4904C27.052 45.3852 23.013 45.4496 21.6219 45.4784V43.9506C21.6219 43.6709 21.393 43.4446 21.1102 43.4446L21.1099 43.4449ZM21.6313 46.4923C23.0015 46.4635 27.0347 46.3981 31.5794 46.5043C35.3831 46.5894 39.7092 48.4791 43.1514 51.5614C43.2455 51.6455 43.3673 51.6922 43.4938 51.6922H51.1221C52.678 51.6922 53.9441 52.9416 53.9441 54.4785C53.9441 55.2364 53.6506 55.9352 53.1064 56.4566C52.5923 56.9838 51.887 57.275 51.1222 57.275L36.3982 57.274C36.1154 57.274 35.8869 57.5004 35.8869 57.7806C35.8869 58.0607 36.1154 58.2871 36.3982 58.2871H51.1222C52.1679 58.2871 53.1331 57.8863 53.8292 57.1721C53.9922 57.0169 54.1377 56.8487 54.2677 56.6695L68.7483 49.7265C69.6093 49.317 70.6045 49.3713 71.4136 49.875C72.2188 50.3767 72.699 51.2374 72.699 52.1784C72.699 53.1569 72.1626 54.0672 71.2571 54.5818C71.2173 54.6106 67.159 57.4682 61.9512 60.6717L59.9049 61.9088C59.2437 62.3115 58.5637 62.7142 57.8726 63.1068L55.8325 64.2694C49.2985 67.8987 44.515 69.82 41.6138 69.9806C36.6907 70.2646 23.5956 62.7459 21.6312 61.5973L21.6313 46.4923ZM20.5987 64.954H9.29976V44.4587H20.5992L20.5987 64.954Z" fill="#646464"/>
<g id="Group 4420">
<circle id="Ellipse 10" cx="51.9075" cy="27.3704" r="17.8704" stroke="#646464"/>
<g id="Group 4419">
<path id="Vector_2" d="M60.0215 32.2394V31.5198C60.0215 29.3414 58.7413 27.4508 56.8755 26.511C56.6561 26.7875 56.4118 27.0428 56.1445 27.2759C57.8198 27.9984 58.9935 29.6272 58.9935 31.5198V37.576H60.0749V32.2394L60.0215 32.2394Z" fill="#646464"/>
<path id="Vector_3" d="M46.8882 26.511C45.0224 27.4508 43.7422 29.3415 43.7422 31.5198V37.576H44.7702V31.5198C44.7702 29.6272 45.9433 27.9984 47.6192 27.2759C47.352 27.0434 47.1076 26.788 46.8882 26.511Z" fill="#646464"/>
<path id="Vector_4" d="M56.1681 21.0762C56.1681 18.9158 54.3652 17.1646 52.1412 17.1646H51.6226C49.3986 17.1646 47.5957 18.9158 47.5957 21.0762V22.7013C47.5957 24.8617 49.3986 26.613 51.6226 26.613H52.1412C54.3652 26.613 56.1681 24.8617 56.1681 22.7013V21.0762ZM55.1394 22.7013C55.1394 24.3073 53.7942 25.614 52.1409 25.614H51.6224C49.9691 25.614 48.6239 24.3073 48.6239 22.7013V21.0762C48.6239 19.4702 49.9691 18.1635 51.6224 18.1635H52.1409C53.7942 18.1635 55.1394 19.4702 55.1394 21.0762V22.7013Z" fill="#646464"/>
<path id="Vector_5" d="M47.0801 32.4089H48.1081V37.576H47.0801V32.4089Z" fill="#646464"/>
<path id="Vector_6" d="M55.6523 32.843H56.6804V37.5756H55.6523V32.843Z" fill="#646464"/>
</g>
<path id="Polygon 2" d="M52.1613 31.9629L50.6145 29.6666H53.708L52.1613 31.9629Z" fill="#646464"/>
<path id="Rectangle 39" d="M51.9048 30.9424H52.4151L52.9254 38.0864H51.3945L51.9048 30.9424Z" fill="#646464"/>
</g>
</g>
</g>
</svg>
