<svg width="45" height="45" viewBox="0 0 45 45" fill="none" xmlns="http://www.w3.org/2000/svg">
   <g id="Frame 105">
      <g id="Group 103">
         <path id="Vector"
            d="M37.2704 26.3674H6.99921C6.80993 26.3674 6.65619 26.5206 6.65619 26.7091C6.65619 26.8977 6.80993 27.0509 6.99921 27.0509H37.2704C37.6011 27.0509 37.8706 27.3193 37.8706 27.6488C37.8706 27.9783 37.6011 28.2468 37.2704 28.2468H6.99921C6.66844 28.2468 6.39893 27.9783 6.39893 27.6488C6.39893 27.4603 6.24519 27.3071 6.05591 27.3071C5.86663 27.3071 5.71289 27.4603 5.71289 27.6488C5.71289 28.3554 6.2899 28.9302 6.99919 28.9302H37.2703C37.9797 28.9302 38.5567 28.3554 38.5567 27.6488C38.5567 26.9423 37.9797 26.3674 37.2704 26.3674Z"
            fill="#1A1A1A" />
         <path id="Vector_2"
            d="M38.557 40.378C38.557 40.1895 38.4032 40.0363 38.214 40.0363C38.0247 40.0363 37.8709 40.1895 37.8709 40.378C37.8709 40.7075 37.6014 40.976 37.2706 40.976H6.99949C6.66872 40.976 6.39921 40.7075 6.39921 40.378C6.39921 40.0485 6.66873 39.78 6.99949 39.78H37.2706C37.4599 39.78 37.6137 39.6269 37.6137 39.4383C37.6137 39.2498 37.4599 39.0966 37.2706 39.0966H36.8844V29.8185C36.8844 29.63 36.7307 29.4768 36.5414 29.4768C36.3521 29.4768 36.1984 29.63 36.1984 29.8185V39.0966H32.7682V29.8185C32.7682 29.63 32.6145 29.4768 32.4252 29.4768C32.2359 29.4768 32.0822 29.63 32.0822 29.8185V39.0966H28.652V29.8185C28.652 29.63 28.4982 29.4768 28.309 29.4768C28.1197 29.4768 27.9659 29.63 27.9659 29.8185V39.0966H24.5358V29.8185C24.5358 29.63 24.382 29.4768 24.1927 29.4768C24.0035 29.4768 23.8497 29.63 23.8497 29.8185V39.0966H20.4195V29.8185C20.4195 29.63 20.2658 29.4768 20.0765 29.4768C19.8872 29.4768 19.7335 29.63 19.7335 29.8185V39.0966H16.3033V29.8185C16.3033 29.63 16.1495 29.4768 15.9603 29.4768C15.771 29.4768 15.6172 29.63 15.6172 29.8185V39.0966H12.1871V29.8185C12.1871 29.63 12.0333 29.4768 11.844 29.4768C11.6548 29.4768 11.501 29.63 11.501 29.8185V39.0966H8.07083V29.8185C8.07083 29.63 7.91708 29.4768 7.72781 29.4768C7.53853 29.4768 7.38479 29.63 7.38479 29.8185V39.0966H6.99919C6.28988 39.0966 5.71289 39.6714 5.71289 40.378C5.71289 41.0846 6.28929 41.6594 6.99919 41.6594H37.2704C37.9797 41.6594 38.5567 41.0846 38.5567 40.378L38.557 40.378Z"
            fill="#1A1A1A" />
         <path id="Vector_3"
            d="M6.99919 4.75471H37.2703C37.4596 4.75471 37.6134 4.60155 37.6134 4.413C37.6134 4.22445 37.4596 4.07129 37.2703 4.07129H6.99919C6.28988 4.07129 5.71289 4.64609 5.71289 5.35268C5.71289 6.05926 6.28929 6.63407 6.99919 6.63407H37.2703C37.9797 6.63407 38.5567 6.05926 38.5567 5.35268C38.5567 5.16413 38.4029 5.01097 38.2136 5.01097C38.0244 5.01097 37.8706 5.16413 37.8706 5.35268C37.8706 5.68219 37.6011 5.95067 37.2703 5.95067H6.99918C6.6684 5.95067 6.3989 5.68218 6.3989 5.35268C6.3989 5.02318 6.66782 4.75471 6.99919 4.75471Z"
            fill="#1A1A1A" />
         <path id="Vector_4"
            d="M10.387 7.61698C10.1977 7.61698 10.0439 7.77013 10.0439 7.95869V25.2004C10.0439 25.3889 10.1977 25.5421 10.387 25.5421C10.5762 25.5421 10.73 25.3889 10.73 25.2004V12.363H21.7921V25.2011C21.7921 25.3897 21.9458 25.5429 22.1351 25.5429C22.3244 25.5429 22.4781 25.3897 22.4781 25.2011V12.363H33.5402V25.2011C33.5402 25.3897 33.6939 25.5429 33.8832 25.5429C34.0725 25.5429 34.2262 25.3897 34.2262 25.2011V7.95947C34.2262 7.77092 34.0725 7.61776 33.8832 7.61776C33.6939 7.61776 33.5402 7.77092 33.5402 7.95947V11.6792H22.4781V7.71695C22.4781 7.5284 22.3244 7.37524 22.1351 7.37524C21.9458 7.37524 21.7921 7.5284 21.7921 7.71695V11.6795L10.73 11.6792V7.95948C10.73 7.77092 10.5762 7.61777 10.387 7.61777V7.61698Z"
            fill="#1A1A1A" />
         <path id="Vector_5"
            d="M19.9473 19.5622V21.2139C19.9473 21.4025 20.101 21.5556 20.2903 21.5556C20.4796 21.5556 20.6333 21.4025 20.6333 21.2139V19.5622C20.6333 19.3736 20.4796 19.2205 20.2903 19.2205C20.101 19.2205 19.9473 19.373 19.9473 19.5622Z"
            fill="#1A1A1A" />
         <path id="Vector_6"
            d="M23.6357 19.5622V21.2139C23.6357 21.4025 23.7895 21.5556 23.9788 21.5556C24.168 21.5556 24.3218 21.4025 24.3218 21.2139V19.5622C24.3218 19.3736 24.168 19.2205 23.9788 19.2205C23.7895 19.2205 23.6357 19.373 23.6357 19.5622Z"
            fill="#1A1A1A" />
      </g>
   </g>
</svg>