<svg xmlns="http://www.w3.org/2000/svg">
   <symbol viewBox="0 0 153 89" id="logo">
      <path
         d="M75.9739 37.3453L83.2042 16.8762H68.7922H60.8856H60.3587L42.3371 68.4038H35.559L38.694 59.6863L50.9164 25.6722L54.0775 16.8762H30.8808L29.644 20.3176H44.4072L42.4829 25.6722L30.2605 59.6863L25.8887 71.8489H41.134H48.0168H49.5637L67.5965 20.2952L73.5601 20.3176L66.3335 40.7867H76.7549L65.5937 71.8489H74.0272L86.4252 37.3453H75.9739Z"
         fill="#C39A74" />
      <path
         d="M92.7471 23.744L97.6532 18.2812H92.8554V17.2573H98.9872V18.2924L94.081 23.7553H99.0432V24.7903H92.7471V23.744Z"
         fill="white" />
      <path
         d="M101.408 18.655L103.276 17.2463H104.084V24.7793H103.03V18.655L101.416 19.8507L101.408 18.655Z"
         fill="white" />
      <path
         d="M110.006 23.8862C110.46 23.9152 110.909 23.7915 111.284 23.535C111.43 23.4265 111.548 23.2841 111.627 23.12C111.705 22.956 111.743 22.7752 111.736 22.5933C111.741 22.4411 111.712 22.2897 111.652 22.1497C111.592 22.0096 111.502 21.8844 111.389 21.7825C111.046 21.5377 110.627 21.4249 110.208 21.4649H109.435V20.5606H110.208C110.391 20.5693 110.574 20.5407 110.745 20.4765C110.917 20.4122 111.074 20.3137 111.206 20.187C111.319 20.0746 111.408 19.9405 111.467 19.7928C111.527 19.6451 111.556 19.4868 111.553 19.3276C111.56 19.155 111.524 18.9834 111.449 18.8282C111.373 18.673 111.26 18.539 111.12 18.4383C110.752 18.2066 110.321 18.0956 109.887 18.1206C109.483 18.1157 109.089 18.2484 108.771 18.4969C108.452 18.7455 108.228 19.0951 108.134 19.4882H107.088C107.152 19.0347 107.331 18.6051 107.607 18.2402C107.875 17.8846 108.225 17.5998 108.627 17.4107C109.033 17.2169 109.478 17.1173 109.928 17.1192C110.414 17.1105 110.897 17.1995 111.348 17.3808C111.73 17.532 112.06 17.7917 112.297 18.1281C112.523 18.4572 112.64 18.8497 112.629 19.2491C112.635 19.5813 112.555 19.9095 112.398 20.2019C112.234 20.4937 111.996 20.7363 111.706 20.9044C112.042 21.0428 112.326 21.2817 112.52 21.5881C112.714 21.8945 112.808 22.2535 112.79 22.6158C112.799 23.0502 112.668 23.476 112.416 23.8301C112.163 24.185 111.812 24.4599 111.408 24.6223C110.943 24.8126 110.445 24.9067 109.943 24.8988C109.469 24.9016 109 24.7982 108.571 24.5961C108.153 24.3995 107.787 24.1047 107.507 23.7367C107.22 23.3556 107.04 22.9058 106.983 22.4327H108.037C108.136 22.8713 108.389 23.2598 108.751 23.5268C109.112 23.7938 109.558 23.9214 110.006 23.8862Z"
         fill="white" />
      <path
         d="M93.2324 28.6576H96.5244C96.9732 28.6451 97.4184 28.7426 97.8209 28.9415C98.1674 29.1162 98.4546 29.3892 98.6467 29.7262C98.8391 30.0683 98.9383 30.4548 98.9344 30.8472C98.9536 31.3875 98.764 31.9144 98.405 32.3186C98.046 32.7229 97.5451 32.9734 97.0064 33.0182L99.5136 36.1718H98.1722L95.7285 33.0518H94.3198V36.1718H93.2436L93.2324 28.6576ZM96.4608 32.0877C96.8204 32.1119 97.1758 31.9983 97.4548 31.7701C97.6785 31.5206 97.8022 31.1973 97.8022 30.8621C97.8022 30.527 97.6785 30.2037 97.4548 29.9542C97.1758 29.726 96.8204 29.6124 96.4608 29.6365H94.3085V32.0877H96.4608Z"
         fill="white" />
      <path
         d="M107.26 28.6577V29.6666H103.28V31.9086H106.938V32.9212H103.28V35.1631H107.26V36.172H102.204V28.6577H107.26Z"
         fill="white" />
      <path
         d="M113.006 28.6577H114.21L117.573 36.1869H116.336L115.588 34.4644H111.542L110.794 36.1869H109.621L113.006 28.6577ZM115.189 33.4779L113.586 29.7637L111.971 33.4779H115.189Z"
         fill="white" />
      <path d="M121.34 28.6577V35.1556H125.319V36.1869H120.278V28.6577H121.34Z" fill="white" />
      <path
         d="M98.288 40.0503V41.0629H94.3085V43.3049H97.9667V44.3175H94.3085V46.5594H98.288V47.5683H93.2324V40.0503H98.288Z"
         fill="white" />
      <path
         d="M101.726 47.0529C101.431 46.8404 101.182 46.5702 100.994 46.2587C100.807 45.9472 100.685 45.6008 100.635 45.2406H101.711C101.852 45.6837 102.137 46.0667 102.522 46.328C102.962 46.5761 103.463 46.6952 103.968 46.6718C104.459 46.6941 104.946 46.5844 105.38 46.3541C105.537 46.2799 105.67 46.1639 105.765 46.0189C105.86 45.8738 105.913 45.7054 105.918 45.5321C105.919 45.3882 105.882 45.2466 105.812 45.121C105.742 44.9953 105.641 44.8898 105.518 44.8147C105.114 44.5802 104.669 44.4255 104.207 44.3588L103.389 44.2093C102.692 44.1239 102.03 43.8543 101.472 43.4284C101.271 43.2615 101.11 43.0517 101 42.8144C100.891 42.5771 100.836 42.3183 100.84 42.0571C100.833 41.6585 100.965 41.2699 101.214 40.9585C101.492 40.6194 101.856 40.3613 102.268 40.2112C102.767 40.0268 103.297 39.9368 103.83 39.9459C104.538 39.9306 105.236 40.1271 105.832 40.5101C106.393 40.8791 106.793 41.4464 106.953 42.0982H105.832C105.689 41.734 105.414 41.4367 105.063 41.2649C104.667 41.0692 104.23 40.9718 103.788 40.9809C103.323 40.9562 102.859 41.0582 102.447 41.2761C102.299 41.3535 102.175 41.47 102.089 41.613C102.002 41.756 101.957 41.9199 101.958 42.087C101.956 42.223 101.989 42.3572 102.054 42.4764C102.12 42.5956 102.215 42.6958 102.331 42.767C102.716 42.9807 103.139 43.119 103.575 43.1743L104.394 43.3126C105.114 43.3907 105.8 43.6589 106.382 44.0898C106.739 44.4038 106.963 44.8423 107.008 45.3158C107.053 45.7894 106.916 46.2623 106.625 46.6381C106.334 46.9862 105.958 47.2527 105.533 47.4116C105.022 47.6064 104.478 47.7016 103.93 47.6919C103.146 47.7204 102.373 47.4964 101.726 47.0529Z"
         fill="white" />
      <path d="M115.361 41.0965H112.675V47.5945H111.599V41.0965H108.908V40.0503H115.361V41.0965Z"
         fill="white" />
      <path
         d="M119.55 40.0503H120.753L124.116 47.5795H122.879L122.132 45.8607H118.085L117.338 47.5795H116.168L119.55 40.0503ZM121.732 44.8705L120.129 41.1713L118.515 44.8817L121.732 44.8705Z"
         fill="white" />
      <path d="M131.394 41.0965H128.704V47.5945H127.628V41.0965H124.938V40.0503H131.394V41.0965Z"
         fill="white" />
      <path
         d="M139.192 40.0503V41.0629H135.213V43.3049H138.871V44.3175H135.213V46.5594H139.192V47.5683H134.137V40.0503H139.192Z"
         fill="white" />
   </symbol>

   <symbol viewBox="0 0 30 31" id="whatsup">
      <path
         d="M23.8125 7.79764C22.6665 6.64005 21.5043 5.64095 19.9999 5.01643C18.4955 4.39191 16.8321 3.93313 15.2032 3.9388C8.3782 3.9388 3.18173 9.35668 3.18173 16.1817C3.18173 18.3692 3.2375 19.6999 4.3125 21.5749L2.5625 27.9999L9.125 26.2749C10.9375 27.2624 12.975 27.7874 15.05 27.7874C21.875 27.7874 26.8181 22.5523 26.8181 15.7273C26.8181 12.4148 26.15 10.1351 23.8125 7.79764ZM15.05 27.5455C13.2 27.5455 11.1329 26.6648 9.54537 25.7273H9.09082L4.09082 26.6364L4.99991 22.0909L4.54537 20.5124C3.51755 18.8711 3.26329 16.6615 3.26187 14.7249C3.26187 9.04994 9.375 3.9375 15.05 3.9375C17.8 3.9375 21.2442 5.14077 23.1817 7.09077C24.1411 8.04572 25.3919 9.93073 25.909 11.1817C26.4261 12.4326 26.7758 15.5213 26.7707 16.8749C26.7957 22.5499 20.725 27.5455 15.05 27.5455ZM20.7 17.9874C20.3875 17.8374 18.8625 17.0874 18.5875 16.9749C18.3 16.8749 18.1 16.8249 17.8875 17.1249C17.675 17.4374 17.0875 18.1374 16.9125 18.3374C16.7375 18.5499 16.55 18.5749 16.2375 18.4124C15.925 18.2624 14.925 17.9249 13.75 16.8749C12.825 16.0499 12.2125 15.0374 12.025 14.7249C11.85 14.4124 12 14.2499 12.1625 14.0874C12.3 13.9499 12.475 13.7249 12.625 13.5499C12.775 13.3749 12.8375 13.2374 12.9375 13.0374C13.0375 12.8249 12.9875 12.6499 12.9125 12.4999C12.8375 12.3499 12.2125 10.8249 11.9625 10.1999C11.7125 9.59994 11.45 9.67494 11.2625 9.66244H10.6625C10.45 9.66244 10.125 9.73744 9.8375 10.0499C9.5625 10.3624 8.7625 11.1124 8.7625 12.6374C8.7625 14.1624 9.875 15.6374 10.025 15.8374C10.175 16.0499 12.2125 19.1749 15.3125 20.5124C16.05 20.8374 16.625 21.0249 17.075 21.1624C17.8125 21.3999 18.4875 21.3624 19.025 21.2874C19.625 21.1999 20.8625 20.5374 21.1125 19.8124C21.375 19.0874 21.375 18.4749 21.2875 18.3374C21.2 18.1999 21.0125 18.1374 20.7 17.9874Z"
         fill="white" />
      <path
         d="M26.773 15.7273C26.773 22.2292 21.5022 27.5 15.0003 27.5C13.653 27.5 12.7439 27.4202 11.933 27.1748C11.1275 26.9311 10.3835 26.513 9.38777 25.7793C9.23981 25.6703 9.07334 25.6499 8.98121 25.6442C8.87346 25.6374 8.75979 25.6458 8.65225 25.6597C8.43564 25.6876 8.17397 25.747 7.89587 25.8208C7.36335 25.962 6.70427 26.1737 6.05794 26.3814L5.96213 26.4121C5.27602 26.6325 4.61197 26.8441 4.09401 26.9754C3.92357 27.0186 3.77776 27.0507 3.65795 27.0717C3.67909 26.9522 3.71127 26.8068 3.75428 26.6371C3.88574 26.1181 4.0971 25.4519 4.31695 24.764L4.34652 24.6715C4.5541 24.0222 4.76573 23.3603 4.90679 22.8267C4.9803 22.5486 5.0396 22.2873 5.06747 22.0717C5.0813 21.9647 5.08983 21.8514 5.08314 21.7441C5.0775 21.6537 5.05748 21.484 4.94439 21.3346C4.18213 20.3276 3.76729 19.6004 3.53186 18.8098C3.29395 18.0109 3.22754 17.1097 3.22754 15.7273C3.22754 9.22542 8.49837 3.95459 15.0003 3.95459C21.5022 3.95459 26.773 9.22542 26.773 15.7273ZM3.37545 27.0996C3.36996 27.0989 3.3712 27.0986 3.37755 27.0998C3.37672 27.0997 3.37602 27.0996 3.37545 27.0996ZM3.62887 27.3533C3.63015 27.36 3.62981 27.3614 3.62911 27.3557C3.62903 27.3551 3.62895 27.3543 3.62887 27.3533Z"
         stroke="white" />
   </symbol>

   <symbol viewBox="0 0 28 28" id="telegram">
      <circle cx="14.5" cy="14.5" r="11.15" stroke="white" stroke-width="0.7" />
      <g clip-path="url(#clip0_364_40195)">
         <path fill-rule="evenodd" clip-rule="evenodd"
            d="M17.9739 9.70102C18.1072 9.64495 18.253 9.62561 18.3962 9.64502C18.5394 9.66442 18.6748 9.72186 18.7883 9.81135C18.9018 9.90085 18.9892 10.0191 19.0415 10.1539C19.0938 10.2886 19.109 10.4349 19.0855 10.5775L17.8629 17.9934C17.7443 18.7088 16.9594 19.119 16.3034 18.7627C15.7546 18.4646 14.9396 18.0053 14.2064 17.526C13.8399 17.2862 12.717 16.518 12.855 15.9714C12.9736 15.504 14.8603 13.7478 15.9384 12.7036C16.3616 12.2934 16.1686 12.0567 15.6689 12.4341C14.4275 13.371 12.4356 14.7957 11.7769 15.1968C11.1958 15.5504 10.8928 15.6108 10.5306 15.5504C9.86968 15.4404 9.25677 15.2701 8.75652 15.0625C8.08053 14.7822 8.11342 13.8529 8.75598 13.5823L17.9739 9.70102Z"
            fill="white" />
      </g>
      <defs>
         <clipPath id="clip0_364_40195">
            <rect width="12.9375" height="12.9375" fill="white"
               transform="translate(7.3125 7.3125)" />
         </clipPath>
      </defs>
   </symbol>

   <symbol viewBox="0 0 21 21" id="telegram-green">
      <circle cx="10.5008" cy="9.97502" r="9" stroke="#063832" stroke-width="0.9" />
      <g clip-path="url(#clip0_392_10748)">
         <path fill-rule="evenodd" clip-rule="evenodd"
            d="M13.3559 6.0311C13.4654 5.98503 13.5852 5.96914 13.7029 5.98508C13.8206 6.00103 13.9318 6.04823 14.0251 6.12177C14.1184 6.19531 14.1902 6.2925 14.2332 6.40323C14.2761 6.51396 14.2886 6.63417 14.2693 6.75137L13.2647 12.8453C13.1672 13.4331 12.5223 13.7702 11.9832 13.4774C11.5322 13.2324 10.8624 12.855 10.26 12.4612C9.95879 12.2641 9.03609 11.6329 9.14949 11.1837C9.24694 10.7997 10.7973 9.35647 11.6833 8.49843C12.031 8.16134 11.8724 7.96687 11.4618 8.27695C10.4416 9.04683 8.80486 10.2176 8.26355 10.5472C7.78603 10.8378 7.53708 10.8874 7.23941 10.8378C6.69633 10.7474 6.19267 10.6074 5.7816 10.4369C5.22611 10.2065 5.25313 9.44284 5.78115 9.22047L13.3559 6.0311Z"
            fill="#063832" />
      </g>
      <defs>
         <clipPath id="clip0_392_10748">
            <rect width="10.6313" height="10.6313" fill="white"
               transform="translate(4.59375 4.06879)" />
         </clipPath>
      </defs>
   </symbol>

   <symbol viewBox="0 0 20 21" id="location">
      <g opacity="0.75">
         <path
            d="M9.99967 10.4998C10.458 10.4998 10.8505 10.3365 11.1772 10.0098C11.5038 9.68317 11.6669 9.29095 11.6663 8.83317C11.6663 8.37484 11.503 7.98234 11.1763 7.65567C10.8497 7.329 10.4575 7.16595 9.99967 7.1665C9.54134 7.1665 9.14884 7.32984 8.82217 7.6565C8.49551 7.98317 8.33245 8.37539 8.33301 8.83317C8.33301 9.2915 8.49634 9.684 8.82301 10.0107C9.14967 10.3373 9.5419 10.5004 9.99967 10.4998ZM9.99967 18.8332C7.76356 16.9304 6.09356 15.1632 4.98967 13.5315C3.88579 11.8998 3.33356 10.3893 3.33301 8.99984C3.33301 6.9165 4.00329 5.25678 5.34384 4.02067C6.6844 2.78456 8.23634 2.1665 9.99967 2.1665C11.7636 2.1665 13.3158 2.78456 14.6563 4.02067C15.9969 5.25678 16.6669 6.9165 16.6663 8.99984C16.6663 10.3887 16.1141 11.8993 15.0097 13.5315C13.9052 15.1637 12.2352 16.9309 9.99967 18.8332Z"
            fill="#646464" fill-opacity="0.65" />
      </g>
   </symbol>

   <symbol viewBox="0 0 24 24" id="bed">
      <path
         d="M17.1376 18.6179C17.1376 18.7093 17.0634 18.7835 16.972 18.7835H4.38878C4.29739 18.7835 4.22318 18.7093 4.22318 18.6179C4.22318 18.5265 4.29739 18.4523 4.38878 18.4523H16.972C17.0634 18.4523 17.1376 18.5265 17.1376 18.6179ZM4.72015 14.8099H4.38895C4.11509 14.8099 3.8923 15.0329 3.8923 15.3067V15.6379C3.8923 15.7292 3.96652 15.8034 4.0579 15.8034C4.14929 15.8034 4.22336 15.7292 4.22336 15.6378V15.3066C4.22336 15.2153 4.29757 15.1411 4.38895 15.1411H4.72015C4.81154 15.1411 4.88575 15.0669 4.88575 14.9755C4.88575 14.8841 4.81154 14.8099 4.72015 14.8099ZM5.05121 8.18715H18.9587C19.5978 8.18715 20.1176 8.70708 20.1176 9.34604V13.5757C20.324 13.6489 20.515 13.7621 20.6745 13.9217C20.9562 14.2029 21.1112 14.5775 21.1112 14.9754V16.7968H21.9391C22.0305 16.7968 22.1047 16.871 22.1047 16.9624V20.2738C22.1047 20.3652 22.0305 20.4394 21.9391 20.4394L21.1112 20.4392V22.2605C21.1112 22.3519 21.037 22.4261 20.9456 22.4261H18.9589C18.8675 22.4261 18.7933 22.3519 18.7933 22.2605V20.4392H5.21655V22.2605C5.21655 22.3519 5.14233 22.4261 5.05095 22.4261H3.06419C2.97281 22.426 2.89859 22.3518 2.89859 22.2604V20.4392H2.07073C1.97934 20.4392 1.90527 20.365 1.90527 20.2736V16.9622C1.90527 16.8708 1.97934 16.7968 2.07073 16.7968H2.56753V14.9754C2.56753 14.5774 2.72251 14.2032 3.00364 13.9215C3.24535 13.6797 3.55692 13.5383 3.89205 13.5012V9.34605C3.89205 8.70694 4.41198 8.18701 5.05094 8.18701L5.05121 8.18715ZM4.88575 20.4392H3.23006V22.0949H4.88575V20.4392ZM20.78 20.4392H19.1243V22.0949H20.78V20.4392ZM21.7734 17.1277H2.23627V20.108H21.7734V17.1277ZM20.4406 14.1555C20.2218 13.937 19.9306 13.8165 19.6211 13.8165H4.05766C3.748 13.8165 3.45696 13.937 3.23811 14.1555C3.01925 14.3747 2.89861 14.6657 2.89861 14.9754V16.7967H20.7799V14.9754C20.7799 14.6657 20.6594 14.3747 20.4405 14.1555H20.4406ZM6.04435 13.4853H10.0181C10.1095 13.4853 10.1837 13.4111 10.1837 13.3197V10.6707C10.1837 10.5793 10.1095 10.5051 10.0181 10.5051H6.04435C5.95296 10.5051 5.87875 10.5793 5.87875 10.6707V13.3197C5.87875 13.4111 5.95296 13.4853 6.04435 13.4853ZM13.9914 13.4853H17.9652C18.0566 13.4853 18.1308 13.4111 18.1308 13.3197V10.6707C18.1308 10.5793 18.0566 10.5051 17.9652 10.5051H13.9914C13.9001 10.5051 13.8258 10.5793 13.8258 10.6707V13.3197C13.826 13.4111 13.9001 13.4853 13.9914 13.4853ZM18.9587 8.5184H5.05119C4.59485 8.5184 4.22318 8.88991 4.22318 9.34626V13.4854H5.57824C5.55976 13.4335 5.54783 13.3782 5.54783 13.3198V10.6708C5.54783 10.3969 5.77062 10.1742 6.04448 10.1742H10.0182C10.2921 10.1742 10.5149 10.3969 10.5149 10.6708V13.3198C10.5149 13.378 10.5029 13.4335 10.4845 13.4854H13.5256C13.507 13.4335 13.4951 13.3782 13.4951 13.3198V10.6708C13.4951 10.3969 13.7179 10.1742 13.9917 10.1742H17.9655C18.2393 10.1742 18.4621 10.3969 18.4621 10.6708V13.3198C18.4621 13.378 18.4502 13.4335 18.4317 13.4854H19.6212C19.6775 13.4854 19.7318 13.4953 19.7868 13.5017V9.34617C19.7868 8.88983 19.4151 8.51831 18.9589 8.51831L18.9587 8.5184ZM8.3622 6.53149C8.08834 6.53149 7.86555 6.3087 7.86555 6.03484V2.06111C7.86555 1.78724 8.08834 1.56445 8.3622 1.56445H15.647C15.9208 1.56445 16.1436 1.78724 16.1436 2.06111V6.03484C16.1436 6.30871 15.9208 6.53149 15.647 6.53149H8.3622ZM10.6802 3.951L8.47951 6.15167C8.44692 6.18412 8.40457 6.20042 8.36223 6.20042H15.6336L13.3292 3.31945L12.0794 4.88201L12.453 5.25554C12.5176 5.32015 12.5176 5.42507 12.453 5.48968C12.3884 5.55429 12.2834 5.55429 12.2188 5.48968L10.6802 3.951ZM8.19662 6.03484C8.19662 5.9925 8.21291 5.95001 8.24493 5.91756L10.5629 3.59959C10.6275 3.53498 10.7324 3.53498 10.797 3.59959L11.8438 4.64631L13.1997 2.95087C13.2625 2.87243 13.3954 2.87243 13.4583 2.95087L15.8127 5.89412V2.0612C15.8127 1.96982 15.7385 1.89575 15.6471 1.89575H8.3624C8.27101 1.89575 8.1968 1.96982 8.1968 2.0612L8.19662 6.03484ZM8.24827 6.15402C8.26283 6.16799 8.27971 6.17978 8.29892 6.18749C8.28043 6.17992 8.26355 6.16857 8.24827 6.15402ZM8.20956 6.09814C8.21757 6.11706 8.22906 6.13394 8.24303 6.14878C8.22848 6.1335 8.21713 6.11662 8.20956 6.09814ZM9.35568 3.38582C9.53845 3.38582 9.68688 3.23753 9.68688 3.05462C9.68688 2.87185 9.53859 2.72342 9.35568 2.72342C9.17291 2.72342 9.02448 2.8717 9.02448 3.05462C9.02448 3.23739 9.17276 3.38582 9.35568 3.38582ZM19.6206 18.4523H18.2961C18.2047 18.4523 18.1305 18.5265 18.1305 18.6179C18.1305 18.7092 18.2047 18.7835 18.2961 18.7835H19.6206C19.712 18.7835 19.7862 18.7092 19.7862 18.6179C19.7862 18.5265 19.712 18.4523 19.6206 18.4523Z"
         fill="#1A1A1A" />
   </symbol>

   <symbol viewBox="0 0 24 24" fill="none" id="bath">
      <path
         d="M21.2688 9.57255H3.53616V6.1579C3.53616 5.50633 4.06638 4.9763 4.71775 4.9763C5.21408 4.9763 5.66095 5.29009 5.82949 5.75728L5.91541 5.99549L5.41926 6.17432C5.2349 6.24069 5.08759 6.37491 5.00426 6.55227C4.92092 6.72981 4.91152 6.92912 4.97826 7.11312L5.25702 7.88636C5.2808 7.95236 5.32984 8.0062 5.39308 8.03607C5.42866 8.05266 5.4672 8.06114 5.50554 8.06114C5.53578 8.06114 5.5662 8.05598 5.59514 8.04547L7.96777 7.18982C8.03377 7.16604 8.08761 7.117 8.11747 7.05358C8.14716 6.99034 8.15048 6.91752 8.12669 6.85151L7.84775 6.07828C7.78119 5.89391 7.64697 5.74679 7.4698 5.66345C7.29244 5.57975 7.09295 5.57053 6.90914 5.63746L6.41262 5.81648L6.32652 5.57809C6.08279 4.90203 5.43623 4.44775 4.71774 4.44775C3.77454 4.44775 3.00758 5.2149 3.00758 6.15791V9.57257H2.70706C2.29095 9.57257 1.90027 9.73407 1.60509 10.0289C1.3125 10.3257 1.15137 10.716 1.15137 11.1283C1.15137 11.5162 1.29665 11.8851 1.54905 12.1666C1.54886 12.1716 1.54628 12.1756 1.54628 12.1806C1.54628 12.2588 1.58168 12.3272 1.63551 12.3757V13.4299C1.63551 15.2811 2.88365 16.8643 4.6462 17.3133L4.25277 18.235C4.15579 18.4595 4.15229 18.7075 4.243 18.9332C4.33334 19.1583 4.50701 19.3345 4.73102 19.4289C4.84975 19.4793 4.96922 19.5049 5.08592 19.5049C5.45244 19.5049 5.78133 19.2868 5.9233 18.9501L6.5271 17.5325C6.53982 17.5023 6.54646 17.4721 6.55605 17.442H17.42C17.4296 17.4723 17.4362 17.5025 17.4491 17.5329L18.0524 18.9494C18.1945 19.2868 18.5234 19.5049 18.8899 19.5049C19.0066 19.5049 19.1256 19.4793 19.2443 19.4293C19.4688 19.3346 19.6425 19.1583 19.7329 18.9332C19.8234 18.7075 19.8201 18.4596 19.7237 18.2361L19.3297 17.3133C21.0926 16.8637 22.3404 15.2807 22.3404 13.4297V12.2567C22.3501 12.2475 22.3599 12.2379 22.3695 12.2283C22.37 12.2278 22.3706 12.2276 22.3708 12.227C22.6634 11.9304 22.8245 11.5401 22.8245 11.1282C22.8245 10.2704 22.1265 9.57255 21.2688 9.57255ZM7.08825 6.13449C7.11093 6.12619 7.13416 6.12232 7.15776 6.12232C7.18744 6.12232 7.21694 6.12877 7.24441 6.14168C7.29401 6.16509 7.33162 6.20621 7.35024 6.25783L7.5394 6.78233L5.66423 7.45858L5.47508 6.93389C5.45646 6.88245 5.45904 6.82677 5.48227 6.77754C5.5055 6.72795 5.54661 6.69052 5.59823 6.6719L6.34325 6.40328H6.34343C6.34343 6.40328 6.34361 6.40328 6.34361 6.4031L7.08825 6.13449ZM19.7401 10.1011V13.8767H16.8931V10.1011H19.7401ZM1.98005 10.4013C2.17382 10.2077 2.43193 10.1011 2.7068 10.1011H16.3649V11.9162H2.05028C1.81798 11.7239 1.68026 11.4357 1.68026 11.1282C1.68026 10.8559 1.78738 10.5973 1.98041 10.4013L1.98005 10.4013ZM5.43671 18.7439C5.37716 18.8851 5.23926 18.9762 5.08587 18.9762C5.03996 18.9762 4.99147 18.9652 4.9369 18.9419C4.84324 18.9025 4.77097 18.8295 4.73318 18.736C4.69556 18.6423 4.69722 18.5387 4.73834 18.4436L5.17787 17.4137C5.1952 17.4158 5.21234 17.415 5.22968 17.4169C5.37053 17.432 5.5112 17.4421 5.65077 17.4421H5.99074L5.43671 18.7439ZM19.242 18.736C19.2044 18.8295 19.1321 18.9025 19.0383 18.9419C19.0381 18.9421 19.0381 18.9421 19.0377 18.9421C18.9837 18.9652 18.9352 18.9762 18.8893 18.9762C18.7359 18.9762 18.5982 18.8851 18.5383 18.7432L17.9845 17.4421H18.3245C18.4642 17.4421 18.6052 17.4318 18.7463 17.4169C18.7634 17.415 18.7802 17.4158 18.7974 17.4137L19.2374 18.4447C19.278 18.5388 19.2798 18.6422 19.242 18.736ZM21.9946 11.8555C21.9531 11.8968 21.9089 11.9328 21.8624 11.9665C21.7697 12.0336 21.7308 12.1531 21.7662 12.2621C21.7763 12.293 21.7918 12.3214 21.8113 12.3459V13.4298C21.8113 15.1341 20.5938 16.5777 18.9155 16.8625C18.7186 16.8963 18.5199 16.9136 18.3245 16.9136H17.6368L6.33815 16.9134H5.65048C5.45505 16.9134 5.2563 16.8961 5.05867 16.862C3.38112 16.5775 2.16375 15.1339 2.16375 13.4296V12.4447H16.3646V14.1411C16.3646 14.2871 16.4828 14.4054 16.629 14.4054H20.0045C20.1506 14.4054 20.2689 14.2873 20.2689 14.1411L20.2687 10.101H21.2688C21.8349 10.101 22.2957 10.5618 22.2957 11.1282C22.2957 11.3999 22.1889 11.6582 21.9948 11.8555L21.9946 11.8555Z"
         fill="#1A1A1A" fill-opacity="0.8" />
   </symbol>

   <symbol viewBox="0 0 24 24" fill="none" id="room">
      <path
         d="M21.9765 16.8675L21.9119 7.15967L21.8228 6.99998L12.0618 1.33594H11.8828L2.11543 7.00077L2.02637 7.15954L2.09096 16.8686L2.14734 16.9885L11.9309 22.6537H12.1101L21.9159 16.9861L21.9765 16.8675ZM10.0742 21.1913L19.4787 15.7386L20.5295 16.3438L11.1211 21.7985L10.0742 21.1913ZM9.01116 20.5748L18.4117 15.1245L19.3595 15.67L9.95538 21.1223L9.01116 20.5748ZM7.94798 19.9582L17.345 14.5106L18.2927 15.0562L8.8926 20.5061L7.94798 19.9582ZM6.88524 19.3418L16.2779 13.8963L17.2258 14.4418L7.82962 19.8894L6.88524 19.3418ZM5.88154 18.7597L15.2702 13.3162L16.1582 13.8273L6.7664 19.2725L5.88154 18.7597ZM4.71594 18.0838L14.1006 12.643L15.1514 13.2482L5.76278 18.6913L4.71594 18.0838ZM3.49074 17.3729L12.8707 11.9349L13.9811 12.5742L4.59722 18.015L3.49074 17.3729ZM2.62286 16.8696L3.12891 16.5745L11.9965 11.4315L12.7515 11.8663L3.37194 17.3043L2.62286 16.8696ZM21.577 16.5438L12.0642 11.0816V1.8131L21.4902 7.2642L21.577 16.5438ZM11.8422 1.8131V11.1082L5.95054 14.53L2.45798 16.5419L2.41461 7.26425L11.8422 1.8131ZM12.0209 22.3205L11.24 21.8674L20.6488 16.4127L20.871 16.5404L21.4385 16.869L12.0209 22.3205Z"
         fill="#1A1A1A" />
      <path
         d="M15.6612 9.20607L15.839 9.10354V6.47049L15.7817 6.36764L13.6068 5.11084L13.3965 5.21369V7.84646L13.4865 7.94931L15.6612 9.20607ZM13.6184 5.42155L15.6169 6.53865V8.89508L13.6184 7.77797V5.42155Z"
         fill="#1A1A1A" />
      <path
         d="M19.6841 11.475L19.836 11.3721V8.73937L19.8048 8.63651L17.7279 7.37939L17.6155 7.48225V10.1151L17.6074 10.218L19.6841 11.475ZM17.8376 7.68998L19.6141 8.80756L19.614 11.1645L17.8375 10.047L17.8376 7.68998Z"
         fill="#1A1A1A" />
   </symbol>

   <symbol viewBox="0 0 24 17" fill="none" id="arrow-right">
      <path d="M0 8.5H23M23 8.5L14.9368 0.5M23 8.5L14.9368 16.5" />
   </symbol>

   <symbol viewBox="0 0 12 14" id="arrow-down">
      <path d="M6 0.5V12.5M6 12.5L1 7.5M6 12.5L11 7.5" />
   </symbol>

   <symbol viewBox="0 0 158 18" fill="none" id="header-svg">
      <path
         d="M6.2528 0.299805L5.86103 1.3895L5.27856 3.01108L3.3184 8.46607L1.38288 13.8497L0 17.7H2.66847L5.98686 8.46607L7.92108 3.08373L8.02876 2.78276L8.92127 0.299805H6.2528Z"
         fill="#C39A74" />
      <path
         d="M29.0492 6.77844H26.7699H25.2807H24.1015L23.7097 7.86814L20.5677 16.6104H9.86403L13.3965 6.77844H10.728L10.3362 7.86814L6.80249 17.7001H8.68352H9.47225H20.176H21.0257H22.8457L26.3782 7.86814H28.6575L25.125 17.7001H27.7935L31.7177 6.77844H31.0717H29.0492Z"
         fill="#C39A74" />
      <path
         d="M133.415 1.3895L132.832 3.01108L131.478 6.77833L131.086 7.86803H136.711L133.178 17.7H134.941H135.847H139.771H140.884H142.441L145.758 8.46607L145.973 7.86803H149.357L145.824 17.7H147.556H148.493H153.521H155.539H156.189L158 12.6614H155.332L153.913 16.6103H148.884L152.417 6.77833H151.828H150.359H149.748H143.697L143.305 7.86803L143.089 8.46607L141.155 13.8497L140.163 16.6103H136.239L139.771 6.77833H139.113H138.414H137.103H134.147L135.475 3.08373L135.582 2.78276L136.475 0.299805H134.234H133.806H129.191H126.719H126.521L126.129 1.3895L125.548 3.01108L123.586 8.46607L121.652 13.8497L120.268 17.7H122.938L126.255 8.46607L128.189 3.08373L128.298 2.78276L128.799 1.3895H133.415Z"
         fill="#C39A74" />
      <path
         d="M113.914 16.6103H109.708L113.24 6.77833H111.349H110.572H108.293H106.915H105.624L105.232 7.86803L102.09 16.6103H98.9886L100.408 12.6614H97.8444H97.7393H86.6451H85.4776H83.9767L82.5575 16.6103H79.8734L83.4059 6.77833H81.1253H80.7374H76.8132H75.0217H74.1447L73.7529 7.86803L70.611 16.6103H67.3613L70.2867 8.46607L72.2222 3.08373L72.3298 2.78276L73.2224 0.299805H71.148H70.5526H67.1693H66.474H64.5009L64.1091 1.3895L63.5266 3.01108L61.5665 8.46607L59.6322 13.8497L58.6398 16.6103H54.7156L58.2481 6.77833H57.0066H56.4358H55.5796H52.6244L53.9515 3.08373L54.0592 2.78276L54.9517 0.299805H52.7529H52.2833H47.6663H46.9619H44.9978L44.6061 1.3895L44.0249 3.01108L42.0634 8.46607L40.1292 13.8497L39.1368 16.6103H35.0595L36.4787 12.6614H33.8102L31.9993 17.7H34.5211H34.669H38.745H39.1952H41.4148L44.7319 8.46607L46.6661 3.08373L46.7751 2.78276L47.2758 1.3895H51.8915L51.309 3.01108L49.9547 6.77833L49.5629 7.86803H55.1878L51.6554 17.7H52.3326H54.3238H58.2481H60.8556H60.9165L64.2349 8.46607L66.1691 3.08373L66.2781 2.78276L66.7789 1.3895H70.1608L69.5797 3.01108L67.6182 8.46607L65.684 13.8497L64.3011 17.7H66.5441H66.9696H70.2192H70.9781H72.889L76.4214 7.86803H80.3456L76.8132 17.7H79.1223H79.4817H82.1657H83.5551H84.8342L86.2534 13.7511H97.3475L95.9283 17.7H98.1908H98.5968H101.7H102.625H104.368L107.901 7.86803H110.18L106.648 17.7H108.808H109.316H113.522H114.75H116.192L118.001 12.6614H115.333L113.914 16.6103Z"
         fill="#063832" />
   </symbol>

   <symbol viewBox="0 0 49 48" fill="none" id="new-build">
      <g clip-path="url(#clip0_317_5698)">
         <path
            d="M45.3 10.4H47.7C48.0414 10.4 48.3449 10.1839 48.4559 9.86167C48.5672 9.53901 48.4625 9.18159 48.1945 8.97105L36.9945 0.171045C36.7039 -0.0566895 36.2961 -0.0566895 36.0055 0.171045L24.8055 8.97105C24.5375 9.18159 24.4328 9.53901 24.5441 9.86167C24.6551 10.1839 24.9586 10.4 25.3 10.4H27.7V46.4H21.3V28.8H23.7C24.0414 28.8 24.3449 28.5839 24.4559 28.2617C24.5672 27.939 24.4625 27.5816 24.1945 27.371L12.9945 18.571C12.7039 18.3433 12.2961 18.3433 12.0055 18.571L0.805469 27.371C0.5375 27.5816 0.432812 27.939 0.544141 28.2617C0.655078 28.5839 0.958594 28.8 1.3 28.8H3.7V46.4H0.5V48H48.5V46.4H45.3V10.4ZM14.1 42.4V46.4H10.9V42.4H14.1ZM15.7 46.4V42.4H17.3V40.8H7.7V42.4H9.3V46.4H5.3V28C5.3 27.5585 4.94258 27.2 4.5 27.2H3.61367L12.5 20.2175L21.3863 27.2H20.5C20.0574 27.2 19.7 27.5585 19.7 28V46.4H15.7ZM38.1 42.4V46.4H34.9V42.4H38.1ZM39.7 46.4V42.4H41.3V40.8H31.7V42.4H33.3V46.4H29.3V9.59995C29.3 9.15855 28.9426 8.79995 28.5 8.79995H27.6137L36.5 1.81753L45.3863 8.79995H44.5C44.0574 8.79995 43.7 9.15855 43.7 9.59995V46.4H39.7Z"
            fill="#767676" />
         <path d="M30.9004 8.7998H32.5004V10.3998H30.9004V8.7998Z" fill="#767676" />
         <path d="M34.0996 8.7998H35.6996V10.3998H34.0996V8.7998Z" fill="#767676" />
         <path d="M37.3 8.80005H38.9V10.4H37.3V8.80005Z" fill="#767676" />
         <path d="M34.0996 5.6001H35.6996V7.2001H34.0996V5.6001Z" fill="#767676" />
         <path d="M37.3 5.59998H38.9V7.19998H37.3V5.59998Z" fill="#767676" />
         <path d="M40.5 8.80005H42.1V10.4H40.5V8.80005Z" fill="#767676" />
         <path d="M30.9004 12H32.5004V13.6H30.9004V12Z" fill="#767676" />
         <path d="M34.0996 12H35.6996V13.6H34.0996V12Z" fill="#767676" />
         <path d="M37.3 12H38.9V13.6H37.3V12Z" fill="#767676" />
         <path d="M40.5 12H42.1V13.6H40.5V12Z" fill="#767676" />
         <path d="M30.9004 15.2002H32.5004V16.8002H30.9004V15.2002Z" fill="#767676" />
         <path d="M34.0996 15.2002H35.6996V16.8002H34.0996V15.2002Z" fill="#767676" />
         <path d="M37.3 15.2H38.9V16.8H37.3V15.2Z" fill="#767676" />
         <path d="M40.5 15.2H42.1V16.8H40.5V15.2Z" fill="#767676" />
         <path d="M30.9004 18.3999H32.5004V19.9999H30.9004V18.3999Z" fill="#767676" />
         <path d="M34.0996 18.3999H35.6996V19.9999H34.0996V18.3999Z" fill="#767676" />
         <path d="M37.3 18.4H38.9V20H37.3V18.4Z" fill="#767676" />
         <path d="M40.5 18.4H42.1V20H40.5V18.4Z" fill="#767676" />
         <path d="M30.9004 21.6001H32.5004V23.2001H30.9004V21.6001Z" fill="#767676" />
         <path d="M34.0996 21.6001H35.6996V23.2001H34.0996V21.6001Z" fill="#767676" />
         <path d="M37.3 21.6H38.9V23.2H37.3V21.6Z" fill="#767676" />
         <path d="M40.5 21.6H42.1V23.2H40.5V21.6Z" fill="#767676" />
         <path d="M30.9004 24.7998H32.5004V26.3998H30.9004V24.7998Z" fill="#767676" />
         <path d="M34.0996 24.7998H35.6996V26.3998H34.0996V24.7998Z" fill="#767676" />
         <path d="M37.3 24.8H38.9V26.4H37.3V24.8Z" fill="#767676" />
         <path d="M40.5 24.8H42.1V26.4H40.5V24.8Z" fill="#767676" />
         <path d="M30.9004 28H32.5004V29.6H30.9004V28Z" fill="#767676" />
         <path d="M34.0996 28H35.6996V29.6H34.0996V28Z" fill="#767676" />
         <path d="M37.3 28H38.9V29.6H37.3V28Z" fill="#767676" />
         <path d="M40.5 28H42.1V29.6H40.5V28Z" fill="#767676" />
         <path d="M6.90039 27.2002H8.50039V28.8002H6.90039V27.2002Z" fill="#767676" />
         <path d="M10.0996 27.2002H11.6996V28.8002H10.0996V27.2002Z" fill="#767676" />
         <path d="M13.3 27.2H14.9V28.8H13.3V27.2Z" fill="#767676" />
         <path d="M10.0996 24H11.6996V25.6H10.0996V24Z" fill="#767676" />
         <path d="M13.3 24H14.9V25.6H13.3V24Z" fill="#767676" />
         <path d="M16.5 27.2H18.1V28.8H16.5V27.2Z" fill="#767676" />
         <path d="M6.90039 30.3999H8.50039V31.9999H6.90039V30.3999Z" fill="#767676" />
         <path d="M10.0996 30.3999H11.6996V31.9999H10.0996V30.3999Z" fill="#767676" />
         <path d="M13.3 30.4H14.9V32H13.3V30.4Z" fill="#767676" />
         <path d="M16.5 30.4H18.1V32H16.5V30.4Z" fill="#767676" />
         <path d="M6.90039 33.6001H8.50039V35.2001H6.90039V33.6001Z" fill="#767676" />
         <path d="M10.0996 33.6001H11.6996V35.2001H10.0996V33.6001Z" fill="#767676" />
         <path d="M13.3 33.6H14.9V35.2H13.3V33.6Z" fill="#767676" />
         <path d="M16.5 33.6H18.1V35.2H16.5V33.6Z" fill="#767676" />
         <path d="M6.90039 36.7998H8.50039V38.3998H6.90039V36.7998Z" fill="#767676" />
         <path d="M10.0996 36.7998H11.6996V38.3998H10.0996V36.7998Z" fill="#767676" />
         <path d="M13.3 36.8H14.9V38.4H13.3V36.8Z" fill="#767676" />
         <path d="M16.5 36.8H18.1V38.4H16.5V36.8Z" fill="#767676" />
         <path
            d="M9.3 8.33125L12.7344 11.7656C13.0473 12.0785 13.5527 12.0785 13.8656 11.7656L22.9 2.73125V4.8H24.5V0.8C24.5 0.358594 24.1426 0 23.7 0H19.7V1.6H21.7688L13.3 10.0688L9.86563 6.63438C9.55273 6.32148 9.04727 6.32148 8.73438 6.63438L0.734375 14.6344L1.86563 15.7656L9.3 8.33125Z"
            fill="#767676" />
         <path d="M20.5 8H22.1V13.6H20.5V8Z" fill="#767676" />
         <path d="M20.5 15.2H22.1V16.8H20.5V15.2Z" fill="#767676" />
         <path d="M16.5 12H18.1V16.8H16.5V12Z" fill="#767676" />
         <path d="M16.5 18.4H18.1V20H16.5V18.4Z" fill="#767676" />
      </g>
      <defs>
         <clipPath id="clip0_317_5698">
            <rect width="48" height="48" fill="white" transform="translate(0.5)" />
         </clipPath>
      </defs>
   </symbol>

   <symbol viewBox="0 0 49 48" fill="none" id="old-build">
      <g clip-path="url(#clip0_317_5755)">
         <path
            d="M47.7967 46.5936H41.8511V41.0999C41.8511 40.7115 41.5364 40.3968 41.148 40.3968C40.7595 40.3968 40.4448 40.7115 40.4448 41.0999V46.5936H21.7597V32.5262C21.7597 32.4152 21.85 32.325 21.961 32.325H40.2434C40.3545 32.325 40.4446 32.4153 40.4446 32.5262V37.8185C40.4446 38.2069 40.7594 38.5216 41.1478 38.5216C41.5362 38.5216 41.8509 38.2069 41.8509 37.8185V32.5262C41.8509 31.6397 41.1297 30.9187 40.2433 30.9187H31.8053V23.9056C31.8053 23.3887 31.5792 22.9006 31.1851 22.5666L26.6627 18.7328V14.9333C26.6627 13.8735 25.8005 13.0114 24.7407 13.0114H24.5528V9.82348C24.5528 8.99642 23.88 8.32358 23.0529 8.32358H21.7597V6.08043C21.7597 5.24821 21.0828 4.57115 20.2505 4.57115H20.0998V0.703124C20.0998 0.314718 19.785 0 19.3967 0C19.0084 0 18.6936 0.314718 18.6936 0.703124V4.57115H18.4023C17.6477 4.57115 17.0336 5.18512 17.0336 5.9398V8.32358H15.5998C14.8504 8.32358 14.2405 8.93333 14.2405 9.68286V13.0114H13.912C12.9297 13.0114 12.1307 13.8104 12.1307 14.7927V24.0835H6.88033C6.05318 24.0835 5.38024 24.7564 5.38024 25.5836V46.5937H1.20312C0.814812 46.5937 0.5 46.9084 0.5 47.2968C0.5 47.6852 0.814812 47.9999 1.20312 47.9999C3.07362 47.9999 45.7424 47.9999 47.7967 47.9999C48.1851 47.9999 48.4998 47.6852 48.4998 47.2968C48.4998 46.9084 48.1851 46.5936 47.7967 46.5936ZM26.6626 20.5764L30.2758 23.6394C30.3541 23.7058 30.399 23.8028 30.399 23.9056V30.9186H26.6626V20.5764ZM12.1306 46.5936H6.78658C6.78658 24.4499 6.74083 25.4896 6.88033 25.4896H12.1306V46.5936ZM18.44 5.97749C20.3364 5.97749 20.3535 5.94121 20.3535 6.08043V8.32348H18.44V5.97749ZM15.6468 9.72983C23.507 9.72983 23.1465 9.6897 23.1465 9.82339V13.0113H15.6468V9.72983ZM20.3534 32.5262V46.5936H13.5369C13.5369 45.5733 13.5369 15.2106 13.5369 14.7926C13.5369 14.5858 13.7051 14.4176 13.9119 14.4176C15.3408 14.4176 22.5526 14.4176 23.8496 14.4176H24.7407C25.025 14.4176 25.2563 14.649 25.2563 14.9332V19.0585V30.9186H21.9611C21.0748 30.9186 20.3534 31.6396 20.3534 32.5262Z"
            fill="#767676" />
         <path
            d="M22.9282 16.7615H15.8027C15.4144 16.7615 15.0996 17.0762 15.0996 17.4646C15.0996 17.853 15.4144 18.1677 15.8027 18.1677H22.9282C23.3165 18.1677 23.6313 17.853 23.6313 17.4646C23.6313 17.0762 23.3165 16.7615 22.9282 16.7615Z"
            fill="#767676" />
         <path
            d="M22.9282 20.4224H15.8027C15.4144 20.4224 15.0996 20.7371 15.0996 21.1255C15.0996 21.5139 15.4144 21.8286 15.8027 21.8286H22.9282C23.3165 21.8286 23.6313 21.5139 23.6313 21.1255C23.6313 20.7371 23.3165 20.4224 22.9282 20.4224Z"
            fill="#767676" />
         <path
            d="M22.9282 24.0834H15.8027C15.4144 24.0834 15.0996 24.3981 15.0996 24.7865C15.0996 25.1749 15.4144 25.4896 15.8027 25.4896H22.9282C23.3165 25.4896 23.6313 25.1749 23.6313 24.7865C23.6313 24.3981 23.3165 24.0834 22.9282 24.0834Z"
            fill="#767676" />
         <path
            d="M10.2954 27.7441H8.36523C7.97692 27.7441 7.66211 28.0589 7.66211 28.4473C7.66211 28.8357 7.97692 29.1504 8.36523 29.1504H10.2954C10.6837 29.1504 10.9985 28.8357 10.9985 28.4473C10.9985 28.0589 10.6837 27.7441 10.2954 27.7441Z"
            fill="#767676" />
         <path
            d="M10.2954 31.4053H8.36523C7.97692 31.4053 7.66211 31.72 7.66211 32.1084C7.66211 32.4968 7.97692 32.8115 8.36523 32.8115H10.2954C10.6837 32.8115 10.9985 32.4968 10.9985 32.1084C10.9985 31.72 10.6837 31.4053 10.2954 31.4053Z"
            fill="#767676" />
         <path
            d="M10.5684 35.0664H8.36523C7.97692 35.0664 7.66211 35.3811 7.66211 35.7695C7.66211 36.1579 7.97692 36.4727 8.36523 36.4727H10.5684C10.9568 36.4727 11.2716 36.1579 11.2716 35.7695C11.2716 35.3811 10.9568 35.0664 10.5684 35.0664Z"
            fill="#767676" />
         <path
            d="M10.5684 38.7271H8.36523C7.97692 38.7271 7.66211 39.0418 7.66211 39.4302C7.66211 39.8186 7.97692 40.1333 8.36523 40.1333H10.5684C10.9568 40.1333 11.2716 39.8186 11.2716 39.4302C11.2716 39.0418 10.9568 38.7271 10.5684 38.7271Z"
            fill="#767676" />
         <path
            d="M10.5684 42.3882H8.36523C7.97692 42.3882 7.66211 42.7029 7.66211 43.0913C7.66211 43.4797 7.97692 43.7944 8.36523 43.7944H10.5684C10.9568 43.7944 11.2716 43.4797 11.2716 43.0913C11.2716 42.703 10.9568 42.3882 10.5684 42.3882Z"
            fill="#767676" />
         <path
            d="M22.9282 27.7444H15.8027C15.4144 27.7444 15.0996 28.0591 15.0996 28.4475C15.0996 28.8359 15.4144 29.1506 15.8027 29.1506H22.9282C23.3165 29.1506 23.6313 28.8359 23.6313 28.4475C23.6313 28.0591 23.3165 27.7444 22.9282 27.7444Z"
            fill="#767676" />
         <path
            d="M17.7329 31.4052H15.8027C15.4144 31.4052 15.0996 31.7199 15.0996 32.1083C15.0996 32.4967 15.4144 32.8114 15.8027 32.8114H17.7328C18.1211 32.8114 18.4359 32.4967 18.4359 32.1083C18.4359 31.7199 18.1212 31.4052 17.7329 31.4052Z"
            fill="#767676" />
         <path
            d="M18.006 35.0662H15.8027C15.4144 35.0662 15.0996 35.3809 15.0996 35.7693C15.0996 36.1577 15.4144 36.4724 15.8027 36.4724H18.0059C18.3943 36.4724 18.7091 36.1577 18.7091 35.7693C18.7091 35.3809 18.3944 35.0662 18.006 35.0662Z"
            fill="#767676" />
         <path
            d="M18.006 38.7271H15.8027C15.4144 38.7271 15.0996 39.0418 15.0996 39.4302C15.0996 39.8186 15.4144 40.1333 15.8027 40.1333H18.0059C18.3943 40.1333 18.7091 39.8186 18.7091 39.4302C18.7091 39.0418 18.3944 38.7271 18.006 38.7271Z"
            fill="#767676" />
         <path
            d="M18.006 42.3881H15.8027C15.4144 42.3881 15.0996 42.7028 15.0996 43.0912C15.0996 43.4796 15.4144 43.7943 15.8027 43.7943H18.0059C18.3943 43.7943 18.7091 43.4796 18.7091 43.0912C18.7092 42.7029 18.3944 42.3881 18.006 42.3881Z"
            fill="#767676" />
         <path
            d="M37.5044 35.0662H24.7004C24.312 35.0662 23.9973 35.3809 23.9973 35.7693C23.9973 36.1577 24.312 36.4724 24.7004 36.4724H37.5044C37.8928 36.4724 38.2075 36.1577 38.2075 35.7693C38.2075 35.3809 37.8929 35.0662 37.5044 35.0662Z"
            fill="#767676" />
         <path
            d="M37.5044 38.7271H24.7004C24.312 38.7271 23.9973 39.0418 23.9973 39.4302C23.9973 39.8186 24.312 40.1333 24.7004 40.1333H37.5044C37.8928 40.1333 38.2075 39.8186 38.2075 39.4302C38.2075 39.0418 37.8929 38.7271 37.5044 38.7271Z"
            fill="#767676" />
         <path
            d="M37.5044 42.3881H24.7004C24.312 42.3881 23.9973 42.7028 23.9973 43.0912C23.9973 43.4796 24.312 43.7943 24.7004 43.7943H37.5044C37.8928 43.7943 38.2075 43.4796 38.2075 43.0912C38.2076 42.7029 37.8929 42.3881 37.5044 42.3881Z"
            fill="#767676" />
         <path
            d="M36.339 2.28564C33.1312 2.28564 30.5215 4.89545 30.5215 8.10329C30.5214 10.5985 32.1092 12.8127 34.4727 13.6132C34.8405 13.7378 35.2395 13.5406 35.3642 13.1727C35.4888 12.8049 35.2917 12.4058 34.9238 12.2812C33.1319 11.6743 31.9278 9.99544 31.9278 8.1032C31.9278 5.67076 33.9066 3.69189 36.339 3.69189C38.7715 3.69189 40.7503 5.67067 40.7503 8.1032C40.7503 9.99526 39.5463 11.6742 37.7543 12.2812C37.3864 12.4057 37.1893 12.8048 37.3138 13.1727C37.4131 13.4658 37.6866 13.6506 37.9798 13.6506C38.0546 13.6506 38.1306 13.6386 38.2053 13.6132C40.5688 12.8129 42.1567 10.5987 42.1567 8.10329C42.1566 4.89545 39.5469 2.28564 36.339 2.28564Z"
            fill="#767676" />
      </g>
      <defs>
         <clipPath id="clip0_317_5755">
            <rect width="48" height="48" fill="white" transform="translate(0.5)" />
         </clipPath>
      </defs>
   </symbol>

   <symbol viewBox="0 0 49 48" fill="none" id="control">
      <path d="M6.6875 37.1251H46.0627V39.0004H6.6875V37.1251Z" fill="#767676" />
      <path
         d="M46.0626 46.5002H2.93762C2.41989 46.5002 2 46.0803 2 45.5626V34.3125H3.8749V44.6253H46.0626V46.5002Z"
         fill="#767676" />
      <path
         d="M6.68741 39.0002C4.09874 39.0002 2 36.9014 2 34.3124C2 31.7237 4.09874 29.625 6.68741 29.625C9.27642 29.625 11.3752 31.7237 11.3752 34.3124C11.3721 36.9 9.27505 38.9971 6.68741 39.0002ZM6.68741 31.4999C5.13421 31.4999 3.8749 32.7592 3.8749 34.3124C3.8749 35.866 5.13421 37.1249 6.68741 37.1249C8.24095 37.1249 9.49993 35.866 9.49993 34.3124C9.49993 32.7592 8.24095 31.4999 6.68741 31.4999Z"
         fill="#767676" />
      <path d="M43.2502 38.0626H45.1255V45.5625H43.2502V38.0626Z" fill="#767676" />
      <path d="M9.5 40.8751H44.1878V42.75H9.5V40.8751Z" fill="#767676" />
      <path d="M5.75 40.8751H7.6249V42.75H5.75V40.8751Z" fill="#767676" />
      <path
         d="M17.0002 38.0624H15.125V11.8122C15.125 11.2944 15.5449 10.8749 16.0626 10.8749H26.3751V12.7498H17.0002V38.0624Z"
         fill="#767676" />
      <path
         d="M32.9377 23.0624C32.8144 23.0627 32.6922 23.0387 32.5785 22.9913C32.2283 22.8461 32 22.5041 32 22.1251V20.2499H31.0628C29.5092 20.2499 28.2502 18.9909 28.2502 17.4373V4.31239C28.2502 2.75919 29.5092 1.49988 31.0628 1.49988H44.1877C45.7409 1.49988 47.0002 2.75919 47.0002 4.31239V17.4373C47.0002 18.9909 45.7409 20.2499 44.1877 20.2499H36.1381L33.6006 22.7877C33.4248 22.9635 33.1862 23.0624 32.9377 23.0624ZM31.0628 3.37477C30.545 3.37477 30.1251 3.79466 30.1251 4.31239V17.4373C30.1251 17.9551 30.545 18.375 31.0628 18.375H32.9377C33.4554 18.375 33.8753 18.7949 33.8753 19.3126V19.8619L35.0872 18.6496C35.263 18.4738 35.5016 18.375 35.7502 18.375H44.1877C44.7054 18.375 45.1253 17.9551 45.1253 17.4373V4.31239C45.1253 3.79466 44.7054 3.37477 44.1877 3.37477H31.0628Z"
         fill="#767676" />
      <path
         d="M38.5627 11.8124H36.6878C35.1342 11.8124 33.8752 10.5534 33.8752 8.99989C33.8752 7.44669 35.1342 6.18738 36.6878 6.18738H38.5627C40.1159 6.18738 41.3752 7.44669 41.3752 8.99989H39.5003C39.5003 8.48216 39.0804 8.06262 38.5627 8.06262H36.6878C36.17 8.06262 35.7501 8.48216 35.7501 8.99989C35.7501 9.51763 36.17 9.93751 36.6878 9.93751H38.5627V11.8124Z"
         fill="#767676" />
      <path
         d="M38.5627 15.5624H36.6878C35.1342 15.5624 33.8752 14.3031 33.8752 12.7499H35.7501C35.7501 13.2676 36.17 13.6875 36.6878 13.6875H38.5627C39.0804 13.6875 39.5003 13.2676 39.5003 12.7499C39.5003 12.2322 39.0804 11.8123 38.5627 11.8123H36.6878V9.93738H38.5627C40.1159 9.93738 41.3752 11.1967 41.3752 12.7499C41.3752 14.3031 40.1159 15.5624 38.5627 15.5624Z"
         fill="#767676" />
      <path d="M36.6877 5.24988H38.5626V7.12477H36.6877V5.24988Z" fill="#767676" />
      <path d="M36.6877 14.625H38.5626V16.5002H36.6877V14.625Z" fill="#767676" />
      <path d="M32.0002 24.9375H33.8755V38.0625H32.0002V24.9375Z" fill="#767676" />
      <path
         d="M7.62503 17.4373C7.50178 17.4377 7.37955 17.4137 7.26591 17.3663C6.91572 17.2211 6.68741 16.8791 6.68741 16.5001V12.7499H4.81251C3.25931 12.7499 2 11.4906 2 9.93742V4.31239C2 2.75919 3.25931 1.49988 4.81251 1.49988H19.8127C21.3659 1.49988 22.6252 2.75919 22.6252 4.31239V8.9998H20.75V4.31239C20.75 3.79466 20.3304 3.37477 19.8127 3.37477H4.81251C4.29478 3.37477 3.8749 3.79466 3.8749 4.31239V9.93742C3.8749 10.4552 4.29478 10.875 4.81251 10.875H7.62503C8.14276 10.875 8.56265 11.2946 8.56265 11.8123V14.2369L11.6498 11.1497C11.8256 10.9739 12.0639 10.875 12.3124 10.875H14.1877V12.7499H12.7007L8.28799 17.1627C8.11221 17.3385 7.8736 17.4373 7.62503 17.4373Z"
         fill="#767676" />
      <path d="M5.75 6.18738H7.6249V8.06262H5.75V6.18738Z" fill="#767676" />
      <path d="M9.5 6.18738H18.8752V8.06262H9.5V6.18738Z" fill="#767676" />
      <path
         d="M43.2502 38.0625H41.3753V23.9999H35.7502V22.125H42.3129C42.8306 22.125 43.2502 22.5445 43.2502 23.0623V38.0625Z"
         fill="#767676" />
      <path d="M37.6252 25.875H42.313V27.7502H37.6252V25.875Z" fill="#767676" />
      <path d="M37.6252 29.625H42.313V31.4999H37.6252V29.625Z" fill="#767676" />
      <path d="M37.6252 33.375H42.313V35.2499H37.6252V33.375Z" fill="#767676" />
      <path d="M18.875 14.625H20.7499V16.5002H18.875V14.625Z" fill="#767676" />
      <path d="M23.5625 14.625H25.4377V16.5002H23.5625V14.625Z" fill="#767676" />
      <path d="M18.875 19.3125H20.7499V21.1874H18.875V19.3125Z" fill="#767676" />
      <path d="M23.5625 19.3125H25.4377V21.1874H23.5625V19.3125Z" fill="#767676" />
      <path d="M18.875 24H20.7499V25.8749H18.875V24Z" fill="#767676" />
      <path d="M23.5625 24H25.4377V25.8749H23.5625V24Z" fill="#767676" />
      <path d="M18.875 28.6875H20.7499V30.5627H18.875V28.6875Z" fill="#767676" />
      <path d="M28.2502 24H30.1251V25.8749H28.2502V24Z" fill="#767676" />
      <path d="M28.2502 28.6875H30.1251V30.5627H28.2502V28.6875Z" fill="#767676" />
      <path d="M23.5625 28.6875H25.4377V30.5627H23.5625V28.6875Z" fill="#767676" />
      <path d="M18.875 33.375H20.7499V35.2499H18.875V33.375Z" fill="#767676" />
      <path d="M28.2502 33.375H30.1251V35.2499H28.2502V33.375Z" fill="#767676" />
      <path d="M23.5625 33.375H25.4377V35.2499H23.5625V33.375Z" fill="#767676" />
      <path d="M5.75 33.375H7.6249V35.2499H5.75V33.375Z" fill="#767676" />
   </symbol>

   <symbol viewBox="0 0 49 48" fill="none" id="design">
      <g clip-path="url(#clip0_317_5850)">
         <path
            d="M35.6446 38.0277V30.3378C35.6445 29.1852 34.7068 28.2476 33.5542 28.2476H6.59461C5.44205 28.2476 4.50427 29.1852 4.50427 30.3378V38.0277C3.64083 38.3212 3.01758 39.1393 3.01758 40.1008C3.01758 41.3082 3.99989 42.2905 5.20711 42.2905H34.9416C36.1489 42.2905 37.1311 41.3082 37.1311 40.1008C37.1312 39.1393 36.508 38.3212 35.6446 38.0277ZM5.91005 30.3377C5.91005 29.9603 6.21708 29.6532 6.59461 29.6532H33.5542C33.9316 29.6532 34.2388 29.9603 34.2388 30.3377V37.9112H5.91005V30.3377ZM34.9415 40.8847H5.2072C4.77511 40.8847 4.42345 40.533 4.42345 40.1008C4.42345 39.6687 4.77511 39.3171 5.2072 39.3171H34.9417C35.3738 39.3171 35.7255 39.6687 35.7255 40.1008C35.7254 40.533 35.3738 40.8847 34.9415 40.8847Z"
            fill="#767676" />
         <path
            d="M37.0368 30.943H36.4258V32.3488H37.0368C37.8316 32.3488 37.8316 32.5388 37.8316 32.8019V42.1963C37.8316 42.8369 37.4007 43.595 37.0368 43.595H3.11153C2.69641 43.595 2.12453 42.7846 2.12453 42.1963V32.802C2.12453 32.655 2.12453 32.3489 3.11153 32.3489H3.71781V30.9431H3.11153C2.48631 30.9431 1.97191 31.0557 1.58256 31.2777C1.0255 31.5953 0.71875 32.1367 0.71875 32.8022V42.1966C0.71875 42.7872 0.96175 43.4634 1.36881 44.0053C1.84403 44.6382 2.47938 45.0011 3.11163 45.0011H3.71791V48H5.12369V45.0009H35.6763V48H37.082V44.9992C38.4703 44.9641 39.2376 43.3303 39.2376 42.1964V32.802C39.2373 32.1077 38.9514 30.943 37.0368 30.943Z"
            fill="#767676" />
         <path d="M9.71633 32.4429H8.2168V33.8487H9.71633V32.4429Z" fill="#767676" />
         <path d="M32.0209 32.4429H30.4277V33.8487H32.0209V32.4429Z" fill="#767676" />
         <path d="M20.8687 32.4429H19.3691V33.8487H20.8687V32.4429Z" fill="#767676" />
         <path
            d="M0.787109 15.2729C0.787109 15.8252 1.23482 16.2729 1.78711 16.2729H22.7503C23.3026 16.2729 23.7503 15.8252 23.7503 15.2729V1C23.7503 0.447715 23.3026 0 22.7503 0H1.78711C1.23483 0 0.787109 0.447715 0.787109 1V15.2729ZM2.19289 2.40578C2.19289 1.8535 2.64061 1.40578 3.19289 1.40578H21.3445C21.8968 1.40578 22.3445 1.8535 22.3445 2.40578V13.8672C22.3445 14.4194 21.8968 14.8672 21.3445 14.8672H3.19289C2.64061 14.8672 2.19289 14.4194 2.19289 13.8672V2.40578Z"
            fill="#767676" />
         <path
            d="M24.5742 16.354V26.6801H37.8738V16.354H24.5742ZM36.468 25.2743H25.98V17.7598H36.468V25.2743Z"
            fill="#767676" />
         <path
            d="M26.8047 18.584V24.4499H35.6441V18.584H26.8047ZM34.2384 23.0441H28.2106V19.9899H34.2384V23.0441Z"
            fill="#767676" />
         <path
            d="M31.2245 2.97351C27.9676 2.97351 25.3181 5.62307 25.3181 8.87985C25.3181 12.1367 27.9677 14.7862 31.2245 14.7862C34.4812 14.7862 37.1308 12.1365 37.1308 8.87985C37.1309 5.62307 34.4813 2.97351 31.2245 2.97351ZM31.9272 13.3254V12.5742H30.5214V13.3253C28.6306 13.0274 27.1282 11.5477 26.7945 9.66885H27.6161V8.26298H26.7671C27.0372 6.30285 28.5732 4.74145 30.5214 4.43451V5.45132H31.9272V4.4346C33.8755 4.74145 35.4117 6.30295 35.6817 8.26307H34.7388V9.66885H35.6544C35.3207 11.5478 33.8182 13.0275 31.9272 13.3254Z"
            fill="#767676" />
         <path d="M30.5207 6.57617V8.26311H28.1777V9.66889H31.9265V6.57617H30.5207Z" fill="#767676" />
         <path
            d="M44.5789 44.3202V27.7563H43.1731V44.3202H39.4414V47.956H48.2807V44.3202H44.5789ZM46.875 46.5503H40.8473V45.7261H46.875V46.5503Z"
            fill="#767676" />
         <path
            d="M40.9277 9.66357V25.9365H43.1727V27.1004H44.5785V25.9366H46.7937V9.66357H40.9277ZM45.388 22.3208H43.1728V23.7265H45.388V24.5308H42.3336V11.0694H45.388V22.3208Z"
            fill="#767676" />
         <path d="M10.6566 5.40961L9.16992 6.89624L10.1639 7.89027L11.6506 6.40363L10.6566 5.40961Z"
            fill="#767676" />
         <path d="M14.3733 4.66609L9.16992 9.86951L10.1639 10.8635L15.3674 5.66012L14.3733 4.66609Z"
            fill="#767676" />
         <path d="M14.3734 8.38336L12.8867 9.87L13.8807 10.864L15.3674 9.37739L14.3734 8.38336Z"
            fill="#767676" />
      </g>
      <defs>
         <clipPath id="clip0_317_5850">
            <rect width="48" height="48" fill="white" transform="translate(0.5)" />
         </clipPath>
      </defs>
   </symbol>

   <symbol viewBox="0 0 19 19" id="apartmens">
      <path
         d="M13.4668 12.0187C13.4668 11.7994 13.8081 11.7994 13.8081 12.0187V12.9452C13.8081 13.1646 13.4668 13.1646 13.4668 12.9452V12.0187ZM13.4668 14.6274C13.4668 14.408 13.8081 14.408 13.8081 14.6274V16.4802H15.9537V8.7515L11.3214 7.6788V16.4802H13.467V14.6274H13.4668ZM3.05649 16.4802H5.88464V13.2863H8.15203V16.4802H10.9802V2.55903L3.05641 3.94879V16.4805L3.05649 16.4802ZM8.15192 6.58176V8.99536H5.88453V6.58176H8.15192ZM7.81053 6.92315H6.22574V8.65411H7.81053V6.92315ZM8.15192 9.94633V12.3356H5.88453V9.94633H8.15192ZM7.81053 10.2632H6.22574V11.9942H7.81053V10.2632ZM6.22574 16.48H7.81053V13.6275H6.22574V16.48ZM16.1242 16.8214H2.71484V3.6562C5.59171 3.1686 8.44416 2.65655 11.3212 2.16895V7.33739C12.979 7.70312 14.6369 8.09318 16.2949 8.48325V16.8215H16.1242L16.1242 16.8214ZM13.4667 10.3362C13.4667 10.1168 13.8081 10.1168 13.8081 10.3362V11.287C13.8081 11.5064 13.4667 11.5064 13.4667 11.287V10.3362Z" />
   </symbol>

   <symbol viewBox="0 0 19 19" id="apart">
      <path
         d="M9.83532 5.78289H5.85657C5.80161 5.78289 5.75714 5.7383 5.75714 5.68345V4.35724C5.75714 4.30228 5.80173 4.25781 5.85657 4.25781H9.83532C9.89029 4.25781 9.93476 4.3024 9.93476 4.35724V5.68345C9.93476 5.73842 9.89029 5.78289 9.83532 5.78289ZM5.95621 5.58391H9.73598V4.45668H5.95621V5.58391Z" />
      <path
         d="M8.50914 4.45671H7.18293C7.12796 4.45671 7.0835 4.41212 7.0835 4.35728V2.86524C7.0835 2.81028 7.12808 2.76581 7.18293 2.76581H8.50914C8.5641 2.76581 8.60857 2.81039 8.60857 2.86524V4.35716C8.60857 4.41224 8.5641 4.45671 8.50914 4.45671ZM7.28236 4.25785H8.40959L8.4097 2.96479H7.28248L7.28236 4.25785Z" />
      <path
         d="M7.84607 2.96477C7.79111 2.96477 7.74664 2.92019 7.74664 2.86534V1.70484C7.74664 1.64988 7.79123 1.60541 7.84607 1.60541C7.90104 1.60541 7.94551 1.64999 7.94551 1.70484V2.86522C7.94551 2.92018 7.90104 2.96477 7.84607 2.96477Z" />
      <path
         d="M7.01725 7.93789H5.3595C5.30454 7.93789 5.26007 7.8933 5.26007 7.83846V6.84382C5.26007 6.78885 5.30466 6.74438 5.3595 6.74438H7.01725C7.07221 6.74438 7.11668 6.78897 7.11668 6.84382V7.83846C7.11668 7.89342 7.0721 7.93789 7.01725 7.93789ZM5.45893 7.73903H6.9177V6.94334H5.45893V7.73903Z" />
      <path
         d="M10.3324 7.93789H8.67463C8.61966 7.93789 8.5752 7.8933 8.5752 7.83846V6.84382C8.5752 6.78885 8.61978 6.74438 8.67463 6.74438H10.3324C10.3873 6.74438 10.4318 6.78897 10.4318 6.84382V7.83846C10.4319 7.89342 10.3873 7.93789 10.3324 7.93789ZM8.77418 7.73903H10.2329V6.94334H8.77418V7.73903Z" />
      <path
         d="M8.6749 7.93789H7.01716C6.96219 7.93789 6.91772 7.8933 6.91772 7.83846V6.84382C6.91772 6.78885 6.96231 6.74438 7.01716 6.74438H8.6749C8.72987 6.74438 8.77433 6.78897 8.77433 6.84382V7.83846C8.77433 7.89342 8.72975 7.93789 8.6749 7.93789ZM7.11659 7.73903H8.57535V6.94334H7.11659V7.73903Z" />
      <path
         d="M7.01725 9.76162H5.3595C5.30454 9.76162 5.26007 9.71704 5.26007 9.66219V8.66755C5.26007 8.61258 5.30466 8.56812 5.3595 8.56812H7.01725C7.07221 8.56812 7.11668 8.6127 7.11668 8.66755V9.66219C7.11668 9.71704 7.0721 9.76162 7.01725 9.76162ZM5.45893 9.56264H6.9177V8.76695H5.45893V9.56264Z" />
      <path
         d="M10.3324 9.76162H8.67463C8.61966 9.76162 8.5752 9.71704 8.5752 9.66219V8.66755C8.5752 8.61258 8.61978 8.56812 8.67463 8.56812H10.3324C10.3873 8.56812 10.4318 8.6127 10.4318 8.66755V9.66219C10.4319 9.71704 10.3873 9.76162 10.3324 9.76162ZM8.77418 9.56264H10.2329V8.76695H8.77418V9.56264Z" />
      <path
         d="M8.6749 9.76162H7.01716C6.96219 9.76162 6.91772 9.71704 6.91772 9.66219V8.66755C6.91772 8.61258 6.96231 8.56812 7.01716 8.56812H8.6749C8.72987 8.56812 8.77433 8.6127 8.77433 8.66755V9.66219C8.77433 9.71704 8.72975 9.76162 8.6749 9.76162ZM7.11659 9.56264H8.57535V8.76695H7.11659V9.56264Z" />
      <path
         d="M7.01725 11.5851H5.3595C5.30454 11.5851 5.26007 11.5405 5.26007 11.4857V10.491C5.26007 10.4361 5.30466 10.3916 5.3595 10.3916H7.01725C7.07221 10.3916 7.11668 10.4362 7.11668 10.491V11.4857C7.11668 11.5406 7.0721 11.5851 7.01725 11.5851ZM5.45893 11.3862H6.9177V10.5906H5.45893V11.3862Z" />
      <path
         d="M10.3324 11.5851H8.67463C8.61966 11.5851 8.5752 11.5405 8.5752 11.4857V10.491C8.5752 10.4361 8.61978 10.3916 8.67463 10.3916H10.3324C10.3873 10.3916 10.4318 10.4362 10.4318 10.491V11.4857C10.4319 11.5406 10.3873 11.5851 10.3324 11.5851ZM8.77418 11.3862H10.2329V10.5906H8.77418V11.3862Z" />
      <path
         d="M8.6749 11.5851H7.01716C6.96219 11.5851 6.91772 11.5405 6.91772 11.4857V10.491C6.91772 10.4361 6.96231 10.3916 7.01716 10.3916H8.6749C8.72987 10.3916 8.77433 10.4362 8.77433 10.491V11.4857C8.77433 11.5406 8.72975 11.5851 8.6749 11.5851ZM7.11659 11.3862H8.57535V10.5906H7.11659V11.3862Z" />
      <path
         d="M7.01725 13.4085H5.3595C5.30454 13.4085 5.26007 13.3639 5.26007 13.3091V12.3145C5.26007 12.2595 5.30466 12.215 5.3595 12.215H7.01725C7.07221 12.215 7.11668 12.2596 7.11668 12.3145V13.3091C7.11668 13.3639 7.0721 13.4085 7.01725 13.4085ZM5.45893 13.2096H6.9177V12.4139H5.45893V13.2096Z" />
      <path
         d="M10.3324 13.4086H8.67463C8.61966 13.4086 8.5752 13.364 8.5752 13.3092V12.3145C8.5752 12.2596 8.61978 12.2151 8.67463 12.2151H10.3324C10.3873 12.2151 10.4318 12.2597 10.4318 12.3145V13.3092C10.4319 13.364 10.3873 13.4086 10.3324 13.4086ZM8.77418 13.2096H10.2329V12.4139H8.77418V13.2096Z" />
      <path
         d="M8.6749 13.4085H7.01716C6.96219 13.4085 6.91772 13.3639 6.91772 13.3091V12.3145C6.91772 12.2595 6.96231 12.215 7.01716 12.215H8.6749C8.72987 12.215 8.77433 12.2596 8.77433 12.3145V13.3091C8.77433 13.3639 8.72975 13.4085 8.6749 13.4085ZM7.11659 13.2096H8.57535V12.4139H7.11659V13.2096Z" />
      <path
         d="M15.8033 17.387C15.7483 17.387 15.7039 17.3424 15.7039 17.2876V14.801C15.7039 14.746 15.7484 14.7015 15.8033 14.7015C15.8583 14.7015 15.9027 14.7461 15.9027 14.801V17.2876C15.9027 17.3425 15.8581 17.387 15.8033 17.387Z" />
      <path
         d="M11.1615 17.387H4.5304C4.47544 17.387 4.43097 17.3424 4.43097 17.2876V13.9921C4.43097 13.9372 4.47555 13.8927 4.5304 13.8927C4.58536 13.8927 4.62983 13.9373 4.62983 13.9921L4.62995 17.1879H11.062V5.78251H4.62995V12.6255C4.62995 12.6805 4.58536 12.725 4.53052 12.725C4.47555 12.725 4.43109 12.6804 4.43109 12.6255L4.43097 5.68317C4.43097 5.62821 4.47555 5.58374 4.5304 5.58374H11.1615C11.2164 5.58374 11.2609 5.62833 11.2609 5.68317V17.2873C11.2609 17.3422 11.2164 17.3867 11.1615 17.3867V17.387Z" />
      <path
         d="M14.9744 17.387H11.1617C11.1068 17.387 11.0623 17.3424 11.0623 17.2876V7.83844C11.0623 7.78348 11.1069 7.73901 11.1617 7.73901H14.9744C15.0294 7.73901 15.0739 7.7836 15.0739 7.83844V12.0684C15.0739 12.1234 15.0293 12.1678 14.9744 12.1678C14.9195 12.1678 14.875 12.1233 14.875 12.0684V7.93779H11.261V17.1879H14.875V14.5493C14.875 14.4943 14.9196 14.4499 14.9744 14.4499C15.0294 14.4499 15.0739 14.4945 15.0739 14.5493V17.2875C15.0739 17.3424 15.0294 17.3869 14.9744 17.3869V17.387Z" />
      <path
         d="M3.20423 17.387C3.14927 17.387 3.1048 17.3424 3.1048 17.2876V14.801C3.1048 14.746 3.14938 14.7015 3.20423 14.7015C3.25919 14.7015 3.30366 14.7461 3.30366 14.801V17.2876C3.30378 17.3425 3.25919 17.387 3.20423 17.387Z" />
      <path
         d="M15.8033 14.9005C14.9257 14.9005 14.2118 14.1865 14.2118 13.309C14.2118 12.4315 14.9257 11.7175 15.8033 11.7175C16.6808 11.7175 17.3947 12.4315 17.3947 13.309C17.3946 14.1865 16.6808 14.9005 15.8033 14.9005ZM15.8033 11.9165C15.0354 11.9165 14.4108 12.5412 14.4108 13.309C14.4108 14.0769 15.0354 14.7015 15.8033 14.7015C16.5711 14.7015 17.1958 14.0768 17.1958 13.309C17.1958 12.5411 16.5711 11.9165 15.8033 11.9165Z" />
      <path
         d="M3.20426 14.9005C2.32675 14.9005 1.61279 14.1865 1.61279 13.309C1.61279 12.4315 2.32675 11.7175 3.20426 11.7175C4.08178 11.7175 4.79573 12.4315 4.79573 13.309C4.79573 14.1865 4.08178 14.9005 3.20426 14.9005ZM3.20426 11.9165C2.43641 11.9165 1.81178 12.5412 1.81178 13.309C1.81178 14.0769 2.43644 14.7015 3.20426 14.7015C3.97211 14.7015 4.59675 14.0768 4.59675 13.309C4.59675 12.5411 3.97208 11.9165 3.20426 11.9165Z" />
      <path
         d="M9.00647 17.387H6.68561C6.63065 17.387 6.58618 17.3424 6.58618 17.2876V14.3036C6.58618 14.2486 6.63077 14.2042 6.68561 14.2042H9.00647C9.06143 14.2042 9.1059 14.2487 9.1059 14.3036V17.2876C9.1059 17.3425 9.06131 17.387 9.00647 17.387ZM6.78504 17.1881H8.90691V14.4031H6.78504V17.1881Z" />
      <path
         d="M7.84607 17.387C7.79111 17.387 7.74664 17.3424 7.74664 17.2876V14.3036C7.74664 14.2486 7.79123 14.2042 7.84607 14.2042C7.90104 14.2042 7.94551 14.2487 7.94551 14.3036V17.2876C7.94551 17.3425 7.90104 17.387 7.84607 17.387Z" />
      <path
         d="M6.68567 16.2266H4.53064C4.47568 16.2266 4.43121 16.182 4.43121 16.1272C4.43121 16.0722 4.4758 16.0278 4.53064 16.0278H6.68567C6.74063 16.0278 6.7851 16.0724 6.7851 16.1272C6.7851 16.182 6.74051 16.2266 6.68567 16.2266Z" />
      <path
         d="M11.1614 16.2266H9.00641C8.95145 16.2266 8.90698 16.182 8.90698 16.1272C8.90698 16.0722 8.95157 16.0278 9.00641 16.0278H11.1614C11.2164 16.0278 11.2609 16.0724 11.2609 16.1272C11.2609 16.182 11.2164 16.2266 11.1614 16.2266Z" />
      <path
         d="M17.2952 17.387H1.71235C1.65738 17.387 1.61292 17.3424 1.61292 17.2875C1.61292 17.2326 1.6575 17.1881 1.71235 17.1881H17.2952C17.3502 17.1881 17.3946 17.2327 17.3946 17.2875C17.3946 17.3425 17.3502 17.387 17.2952 17.387Z" />
      <path
         d="M12.3218 9.76162C12.2669 9.76162 12.2224 9.71704 12.2224 9.66219V8.66755C12.2224 8.61258 12.267 8.56812 12.3218 8.56812C12.3768 8.56812 12.4213 8.6127 12.4213 8.66755V9.66219C12.4214 9.71704 12.3768 9.76162 12.3218 9.76162Z" />
      <path
         d="M12.3218 10.7562C12.2669 10.7562 12.2224 10.7116 12.2224 10.6568V10.3253C12.2224 10.2703 12.267 10.2258 12.3218 10.2258C12.3768 10.2258 12.4213 10.2704 12.4213 10.3253V10.6568C12.4214 10.7116 12.3768 10.7562 12.3218 10.7562Z" />
      <path
         d="M12.3218 12.414C12.2669 12.414 12.2224 12.3694 12.2224 12.3145V11.3199C12.2224 11.2649 12.267 11.2205 12.3218 11.2205C12.3768 11.2205 12.4213 11.265 12.4213 11.3199V12.3145C12.4214 12.3694 12.3768 12.414 12.3218 12.414Z" />
      <path
         d="M12.3218 13.4086C12.2669 13.4086 12.2224 13.364 12.2224 13.3091V12.9776C12.2224 12.9226 12.267 12.8782 12.3218 12.8782C12.3768 12.8782 12.4213 12.9228 12.4213 12.9776V13.3091C12.4214 13.364 12.3768 13.4086 12.3218 13.4086Z" />
      <path
         d="M12.3218 15.0662C12.2669 15.0662 12.2224 15.0217 12.2224 14.9668V13.9722C12.2224 13.9172 12.267 13.8727 12.3218 13.8727C12.3768 13.8727 12.4213 13.9173 12.4213 13.9722V14.9668C12.4214 15.0218 12.3768 15.0662 12.3218 15.0662Z" />
      <path
         d="M13.151 9.76162C13.096 9.76162 13.0516 9.71704 13.0516 9.66219V8.66755C13.0516 8.61258 13.0962 8.56812 13.151 8.56812C13.206 8.56812 13.2504 8.6127 13.2504 8.66755V9.66219C13.2504 9.71704 13.206 9.76162 13.151 9.76162Z" />
      <path
         d="M13.151 10.7562C13.096 10.7562 13.0516 10.7116 13.0516 10.6568V10.3253C13.0516 10.2703 13.0962 10.2258 13.151 10.2258C13.206 10.2258 13.2504 10.2704 13.2504 10.3253V10.6568C13.2504 10.7116 13.206 10.7562 13.151 10.7562Z" />
      <path
         d="M13.151 12.414C13.096 12.414 13.0516 12.3694 13.0516 12.3145V11.3199C13.0516 11.2649 13.0962 11.2205 13.151 11.2205C13.206 11.2205 13.2504 11.265 13.2504 11.3199V12.3145C13.2504 12.3694 13.206 12.414 13.151 12.414Z" />
      <path
         d="M13.151 13.4086C13.096 13.4086 13.0516 13.364 13.0516 13.3091V12.9776C13.0516 12.9226 13.0962 12.8782 13.151 12.8782C13.206 12.8782 13.2504 12.9228 13.2504 12.9776V13.3091C13.2504 13.364 13.206 13.4086 13.151 13.4086Z" />
      <path
         d="M13.151 15.0662C13.096 15.0662 13.0516 15.0217 13.0516 14.9668V13.9722C13.0516 13.9172 13.0962 13.8727 13.151 13.8727C13.206 13.8727 13.2504 13.9173 13.2504 13.9722V14.9668C13.2504 15.0218 13.206 15.0662 13.151 15.0662Z" />
      <path
         d="M13.9796 9.76162C13.9246 9.76162 13.8801 9.71704 13.8801 9.66219V8.66755C13.8801 8.61258 13.9247 8.56812 13.9796 8.56812C14.0345 8.56812 14.079 8.6127 14.079 8.66755V9.66219C14.0791 9.71704 14.0345 9.76162 13.9796 9.76162Z" />
      <path
         d="M13.9796 10.7562C13.9246 10.7562 13.8801 10.7116 13.8801 10.6568V10.3253C13.8801 10.2703 13.9247 10.2258 13.9796 10.2258C14.0345 10.2258 14.079 10.2704 14.079 10.3253V10.6568C14.0791 10.7116 14.0345 10.7562 13.9796 10.7562Z" />
      <path
         d="M13.9796 12.0824C13.9246 12.0824 13.8801 12.0378 13.8801 11.983V11.3199C13.8801 11.2649 13.9247 11.2205 13.9796 11.2205C14.0345 11.2205 14.079 11.265 14.079 11.3199V11.983C14.0791 12.0378 14.0345 12.0824 13.9796 12.0824Z" />
      <path
         d="M13.9796 15.0663C13.9246 15.0663 13.8801 15.0217 13.8801 14.9668V14.4695C13.8801 14.4146 13.9247 14.3701 13.9796 14.3701C14.0345 14.3701 14.079 14.4147 14.079 14.4695V14.9668C14.0791 15.0218 14.0345 15.0663 13.9796 15.0663Z" />
   </symbol>

   <symbol viewBox="0 0 19 19" id="tawn">
      <path
         d="M16.2103 16.0306H15.9675V5.02519C15.9675 4.95238 15.9217 4.88749 15.8532 4.86314L9.5616 2.62764C9.5087 2.60892 9.45064 2.61708 9.4047 2.64923C9.35912 2.68149 9.33189 2.73391 9.33189 2.78981V4.78168L3.27001 2.62773C3.21699 2.60902 3.15882 2.61718 3.11312 2.64933C3.06765 2.68147 3.04043 2.73389 3.04043 2.78979V16.0307H2.79765C2.70265 16.0307 2.62564 16.1077 2.62564 16.2027C2.62564 16.2977 2.70253 16.3747 2.79765 16.3747H16.2105C16.3055 16.3747 16.3825 16.2977 16.3825 16.2027C16.3824 16.1077 16.3055 16.0307 16.2104 16.0307L16.2103 16.0306ZM9.67579 3.03322L15.6234 5.14648V16.0306H13.9885L13.9884 11.6407C13.9884 11.5457 13.9115 11.4687 13.8164 11.4687L11.4827 11.4688C11.3877 11.4688 11.3107 11.5458 11.3107 11.6408V16.0307H9.67576L9.67579 3.03322ZM13.6447 16.0306H11.6547V11.8127H13.6447V16.0306ZM3.38422 3.03322L9.33188 5.14661V16.0307H7.69697V11.6408C7.69697 11.5458 7.62008 11.4688 7.52496 11.4688L5.1911 11.469C5.0961 11.469 5.01909 11.546 5.01909 11.641L5.01921 16.0308H3.38431L3.38422 3.03322ZM7.35311 16.0306H5.36314V11.8127H7.35311V16.0306Z" />
      <path
         d="M5.83557 10.5943C5.93057 10.5943 6.00758 10.5172 6.00758 10.4222V9.27395C6.00758 8.78359 5.60864 8.38464 5.11827 8.38464H5.07293C4.58257 8.38464 4.18362 8.78359 4.18362 9.27395V10.4222C4.18362 10.5172 4.26051 10.5943 4.35563 10.5943H5.83557ZM4.52739 9.27409C4.52739 8.97338 4.77209 8.72867 5.07281 8.72867H5.11815C5.41887 8.72867 5.66357 8.97337 5.66357 9.27409V10.2505H4.52741L4.52739 9.27409Z" />
      <path
         d="M6.88055 10.5943H8.36072C8.45572 10.5943 8.53273 10.5172 8.53273 10.4222V9.27395C8.53273 8.78359 8.13378 8.38464 7.64342 8.38464H7.59808C7.10772 8.38464 6.70877 8.78359 6.70877 9.27395V10.4222C6.70865 10.5172 6.78554 10.5943 6.88055 10.5943ZM7.05255 9.27409C7.05255 8.97338 7.29725 8.72867 7.59797 8.72867H7.64332C7.94403 8.72867 8.18873 8.97337 8.18873 9.27409V10.2505H7.05257L7.05255 9.27409Z" />
      <path
         d="M4.35549 7.65712H5.83566C5.93067 7.65712 6.00767 7.58011 6.00767 7.48511V6.33682C6.00767 5.84646 5.60873 5.44751 5.11837 5.44751H5.07302C4.58266 5.44751 4.18372 5.84646 4.18372 6.33682V7.48511C4.18348 7.58011 4.26037 7.65712 4.35549 7.65712ZM4.52738 6.33684C4.52738 6.03612 4.77208 5.79142 5.0728 5.79142H5.11814C5.41886 5.79142 5.66356 6.03612 5.66356 6.33684V7.31323H4.5274L4.52738 6.33684Z" />
      <path
         d="M6.88055 7.65712H8.36072C8.45572 7.65712 8.53273 7.58011 8.53273 7.48511V6.33682C8.53273 5.84646 8.13378 5.44751 7.64342 5.44751H7.59808C7.10772 5.44751 6.70877 5.84646 6.70877 6.33682V7.48511C6.70865 7.58011 6.78554 7.65712 6.88055 7.65712ZM7.05255 6.33684C7.05255 6.03612 7.29725 5.79142 7.59797 5.79142H7.64332C7.94403 5.79142 8.18873 6.03612 8.18873 6.33684V7.31323H7.05257L7.05255 6.33684Z" />
      <path
         d="M10.6471 10.5943H12.1272C12.2222 10.5943 12.2992 10.5172 12.2992 10.4222V9.27395C12.2992 8.78359 11.9003 8.38464 11.4099 8.38464H11.3646C10.8742 8.38464 10.4753 8.78359 10.4753 9.27395V10.4222C10.4752 10.5172 10.5521 10.5943 10.6471 10.5943ZM10.8191 9.27409C10.8191 8.97338 11.0638 8.72867 11.3645 8.72867H11.4098C11.7105 8.72867 11.9552 8.97337 11.9552 9.27409V10.2505H10.8191L10.8191 9.27409Z" />
      <path
         d="M13.1721 10.5943H14.6523C14.7473 10.5943 14.8243 10.5172 14.8243 10.4222V9.27395C14.8243 8.78359 14.4253 8.38464 13.935 8.38464H13.8896C13.3993 8.38464 13.0003 8.78359 13.0003 9.27395V10.4222C13.0001 10.5172 13.077 10.5943 13.1721 10.5943ZM13.344 9.27409C13.344 8.97338 13.5887 8.72867 13.8894 8.72867H13.9348C14.2355 8.72867 14.4802 8.97337 14.4802 9.27409V10.2505H13.344L13.344 9.27409Z" />
      <path
         d="M10.6471 7.65712H12.1272C12.2222 7.65712 12.2992 7.58011 12.2992 7.48511V6.33682C12.2992 5.84646 11.9003 5.44751 11.4099 5.44751H11.3646C10.8742 5.44751 10.4753 5.84646 10.4753 6.33682V7.48511C10.4752 7.58011 10.5521 7.65712 10.6471 7.65712ZM10.8191 6.33684C10.8191 6.03612 11.0638 5.79142 11.3645 5.79142H11.4098C11.7105 5.79142 11.9552 6.03612 11.9552 6.33684V7.31323H10.8191L10.8191 6.33684Z" />
      <path
         d="M13.1721 7.65712H14.6523C14.7473 7.65712 14.8243 7.58011 14.8243 7.48511V6.33682C14.8243 5.84646 14.4253 5.44751 13.935 5.44751H13.8896C13.3993 5.44751 13.0003 5.84646 13.0003 6.33682V7.48511C13.0001 7.58011 13.077 7.65712 13.1721 7.65712ZM13.344 6.33684C13.344 6.03612 13.5887 5.79142 13.8894 5.79142H13.9348C14.2355 5.79142 14.4802 6.03612 14.4802 6.33684V7.31323H13.344L13.344 6.33684Z" />
   </symbol>

   <symbol viewBox="0 0 19 19" id="home">
      <path
         d="M5.63084 10.3228H7.5041C7.59266 10.3228 7.66445 10.2511 7.66445 10.1625V8.20313C7.66445 8.11457 7.59266 8.04279 7.5041 8.04279H5.63084C5.54228 8.04279 5.47049 8.11457 5.47049 8.20313V10.1626C5.47049 10.2511 5.54228 10.3228 5.63084 10.3228ZM5.79107 8.36348H7.34376V10.0024H5.79107V8.36348Z" />
      <path
         d="M8.56605 10.3228H10.4392C10.5278 10.3228 10.5996 10.2511 10.5996 10.1625V8.20313C10.5996 8.11457 10.5278 8.04279 10.4392 8.04279H8.56605C8.47749 8.04279 8.4057 8.11457 8.4057 8.20313V10.1626C8.4057 10.2511 8.47749 10.3228 8.56605 10.3228ZM8.72628 8.36348H10.2789V10.0024H8.72628V8.36348Z" />
      <path
         d="M11.5013 10.3228H13.3746C13.4631 10.3228 13.5349 10.2511 13.5349 10.1625V8.20313C13.5349 8.11457 13.4631 8.04279 13.3746 8.04279H11.5013C11.4127 8.04279 11.3409 8.11457 11.3409 8.20313V10.1626C11.3411 10.2511 11.4127 10.3228 11.5013 10.3228ZM11.6616 8.36348H13.2143V10.0024H11.6616V8.36348Z" />
      <path
         d="M15.1617 2.11326C15.1321 2.04447 15.0644 2 14.9895 2H4.01034C3.93553 2 3.86778 2.04447 3.83822 2.11326L2.01541 6.33803C1.9903 6.39597 1.99618 6.46255 2.03084 6.51525C2.0655 6.56796 2.12436 6.59974 2.18753 6.59974H3.38245V16.8124C3.38245 16.916 3.46642 17 3.57 17H15.4301C15.5337 17 15.6177 16.916 15.6177 16.8124L15.6176 6.59974H16.8125C16.8755 6.59974 16.9344 6.56796 16.9692 6.51525C17.0038 6.46255 17.0097 6.39597 16.9846 6.33803L15.1617 2.11326ZM11.0333 6.22486V2.37509H13.35V6.22486H11.0333ZM5.64966 6.22486V2.37509H7.96634V6.22486H5.64966ZM8.34147 2.37509H10.6582V6.22486L8.34147 6.22499V2.37509ZM4.13341 2.37509H5.27469V6.22486L2.47238 6.22499L4.13341 2.37509ZM7.93835 16.6251H5.15854V12.2088H7.93835V16.6251ZM15.2425 16.6251H8.31335V12.0213C8.31335 11.9177 8.22938 11.8337 8.12579 11.8337H4.97112C4.86753 11.8337 4.78356 11.9177 4.78356 12.0213V16.6251H3.75726V6.59986H15.2424L15.2425 16.6251ZM13.725 6.22486V2.37509H14.8663L16.5273 6.22486H13.725Z" />
   </symbol>

   <symbol viewBox="0 0 21 21" id="filter">
      <g clip-path="url(#clip0_389_15515)">
         <path
            d="M12.5998 15.7499C12.8674 15.7502 13.1248 15.8527 13.3194 16.0364C13.514 16.2201 13.6312 16.4712 13.6468 16.7384C13.6625 17.0055 13.5756 17.2686 13.4038 17.4738C13.2321 17.6791 12.9884 17.8109 12.7227 17.8426L12.5998 17.8499H8.3998C8.13218 17.8496 7.87477 17.7471 7.68017 17.5634C7.48556 17.3797 7.36846 17.1286 7.35277 16.8614C7.33709 16.5943 7.42401 16.3312 7.59578 16.126C7.76755 15.9208 8.0112 15.7889 8.27695 15.7573L8.3998 15.7499H12.5998ZM15.7498 9.4499C16.0283 9.4499 16.2954 9.56053 16.4923 9.75744C16.6892 9.95435 16.7998 10.2214 16.7998 10.4999C16.7998 10.7784 16.6892 11.0455 16.4923 11.2424C16.2954 11.4393 16.0283 11.5499 15.7498 11.5499H5.2498C4.97133 11.5499 4.70426 11.4393 4.50734 11.2424C4.31043 11.0455 4.1998 10.7784 4.1998 10.4999C4.1998 10.2214 4.31043 9.95435 4.50734 9.75744C4.70426 9.56053 4.97133 9.4499 5.2498 9.4499H15.7498ZM18.8998 3.1499C19.1783 3.1499 19.4454 3.26053 19.6423 3.45744C19.8392 3.65435 19.9498 3.92142 19.9498 4.1999C19.9498 4.47838 19.8392 4.74545 19.6423 4.94236C19.4454 5.13928 19.1783 5.2499 18.8998 5.2499H2.0998C1.82133 5.2499 1.55426 5.13928 1.35734 4.94236C1.16043 4.74545 1.0498 4.47838 1.0498 4.1999C1.0498 3.92142 1.16043 3.65435 1.35734 3.45744C1.55426 3.26053 1.82133 3.1499 2.0998 3.1499H18.8998Z"
            fill="#646464" />
      </g>
      <defs>
         <clipPath id="clip0_389_15515">
            <rect width="21" height="21" fill="white" />
         </clipPath>
      </defs>
   </symbol>

   <symbol viewBox="0 0 24 24" id="search">
      <path id="Vector"
         d="M18.031 16.617L22.314 20.899L20.899 22.314L16.617 18.031C15.0237 19.3082 13.042 20.0029 11 20C6.032 20 2 15.968 2 11C2 6.032 6.032 2 11 2C15.968 2 20 6.032 20 11C20.0029 13.042 19.3082 15.0237 18.031 16.617ZM16.025 15.875C17.2941 14.5699 18.0029 12.8204 18 11C18 7.132 14.867 4 11 4C7.132 4 4 7.132 4 11C4 14.867 7.132 18 11 18C12.8204 18.0029 14.5699 17.2941 15.875 16.025L16.025 15.875Z"
         fill="#646464" />
   </symbol>

   <symbol viewBox="0 0 18 20" id="close">
      <path d="M3 4.5L9 10M15 15.5L9 10M9 10L15 4.5M9 10L3 15.5" stroke="#646464"
         stroke-linecap="round" stroke-linejoin="round" />
   </symbol>


   <symbol viewBox="0 0 32 29" id="close-big">
      <path d="M1 1L16 14.5M31 28L16 14.5M16 14.5L31 1M16 14.5L1 28" stroke="#646464"
         stroke-linecap="round" stroke-linejoin="round" />
   </symbol>

   <symbol viewBox="0 0 36 36" id="close-circle">
      <circle cx="18" cy="18" r="18" fill="white" />
      <path d="M10 12L18 18.5M26 25L18 18.5M18 18.5L26 12M18 18.5L10 25"
         stroke="#646464" />
   </symbol>


   <symbol viewBox="0 0 21 21" id="mail">
      <path fill-rule="evenodd" clip-rule="evenodd"
         d="M2 5.35714V14.7857C2 15.4109 2.24834 16.0104 2.69039 16.4525C3.13244 16.8945 3.73199 17.1429 4.35714 17.1429H16.1429C16.768 17.1429 17.3676 16.8945 17.8096 16.4525C18.2517 16.0104 18.5 15.4109 18.5 14.7857V5.35714C18.5 4.73199 18.2517 4.13244 17.8096 3.69039C17.3676 3.24834 16.768 3 16.1429 3H4.35714C3.73199 3 3.13244 3.24834 2.69039 3.69039C2.24834 4.13244 2 4.73199 2 5.35714Z"
         stroke-linecap="round" stroke-linejoin="round" />
      <path d="M4.35547 6.53571L10.2483 10.0714L16.1412 6.53571" stroke-linecap="round"
         stroke-linejoin="round" />
   </symbol>


   <symbol viewBox="0 0 21 21" id="whatsAppMini">
      <path
         d="M16.6689 5.10841C15.8667 4.2981 15.0532 3.59873 14.0001 3.16156C12.947 2.7244 11.7827 2.40325 10.6424 2.40722C5.86494 2.40722 2.22741 6.19974 2.22741 10.9772C2.22741 12.5085 2.26645 13.44 3.01895 14.7525L1.79395 19.25L6.3877 18.0425C7.65645 18.7338 9.0827 19.1013 10.5352 19.1013C15.3127 19.1013 18.7729 15.4367 18.7729 10.6592C18.7729 8.3404 18.3052 6.74466 16.6689 5.10841ZM10.5352 18.9319C9.2402 18.9319 7.7932 18.3154 6.68195 17.6592H6.36377L2.86377 18.2955L3.50013 15.1137L3.18195 14.0088C2.46248 12.8599 2.2845 11.3131 2.2835 9.95752C2.2835 5.98502 6.5627 2.40631 10.5352 2.40631C12.4602 2.40631 14.8712 3.2486 16.2274 4.6136C16.899 5.28207 17.7745 6.60157 18.1365 7.47724C18.4985 8.3529 18.7432 10.515 18.7397 11.4625C18.7572 15.435 14.5077 18.9319 10.5352 18.9319ZM14.4902 12.2413C14.2714 12.1363 13.2039 11.6113 13.0114 11.5325C12.8102 11.4625 12.6702 11.4275 12.5214 11.6375C12.3727 11.8563 11.9614 12.3463 11.8389 12.4863C11.7164 12.635 11.5852 12.6525 11.3664 12.5388C11.1477 12.4338 10.4477 12.1975 9.6252 11.4625C8.97769 10.885 8.54894 10.1763 8.4177 9.95752C8.2952 9.73877 8.40019 9.62502 8.51394 9.51127C8.61019 9.41502 8.7327 9.25752 8.8377 9.13502C8.9427 9.01252 8.98645 8.91627 9.05645 8.77627C9.12645 8.62752 9.09144 8.50502 9.03894 8.40002C8.98644 8.29502 8.54894 7.22752 8.37394 6.79002C8.19894 6.37002 8.01519 6.42252 7.88394 6.41377H7.46394C7.3152 6.41377 7.0877 6.46627 6.88645 6.68502C6.69394 6.90377 6.13395 7.42877 6.13395 8.49627C6.13395 9.56377 6.9127 10.5963 7.0177 10.7363C7.1227 10.885 8.54894 13.0725 10.7189 14.0088C11.2352 14.2363 11.6377 14.3675 11.9527 14.4638C12.4689 14.63 12.9414 14.6038 13.3177 14.5513C13.7377 14.49 14.6039 14.0263 14.7789 13.5188C14.9627 13.0113 14.9627 12.5825 14.9014 12.4863C14.8402 12.39 14.7089 12.3463 14.4902 12.2413Z"
         fill="#063832" />
      <path id="Ellipse 11"
         d="M18.591 10.6591C18.591 15.1276 14.9686 18.75 10.5001 18.75C9.5612 18.75 8.94254 18.694 8.39644 18.5287C7.85577 18.3651 7.35072 18.0834 6.66032 17.5747C6.52141 17.4724 6.36929 17.4558 6.29614 17.4512C6.20736 17.4456 6.11729 17.4527 6.03733 17.463C5.87585 17.4838 5.68516 17.5274 5.48857 17.5795C5.11191 17.6794 4.64714 17.8287 4.19627 17.9736C4.17332 17.9809 4.15039 17.9883 4.12752 17.9957C3.64599 18.1503 3.18596 18.2968 2.82886 18.3873C2.80341 18.3938 2.7789 18.3998 2.75531 18.4055C2.76093 18.3822 2.76693 18.3579 2.7733 18.3327C2.86397 17.9749 3.01035 17.5132 3.16465 17.0304L3.18589 16.964C3.3307 16.5111 3.47992 16.0443 3.57967 15.667C3.63163 15.4704 3.67512 15.2801 3.6959 15.1194C3.70617 15.0399 3.71333 14.95 3.70781 14.8615C3.70335 14.7899 3.68703 14.6343 3.58058 14.4937L3.18191 14.7954L3.58058 14.4937C3.05191 13.7952 2.77343 13.3028 2.61596 12.774C2.45602 12.2369 2.40918 11.6245 2.40918 10.6591C2.40918 6.1906 6.0316 2.56818 10.5001 2.56818C14.9686 2.56818 18.591 6.1906 18.591 10.6591Z"
         stroke="#063832" />
   </symbol>


   <symbol viewBox="0 0 94 94" id="preferences">
      <rect width="94" height="94" rx="44" fill="#F9F5F1" />
      <path
         d="M61.2704 50.3674H30.9992C30.8099 50.3674 30.6562 50.5206 30.6562 50.7091C30.6562 50.8977 30.8099 51.0509 30.9992 51.0509H61.2704C61.6011 51.0509 61.8706 51.3193 61.8706 51.6488C61.8706 51.9783 61.6011 52.2468 61.2704 52.2468H30.9992C30.6684 52.2468 30.3989 51.9783 30.3989 51.6488C30.3989 51.4603 30.2452 51.3071 30.0559 51.3071C29.8666 51.3071 29.7129 51.4603 29.7129 51.6488C29.7129 52.3554 30.2899 52.9302 30.9992 52.9302H61.2703C61.9797 52.9302 62.5567 52.3554 62.5567 51.6488C62.5567 50.9423 61.9797 50.3674 61.2704 50.3674Z"
         fill="#1A1A1A" />
      <path
         d="M62.557 64.378C62.557 64.1895 62.4032 64.0363 62.214 64.0363C62.0247 64.0363 61.8709 64.1895 61.8709 64.378C61.8709 64.7075 61.6014 64.976 61.2706 64.976H30.9995C30.6687 64.976 30.3992 64.7075 30.3992 64.378C30.3992 64.0485 30.6687 63.78 30.9995 63.78H61.2706C61.4599 63.78 61.6137 63.6269 61.6137 63.4383C61.6137 63.2498 61.4599 63.0966 61.2706 63.0966H60.8844V53.8185C60.8844 53.63 60.7307 53.4768 60.5414 53.4768C60.3521 53.4768 60.1984 53.63 60.1984 53.8185V63.0966H56.7682V53.8185C56.7682 53.63 56.6145 53.4768 56.4252 53.4768C56.2359 53.4768 56.0822 53.63 56.0822 53.8185V63.0966H52.652V53.8185C52.652 53.63 52.4982 53.4768 52.309 53.4768C52.1197 53.4768 51.9659 53.63 51.9659 53.8185V63.0966H48.5358V53.8185C48.5358 53.63 48.382 53.4768 48.1927 53.4768C48.0035 53.4768 47.8497 53.63 47.8497 53.8185V63.0966H44.4195V53.8185C44.4195 53.63 44.2658 53.4768 44.0765 53.4768C43.8872 53.4768 43.7335 53.63 43.7335 53.8185V63.0966H40.3033V53.8185C40.3033 53.63 40.1495 53.4768 39.9603 53.4768C39.771 53.4768 39.6172 53.63 39.6172 53.8185V63.0966H36.1871V53.8185C36.1871 53.63 36.0333 53.4768 35.844 53.4768C35.6548 53.4768 35.501 53.63 35.501 53.8185V63.0966H32.0708V53.8185C32.0708 53.63 31.9171 53.4768 31.7278 53.4768C31.5385 53.4768 31.3848 53.63 31.3848 53.8185V63.0966H30.9992C30.2899 63.0966 29.7129 63.6714 29.7129 64.378C29.7129 65.0846 30.2893 65.6594 30.9992 65.6594H61.2704C61.9797 65.6594 62.5567 65.0846 62.5567 64.378L62.557 64.378Z"
         fill="#1A1A1A" />
      <path
         d="M30.9992 28.7547H61.2703C61.4596 28.7547 61.6134 28.6016 61.6134 28.413C61.6134 28.2244 61.4596 28.0713 61.2703 28.0713H30.9992C30.2899 28.0713 29.7129 28.6461 29.7129 29.3527C29.7129 30.0593 30.2893 30.6341 30.9992 30.6341H61.2703C61.9797 30.6341 62.5567 30.0593 62.5567 29.3527C62.5567 29.1641 62.4029 29.011 62.2136 29.011C62.0244 29.011 61.8706 29.1641 61.8706 29.3527C61.8706 29.6822 61.6011 29.9507 61.2703 29.9507H30.9992C30.6684 29.9507 30.3989 29.6822 30.3989 29.3527C30.3989 29.0232 30.6678 28.7547 30.9992 28.7547Z"
         fill="#1A1A1A" />
      <path
         d="M34.387 31.617C34.1977 31.617 34.0439 31.7701 34.0439 31.9587V49.2004C34.0439 49.3889 34.1977 49.5421 34.387 49.5421C34.5762 49.5421 34.73 49.3889 34.73 49.2004V36.363H45.7921V49.2011C45.7921 49.3897 45.9458 49.5429 46.1351 49.5429C46.3244 49.5429 46.4781 49.3897 46.4781 49.2011V36.363H57.5402V49.2011C57.5402 49.3897 57.6939 49.5429 57.8832 49.5429C58.0725 49.5429 58.2262 49.3897 58.2262 49.2011V31.9595C58.2262 31.7709 58.0725 31.6178 57.8832 31.6178C57.6939 31.6178 57.5402 31.7709 57.5402 31.9595V35.6792H46.4781V31.717C46.4781 31.5284 46.3244 31.3752 46.1351 31.3752C45.9458 31.3752 45.7921 31.5284 45.7921 31.717V35.6795L34.73 35.6792V31.9595C34.73 31.7709 34.5762 31.6178 34.387 31.6178V31.617Z"
         fill="#1A1A1A" />
      <path
         d="M43.9473 43.5622V45.2139C43.9473 45.4025 44.101 45.5556 44.2903 45.5556C44.4796 45.5556 44.6333 45.4025 44.6333 45.2139V43.5622C44.6333 43.3736 44.4796 43.2205 44.2903 43.2205C44.101 43.2205 43.9473 43.373 43.9473 43.5622Z"
         fill="#1A1A1A" />
      <path
         d="M47.6357 43.5622V45.2139C47.6357 45.4025 47.7895 45.5556 47.9788 45.5556C48.168 45.5556 48.3218 45.4025 48.3218 45.2139V43.5622C48.3218 43.3736 48.168 43.2205 47.9788 43.2205C47.7895 43.2205 47.6357 43.373 47.6357 43.5622Z"
         fill="#1A1A1A" />
   </symbol>


   <symbol viewBox="0 0 211 124" id="logo_white">
      <path
         d="M104.774 51.599L114.743 23.2732H94.8727H83.9718H83.2455L58.3992 94.579H49.0541L53.3763 82.5154L70.2273 35.4453L74.5856 23.2732H42.6043L40.8991 28.0355H61.2532L58.6001 35.4453L41.7491 82.5154L35.7217 99.3465H56.7403H66.2296H68.3624L93.2242 28.0045L101.446 28.0355L91.4829 56.3614H105.851L90.4629 99.3465H102.09L119.183 51.599H104.774Z"
         fill="white" />
      <path
         d="M127.9 32.7774L134.664 25.2176H128.05V23.8008H136.504V25.2331L129.74 32.7929H136.581V34.2252H127.9V32.7774Z"
         fill="white" />
      <path
         d="M139.84 25.7346L142.416 23.7852H143.528V34.2096H142.076V25.7346L139.85 27.3892L139.84 25.7346Z"
         fill="white" />
      <path
         d="M151.695 32.9738C152.32 33.0139 152.94 32.8428 153.457 32.4878C153.658 32.3377 153.82 32.1406 153.929 31.9136C154.038 31.6865 154.089 31.4364 154.08 31.1847C154.086 30.974 154.046 30.7645 153.964 30.5707C153.881 30.377 153.757 30.2036 153.601 30.0627C153.129 29.7239 152.551 29.5678 151.973 29.6231H150.907V28.3718H151.973C152.225 28.3838 152.477 28.3442 152.714 28.2553C152.95 28.1664 153.166 28.0301 153.349 27.8547C153.504 27.6992 153.627 27.5136 153.709 27.3092C153.792 27.1048 153.832 26.8858 153.828 26.6654C153.837 26.4266 153.788 26.1892 153.684 25.9744C153.579 25.7596 153.424 25.5742 153.23 25.4348C152.723 25.1142 152.129 24.9606 151.53 24.9952C150.973 24.9883 150.43 25.172 149.991 25.516C149.552 25.8599 149.243 26.3438 149.114 26.8878H147.672C147.759 26.2602 148.006 25.6656 148.388 25.1607C148.756 24.6685 149.239 24.2744 149.794 24.0128C150.354 23.7446 150.967 23.6068 151.587 23.6095C152.257 23.5974 152.923 23.7205 153.544 23.9714C154.072 24.1806 154.527 24.5401 154.853 25.0056C155.165 25.461 155.326 26.0041 155.311 26.5568C155.32 27.0166 155.21 27.4707 154.992 27.8754C154.767 28.2792 154.438 28.6149 154.039 28.8475C154.501 29.0391 154.893 29.3696 155.16 29.7937C155.428 30.2177 155.558 30.7145 155.533 31.2157C155.546 31.8169 155.365 32.4062 155.018 32.8963C154.668 33.3874 154.185 33.7678 153.627 33.9925C152.986 34.2558 152.299 34.386 151.607 34.3751C150.954 34.379 150.308 34.2359 149.717 33.9563C149.139 33.6841 148.636 33.2762 148.249 32.767C147.854 32.2396 147.605 31.6171 147.527 30.9624H148.98C149.116 31.5694 149.465 32.107 149.964 32.4765C150.462 32.8459 151.077 33.0225 151.695 32.9738Z"
         fill="white" />
      <path
         d="M128.568 39.5767H133.107C133.726 39.5594 134.34 39.6943 134.895 39.9697C135.372 40.2114 135.768 40.5891 136.033 41.0555C136.298 41.5289 136.435 42.0638 136.43 42.6068C136.456 43.3545 136.195 44.0836 135.7 44.643C135.205 45.2024 134.514 45.549 133.771 45.611L137.228 49.9752H135.379L132.01 45.6576H130.067V49.9752H128.584L128.568 39.5767ZM133.019 44.3235C133.515 44.3569 134.005 44.1997 134.39 43.884C134.698 43.5387 134.869 43.0912 134.869 42.6275C134.869 42.1637 134.698 41.7162 134.39 41.3709C134.005 41.0552 133.515 40.8981 133.019 40.9314H130.052V44.3235H133.019Z"
         fill="white" />
      <path
         d="M147.908 39.5769V40.973H142.421V44.0755H147.465V45.4768H142.421V48.5793H147.908V49.9755H140.938V39.5769H147.908Z"
         fill="white" />
      <path
         d="M155.831 39.5769H157.49L162.127 49.9961H160.422L159.391 47.6124H153.812L152.782 49.9961H151.164L155.831 39.5769ZM158.84 46.2473L156.63 41.1075L154.404 46.2473H158.84Z"
         fill="white" />
      <path d="M167.32 39.5769V48.569H172.807V49.9961H165.857V39.5769H167.32Z"
         fill="white" />
      <path
         d="M135.538 55.3425V56.7438H130.052V59.8463H135.095V61.2476H130.052V64.3501H135.538V65.7462H128.568V55.3425H135.538Z"
         fill="white" />
      <path
         d="M140.278 65.0328C139.871 64.7388 139.528 64.3649 139.269 63.9338C139.011 63.5027 138.842 63.0234 138.773 62.525H140.257C140.451 63.1382 140.845 63.6681 141.375 64.0297C141.982 64.373 142.673 64.5379 143.369 64.5054C144.045 64.5364 144.718 64.3846 145.316 64.0659C145.532 63.9632 145.716 63.8026 145.846 63.6019C145.977 63.4012 146.05 63.1681 146.058 62.9283C146.059 62.7292 146.008 62.5333 145.912 62.3594C145.815 62.1855 145.676 62.0395 145.507 61.9355C144.95 61.6111 144.336 61.3969 143.698 61.3047L142.57 61.0978C141.609 60.9796 140.697 60.6066 139.927 60.0171C139.65 59.7862 139.428 59.4958 139.278 59.1674C139.127 58.8391 139.051 58.4809 139.057 58.1194C139.046 57.5679 139.229 57.0301 139.572 56.5992C139.955 56.1299 140.457 55.7727 141.025 55.565C141.714 55.3099 142.444 55.1854 143.178 55.1979C144.155 55.1768 145.117 55.4486 145.939 55.9787C146.712 56.4894 147.264 57.2744 147.485 58.1763H145.939C145.742 57.6723 145.363 57.2609 144.878 57.0232C144.333 56.7524 143.73 56.6176 143.121 56.6302C142.479 56.596 141.84 56.7372 141.272 57.0387C141.068 57.1458 140.897 57.307 140.778 57.5049C140.659 57.7028 140.596 57.9297 140.597 58.1608C140.594 58.349 140.64 58.5348 140.731 58.6997C140.821 58.8647 140.952 59.0033 141.112 59.1019C141.643 59.3976 142.225 59.5889 142.828 59.6655L143.956 59.8569C144.948 59.9649 145.894 60.3361 146.697 60.9324C147.189 61.3669 147.498 61.9737 147.56 62.629C147.623 63.2843 147.433 63.9388 147.031 64.4589C146.631 64.9405 146.113 65.3093 145.527 65.5293C144.822 65.7989 144.072 65.9305 143.317 65.9171C142.236 65.9565 141.17 65.6466 140.278 65.0328Z"
         fill="white" />
      <path
         d="M159.079 56.7904H155.374V65.7824H153.891V56.7904H150.182V55.3425H159.079V56.7904Z"
         fill="white" />
      <path
         d="M164.852 55.3425H166.511L171.147 65.7618H169.442L168.411 63.3832H162.832L161.802 65.7618H160.189L164.852 55.3425ZM167.86 62.0129L165.65 56.8938L163.425 62.0284L167.86 62.0129Z"
         fill="white" />
      <path
         d="M181.183 56.7904H177.474V65.7824H175.99V56.7904H172.281V55.3425H181.183V56.7904Z"
         fill="white" />
      <path
         d="M191.933 55.3425V56.7438H186.447V59.8463H191.49V61.2476H186.447V64.3501H191.933V65.7462H184.963V55.3425H191.933Z"
         fill="white" />
   </symbol>

   <symbol viewBox="0 0 81 80" id="people">
      <path id="Vector"
         d="M40.8758 26.2938C44.351 26.2938 47.168 23.4798 47.168 20.0085V17.3972C47.168 13.9258 44.351 11.1118 40.8758 11.1118H40.0656C36.5905 11.1118 33.7734 13.9258 33.7734 17.3972V20.0085C33.7734 23.4798 36.5905 26.2938 40.0656 26.2938H40.8758ZM35.3804 20.0085V17.3972C35.3804 14.8167 37.4823 12.717 40.0656 12.717H40.8759C43.4592 12.717 45.5611 14.8167 45.5611 17.3972V20.0085C45.5611 22.589 43.4592 24.6886 40.8759 24.6886H40.0656C37.4819 24.6886 35.3804 22.5894 35.3804 20.0085Z"
         fill="#646464" />
      <path id="Vector_2"
         d="M64.7731 51.0797C64.4302 51.524 64.0484 51.9343 63.6309 52.3089C66.2495 53.4697 68.0828 56.0869 68.0828 59.128V68.8592L69.6892 68.8588V59.1279C69.6892 55.6276 67.6887 52.5897 64.773 51.0796L64.7731 51.0797Z"
         fill="#646464" />
      <path id="Vector_3" d="M62.8652 60.5569H64.4716V68.8595H62.8652V60.5569Z" fill="#646464" />
      <path id="Vector_4"
         d="M51.5756 34.0499C52.0692 33.7423 52.5923 33.4813 53.1431 33.2718C52.832 30.1574 50.9343 27.5081 48.2731 26.1296C47.9302 26.5739 47.5484 26.9842 47.1309 27.3588C49.7115 28.5034 51.5244 31.0645 51.5756 34.0499Z"
         fill="#646464" />
      <path id="Vector_5"
         d="M33.8126 27.3581C33.395 26.9839 33.0132 26.5731 32.6703 26.1289C30.0096 27.5069 28.112 30.1566 27.8008 33.2711C28.3515 33.481 28.8746 33.742 29.3683 34.0501C29.419 31.0642 31.2319 28.503 33.8126 27.3581Z"
         fill="#646464" />
      <path id="Vector_6"
         d="M36.6849 60.2847V59.1284C36.6849 55.6281 34.6844 52.5902 31.7692 51.0801C31.4263 51.5243 31.0445 51.9347 30.627 52.3092C33.2447 53.4701 35.0785 56.0873 35.0785 59.1284V68.8596H36.7683V60.2847L36.6849 60.2847Z"
         fill="#646464" />
      <path id="Vector_7"
         d="M49.1715 51.0796C46.523 52.4509 44.6358 55.0838 44.3105 58.1783V68.8583H45.8613V59.1279C45.8613 56.0872 47.6945 53.4697 50.3132 52.3087C49.8961 51.9351 49.5135 51.5247 49.1715 51.0796Z"
         fill="#646464" />
      <path id="Vector_8"
         d="M16.1696 51.0796C13.2543 52.5897 11.2539 55.6277 11.2539 59.1279V68.8591H12.8603V59.1279C12.8603 56.0868 14.6932 53.4697 17.3119 52.3087C16.8943 51.9351 16.5125 51.5247 16.1696 51.0796Z"
         fill="#646464" />
      <path id="Vector_9"
         d="M30.6661 42.3469C30.6661 38.8755 27.849 36.0615 24.3739 36.0615H23.5637C20.0885 36.0615 17.2715 38.8755 17.2715 42.3469V44.9582C17.2715 48.4295 20.0885 51.2435 23.5637 51.2435H24.3739C27.849 51.2435 30.6661 48.4295 30.6661 44.9582V42.3469ZM29.0588 44.9582C29.0588 47.5387 26.9569 49.6383 24.3735 49.6383H23.5633C20.98 49.6383 18.8781 47.5387 18.8781 44.9582V42.3469C18.8781 39.7664 20.98 37.6667 23.5633 37.6667H24.3735C26.9569 37.6667 29.0588 39.7664 29.0588 42.3469V44.9582Z"
         fill="#646464" />
      <path id="Vector_10" d="M16.4688 60.5569H18.0751V68.8595H16.4688V60.5569Z" fill="#646464" />
      <path id="Vector_11" d="M29.8633 61.2539H31.4697V68.8584H29.8633V61.2539Z" fill="#646464" />
      <path id="Vector_12"
         d="M57.3758 36.0615H56.5656C53.0905 36.0615 50.2734 38.8755 50.2734 42.3469V44.9582C50.2734 48.4295 53.0905 51.2435 56.5656 51.2435H57.3758C60.851 51.2435 63.668 48.4295 63.668 44.9582V42.3469C63.668 38.876 60.851 36.0615 57.3758 36.0615ZM62.0615 44.9581C62.0615 47.5386 59.9596 49.6382 57.3763 49.6382H56.5661C53.9828 49.6382 51.8809 47.5386 51.8809 44.9581V42.3468C51.8809 39.7663 53.9828 37.6666 56.5661 37.6666H57.3763C59.9596 37.6666 62.0615 39.7663 62.0615 42.3468V44.9581Z"
         fill="#646464" />
      <path id="Vector_13" d="M49.4707 60.5566H51.0771V68.8593H49.4707V60.5566Z" fill="#646464" />
   </symbol>

   <symbol viewBox="0 0 81 80" id="person_coin">
      <path id="Vector"
         d="M21.1099 43.4449H8.78857C8.5058 43.4449 8.27734 43.6713 8.27734 43.9514V65.4605C8.27734 65.7407 8.50579 65.9671 8.78857 65.9671H21.1104C21.3932 65.9671 21.6216 65.7407 21.6216 65.4605V62.7668C24.7162 64.5589 36.1967 71.0001 41.3547 71.0001C41.4624 71.0001 41.5686 70.9973 41.6714 70.991C44.7291 70.8228 49.6615 68.8577 56.3371 65.1505L58.382 63.9851C59.081 63.5881 59.7712 63.1796 60.439 62.7721L62.4873 61.5342C67.7271 58.3104 71.8092 55.4351 71.8064 55.4342C72.9874 54.7676 73.7218 53.52 73.7218 52.1782C73.7218 50.8869 73.0627 49.7047 71.9582 49.017C70.849 48.3273 69.4835 48.2509 68.3044 48.8142L54.8916 55.2453C54.9416 54.9958 54.9673 54.7397 54.9673 54.4773C54.9673 52.3825 53.2424 50.6778 51.1229 50.6778H43.6902C40.0941 47.5146 35.5906 45.5794 31.604 45.4904C27.052 45.3852 23.013 45.4496 21.6219 45.4784V43.9506C21.6219 43.6709 21.393 43.4446 21.1102 43.4446L21.1099 43.4449ZM21.6313 46.4923C23.0015 46.4635 27.0347 46.3981 31.5794 46.5043C35.3831 46.5894 39.7092 48.4791 43.1514 51.5614C43.2455 51.6455 43.3673 51.6922 43.4938 51.6922H51.1221C52.678 51.6922 53.9441 52.9416 53.9441 54.4785C53.9441 55.2364 53.6506 55.9352 53.1064 56.4566C52.5923 56.9838 51.887 57.275 51.1222 57.275L36.3982 57.274C36.1154 57.274 35.8869 57.5004 35.8869 57.7806C35.8869 58.0607 36.1154 58.2871 36.3982 58.2871H51.1222C52.1679 58.2871 53.1331 57.8863 53.8292 57.1721C53.9922 57.0169 54.1377 56.8487 54.2677 56.6695L68.7483 49.7265C69.6093 49.317 70.6045 49.3713 71.4136 49.875C72.2188 50.3767 72.699 51.2374 72.699 52.1784C72.699 53.1569 72.1626 54.0672 71.2571 54.5818C71.2173 54.6106 67.159 57.4682 61.9512 60.6717L59.9049 61.9088C59.2437 62.3115 58.5637 62.7142 57.8726 63.1068L55.8325 64.2694C49.2985 67.8987 44.515 69.82 41.6138 69.9806C36.6907 70.2646 23.5956 62.7459 21.6312 61.5973L21.6313 46.4923ZM20.5987 64.954H9.29976V44.4587H20.5992L20.5987 64.954Z"
         fill="#646464" />
      <circle id="Ellipse 10" cx="51.9075" cy="27.3704" r="17.8704" stroke="#646464" />
      <path id="Vector_2"
         d="M60.0215 32.2394V31.5198C60.0215 29.3414 58.7413 27.4508 56.8755 26.511C56.6561 26.7875 56.4118 27.0428 56.1445 27.2759C57.8198 27.9984 58.9935 29.6272 58.9935 31.5198V37.576H60.0749V32.2394L60.0215 32.2394Z"
         fill="#646464" />
      <path id="Vector_3"
         d="M46.8882 26.511C45.0224 27.4508 43.7422 29.3415 43.7422 31.5198V37.576H44.7702V31.5198C44.7702 29.6272 45.9433 27.9984 47.6192 27.2759C47.352 27.0434 47.1076 26.788 46.8882 26.511Z"
         fill="#646464" />
      <path id="Vector_4"
         d="M56.1681 21.0762C56.1681 18.9158 54.3652 17.1646 52.1412 17.1646H51.6226C49.3986 17.1646 47.5957 18.9158 47.5957 21.0762V22.7013C47.5957 24.8617 49.3986 26.613 51.6226 26.613H52.1412C54.3652 26.613 56.1681 24.8617 56.1681 22.7013V21.0762ZM55.1394 22.7013C55.1394 24.3073 53.7942 25.614 52.1409 25.614H51.6224C49.9691 25.614 48.6239 24.3073 48.6239 22.7013V21.0762C48.6239 19.4702 49.9691 18.1635 51.6224 18.1635H52.1409C53.7942 18.1635 55.1394 19.4702 55.1394 21.0762V22.7013Z"
         fill="#646464" />
      <path id="Vector_5" d="M47.0801 32.4089H48.1081V37.576H47.0801V32.4089Z" fill="#646464" />
      <path id="Vector_6" d="M55.6523 32.843H56.6804V37.5756H55.6523V32.843Z" fill="#646464" />

      <path id="Polygon 2" d="M52.1613 31.9629L50.6145 29.6666H53.708L52.1613 31.9629Z"
         fill="#646464" />
      <path id="Rectangle 39"
         d="M51.9048 30.9424H52.4151L52.9254 38.0864H51.3945L51.9048 30.9424Z" fill="#646464" />
   </symbol>
</svg>