<svg width="21" height="21" viewBox="0 0 21 21" fill="none" xmlns="http://www.w3.org/2000/svg">
<g id="ic:baseline-whatsapp">
<path id="Vector" d="M16.6689 5.10841C15.8667 4.2981 15.0532 3.59873 14.0001 3.16156C12.947 2.7244 11.7827 2.40325 10.6424 2.40722C5.86494 2.40722 2.22741 6.19974 2.22741 10.9772C2.22741 12.5085 2.26645 13.44 3.01895 14.7525L1.79395 19.25L6.3877 18.0425C7.65645 18.7338 9.0827 19.1013 10.5352 19.1013C15.3127 19.1013 18.7729 15.4367 18.7729 10.6592C18.7729 8.3404 18.3052 6.74466 16.6689 5.10841ZM10.5352 18.9319C9.2402 18.9319 7.7932 18.3154 6.68195 17.6592H6.36377L2.86377 18.2955L3.50013 15.1137L3.18195 14.0088C2.46248 12.8599 2.2845 11.3131 2.2835 9.95752C2.2835 5.98502 6.5627 2.40631 10.5352 2.40631C12.4602 2.40631 14.8712 3.2486 16.2274 4.6136C16.899 5.28207 17.7745 6.60157 18.1365 7.47724C18.4985 8.3529 18.7432 10.515 18.7397 11.4625C18.7572 15.435 14.5077 18.9319 10.5352 18.9319ZM14.4902 12.2413C14.2714 12.1363 13.2039 11.6113 13.0114 11.5325C12.8102 11.4625 12.6702 11.4275 12.5214 11.6375C12.3727 11.8563 11.9614 12.3463 11.8389 12.4863C11.7164 12.635 11.5852 12.6525 11.3664 12.5388C11.1477 12.4338 10.4477 12.1975 9.6252 11.4625C8.97769 10.885 8.54894 10.1763 8.4177 9.95752C8.2952 9.73877 8.40019 9.62502 8.51394 9.51127C8.61019 9.41502 8.7327 9.25752 8.8377 9.13502C8.9427 9.01252 8.98645 8.91627 9.05645 8.77627C9.12645 8.62752 9.09144 8.50502 9.03894 8.40002C8.98644 8.29502 8.54894 7.22752 8.37394 6.79002C8.19894 6.37002 8.01519 6.42252 7.88394 6.41377H7.46394C7.3152 6.41377 7.0877 6.46627 6.88645 6.68502C6.69394 6.90377 6.13395 7.42877 6.13395 8.49627C6.13395 9.56377 6.9127 10.5963 7.0177 10.7363C7.1227 10.885 8.54894 13.0725 10.7189 14.0088C11.2352 14.2363 11.6377 14.3675 11.9527 14.4638C12.4689 14.63 12.9414 14.6038 13.3177 14.5513C13.7377 14.49 14.6039 14.0263 14.7789 13.5188C14.9627 13.0113 14.9627 12.5825 14.9014 12.4863C14.8402 12.39 14.7089 12.3463 14.4902 12.2413Z" fill="#063832"/>
<path id="Ellipse 11" d="M18.591 10.6591C18.591 15.1276 14.9686 18.75 10.5001 18.75C9.5612 18.75 8.94254 18.694 8.39644 18.5287C7.85577 18.3651 7.35072 18.0834 6.66032 17.5747C6.52141 17.4724 6.36929 17.4558 6.29614 17.4512C6.20736 17.4456 6.11729 17.4527 6.03733 17.463C5.87585 17.4838 5.68516 17.5274 5.48857 17.5795C5.11191 17.6794 4.64714 17.8287 4.19627 17.9736C4.17332 17.9809 4.15039 17.9883 4.12752 17.9957C3.64599 18.1503 3.18596 18.2968 2.82886 18.3873C2.80341 18.3938 2.7789 18.3998 2.75531 18.4055C2.76093 18.3822 2.76693 18.3579 2.7733 18.3327C2.86397 17.9749 3.01035 17.5132 3.16465 17.0304L3.18589 16.964C3.3307 16.5111 3.47992 16.0443 3.57967 15.667C3.63163 15.4704 3.67512 15.2801 3.6959 15.1194C3.70617 15.0399 3.71333 14.95 3.70781 14.8615C3.70335 14.7899 3.68703 14.6343 3.58058 14.4937L3.18191 14.7954L3.58058 14.4937C3.05191 13.7952 2.77343 13.3028 2.61596 12.774C2.45602 12.2369 2.40918 11.6245 2.40918 10.6591C2.40918 6.1906 6.0316 2.56818 10.5001 2.56818C14.9686 2.56818 18.591 6.1906 18.591 10.6591Z" stroke="#063832"/>
</g>
</svg>
