<svg width="137" height="34" viewBox="0 0 137 34" fill="none" xmlns="http://www.w3.org/2000/svg">
<path d="M15.8438 0.40625V3.18359H3.50391V26H0.128906V0.40625H15.8438ZM27.0059 22.748V12.957C27.0059 12.207 26.8535 11.5566 26.5488 11.0059C26.2559 10.4434 25.8105 10.0098 25.2129 9.70508C24.6152 9.40039 23.877 9.24805 22.998 9.24805C22.1777 9.24805 21.457 9.38867 20.8359 9.66992C20.2266 9.95117 19.7461 10.3203 19.3945 10.7773C19.0547 11.2344 18.8848 11.7266 18.8848 12.2539H15.6328C15.6328 11.5742 15.8086 10.9004 16.1602 10.2324C16.5117 9.56445 17.0156 8.96094 17.6719 8.42188C18.3398 7.87109 19.1367 7.4375 20.0625 7.12109C21 6.79297 22.043 6.62891 23.1914 6.62891C24.5742 6.62891 25.793 6.86328 26.8477 7.33203C27.9141 7.80078 28.7461 8.50977 29.3438 9.45898C29.9531 10.3965 30.2578 11.5742 30.2578 12.9922V21.8516C30.2578 22.4844 30.3105 23.1582 30.416 23.873C30.5332 24.5879 30.7031 25.2031 30.9258 25.7188V26H27.5332C27.3691 25.625 27.2402 25.127 27.1465 24.5059C27.0527 23.873 27.0059 23.2871 27.0059 22.748ZM27.5684 14.4688L27.6035 16.7539H24.3164C23.3906 16.7539 22.5645 16.8301 21.8379 16.9824C21.1113 17.123 20.502 17.3398 20.0098 17.6328C19.5176 17.9258 19.1426 18.2949 18.8848 18.7402C18.627 19.1738 18.498 19.6836 18.498 20.2695C18.498 20.8672 18.6328 21.4121 18.9023 21.9043C19.1719 22.3965 19.5762 22.7891 20.1152 23.082C20.666 23.3633 21.3398 23.5039 22.1367 23.5039C23.1328 23.5039 24.0117 23.293 24.7734 22.8711C25.5352 22.4492 26.1387 21.9336 26.584 21.3242C27.041 20.7148 27.2871 20.123 27.3223 19.5488L28.7109 21.1133C28.6289 21.6055 28.4062 22.1504 28.043 22.748C27.6797 23.3457 27.1934 23.9199 26.584 24.4707C25.9863 25.0098 25.2715 25.4609 24.4395 25.8242C23.6191 26.1758 22.6934 26.3516 21.6621 26.3516C20.373 26.3516 19.2422 26.0996 18.2695 25.5957C17.3086 25.0918 16.5586 24.418 16.0195 23.5742C15.4922 22.7188 15.2285 21.7637 15.2285 20.709C15.2285 19.6895 15.4277 18.793 15.8262 18.0195C16.2246 17.2344 16.7988 16.584 17.5488 16.0684C18.2988 15.541 19.2012 15.1426 20.2559 14.873C21.3105 14.6035 22.4883 14.4688 23.7891 14.4688H27.5684ZM42.4746 16.9121H38.9766V14.9082H42.2109C43.1133 14.9082 43.8281 14.7969 44.3555 14.5742C44.8828 14.3398 45.2578 14.0176 45.4805 13.6074C45.7031 13.1973 45.8145 12.7168 45.8145 12.166C45.8145 11.6738 45.6855 11.2109 45.4277 10.7773C45.1816 10.332 44.7832 9.97461 44.2324 9.70508C43.6816 9.42383 42.9434 9.2832 42.0176 9.2832C41.2676 9.2832 40.5879 9.41797 39.9785 9.6875C39.3691 9.94531 38.8828 10.3027 38.5195 10.7598C38.168 11.2051 37.9922 11.709 37.9922 12.2715H34.7402C34.7402 11.1113 35.0684 10.1152 35.7246 9.2832C36.3926 8.43945 37.2773 7.78906 38.3789 7.33203C39.4922 6.875 40.7051 6.64648 42.0176 6.64648C43.1191 6.64648 44.1035 6.76953 44.9707 7.01562C45.8496 7.25 46.5938 7.60156 47.2031 8.07031C47.8125 8.52734 48.2754 9.10156 48.5918 9.79297C48.9199 10.4727 49.084 11.2637 49.084 12.166C49.084 12.8105 48.9316 13.4199 48.627 13.9941C48.3223 14.5684 47.8828 15.0781 47.3086 15.5234C46.7344 15.957 46.0371 16.2969 45.2168 16.543C44.4082 16.7891 43.4941 16.9121 42.4746 16.9121ZM38.9766 15.6816H42.4746C43.6113 15.6816 44.6133 15.793 45.4805 16.0156C46.3477 16.2266 47.0742 16.543 47.6602 16.9648C48.2461 17.3867 48.6855 17.9082 48.9785 18.5293C49.2832 19.1387 49.4355 19.8418 49.4355 20.6387C49.4355 21.5293 49.2539 22.332 48.8906 23.0469C48.5391 23.75 48.0352 24.3477 47.3789 24.8398C46.7227 25.332 45.9375 25.707 45.0234 25.9648C44.1211 26.2227 43.1191 26.3516 42.0176 26.3516C40.7871 26.3516 39.5918 26.1406 38.4316 25.7188C37.2715 25.2969 36.3164 24.6465 35.5664 23.7676C34.8164 22.877 34.4414 21.7461 34.4414 20.375H37.6934C37.6934 20.9492 37.875 21.4941 38.2383 22.0098C38.6016 22.5254 39.1055 22.9414 39.75 23.2578C40.4062 23.5742 41.1621 23.7324 42.0176 23.7324C42.9316 23.7324 43.6934 23.5918 44.3027 23.3105C44.9121 23.0293 45.3691 22.6543 45.6738 22.1855C45.9902 21.7168 46.1484 21.207 46.1484 20.6562C46.1484 19.9414 46.0078 19.3672 45.7266 18.9336C45.4453 18.5 45.0117 18.1836 44.4258 17.9844C43.8516 17.7734 43.1133 17.668 42.2109 17.668H38.9766V15.6816ZM66.3281 6.98047V9.66992H56.7129V6.98047H66.3281ZM57.1875 6.98047V26H53.9355V6.98047H57.1875ZM69.2109 6.98047V26H65.9414V6.98047H69.2109ZM77.6836 10.6367V33.3125H74.4141V6.98047H77.4023L77.6836 10.6367ZM90.498 16.332V16.7012C90.498 18.084 90.334 19.3672 90.0059 20.5508C89.6777 21.7227 89.1973 22.7422 88.5645 23.6094C87.9434 24.4766 87.1758 25.1504 86.2617 25.6309C85.3477 26.1113 84.2988 26.3516 83.1152 26.3516C81.9082 26.3516 80.8418 26.1523 79.916 25.7539C78.9902 25.3555 78.2051 24.7754 77.5605 24.0137C76.916 23.252 76.4004 22.3379 76.0137 21.2715C75.6387 20.2051 75.3809 19.0039 75.2402 17.668V15.6992C75.3809 14.293 75.6445 13.0332 76.0312 11.9199C76.418 10.8066 76.9277 9.85742 77.5605 9.07227C78.2051 8.27539 78.9844 7.67187 79.8984 7.26172C80.8125 6.83984 81.8672 6.62891 83.0625 6.62891C84.2578 6.62891 85.3184 6.86328 86.2441 7.33203C87.1699 7.78906 87.9492 8.44531 88.582 9.30078C89.2148 10.1562 89.6895 11.1816 90.0059 12.377C90.334 13.5605 90.498 14.8789 90.498 16.332ZM87.2285 16.7012V16.332C87.2285 15.3828 87.1289 14.4922 86.9297 13.6602C86.7305 12.8164 86.4199 12.0781 85.998 11.4453C85.5879 10.8008 85.0605 10.2969 84.416 9.93359C83.7715 9.55859 83.0039 9.37109 82.1133 9.37109C81.293 9.37109 80.5781 9.51172 79.9688 9.79297C79.3711 10.0742 78.8613 10.4551 78.4395 10.9355C78.0176 11.4043 77.6719 11.9434 77.4023 12.5527C77.1445 13.1504 76.9512 13.7715 76.8223 14.416V18.9688C77.0566 19.7891 77.3848 20.5625 77.8066 21.2891C78.2285 22.0039 78.791 22.584 79.4941 23.0293C80.1973 23.4629 81.082 23.6797 82.1484 23.6797C83.0273 23.6797 83.7832 23.498 84.416 23.1348C85.0605 22.7598 85.5879 22.25 85.998 21.6055C86.4199 20.9609 86.7305 20.2227 86.9297 19.3906C87.1289 18.5469 87.2285 17.6504 87.2285 16.7012ZM93.7852 16.7012V16.2969C93.7852 14.9258 93.9844 13.6543 94.3828 12.4824C94.7812 11.2988 95.3555 10.2734 96.1055 9.40625C96.8555 8.52734 97.7637 7.84766 98.8301 7.36719C99.8965 6.875 101.092 6.62891 102.416 6.62891C103.752 6.62891 104.953 6.875 106.02 7.36719C107.098 7.84766 108.012 8.52734 108.762 9.40625C109.523 10.2734 110.104 11.2988 110.502 12.4824C110.9 13.6543 111.1 14.9258 111.1 16.2969V16.7012C111.1 18.0723 110.9 19.3438 110.502 20.5156C110.104 21.6875 109.523 22.7129 108.762 23.5918C108.012 24.459 107.104 25.1387 106.037 25.6309C104.982 26.1113 103.787 26.3516 102.451 26.3516C101.115 26.3516 99.9141 26.1113 98.8477 25.6309C97.7812 25.1387 96.8672 24.459 96.1055 23.5918C95.3555 22.7129 94.7812 21.6875 94.3828 20.5156C93.9844 19.3438 93.7852 18.0723 93.7852 16.7012ZM97.0371 16.2969V16.7012C97.0371 17.6504 97.1484 18.5469 97.3711 19.3906C97.5938 20.2227 97.9277 20.9609 98.373 21.6055C98.8301 22.25 99.3984 22.7598 100.078 23.1348C100.758 23.498 101.549 23.6797 102.451 23.6797C103.342 23.6797 104.121 23.498 104.789 23.1348C105.469 22.7598 106.031 22.25 106.477 21.6055C106.922 20.9609 107.256 20.2227 107.479 19.3906C107.713 18.5469 107.83 17.6504 107.83 16.7012V16.2969C107.83 15.3594 107.713 14.4746 107.479 13.6426C107.256 12.7988 106.916 12.0547 106.459 11.4102C106.014 10.7539 105.451 10.2383 104.771 9.86328C104.104 9.48828 103.318 9.30078 102.416 9.30078C101.525 9.30078 100.74 9.48828 100.061 9.86328C99.3926 10.2383 98.8301 10.7539 98.373 11.4102C97.9277 12.0547 97.5938 12.7988 97.3711 13.6426C97.1484 14.4746 97.0371 15.3594 97.0371 16.2969ZM126.111 21.6758L132.58 6.98047H135.709L127.236 26H124.986L116.549 6.98047H119.678L126.111 21.6758ZM118.729 6.98047V26H115.477V6.98047H118.729ZM133.389 26V6.98047H136.658V26H133.389Z" fill="#0079C2"/>
</svg>
