<svg width="249" height="35" viewBox="0 0 249 35" fill="none" xmlns="http://www.w3.org/2000/svg">
<path d="M15.8438 1.40625V4.18359H3.50391V27H0.128906V1.40625H15.8438ZM27.0059 23.748V13.957C27.0059 13.207 26.8535 12.5566 26.5488 12.0059C26.2559 11.4434 25.8105 11.0098 25.2129 10.7051C24.6152 10.4004 23.877 10.248 22.998 10.248C22.1777 10.248 21.457 10.3887 20.8359 10.6699C20.2266 10.9512 19.7461 11.3203 19.3945 11.7773C19.0547 12.2344 18.8848 12.7266 18.8848 13.2539H15.6328C15.6328 12.5742 15.8086 11.9004 16.1602 11.2324C16.5117 10.5645 17.0156 9.96094 17.6719 9.42188C18.3398 8.87109 19.1367 8.4375 20.0625 8.12109C21 7.79297 22.043 7.62891 23.1914 7.62891C24.5742 7.62891 25.793 7.86328 26.8477 8.33203C27.9141 8.80078 28.7461 9.50977 29.3438 10.459C29.9531 11.3965 30.2578 12.5742 30.2578 13.9922V22.8516C30.2578 23.4844 30.3105 24.1582 30.416 24.873C30.5332 25.5879 30.7031 26.2031 30.9258 26.7188V27H27.5332C27.3691 26.625 27.2402 26.127 27.1465 25.5059C27.0527 24.873 27.0059 24.2871 27.0059 23.748ZM27.5684 15.4688L27.6035 17.7539H24.3164C23.3906 17.7539 22.5645 17.8301 21.8379 17.9824C21.1113 18.123 20.502 18.3398 20.0098 18.6328C19.5176 18.9258 19.1426 19.2949 18.8848 19.7402C18.627 20.1738 18.498 20.6836 18.498 21.2695C18.498 21.8672 18.6328 22.4121 18.9023 22.9043C19.1719 23.3965 19.5762 23.7891 20.1152 24.082C20.666 24.3633 21.3398 24.5039 22.1367 24.5039C23.1328 24.5039 24.0117 24.293 24.7734 23.8711C25.5352 23.4492 26.1387 22.9336 26.584 22.3242C27.041 21.7148 27.2871 21.123 27.3223 20.5488L28.7109 22.1133C28.6289 22.6055 28.4062 23.1504 28.043 23.748C27.6797 24.3457 27.1934 24.9199 26.584 25.4707C25.9863 26.0098 25.2715 26.4609 24.4395 26.8242C23.6191 27.1758 22.6934 27.3516 21.6621 27.3516C20.373 27.3516 19.2422 27.0996 18.2695 26.5957C17.3086 26.0918 16.5586 25.418 16.0195 24.5742C15.4922 23.7188 15.2285 22.7637 15.2285 21.709C15.2285 20.6895 15.4277 19.793 15.8262 19.0195C16.2246 18.2344 16.7988 17.584 17.5488 17.0684C18.2988 16.541 19.2012 16.1426 20.2559 15.873C21.3105 15.6035 22.4883 15.4688 23.7891 15.4688H27.5684ZM42.4746 17.9121H38.9766V15.9082H42.2109C43.1133 15.9082 43.8281 15.7969 44.3555 15.5742C44.8828 15.3398 45.2578 15.0176 45.4805 14.6074C45.7031 14.1973 45.8145 13.7168 45.8145 13.166C45.8145 12.6738 45.6855 12.2109 45.4277 11.7773C45.1816 11.332 44.7832 10.9746 44.2324 10.7051C43.6816 10.4238 42.9434 10.2832 42.0176 10.2832C41.2676 10.2832 40.5879 10.418 39.9785 10.6875C39.3691 10.9453 38.8828 11.3027 38.5195 11.7598C38.168 12.2051 37.9922 12.709 37.9922 13.2715H34.7402C34.7402 12.1113 35.0684 11.1152 35.7246 10.2832C36.3926 9.43945 37.2773 8.78906 38.3789 8.33203C39.4922 7.875 40.7051 7.64648 42.0176 7.64648C43.1191 7.64648 44.1035 7.76953 44.9707 8.01562C45.8496 8.25 46.5938 8.60156 47.2031 9.07031C47.8125 9.52734 48.2754 10.1016 48.5918 10.793C48.9199 11.4727 49.084 12.2637 49.084 13.166C49.084 13.8105 48.9316 14.4199 48.627 14.9941C48.3223 15.5684 47.8828 16.0781 47.3086 16.5234C46.7344 16.957 46.0371 17.2969 45.2168 17.543C44.4082 17.7891 43.4941 17.9121 42.4746 17.9121ZM38.9766 16.6816H42.4746C43.6113 16.6816 44.6133 16.793 45.4805 17.0156C46.3477 17.2266 47.0742 17.543 47.6602 17.9648C48.2461 18.3867 48.6855 18.9082 48.9785 19.5293C49.2832 20.1387 49.4355 20.8418 49.4355 21.6387C49.4355 22.5293 49.2539 23.332 48.8906 24.0469C48.5391 24.75 48.0352 25.3477 47.3789 25.8398C46.7227 26.332 45.9375 26.707 45.0234 26.9648C44.1211 27.2227 43.1191 27.3516 42.0176 27.3516C40.7871 27.3516 39.5918 27.1406 38.4316 26.7188C37.2715 26.2969 36.3164 25.6465 35.5664 24.7676C34.8164 23.877 34.4414 22.7461 34.4414 21.375H37.6934C37.6934 21.9492 37.875 22.4941 38.2383 23.0098C38.6016 23.5254 39.1055 23.9414 39.75 24.2578C40.4062 24.5742 41.1621 24.7324 42.0176 24.7324C42.9316 24.7324 43.6934 24.5918 44.3027 24.3105C44.9121 24.0293 45.3691 23.6543 45.6738 23.1855C45.9902 22.7168 46.1484 22.207 46.1484 21.6562C46.1484 20.9414 46.0078 20.3672 45.7266 19.9336C45.4453 19.5 45.0117 19.1836 44.4258 18.9844C43.8516 18.7734 43.1133 18.668 42.2109 18.668H38.9766V16.6816ZM66.3281 7.98047V10.6699H56.7129V7.98047H66.3281ZM57.1875 7.98047V27H53.9355V7.98047H57.1875ZM69.2109 7.98047V27H65.9414V7.98047H69.2109ZM77.6836 11.6367V34.3125H74.4141V7.98047H77.4023L77.6836 11.6367ZM90.498 17.332V17.7012C90.498 19.084 90.334 20.3672 90.0059 21.5508C89.6777 22.7227 89.1973 23.7422 88.5645 24.6094C87.9434 25.4766 87.1758 26.1504 86.2617 26.6309C85.3477 27.1113 84.2988 27.3516 83.1152 27.3516C81.9082 27.3516 80.8418 27.1523 79.916 26.7539C78.9902 26.3555 78.2051 25.7754 77.5605 25.0137C76.916 24.252 76.4004 23.3379 76.0137 22.2715C75.6387 21.2051 75.3809 20.0039 75.2402 18.668V16.6992C75.3809 15.293 75.6445 14.0332 76.0312 12.9199C76.418 11.8066 76.9277 10.8574 77.5605 10.0723C78.2051 9.27539 78.9844 8.67187 79.8984 8.26172C80.8125 7.83984 81.8672 7.62891 83.0625 7.62891C84.2578 7.62891 85.3184 7.86328 86.2441 8.33203C87.1699 8.78906 87.9492 9.44531 88.582 10.3008C89.2148 11.1562 89.6895 12.1816 90.0059 13.377C90.334 14.5605 90.498 15.8789 90.498 17.332ZM87.2285 17.7012V17.332C87.2285 16.3828 87.1289 15.4922 86.9297 14.6602C86.7305 13.8164 86.4199 13.0781 85.998 12.4453C85.5879 11.8008 85.0605 11.2969 84.416 10.9336C83.7715 10.5586 83.0039 10.3711 82.1133 10.3711C81.293 10.3711 80.5781 10.5117 79.9688 10.793C79.3711 11.0742 78.8613 11.4551 78.4395 11.9355C78.0176 12.4043 77.6719 12.9434 77.4023 13.5527C77.1445 14.1504 76.9512 14.7715 76.8223 15.416V19.9688C77.0566 20.7891 77.3848 21.5625 77.8066 22.2891C78.2285 23.0039 78.791 23.584 79.4941 24.0293C80.1973 24.4629 81.082 24.6797 82.1484 24.6797C83.0273 24.6797 83.7832 24.498 84.416 24.1348C85.0605 23.7598 85.5879 23.25 85.998 22.6055C86.4199 21.9609 86.7305 21.2227 86.9297 20.3906C87.1289 19.5469 87.2285 18.6504 87.2285 17.7012ZM93.7852 17.7012V17.2969C93.7852 15.9258 93.9844 14.6543 94.3828 13.4824C94.7812 12.2988 95.3555 11.2734 96.1055 10.4062C96.8555 9.52734 97.7637 8.84766 98.8301 8.36719C99.8965 7.875 101.092 7.62891 102.416 7.62891C103.752 7.62891 104.953 7.875 106.02 8.36719C107.098 8.84766 108.012 9.52734 108.762 10.4062C109.523 11.2734 110.104 12.2988 110.502 13.4824C110.9 14.6543 111.1 15.9258 111.1 17.2969V17.7012C111.1 19.0723 110.9 20.3438 110.502 21.5156C110.104 22.6875 109.523 23.7129 108.762 24.5918C108.012 25.459 107.104 26.1387 106.037 26.6309C104.982 27.1113 103.787 27.3516 102.451 27.3516C101.115 27.3516 99.9141 27.1113 98.8477 26.6309C97.7812 26.1387 96.8672 25.459 96.1055 24.5918C95.3555 23.7129 94.7812 22.6875 94.3828 21.5156C93.9844 20.3438 93.7852 19.0723 93.7852 17.7012ZM97.0371 17.2969V17.7012C97.0371 18.6504 97.1484 19.5469 97.3711 20.3906C97.5938 21.2227 97.9277 21.9609 98.373 22.6055C98.8301 23.25 99.3984 23.7598 100.078 24.1348C100.758 24.498 101.549 24.6797 102.451 24.6797C103.342 24.6797 104.121 24.498 104.789 24.1348C105.469 23.7598 106.031 23.25 106.477 22.6055C106.922 21.9609 107.256 21.2227 107.479 20.3906C107.713 19.5469 107.83 18.6504 107.83 17.7012V17.2969C107.83 16.3594 107.713 15.4746 107.479 14.6426C107.256 13.7988 106.916 13.0547 106.459 12.4102C106.014 11.7539 105.451 11.2383 104.771 10.8633C104.104 10.4883 103.318 10.3008 102.416 10.3008C101.525 10.3008 100.74 10.4883 100.061 10.8633C99.3926 11.2383 98.8301 11.7539 98.373 12.4102C97.9277 13.0547 97.5938 13.7988 97.3711 14.6426C97.1484 15.4746 97.0371 16.3594 97.0371 17.2969ZM126.111 22.6758L132.58 7.98047H135.709L127.236 27H124.986L116.549 7.98047H119.678L126.111 22.6758ZM118.729 7.98047V27H115.477V7.98047H118.729ZM133.389 27V7.98047H136.658V27H133.389ZM163.729 16.2246V18.8613H153.674V16.2246H163.729ZM154.359 7.98047V27H151.107V7.98047H154.359ZM166.365 7.98047V27H163.096V7.98047H166.365ZM179.496 27.3516C178.172 27.3516 176.971 27.1289 175.893 26.6836C174.826 26.2266 173.906 25.5879 173.133 24.7676C172.371 23.9473 171.785 22.9746 171.375 21.8496C170.965 20.7246 170.76 19.4941 170.76 18.1582V17.4199C170.76 15.873 170.988 14.4961 171.445 13.2891C171.902 12.0703 172.523 11.0391 173.309 10.1953C174.094 9.35156 174.984 8.71289 175.98 8.2793C176.977 7.8457 178.008 7.62891 179.074 7.62891C180.434 7.62891 181.605 7.86328 182.59 8.33203C183.586 8.80078 184.4 9.45703 185.033 10.3008C185.666 11.1328 186.135 12.1172 186.439 13.2539C186.744 14.3789 186.896 15.6094 186.896 16.9453V18.4043H172.693V15.75H183.645V15.5039C183.598 14.6602 183.422 13.8398 183.117 13.043C182.824 12.2461 182.355 11.5898 181.711 11.0742C181.066 10.5586 180.188 10.3008 179.074 10.3008C178.336 10.3008 177.656 10.459 177.035 10.7754C176.414 11.0801 175.881 11.5371 175.436 12.1465C174.99 12.7559 174.645 13.5 174.398 14.3789C174.152 15.2578 174.029 16.2715 174.029 17.4199V18.1582C174.029 19.0605 174.152 19.9102 174.398 20.707C174.656 21.4922 175.025 22.1836 175.506 22.7812C175.998 23.3789 176.59 23.8477 177.281 24.1875C177.984 24.5273 178.781 24.6973 179.672 24.6973C180.82 24.6973 181.793 24.4629 182.59 23.9941C183.387 23.5254 184.084 22.8984 184.682 22.1133L186.65 23.6777C186.24 24.2988 185.719 24.8906 185.086 25.4531C184.453 26.0156 183.674 26.4727 182.748 26.8242C181.834 27.1758 180.75 27.3516 179.496 27.3516ZM212.561 17.8242V18.1934C212.561 19.5293 212.414 20.7598 212.121 21.8848C211.828 22.998 211.389 23.9648 210.803 24.7852C210.229 25.6055 209.514 26.2441 208.658 26.7012C207.803 27.1465 206.812 27.3691 205.688 27.3691C204.762 27.3691 203.947 27.2461 203.244 27C202.541 26.7422 201.943 26.373 201.451 25.8926C200.971 25.4121 200.584 24.8379 200.291 24.1699C200.01 23.4902 199.816 22.7285 199.711 21.8848V13.4473C199.816 12.5449 200.01 11.7363 200.291 11.0215C200.584 10.3066 200.971 9.69727 201.451 9.19336C201.943 8.68945 202.535 8.30273 203.227 8.0332C203.918 7.76367 204.727 7.62891 205.652 7.62891C206.566 7.62891 207.387 7.79297 208.113 8.12109C208.852 8.4375 209.496 8.89453 210.047 9.49219C210.609 10.0898 211.072 10.8105 211.436 11.6543C211.811 12.4863 212.092 13.4238 212.279 14.4668C212.467 15.5098 212.561 16.6289 212.561 17.8242ZM209.309 18.1934V17.8242C209.309 17.0039 209.25 16.2246 209.133 15.4863C209.027 14.7363 208.857 14.0508 208.623 13.4297C208.4 12.7969 208.107 12.2461 207.744 11.7773C207.381 11.3086 206.941 10.9453 206.426 10.6875C205.922 10.4297 205.342 10.3008 204.686 10.3008C203.982 10.3008 203.396 10.3887 202.928 10.5645C202.471 10.7402 202.113 10.9746 201.855 11.2676C201.598 11.5488 201.41 11.8477 201.293 12.1641V23.1855C201.434 23.4434 201.639 23.6895 201.908 23.9238C202.178 24.1465 202.541 24.334 202.998 24.4863C203.455 24.627 204.029 24.6973 204.721 24.6973C205.541 24.6973 206.238 24.5332 206.812 24.2051C207.398 23.8652 207.873 23.3965 208.236 22.7988C208.611 22.2012 208.881 21.5098 209.045 20.7246C209.221 19.9395 209.309 19.0957 209.309 18.1934ZM189.973 18.1934V17.8242C189.973 16.6289 190.066 15.5098 190.254 14.4668C190.441 13.4238 190.723 12.4863 191.098 11.6543C191.473 10.8105 191.936 10.0898 192.486 9.49219C193.049 8.89453 193.693 8.4375 194.42 8.12109C195.158 7.79297 195.984 7.62891 196.898 7.62891C197.801 7.62891 198.586 7.76367 199.254 8.0332C199.934 8.30273 200.508 8.68945 200.977 9.19336C201.445 9.69727 201.82 10.3066 202.102 11.0215C202.383 11.7363 202.582 12.5449 202.699 13.4473V21.5508C202.594 22.4414 202.4 23.2441 202.119 23.959C201.838 24.6738 201.463 25.2891 200.994 25.8047C200.525 26.3086 199.945 26.6953 199.254 26.9648C198.574 27.2344 197.777 27.3691 196.863 27.3691C195.738 27.3691 194.748 27.1465 193.893 26.7012C193.037 26.2441 192.316 25.6055 191.73 24.7852C191.156 23.9648 190.717 22.998 190.412 21.8848C190.119 20.7598 189.973 19.5293 189.973 18.1934ZM193.242 17.8242V18.1934C193.242 19.0957 193.318 19.9395 193.471 20.7246C193.635 21.5098 193.887 22.2012 194.227 22.7988C194.578 23.3965 195.035 23.8652 195.598 24.2051C196.16 24.5332 196.852 24.6973 197.672 24.6973C198.375 24.6973 198.955 24.6094 199.412 24.4336C199.869 24.2578 200.232 24.0293 200.502 23.748C200.771 23.4668 200.977 23.1738 201.117 22.8691V12.1641C201 11.8477 200.807 11.5488 200.537 11.2676C200.279 10.9746 199.922 10.7402 199.465 10.5645C199.008 10.3887 198.422 10.3008 197.707 10.3008C196.887 10.3008 196.189 10.5 195.615 10.8984C195.041 11.2969 194.578 11.8418 194.227 12.5332C193.887 13.2246 193.635 14.0273 193.471 14.9414C193.318 15.8438 193.242 16.8047 193.242 17.8242ZM199.5 34.3125V0H202.77V34.3125H199.5ZM223.16 7.98047V27H219.891V7.98047H223.16ZM229.541 7.98047V10.6172H213.633V7.98047H229.541ZM235.412 14.5195H241.125C242.66 14.5195 243.955 14.7891 245.01 15.3281C246.064 15.8555 246.861 16.5879 247.4 17.5254C247.951 18.4512 248.227 19.5059 248.227 20.6895C248.227 21.5684 248.074 22.3945 247.77 23.168C247.465 23.9297 247.008 24.5977 246.398 25.1719C245.801 25.7461 245.057 26.1973 244.166 26.5254C243.287 26.8418 242.273 27 241.125 27H233.039V7.98047H236.291V24.3281H241.125C242.062 24.3281 242.812 24.1582 243.375 23.8184C243.938 23.4785 244.342 23.0391 244.588 22.5C244.834 21.9609 244.957 21.3984 244.957 20.8125C244.957 20.2383 244.834 19.6758 244.588 19.125C244.342 18.5742 243.938 18.1172 243.375 17.7539C242.812 17.3789 242.062 17.1914 241.125 17.1914H235.412V14.5195Z" fill="#0079C2"/>
</svg>
