<svg width="121" height="34" viewBox="0 0 121 34" fill="none" xmlns="http://www.w3.org/2000/svg">
<path d="M19.4238 0.40625V3.18359H7.7168V0.40625H19.4238ZM22.3418 0.40625V26H18.9492V0.40625H22.3418ZM6.55664 0.40625H9.93164L9.35156 12.9395C9.26953 14.7441 9.12891 16.3555 8.92969 17.7734C8.74219 19.1797 8.47266 20.4043 8.12109 21.4473C7.76953 22.4785 7.3125 23.334 6.75 24.0137C6.1875 24.6816 5.49609 25.1797 4.67578 25.5078C3.86719 25.8359 2.89453 26 1.75781 26H0.84375V23.2402L1.54688 23.1875C2.20312 23.1406 2.76562 22.9941 3.23438 22.748C3.71484 22.4902 4.11914 22.1035 4.44727 21.5879C4.78711 21.0723 5.0625 20.4043 5.27344 19.584C5.48438 18.7637 5.64844 17.7617 5.76562 16.5781C5.89453 15.3828 5.99414 13.9883 6.06445 12.3945L6.55664 0.40625ZM33.3105 24.0312L38.6016 6.98047H42.082L34.4531 28.9355C34.2773 29.4043 34.043 29.9082 33.75 30.4473C33.4688 30.998 33.1055 31.5195 32.6602 32.0117C32.2148 32.5039 31.6758 32.9023 31.043 33.207C30.4219 33.5234 29.6777 33.6816 28.8105 33.6816C28.5527 33.6816 28.2246 33.6465 27.8262 33.5762C27.4277 33.5059 27.1465 33.4473 26.9824 33.4004L26.9648 30.7637C27.0586 30.7754 27.2051 30.7871 27.4043 30.7988C27.6152 30.8223 27.7617 30.834 27.8438 30.834C28.582 30.834 29.209 30.7344 29.7246 30.5352C30.2402 30.3477 30.6738 30.0254 31.0254 29.5684C31.3887 29.123 31.6992 28.5078 31.957 27.7227L33.3105 24.0312ZM29.4258 6.98047L34.3652 21.7461L35.209 25.1738L32.8711 26.3691L25.875 6.98047H29.4258ZM48.5508 6.98047V26H45.2988V6.98047H48.5508ZM61.0312 6.98047L52.0137 17.8789H47.4609L46.9688 15.0312H50.6953L57.0762 6.98047H61.0312ZM57.5332 26L50.5371 17.3867L52.6289 15.0312L61.6641 26H57.5332ZM63.2461 16.7012V16.2969C63.2461 14.9258 63.4453 13.6543 63.8438 12.4824C64.2422 11.2988 64.8164 10.2734 65.5664 9.40625C66.3164 8.52734 67.2246 7.84766 68.291 7.36719C69.3574 6.875 70.5527 6.62891 71.877 6.62891C73.2129 6.62891 74.4141 6.875 75.4805 7.36719C76.5586 7.84766 77.4727 8.52734 78.2227 9.40625C78.9844 10.2734 79.5645 11.2988 79.9629 12.4824C80.3613 13.6543 80.5605 14.9258 80.5605 16.2969V16.7012C80.5605 18.0723 80.3613 19.3438 79.9629 20.5156C79.5645 21.6875 78.9844 22.7129 78.2227 23.5918C77.4727 24.459 76.5645 25.1387 75.498 25.6309C74.4434 26.1113 73.248 26.3516 71.9121 26.3516C70.5762 26.3516 69.375 26.1113 68.3086 25.6309C67.2422 25.1387 66.3281 24.459 65.5664 23.5918C64.8164 22.7129 64.2422 21.6875 63.8438 20.5156C63.4453 19.3438 63.2461 18.0723 63.2461 16.7012ZM66.498 16.2969V16.7012C66.498 17.6504 66.6094 18.5469 66.832 19.3906C67.0547 20.2227 67.3887 20.9609 67.834 21.6055C68.291 22.25 68.8594 22.7598 69.5391 23.1348C70.2188 23.498 71.0098 23.6797 71.9121 23.6797C72.8027 23.6797 73.582 23.498 74.25 23.1348C74.9297 22.7598 75.4922 22.25 75.9375 21.6055C76.3828 20.9609 76.7168 20.2227 76.9395 19.3906C77.1738 18.5469 77.291 17.6504 77.291 16.7012V16.2969C77.291 15.3594 77.1738 14.4746 76.9395 13.6426C76.7168 12.7988 76.377 12.0547 75.9199 11.4102C75.4746 10.7539 74.9121 10.2383 74.2324 9.86328C73.5645 9.48828 72.7793 9.30078 71.877 9.30078C70.9863 9.30078 70.2012 9.48828 69.5215 9.86328C68.8535 10.2383 68.291 10.7539 67.834 11.4102C67.3887 12.0547 67.0547 12.7988 66.832 13.6426C66.6094 14.4746 66.498 15.3594 66.498 16.2969ZM88.1543 20.8496L96.9258 6.98047H100.195V26H96.9258V12.1309L88.1543 26H84.9199V6.98047H88.1543V20.8496ZM95.1504 0.0898438H97.7871C97.7871 1.00391 97.5762 1.81836 97.1543 2.5332C96.7324 3.23633 96.1289 3.78711 95.3438 4.18555C94.5586 4.58398 93.627 4.7832 92.5488 4.7832C90.9199 4.7832 89.6309 4.34961 88.6816 3.48242C87.7441 2.60352 87.2754 1.47266 87.2754 0.0898438H89.9121C89.9121 0.78125 90.1113 1.39062 90.5098 1.91797C90.9082 2.44531 91.5879 2.70898 92.5488 2.70898C93.4863 2.70898 94.1543 2.44531 94.5527 1.91797C94.9512 1.39062 95.1504 0.78125 95.1504 0.0898438ZM118.125 6.98047V9.66992H108.932V6.98047H118.125ZM120.99 6.98047V26H117.738V6.98047H120.99ZM108.141 6.98047H111.41L110.918 16.1562C110.836 17.5742 110.701 18.8281 110.514 19.918C110.338 20.9961 110.092 21.9219 109.775 22.6953C109.471 23.4688 109.084 24.1016 108.615 24.5938C108.158 25.0742 107.607 25.4316 106.963 25.666C106.318 25.8887 105.574 26 104.73 26H103.711V23.1348L104.414 23.082C104.918 23.0469 105.346 22.9297 105.697 22.7305C106.061 22.5312 106.365 22.2383 106.611 21.8516C106.857 21.4531 107.057 20.9434 107.209 20.3223C107.373 19.7012 107.496 18.9629 107.578 18.1074C107.672 17.252 107.742 16.2559 107.789 15.1191L108.141 6.98047Z" fill="#ED1A3A"/>
</svg>
