<svg width="140" height="27" viewBox="0 0 140 27" fill="none" xmlns="http://www.w3.org/2000/svg">
<path d="M17.6875 11.4102V14.1699H3.83594V11.4102H17.6875ZM4.36328 0.40625V26H0.970703V0.40625H4.36328ZM20.6406 0.40625V26H17.2656V0.40625H20.6406ZM25.3164 16.7012V16.2969C25.3164 14.9258 25.5156 13.6543 25.9141 12.4824C26.3125 11.2988 26.8867 10.2734 27.6367 9.40625C28.3867 8.52734 29.2949 7.84766 30.3613 7.36719C31.4277 6.875 32.623 6.62891 33.9473 6.62891C35.2832 6.62891 36.4844 6.875 37.5508 7.36719C38.6289 7.84766 39.543 8.52734 40.293 9.40625C41.0547 10.2734 41.6348 11.2988 42.0332 12.4824C42.4316 13.6543 42.6309 14.9258 42.6309 16.2969V16.7012C42.6309 18.0723 42.4316 19.3438 42.0332 20.5156C41.6348 21.6875 41.0547 22.7129 40.293 23.5918C39.543 24.459 38.6348 25.1387 37.5684 25.6309C36.5137 26.1113 35.3184 26.3516 33.9824 26.3516C32.6465 26.3516 31.4453 26.1113 30.3789 25.6309C29.3125 25.1387 28.3984 24.459 27.6367 23.5918C26.8867 22.7129 26.3125 21.6875 25.9141 20.5156C25.5156 19.3438 25.3164 18.0723 25.3164 16.7012ZM28.5684 16.2969V16.7012C28.5684 17.6504 28.6797 18.5469 28.9023 19.3906C29.125 20.2227 29.459 20.9609 29.9043 21.6055C30.3613 22.25 30.9297 22.7598 31.6094 23.1348C32.2891 23.498 33.0801 23.6797 33.9824 23.6797C34.873 23.6797 35.6523 23.498 36.3203 23.1348C37 22.7598 37.5625 22.25 38.0078 21.6055C38.4531 20.9609 38.7871 20.2227 39.0098 19.3906C39.2441 18.5469 39.3613 17.6504 39.3613 16.7012V16.2969C39.3613 15.3594 39.2441 14.4746 39.0098 13.6426C38.7871 12.7988 38.4473 12.0547 37.9902 11.4102C37.5449 10.7539 36.9824 10.2383 36.3027 9.86328C35.6348 9.48828 34.8496 9.30078 33.9473 9.30078C33.0566 9.30078 32.2715 9.48828 31.5918 9.86328C30.9238 10.2383 30.3613 10.7539 29.9043 11.4102C29.459 12.0547 29.125 12.7988 28.9023 13.6426C28.6797 14.4746 28.5684 15.3594 28.5684 16.2969ZM55.6387 17.6328H49.3984L49.3633 15.0312H54.4609C55.4688 15.0312 56.3066 14.9316 56.9746 14.7324C57.6543 14.5332 58.1641 14.2344 58.5039 13.8359C58.8438 13.4375 59.0137 12.9453 59.0137 12.3594C59.0137 11.9023 58.9141 11.5039 58.7148 11.1641C58.5273 10.8125 58.2402 10.5254 57.8535 10.3027C57.4668 10.0684 56.9863 9.89844 56.4121 9.79297C55.8496 9.67578 55.1875 9.61719 54.4258 9.61719H50.2598V26H47.0078V6.98047H54.4258C55.6328 6.98047 56.7168 7.08594 57.6777 7.29688C58.6504 7.50781 59.4766 7.83008 60.1562 8.26367C60.8477 8.68555 61.375 9.22461 61.7383 9.88086C62.1016 10.5371 62.2832 11.3105 62.2832 12.2012C62.2832 12.7754 62.166 13.3203 61.9316 13.8359C61.6973 14.3516 61.3516 14.8086 60.8945 15.207C60.4375 15.6055 59.875 15.9336 59.207 16.1914C58.5391 16.4375 57.7715 16.5957 56.9043 16.666L55.6387 17.6328ZM55.6387 26H48.2207L49.8379 23.3633H55.6387C56.541 23.3633 57.291 23.252 57.8887 23.0293C58.4863 22.7949 58.9316 22.4668 59.2246 22.0449C59.5293 21.6113 59.6816 21.0957 59.6816 20.498C59.6816 19.9004 59.5293 19.3906 59.2246 18.9688C58.9316 18.5352 58.4863 18.207 57.8887 17.9844C57.291 17.75 56.541 17.6328 55.6387 17.6328H50.6992L50.7344 15.0312H56.9043L58.082 16.0156C59.125 16.0977 60.0098 16.3555 60.7363 16.7891C61.4629 17.2227 62.0137 17.7734 62.3887 18.4414C62.7637 19.0977 62.9512 19.8125 62.9512 20.5859C62.9512 21.4766 62.7812 22.2617 62.4414 22.9414C62.1133 23.6211 61.6328 24.1895 61 24.6465C60.3672 25.0918 59.5996 25.4316 58.6973 25.666C57.7949 25.8887 56.7754 26 55.6387 26ZM78.5254 22.748V12.957C78.5254 12.207 78.373 11.5566 78.0684 11.0059C77.7754 10.4434 77.3301 10.0098 76.7324 9.70508C76.1348 9.40039 75.3965 9.24805 74.5176 9.24805C73.6973 9.24805 72.9766 9.38867 72.3555 9.66992C71.7461 9.95117 71.2656 10.3203 70.9141 10.7773C70.5742 11.2344 70.4043 11.7266 70.4043 12.2539H67.1523C67.1523 11.5742 67.3281 10.9004 67.6797 10.2324C68.0312 9.56445 68.5352 8.96094 69.1914 8.42188C69.8594 7.87109 70.6562 7.4375 71.582 7.12109C72.5195 6.79297 73.5625 6.62891 74.7109 6.62891C76.0938 6.62891 77.3125 6.86328 78.3672 7.33203C79.4336 7.80078 80.2656 8.50977 80.8633 9.45898C81.4727 10.3965 81.7773 11.5742 81.7773 12.9922V21.8516C81.7773 22.4844 81.8301 23.1582 81.9355 23.873C82.0527 24.5879 82.2227 25.2031 82.4453 25.7188V26H79.0527C78.8887 25.625 78.7598 25.127 78.666 24.5059C78.5723 23.873 78.5254 23.2871 78.5254 22.748ZM79.0879 14.4688L79.123 16.7539H75.8359C74.9102 16.7539 74.084 16.8301 73.3574 16.9824C72.6309 17.123 72.0215 17.3398 71.5293 17.6328C71.0371 17.9258 70.6621 18.2949 70.4043 18.7402C70.1465 19.1738 70.0176 19.6836 70.0176 20.2695C70.0176 20.8672 70.1523 21.4121 70.4219 21.9043C70.6914 22.3965 71.0957 22.7891 71.6348 23.082C72.1855 23.3633 72.8594 23.5039 73.6562 23.5039C74.6523 23.5039 75.5312 23.293 76.293 22.8711C77.0547 22.4492 77.6582 21.9336 78.1035 21.3242C78.5605 20.7148 78.8066 20.123 78.8418 19.5488L80.2305 21.1133C80.1484 21.6055 79.9258 22.1504 79.5625 22.748C79.1992 23.3457 78.7129 23.9199 78.1035 24.4707C77.5059 25.0098 76.791 25.4609 75.959 25.8242C75.1387 26.1758 74.2129 26.3516 73.1816 26.3516C71.8926 26.3516 70.7617 26.0996 69.7891 25.5957C68.8281 25.0918 68.0781 24.418 67.5391 23.5742C67.0117 22.7188 66.748 21.7637 66.748 20.709C66.748 19.6895 66.9473 18.793 67.3457 18.0195C67.7441 17.2344 68.3184 16.584 69.0684 16.0684C69.8184 15.541 70.7207 15.1426 71.7754 14.873C72.8301 14.6035 74.0078 14.4688 75.3086 14.4688H79.0879ZM94.3633 6.98047V26H91.0938V6.98047H94.3633ZM100.744 6.98047V9.61719H84.8359V6.98047H100.744ZM110.605 9.30078C109.891 9.30078 109.205 9.45898 108.549 9.77539C107.904 10.0918 107.371 10.5312 106.949 11.0938C106.539 11.6445 106.334 12.2832 106.334 13.0098H103.223C103.223 11.873 103.574 10.8242 104.277 9.86328C104.98 8.89062 105.895 8.11133 107.02 7.52539C108.145 6.92773 109.34 6.62891 110.605 6.62891C111.941 6.62891 113.125 6.88086 114.156 7.38477C115.188 7.88867 116.055 8.58008 116.758 9.45898C117.473 10.3379 118.012 11.3516 118.375 12.5C118.738 13.6367 118.92 14.8438 118.92 16.1211V16.8594C118.92 18.1367 118.732 19.3496 118.357 20.498C117.994 21.6348 117.455 22.6484 116.74 23.5391C116.037 24.418 115.17 25.1094 114.139 25.6133C113.119 26.1172 111.947 26.3691 110.623 26.3691C109.205 26.3691 107.934 26.0645 106.809 25.4551C105.695 24.8457 104.816 24.0254 104.172 22.9941C103.539 21.9512 103.223 20.7793 103.223 19.4785H106.334C106.334 20.2637 106.521 20.9785 106.896 21.623C107.283 22.2559 107.799 22.7598 108.443 23.1348C109.088 23.5098 109.814 23.6973 110.623 23.6973C111.502 23.6973 112.258 23.498 112.891 23.0996C113.535 22.7012 114.062 22.1738 114.473 21.5176C114.883 20.8613 115.182 20.1289 115.369 19.3203C115.568 18.5 115.668 17.6797 115.668 16.8594V16.1211C115.668 15.2891 115.568 14.4688 115.369 13.6602C115.182 12.8516 114.883 12.1191 114.473 11.4629C114.074 10.8066 113.553 10.2852 112.908 9.89844C112.275 9.5 111.508 9.30078 110.605 9.30078ZM117.25 14.9785V17.6328H108.479V14.9785H117.25ZM126.848 6.98047V26H123.596V6.98047H126.848ZM139.328 6.98047L130.311 17.8789H125.758L125.266 15.0312H128.992L135.373 6.98047H139.328ZM135.83 26L128.834 17.3867L130.926 15.0312L139.961 26H135.83Z" fill="#00539C"/>
</svg>
