<svg width="160" height="35" viewBox="0 0 160 35" fill="none" xmlns="http://www.w3.org/2000/svg">
<path d="M10.4102 16.9629H3.57227V14.2031H10.4102C11.7344 14.2031 12.8066 13.9922 13.627 13.5703C14.4473 13.1484 15.0449 12.5625 15.4199 11.8125C15.8066 11.0625 16 10.207 16 9.24609C16 8.36719 15.8066 7.54102 15.4199 6.76758C15.0449 5.99414 14.4473 5.37305 13.627 4.9043C12.8066 4.42383 11.7344 4.18359 10.4102 4.18359H4.36328V27H0.970703V1.40625H10.4102C12.3438 1.40625 13.9785 1.74023 15.3145 2.4082C16.6504 3.07617 17.6641 4.00195 18.3555 5.18555C19.0469 6.35742 19.3926 7.69922 19.3926 9.21094C19.3926 10.8516 19.0469 12.252 18.3555 13.4121C17.6641 14.5723 16.6504 15.457 15.3145 16.0664C13.9785 16.6641 12.3438 16.9629 10.4102 16.9629ZM22.082 17.7012V17.2969C22.082 15.9258 22.2812 14.6543 22.6797 13.4824C23.0781 12.2988 23.6523 11.2734 24.4023 10.4062C25.1523 9.52734 26.0605 8.84766 27.127 8.36719C28.1934 7.875 29.3887 7.62891 30.7129 7.62891C32.0488 7.62891 33.25 7.875 34.3164 8.36719C35.3945 8.84766 36.3086 9.52734 37.0586 10.4062C37.8203 11.2734 38.4004 12.2988 38.7988 13.4824C39.1973 14.6543 39.3965 15.9258 39.3965 17.2969V17.7012C39.3965 19.0723 39.1973 20.3438 38.7988 21.5156C38.4004 22.6875 37.8203 23.7129 37.0586 24.5918C36.3086 25.459 35.4004 26.1387 34.334 26.6309C33.2793 27.1113 32.084 27.3516 30.748 27.3516C29.4121 27.3516 28.2109 27.1113 27.1445 26.6309C26.0781 26.1387 25.1641 25.459 24.4023 24.5918C23.6523 23.7129 23.0781 22.6875 22.6797 21.5156C22.2812 20.3438 22.082 19.0723 22.082 17.7012ZM25.334 17.2969V17.7012C25.334 18.6504 25.4453 19.5469 25.668 20.3906C25.8906 21.2227 26.2246 21.9609 26.6699 22.6055C27.127 23.25 27.6953 23.7598 28.375 24.1348C29.0547 24.498 29.8457 24.6797 30.748 24.6797C31.6387 24.6797 32.418 24.498 33.0859 24.1348C33.7656 23.7598 34.3281 23.25 34.7734 22.6055C35.2188 21.9609 35.5527 21.2227 35.7754 20.3906C36.0098 19.5469 36.127 18.6504 36.127 17.7012V17.2969C36.127 16.3594 36.0098 15.4746 35.7754 14.6426C35.5527 13.7988 35.2129 13.0547 34.7559 12.4102C34.3105 11.7539 33.748 11.2383 33.0684 10.8633C32.4004 10.4883 31.6152 10.3008 30.7129 10.3008C29.8223 10.3008 29.0371 10.4883 28.3574 10.8633C27.6895 11.2383 27.127 11.7539 26.6699 12.4102C26.2246 13.0547 25.8906 13.7988 25.668 14.6426C25.4453 15.4746 25.334 16.3594 25.334 17.2969ZM51.0859 24.6797C51.8594 24.6797 52.5742 24.5215 53.2305 24.2051C53.8867 23.8887 54.4258 23.4551 54.8477 22.9043C55.2695 22.3418 55.5098 21.7031 55.5684 20.9883H58.6621C58.6035 22.1133 58.2227 23.1621 57.5195 24.1348C56.8281 25.0957 55.9199 25.875 54.7949 26.4727C53.6699 27.0586 52.4336 27.3516 51.0859 27.3516C49.6562 27.3516 48.4082 27.0996 47.3418 26.5957C46.2871 26.0918 45.4082 25.4004 44.7051 24.5215C44.0137 23.6426 43.4922 22.6348 43.1406 21.498C42.8008 20.3496 42.6309 19.1367 42.6309 17.8594V17.1211C42.6309 15.8438 42.8008 14.6367 43.1406 13.5C43.4922 12.3516 44.0137 11.3379 44.7051 10.459C45.4082 9.58008 46.2871 8.88867 47.3418 8.38477C48.4082 7.88086 49.6562 7.62891 51.0859 7.62891C52.5742 7.62891 53.875 7.93359 54.9883 8.54297C56.1016 9.14062 56.9746 9.96094 57.6074 11.0039C58.252 12.0352 58.6035 13.207 58.6621 14.5195H55.5684C55.5098 13.7344 55.2871 13.0254 54.9004 12.3926C54.5254 11.7598 54.0098 11.2559 53.3535 10.8809C52.709 10.4941 51.9531 10.3008 51.0859 10.3008C50.0898 10.3008 49.252 10.5 48.5723 10.8984C47.9043 11.2852 47.3711 11.8125 46.9727 12.4805C46.5859 13.1367 46.3047 13.8691 46.1289 14.6777C45.9648 15.4746 45.8828 16.2891 45.8828 17.1211V17.8594C45.8828 18.6914 45.9648 19.5117 46.1289 20.3203C46.293 21.1289 46.5684 21.8613 46.9551 22.5176C47.3535 23.1738 47.8867 23.7012 48.5547 24.0996C49.2344 24.4863 50.0781 24.6797 51.0859 24.6797ZM75.2207 16.2246V18.8613H65.166V16.2246H75.2207ZM65.8516 7.98047V27H62.5996V7.98047H65.8516ZM77.8574 7.98047V27H74.5879V7.98047H77.8574ZM90.9883 27.3516C89.6641 27.3516 88.4629 27.1289 87.3848 26.6836C86.3184 26.2266 85.3984 25.5879 84.625 24.7676C83.8633 23.9473 83.2773 22.9746 82.8672 21.8496C82.457 20.7246 82.252 19.4941 82.252 18.1582V17.4199C82.252 15.873 82.4805 14.4961 82.9375 13.2891C83.3945 12.0703 84.0156 11.0391 84.8008 10.1953C85.5859 9.35156 86.4766 8.71289 87.4727 8.2793C88.4688 7.8457 89.5 7.62891 90.5664 7.62891C91.9258 7.62891 93.0977 7.86328 94.082 8.33203C95.0781 8.80078 95.8926 9.45703 96.5254 10.3008C97.1582 11.1328 97.627 12.1172 97.9316 13.2539C98.2363 14.3789 98.3887 15.6094 98.3887 16.9453V18.4043H84.1855V15.75H95.1367V15.5039C95.0898 14.6602 94.9141 13.8398 94.6094 13.043C94.3164 12.2461 93.8477 11.5898 93.2031 11.0742C92.5586 10.5586 91.6797 10.3008 90.5664 10.3008C89.8281 10.3008 89.1484 10.459 88.5273 10.7754C87.9062 11.0801 87.373 11.5371 86.9277 12.1465C86.4824 12.7559 86.1367 13.5 85.8906 14.3789C85.6445 15.2578 85.5215 16.2715 85.5215 17.4199V18.1582C85.5215 19.0605 85.6445 19.9102 85.8906 20.707C86.1484 21.4922 86.5176 22.1836 86.998 22.7812C87.4902 23.3789 88.082 23.8477 88.7734 24.1875C89.4766 24.5273 90.2734 24.6973 91.1641 24.6973C92.3125 24.6973 93.2852 24.4629 94.082 23.9941C94.8789 23.5254 95.5762 22.8984 96.1738 22.1133L98.1426 23.6777C97.7324 24.2988 97.2109 24.8906 96.5781 25.4531C95.9453 26.0156 95.166 26.4727 94.2402 26.8242C93.3262 27.1758 92.2422 27.3516 90.9883 27.3516ZM124.053 17.8242V18.1934C124.053 19.5293 123.906 20.7598 123.613 21.8848C123.32 22.998 122.881 23.9648 122.295 24.7852C121.721 25.6055 121.006 26.2441 120.15 26.7012C119.295 27.1465 118.305 27.3691 117.18 27.3691C116.254 27.3691 115.439 27.2461 114.736 27C114.033 26.7422 113.436 26.373 112.943 25.8926C112.463 25.4121 112.076 24.8379 111.783 24.1699C111.502 23.4902 111.309 22.7285 111.203 21.8848V13.4473C111.309 12.5449 111.502 11.7363 111.783 11.0215C112.076 10.3066 112.463 9.69727 112.943 9.19336C113.436 8.68945 114.027 8.30273 114.719 8.0332C115.41 7.76367 116.219 7.62891 117.145 7.62891C118.059 7.62891 118.879 7.79297 119.605 8.12109C120.344 8.4375 120.988 8.89453 121.539 9.49219C122.102 10.0898 122.564 10.8105 122.928 11.6543C123.303 12.4863 123.584 13.4238 123.771 14.4668C123.959 15.5098 124.053 16.6289 124.053 17.8242ZM120.801 18.1934V17.8242C120.801 17.0039 120.742 16.2246 120.625 15.4863C120.52 14.7363 120.35 14.0508 120.115 13.4297C119.893 12.7969 119.6 12.2461 119.236 11.7773C118.873 11.3086 118.434 10.9453 117.918 10.6875C117.414 10.4297 116.834 10.3008 116.178 10.3008C115.475 10.3008 114.889 10.3887 114.42 10.5645C113.963 10.7402 113.605 10.9746 113.348 11.2676C113.09 11.5488 112.902 11.8477 112.785 12.1641V23.1855C112.926 23.4434 113.131 23.6895 113.4 23.9238C113.67 24.1465 114.033 24.334 114.49 24.4863C114.947 24.627 115.521 24.6973 116.213 24.6973C117.033 24.6973 117.73 24.5332 118.305 24.2051C118.891 23.8652 119.365 23.3965 119.729 22.7988C120.104 22.2012 120.373 21.5098 120.537 20.7246C120.713 19.9395 120.801 19.0957 120.801 18.1934ZM101.465 18.1934V17.8242C101.465 16.6289 101.559 15.5098 101.746 14.4668C101.934 13.4238 102.215 12.4863 102.59 11.6543C102.965 10.8105 103.428 10.0898 103.979 9.49219C104.541 8.89453 105.186 8.4375 105.912 8.12109C106.65 7.79297 107.477 7.62891 108.391 7.62891C109.293 7.62891 110.078 7.76367 110.746 8.0332C111.426 8.30273 112 8.68945 112.469 9.19336C112.938 9.69727 113.312 10.3066 113.594 11.0215C113.875 11.7363 114.074 12.5449 114.191 13.4473V21.5508C114.086 22.4414 113.893 23.2441 113.611 23.959C113.33 24.6738 112.955 25.2891 112.486 25.8047C112.018 26.3086 111.438 26.6953 110.746 26.9648C110.066 27.2344 109.27 27.3691 108.355 27.3691C107.23 27.3691 106.24 27.1465 105.385 26.7012C104.529 26.2441 103.809 25.6055 103.223 24.7852C102.648 23.9648 102.209 22.998 101.904 21.8848C101.611 20.7598 101.465 19.5293 101.465 18.1934ZM104.734 17.8242V18.1934C104.734 19.0957 104.811 19.9395 104.963 20.7246C105.127 21.5098 105.379 22.2012 105.719 22.7988C106.07 23.3965 106.527 23.8652 107.09 24.2051C107.652 24.5332 108.344 24.6973 109.164 24.6973C109.867 24.6973 110.447 24.6094 110.904 24.4336C111.361 24.2578 111.725 24.0293 111.994 23.748C112.264 23.4668 112.469 23.1738 112.609 22.8691V12.1641C112.492 11.8477 112.299 11.5488 112.029 11.2676C111.771 10.9746 111.414 10.7402 110.957 10.5645C110.5 10.3887 109.914 10.3008 109.199 10.3008C108.379 10.3008 107.682 10.5 107.107 10.8984C106.533 11.2969 106.07 11.8418 105.719 12.5332C105.379 13.2246 105.127 14.0273 104.963 14.9414C104.811 15.8438 104.734 16.8047 104.734 17.8242ZM110.992 34.3125V0H114.262V34.3125H110.992ZM134.652 7.98047V27H131.383V7.98047H134.652ZM141.033 7.98047V10.6172H125.125V7.98047H141.033ZM146.904 14.5195H152.617C154.152 14.5195 155.447 14.7891 156.502 15.3281C157.557 15.8555 158.354 16.5879 158.893 17.5254C159.443 18.4512 159.719 19.5059 159.719 20.6895C159.719 21.5684 159.566 22.3945 159.262 23.168C158.957 23.9297 158.5 24.5977 157.891 25.1719C157.293 25.7461 156.549 26.1973 155.658 26.5254C154.779 26.8418 153.766 27 152.617 27H144.531V7.98047H147.783V24.3281H152.617C153.555 24.3281 154.305 24.1582 154.867 23.8184C155.43 23.4785 155.834 23.0391 156.08 22.5C156.326 21.9609 156.449 21.3984 156.449 20.8125C156.449 20.2383 156.326 19.6758 156.08 19.125C155.834 18.5742 155.43 18.1172 154.867 17.7539C154.305 17.3789 153.555 17.1914 152.617 17.1914H146.904V14.5195Z" fill="black"/>
</svg>
