<svg width="217" height="76" viewBox="0 0 217 76" fill="none" xmlns="http://www.w3.org/2000/svg">
<path d="M17.1719 17.8613H20.5469C20.3711 19.4785 19.9082 20.9258 19.1582 22.2031C18.4082 23.4805 17.3477 24.4941 15.9766 25.2441C14.6055 25.9824 12.8945 26.3516 10.8438 26.3516C9.34375 26.3516 7.97852 26.0703 6.74805 25.5078C5.5293 24.9453 4.48047 24.1484 3.60156 23.1172C2.72266 22.0742 2.04297 20.8262 1.5625 19.373C1.09375 17.9082 0.859375 16.2793 0.859375 14.4863V11.9375C0.859375 10.1445 1.09375 8.52148 1.5625 7.06836C2.04297 5.60352 2.72852 4.34961 3.61914 3.30664C4.52148 2.26367 5.60547 1.46094 6.87109 0.898438C8.13672 0.335938 9.56055 0.0546875 11.1426 0.0546875C13.0762 0.0546875 14.7109 0.417969 16.0469 1.14453C17.3828 1.87109 18.4199 2.87891 19.1582 4.16797C19.9082 5.44531 20.3711 6.92773 20.5469 8.61523H17.1719C17.0078 7.41992 16.7031 6.39453 16.2578 5.53906C15.8125 4.67188 15.1797 4.00391 14.3594 3.53516C13.5391 3.06641 12.4668 2.83203 11.1426 2.83203C10.0059 2.83203 9.00391 3.04883 8.13672 3.48242C7.28125 3.91602 6.56055 4.53125 5.97461 5.32812C5.40039 6.125 4.9668 7.08008 4.67383 8.19336C4.38086 9.30664 4.23438 10.543 4.23438 11.9023V14.4863C4.23438 15.7402 4.36328 16.918 4.62109 18.0195C4.89062 19.1211 5.29492 20.0879 5.83398 20.9199C6.37305 21.752 7.05859 22.4082 7.89062 22.8887C8.72266 23.3574 9.70703 23.5918 10.8438 23.5918C12.2852 23.5918 13.4336 23.3633 14.2891 22.9062C15.1445 22.4492 15.7891 21.793 16.2227 20.9375C16.668 20.082 16.9844 19.0566 17.1719 17.8613ZM35.8926 22.748V12.957C35.8926 12.207 35.7402 11.5566 35.4355 11.0059C35.1426 10.4434 34.6973 10.0098 34.0996 9.70508C33.502 9.40039 32.7637 9.24805 31.8848 9.24805C31.0645 9.24805 30.3438 9.38867 29.7227 9.66992C29.1133 9.95117 28.6328 10.3203 28.2812 10.7773C27.9414 11.2344 27.7715 11.7266 27.7715 12.2539H24.5195C24.5195 11.5742 24.6953 10.9004 25.0469 10.2324C25.3984 9.56445 25.9023 8.96094 26.5586 8.42188C27.2266 7.87109 28.0234 7.4375 28.9492 7.12109C29.8867 6.79297 30.9297 6.62891 32.0781 6.62891C33.4609 6.62891 34.6797 6.86328 35.7344 7.33203C36.8008 7.80078 37.6328 8.50977 38.2305 9.45898C38.8398 10.3965 39.1445 11.5742 39.1445 12.9922V21.8516C39.1445 22.4844 39.1973 23.1582 39.3027 23.873C39.4199 24.5879 39.5898 25.2031 39.8125 25.7188V26H36.4199C36.2559 25.625 36.127 25.127 36.0332 24.5059C35.9395 23.873 35.8926 23.2871 35.8926 22.748ZM36.4551 14.4688L36.4902 16.7539H33.2031C32.2773 16.7539 31.4512 16.8301 30.7246 16.9824C29.998 17.123 29.3887 17.3398 28.8965 17.6328C28.4043 17.9258 28.0293 18.2949 27.7715 18.7402C27.5137 19.1738 27.3848 19.6836 27.3848 20.2695C27.3848 20.8672 27.5195 21.4121 27.7891 21.9043C28.0586 22.3965 28.4629 22.7891 29.002 23.082C29.5527 23.3633 30.2266 23.5039 31.0234 23.5039C32.0195 23.5039 32.8984 23.293 33.6602 22.8711C34.4219 22.4492 35.0254 21.9336 35.4707 21.3242C35.9277 20.7148 36.1738 20.123 36.209 19.5488L37.5977 21.1133C37.5156 21.6055 37.293 22.1504 36.9297 22.748C36.5664 23.3457 36.0801 23.9199 35.4707 24.4707C34.873 25.0098 34.1582 25.4609 33.3262 25.8242C32.5059 26.1758 31.5801 26.3516 30.5488 26.3516C29.2598 26.3516 28.1289 26.0996 27.1562 25.5957C26.1953 25.0918 25.4453 24.418 24.9062 23.5742C24.3789 22.7188 24.1152 21.7637 24.1152 20.709C24.1152 19.6895 24.3145 18.793 24.7129 18.0195C25.1113 17.2344 25.6855 16.584 26.4355 16.0684C27.1855 15.541 28.0879 15.1426 29.1426 14.873C30.1973 14.6035 31.375 14.4688 32.6758 14.4688H36.4551ZM46.457 6.98047L50.623 13.9062L54.8418 6.98047H58.6562L52.4336 16.3672L58.8496 26H55.0879L50.6934 18.8633L46.2988 26H42.5195L48.918 16.3672L42.7129 6.98047H46.457ZM73.334 22.748V12.957C73.334 12.207 73.1816 11.5566 72.877 11.0059C72.584 10.4434 72.1387 10.0098 71.541 9.70508C70.9434 9.40039 70.2051 9.24805 69.3262 9.24805C68.5059 9.24805 67.7852 9.38867 67.1641 9.66992C66.5547 9.95117 66.0742 10.3203 65.7227 10.7773C65.3828 11.2344 65.2129 11.7266 65.2129 12.2539H61.9609C61.9609 11.5742 62.1367 10.9004 62.4883 10.2324C62.8398 9.56445 63.3438 8.96094 64 8.42188C64.668 7.87109 65.4648 7.4375 66.3906 7.12109C67.3281 6.79297 68.3711 6.62891 69.5195 6.62891C70.9023 6.62891 72.1211 6.86328 73.1758 7.33203C74.2422 7.80078 75.0742 8.50977 75.6719 9.45898C76.2812 10.3965 76.5859 11.5742 76.5859 12.9922V21.8516C76.5859 22.4844 76.6387 23.1582 76.7441 23.873C76.8613 24.5879 77.0312 25.2031 77.2539 25.7188V26H73.8613C73.6973 25.625 73.5684 25.127 73.4746 24.5059C73.3809 23.873 73.334 23.2871 73.334 22.748ZM73.8965 14.4688L73.9316 16.7539H70.6445C69.7188 16.7539 68.8926 16.8301 68.166 16.9824C67.4395 17.123 66.8301 17.3398 66.3379 17.6328C65.8457 17.9258 65.4707 18.2949 65.2129 18.7402C64.9551 19.1738 64.8262 19.6836 64.8262 20.2695C64.8262 20.8672 64.9609 21.4121 65.2305 21.9043C65.5 22.3965 65.9043 22.7891 66.4434 23.082C66.9941 23.3633 67.668 23.5039 68.4648 23.5039C69.4609 23.5039 70.3398 23.293 71.1016 22.8711C71.8633 22.4492 72.4668 21.9336 72.9121 21.3242C73.3691 20.7148 73.6152 20.123 73.6504 19.5488L75.0391 21.1133C74.957 21.6055 74.7344 22.1504 74.3711 22.748C74.0078 23.3457 73.5215 23.9199 72.9121 24.4707C72.3145 25.0098 71.5996 25.4609 70.7676 25.8242C69.9473 26.1758 69.0215 26.3516 67.9902 26.3516C66.7012 26.3516 65.5703 26.0996 64.5977 25.5957C63.6367 25.0918 62.8867 24.418 62.3477 23.5742C61.8203 22.7188 61.5566 21.7637 61.5566 20.709C61.5566 19.6895 61.7559 18.793 62.1543 18.0195C62.5527 17.2344 63.127 16.584 63.877 16.0684C64.627 15.541 65.5293 15.1426 66.584 14.873C67.6387 14.6035 68.8164 14.4688 70.1172 14.4688H73.8965ZM94.4102 6.98047V9.66992H85.2168V6.98047H94.4102ZM97.2754 6.98047V26H94.0234V6.98047H97.2754ZM84.4258 6.98047H87.6953L87.2031 16.1562C87.1211 17.5742 86.9863 18.8281 86.7988 19.918C86.623 20.9961 86.377 21.9219 86.0605 22.6953C85.7559 23.4688 85.3691 24.1016 84.9004 24.5938C84.4434 25.0742 83.8926 25.4316 83.248 25.666C82.6035 25.8887 81.8594 26 81.0156 26H79.9961V23.1348L80.6992 23.082C81.2031 23.0469 81.6309 22.9297 81.9824 22.7305C82.3457 22.5312 82.6504 22.2383 82.8965 21.8516C83.1426 21.4531 83.3418 20.9434 83.4941 20.3223C83.6582 19.7012 83.7812 18.9629 83.8633 18.1074C83.957 17.252 84.0273 16.2559 84.0742 15.1191L84.4258 6.98047ZM106.029 20.8496L114.801 6.98047H118.07V26H114.801V12.1309L106.029 26H102.795V6.98047H106.029V20.8496ZM136.193 15.2246V17.8613H126.139V15.2246H136.193ZM126.824 6.98047V26H123.572V6.98047H126.824ZM138.83 6.98047V26H135.561V6.98047H138.83ZM151.68 23.6797C152.453 23.6797 153.168 23.5215 153.824 23.2051C154.48 22.8887 155.02 22.4551 155.441 21.9043C155.863 21.3418 156.104 20.7031 156.162 19.9883H159.256C159.197 21.1133 158.816 22.1621 158.113 23.1348C157.422 24.0957 156.514 24.875 155.389 25.4727C154.264 26.0586 153.027 26.3516 151.68 26.3516C150.25 26.3516 149.002 26.0996 147.936 25.5957C146.881 25.0918 146.002 24.4004 145.299 23.5215C144.607 22.6426 144.086 21.6348 143.734 20.498C143.395 19.3496 143.225 18.1367 143.225 16.8594V16.1211C143.225 14.8438 143.395 13.6367 143.734 12.5C144.086 11.3516 144.607 10.3379 145.299 9.45898C146.002 8.58008 146.881 7.88867 147.936 7.38477C149.002 6.88086 150.25 6.62891 151.68 6.62891C153.168 6.62891 154.469 6.93359 155.582 7.54297C156.695 8.14062 157.568 8.96094 158.201 10.0039C158.846 11.0352 159.197 12.207 159.256 13.5195H156.162C156.104 12.7344 155.881 12.0254 155.494 11.3926C155.119 10.7598 154.604 10.2559 153.947 9.88086C153.303 9.49414 152.547 9.30078 151.68 9.30078C150.684 9.30078 149.846 9.5 149.166 9.89844C148.498 10.2852 147.965 10.8125 147.566 11.4805C147.18 12.1367 146.898 12.8691 146.723 13.6777C146.559 14.4746 146.477 15.2891 146.477 16.1211V16.8594C146.477 17.6914 146.559 18.5117 146.723 19.3203C146.887 20.1289 147.162 20.8613 147.549 21.5176C147.947 22.1738 148.48 22.7012 149.148 23.0996C149.828 23.4863 150.672 23.6797 151.68 23.6797ZM166.445 6.98047V26H163.193V6.98047H166.445ZM178.926 6.98047L169.908 17.8789H165.355L164.863 15.0312H168.59L174.971 6.98047H178.926ZM175.428 26L168.432 17.3867L170.523 15.0312L179.559 26H175.428ZM193.604 22.748V12.957C193.604 12.207 193.451 11.5566 193.146 11.0059C192.854 10.4434 192.408 10.0098 191.811 9.70508C191.213 9.40039 190.475 9.24805 189.596 9.24805C188.775 9.24805 188.055 9.38867 187.434 9.66992C186.824 9.95117 186.344 10.3203 185.992 10.7773C185.652 11.2344 185.482 11.7266 185.482 12.2539H182.23C182.23 11.5742 182.406 10.9004 182.758 10.2324C183.109 9.56445 183.613 8.96094 184.27 8.42188C184.938 7.87109 185.734 7.4375 186.66 7.12109C187.598 6.79297 188.641 6.62891 189.789 6.62891C191.172 6.62891 192.391 6.86328 193.445 7.33203C194.512 7.80078 195.344 8.50977 195.941 9.45898C196.551 10.3965 196.855 11.5742 196.855 12.9922V21.8516C196.855 22.4844 196.908 23.1582 197.014 23.873C197.131 24.5879 197.301 25.2031 197.523 25.7188V26H194.131C193.967 25.625 193.838 25.127 193.744 24.5059C193.65 23.873 193.604 23.2871 193.604 22.748ZM194.166 14.4688L194.201 16.7539H190.914C189.988 16.7539 189.162 16.8301 188.436 16.9824C187.709 17.123 187.1 17.3398 186.607 17.6328C186.115 17.9258 185.74 18.2949 185.482 18.7402C185.225 19.1738 185.096 19.6836 185.096 20.2695C185.096 20.8672 185.23 21.4121 185.5 21.9043C185.77 22.3965 186.174 22.7891 186.713 23.082C187.264 23.3633 187.938 23.5039 188.734 23.5039C189.73 23.5039 190.609 23.293 191.371 22.8711C192.133 22.4492 192.736 21.9336 193.182 21.3242C193.639 20.7148 193.885 20.123 193.92 19.5488L195.309 21.1133C195.227 21.6055 195.004 22.1504 194.641 22.748C194.277 23.3457 193.791 23.9199 193.182 24.4707C192.584 25.0098 191.869 25.4609 191.037 25.8242C190.217 26.1758 189.291 26.3516 188.26 26.3516C186.971 26.3516 185.84 26.0996 184.867 25.5957C183.906 25.0918 183.156 24.418 182.617 23.5742C182.09 22.7188 181.826 21.7637 181.826 20.709C181.826 19.6895 182.025 18.793 182.424 18.0195C182.822 17.2344 183.396 16.584 184.146 16.0684C184.896 15.541 185.799 15.1426 186.854 14.873C187.908 14.6035 189.086 14.4688 190.387 14.4688H194.166ZM205.82 16.9297H209.336L203.834 26H200.318L205.82 16.9297ZM208.545 6.98047H216.49V26H213.238V9.61719H208.545C207.619 9.61719 206.863 9.77539 206.277 10.0918C205.691 10.3965 205.264 10.7949 204.994 11.2871C204.725 11.7793 204.59 12.2891 204.59 12.8164C204.59 13.332 204.713 13.8301 204.959 14.3105C205.205 14.7793 205.592 15.166 206.119 15.4707C206.646 15.7754 207.326 15.9277 208.158 15.9277H214.117V18.5996H208.158C207.068 18.5996 206.102 18.4531 205.258 18.1602C204.414 17.8672 203.699 17.4629 203.113 16.9473C202.527 16.4199 202.082 15.8047 201.777 15.1016C201.473 14.3867 201.32 13.6133 201.32 12.7812C201.32 11.9492 201.479 11.1816 201.795 10.4785C202.123 9.77539 202.592 9.16016 203.201 8.63281C203.822 8.10547 204.578 7.70117 205.469 7.41992C206.371 7.12695 207.396 6.98047 208.545 6.98047ZM50.5879 51.3008C49.873 51.3008 49.1875 51.459 48.5312 51.7754C47.8867 52.0918 47.3535 52.5312 46.9316 53.0938C46.5215 53.6445 46.3164 54.2832 46.3164 55.0098H43.2051C43.2051 53.873 43.5566 52.8242 44.2598 51.8633C44.9629 50.8906 45.877 50.1113 47.002 49.5254C48.127 48.9277 49.3223 48.6289 50.5879 48.6289C51.9238 48.6289 53.1074 48.8809 54.1387 49.3848C55.1699 49.8887 56.0371 50.5801 56.7402 51.459C57.4551 52.3379 57.9941 53.3516 58.3574 54.5C58.7207 55.6367 58.9023 56.8438 58.9023 58.1211V58.8594C58.9023 60.1367 58.7148 61.3496 58.3398 62.498C57.9766 63.6348 57.4375 64.6484 56.7227 65.5391C56.0195 66.418 55.1523 67.1094 54.1211 67.6133C53.1016 68.1172 51.9297 68.3691 50.6055 68.3691C49.1875 68.3691 47.916 68.0645 46.791 67.4551C45.6777 66.8457 44.7988 66.0254 44.1543 64.9941C43.5215 63.9512 43.2051 62.7793 43.2051 61.4785H46.3164C46.3164 62.2637 46.5039 62.9785 46.8789 63.623C47.2656 64.2559 47.7812 64.7598 48.4258 65.1348C49.0703 65.5098 49.7969 65.6973 50.6055 65.6973C51.4844 65.6973 52.2402 65.498 52.873 65.0996C53.5176 64.7012 54.0449 64.1738 54.4551 63.5176C54.8652 62.8613 55.1641 62.1289 55.3516 61.3203C55.5508 60.5 55.6504 59.6797 55.6504 58.8594V58.1211C55.6504 57.2891 55.5508 56.4688 55.3516 55.6602C55.1641 54.8516 54.8652 54.1191 54.4551 53.4629C54.0566 52.8066 53.5352 52.2852 52.8906 51.8984C52.2578 51.5 51.4902 51.3008 50.5879 51.3008ZM57.2324 56.9785V59.6328H48.4609V56.9785H57.2324ZM76.1992 57.2246V59.8613H66.1445V57.2246H76.1992ZM66.8301 48.9805V68H63.5781V48.9805H66.8301ZM78.8359 48.9805V68H75.5664V48.9805H78.8359ZM91.9668 68.3516C90.6426 68.3516 89.4414 68.1289 88.3633 67.6836C87.2969 67.2266 86.377 66.5879 85.6035 65.7676C84.8418 64.9473 84.2559 63.9746 83.8457 62.8496C83.4355 61.7246 83.2305 60.4941 83.2305 59.1582V58.4199C83.2305 56.873 83.459 55.4961 83.916 54.2891C84.373 53.0703 84.9941 52.0391 85.7793 51.1953C86.5645 50.3516 87.4551 49.7129 88.4512 49.2793C89.4473 48.8457 90.4785 48.6289 91.5449 48.6289C92.9043 48.6289 94.0762 48.8633 95.0605 49.332C96.0566 49.8008 96.8711 50.457 97.5039 51.3008C98.1367 52.1328 98.6055 53.1172 98.9102 54.2539C99.2148 55.3789 99.3672 56.6094 99.3672 57.9453V59.4043H85.1641V56.75H96.1152V56.5039C96.0684 55.6602 95.8926 54.8398 95.5879 54.043C95.2949 53.2461 94.8262 52.5898 94.1816 52.0742C93.5371 51.5586 92.6582 51.3008 91.5449 51.3008C90.8066 51.3008 90.127 51.459 89.5059 51.7754C88.8848 52.0801 88.3516 52.5371 87.9062 53.1465C87.4609 53.7559 87.1152 54.5 86.8691 55.3789C86.623 56.2578 86.5 57.2715 86.5 58.4199V59.1582C86.5 60.0605 86.623 60.9102 86.8691 61.707C87.127 62.4922 87.4961 63.1836 87.9766 63.7812C88.4688 64.3789 89.0605 64.8477 89.752 65.1875C90.4551 65.5273 91.252 65.6973 92.1426 65.6973C93.291 65.6973 94.2637 65.4629 95.0605 64.9941C95.8574 64.5254 96.5547 63.8984 97.1523 63.1133L99.1211 64.6777C98.7109 65.2988 98.1895 65.8906 97.5566 66.4531C96.9238 67.0156 96.1445 67.4727 95.2188 67.8242C94.3047 68.1758 93.2207 68.3516 91.9668 68.3516ZM106.416 52.6367V75.3125H103.146V48.9805H106.135L106.416 52.6367ZM119.23 58.332V58.7012C119.23 60.084 119.066 61.3672 118.738 62.5508C118.41 63.7227 117.93 64.7422 117.297 65.6094C116.676 66.4766 115.908 67.1504 114.994 67.6309C114.08 68.1113 113.031 68.3516 111.848 68.3516C110.641 68.3516 109.574 68.1523 108.648 67.7539C107.723 67.3555 106.938 66.7754 106.293 66.0137C105.648 65.252 105.133 64.3379 104.746 63.2715C104.371 62.2051 104.113 61.0039 103.973 59.668V57.6992C104.113 56.293 104.377 55.0332 104.764 53.9199C105.15 52.8066 105.66 51.8574 106.293 51.0723C106.938 50.2754 107.717 49.6719 108.631 49.2617C109.545 48.8398 110.6 48.6289 111.795 48.6289C112.99 48.6289 114.051 48.8633 114.977 49.332C115.902 49.7891 116.682 50.4453 117.314 51.3008C117.947 52.1562 118.422 53.1816 118.738 54.377C119.066 55.5605 119.23 56.8789 119.23 58.332ZM115.961 58.7012V58.332C115.961 57.3828 115.861 56.4922 115.662 55.6602C115.463 54.8164 115.152 54.0781 114.73 53.4453C114.32 52.8008 113.793 52.2969 113.148 51.9336C112.504 51.5586 111.736 51.3711 110.846 51.3711C110.025 51.3711 109.311 51.5117 108.701 51.793C108.104 52.0742 107.594 52.4551 107.172 52.9355C106.75 53.4043 106.404 53.9434 106.135 54.5527C105.877 55.1504 105.684 55.7715 105.555 56.416V60.9688C105.789 61.7891 106.117 62.5625 106.539 63.2891C106.961 64.0039 107.523 64.584 108.227 65.0293C108.93 65.4629 109.814 65.6797 110.881 65.6797C111.76 65.6797 112.516 65.498 113.148 65.1348C113.793 64.7598 114.32 64.25 114.73 63.6055C115.152 62.9609 115.463 62.2227 115.662 61.3906C115.861 60.5469 115.961 59.6504 115.961 58.7012ZM135.666 48.9805V51.6699H126.877V68H123.625V48.9805H135.666ZM142.012 62.8496L150.783 48.9805H154.053V68H150.783V54.1309L142.012 68H138.777V48.9805H142.012V62.8496ZM163.123 58.9297H166.639L161.137 68H157.621L163.123 58.9297ZM165.848 48.9805H173.793V68H170.541V51.6172H165.848C164.922 51.6172 164.166 51.7754 163.58 52.0918C162.994 52.3965 162.566 52.7949 162.297 53.2871C162.027 53.7793 161.893 54.2891 161.893 54.8164C161.893 55.332 162.016 55.8301 162.262 56.3105C162.508 56.7793 162.895 57.166 163.422 57.4707C163.949 57.7754 164.629 57.9277 165.461 57.9277H171.42V60.5996H165.461C164.371 60.5996 163.404 60.4531 162.561 60.1602C161.717 59.8672 161.002 59.4629 160.416 58.9473C159.83 58.4199 159.385 57.8047 159.08 57.1016C158.775 56.3867 158.623 55.6133 158.623 54.7812C158.623 53.9492 158.781 53.1816 159.098 52.4785C159.426 51.7754 159.895 51.1602 160.504 50.6328C161.125 50.1055 161.881 49.7012 162.771 49.4199C163.674 49.127 164.699 48.9805 165.848 48.9805Z" fill="#101840"/>
</svg>
