<svg width="182" height="27" viewBox="0 0 182 27" fill="none" xmlns="http://www.w3.org/2000/svg">
<path d="M16.4219 17.8613H19.7969C19.6211 19.4785 19.1582 20.9258 18.4082 22.2031C17.6582 23.4805 16.5977 24.4941 15.2266 25.2441C13.8555 25.9824 12.1445 26.3516 10.0938 26.3516C8.59375 26.3516 7.22852 26.0703 5.99805 25.5078C4.7793 24.9453 3.73047 24.1484 2.85156 23.1172C1.97266 22.0742 1.29297 20.8262 0.8125 19.373C0.34375 17.9082 0.109375 16.2793 0.109375 14.4863V11.9375C0.109375 10.1445 0.34375 8.52148 0.8125 7.06836C1.29297 5.60352 1.97852 4.34961 2.86914 3.30664C3.77148 2.26367 4.85547 1.46094 6.12109 0.898438C7.38672 0.335938 8.81055 0.0546875 10.3926 0.0546875C12.3262 0.0546875 13.9609 0.417969 15.2969 1.14453C16.6328 1.87109 17.6699 2.87891 18.4082 4.16797C19.1582 5.44531 19.6211 6.92773 19.7969 8.61523H16.4219C16.2578 7.41992 15.9531 6.39453 15.5078 5.53906C15.0625 4.67188 14.4297 4.00391 13.6094 3.53516C12.7891 3.06641 11.7168 2.83203 10.3926 2.83203C9.25586 2.83203 8.25391 3.04883 7.38672 3.48242C6.53125 3.91602 5.81055 4.53125 5.22461 5.32812C4.65039 6.125 4.2168 7.08008 3.92383 8.19336C3.63086 9.30664 3.48438 10.543 3.48438 11.9023V14.4863C3.48438 15.7402 3.61328 16.918 3.87109 18.0195C4.14062 19.1211 4.54492 20.0879 5.08398 20.9199C5.62305 21.752 6.30859 22.4082 7.14062 22.8887C7.97266 23.3574 8.95703 23.5918 10.0938 23.5918C11.5352 23.5918 12.6836 23.3633 13.5391 22.9062C14.3945 22.4492 15.0391 21.793 15.4727 20.9375C15.918 20.082 16.2344 19.0566 16.4219 17.8613ZM35.1426 22.748V12.957C35.1426 12.207 34.9902 11.5566 34.6855 11.0059C34.3926 10.4434 33.9473 10.0098 33.3496 9.70508C32.752 9.40039 32.0137 9.24805 31.1348 9.24805C30.3145 9.24805 29.5938 9.38867 28.9727 9.66992C28.3633 9.95117 27.8828 10.3203 27.5312 10.7773C27.1914 11.2344 27.0215 11.7266 27.0215 12.2539H23.7695C23.7695 11.5742 23.9453 10.9004 24.2969 10.2324C24.6484 9.56445 25.1523 8.96094 25.8086 8.42188C26.4766 7.87109 27.2734 7.4375 28.1992 7.12109C29.1367 6.79297 30.1797 6.62891 31.3281 6.62891C32.7109 6.62891 33.9297 6.86328 34.9844 7.33203C36.0508 7.80078 36.8828 8.50977 37.4805 9.45898C38.0898 10.3965 38.3945 11.5742 38.3945 12.9922V21.8516C38.3945 22.4844 38.4473 23.1582 38.5527 23.873C38.6699 24.5879 38.8398 25.2031 39.0625 25.7188V26H35.6699C35.5059 25.625 35.377 25.127 35.2832 24.5059C35.1895 23.873 35.1426 23.2871 35.1426 22.748ZM35.7051 14.4688L35.7402 16.7539H32.4531C31.5273 16.7539 30.7012 16.8301 29.9746 16.9824C29.248 17.123 28.6387 17.3398 28.1465 17.6328C27.6543 17.9258 27.2793 18.2949 27.0215 18.7402C26.7637 19.1738 26.6348 19.6836 26.6348 20.2695C26.6348 20.8672 26.7695 21.4121 27.0391 21.9043C27.3086 22.3965 27.7129 22.7891 28.252 23.082C28.8027 23.3633 29.4766 23.5039 30.2734 23.5039C31.2695 23.5039 32.1484 23.293 32.9102 22.8711C33.6719 22.4492 34.2754 21.9336 34.7207 21.3242C35.1777 20.7148 35.4238 20.123 35.459 19.5488L36.8477 21.1133C36.7656 21.6055 36.543 22.1504 36.1797 22.748C35.8164 23.3457 35.3301 23.9199 34.7207 24.4707C34.123 25.0098 33.4082 25.4609 32.5762 25.8242C31.7559 26.1758 30.8301 26.3516 29.7988 26.3516C28.5098 26.3516 27.3789 26.0996 26.4062 25.5957C25.4453 25.0918 24.6953 24.418 24.1562 23.5742C23.6289 22.7188 23.3652 21.7637 23.3652 20.709C23.3652 19.6895 23.5645 18.793 23.9629 18.0195C24.3613 17.2344 24.9355 16.584 25.6855 16.0684C26.4355 15.541 27.3379 15.1426 28.3926 14.873C29.4473 14.6035 30.625 14.4688 31.9258 14.4688H35.7051ZM45.707 6.98047L49.873 13.9062L54.0918 6.98047H57.9062L51.6836 16.3672L58.0996 26H54.3379L49.9434 18.8633L45.5488 26H41.7695L48.168 16.3672L41.9629 6.98047H45.707ZM72.584 22.748V12.957C72.584 12.207 72.4316 11.5566 72.127 11.0059C71.834 10.4434 71.3887 10.0098 70.791 9.70508C70.1934 9.40039 69.4551 9.24805 68.5762 9.24805C67.7559 9.24805 67.0352 9.38867 66.4141 9.66992C65.8047 9.95117 65.3242 10.3203 64.9727 10.7773C64.6328 11.2344 64.4629 11.7266 64.4629 12.2539H61.2109C61.2109 11.5742 61.3867 10.9004 61.7383 10.2324C62.0898 9.56445 62.5938 8.96094 63.25 8.42188C63.918 7.87109 64.7148 7.4375 65.6406 7.12109C66.5781 6.79297 67.6211 6.62891 68.7695 6.62891C70.1523 6.62891 71.3711 6.86328 72.4258 7.33203C73.4922 7.80078 74.3242 8.50977 74.9219 9.45898C75.5312 10.3965 75.8359 11.5742 75.8359 12.9922V21.8516C75.8359 22.4844 75.8887 23.1582 75.9941 23.873C76.1113 24.5879 76.2812 25.2031 76.5039 25.7188V26H73.1113C72.9473 25.625 72.8184 25.127 72.7246 24.5059C72.6309 23.873 72.584 23.2871 72.584 22.748ZM73.1465 14.4688L73.1816 16.7539H69.8945C68.9688 16.7539 68.1426 16.8301 67.416 16.9824C66.6895 17.123 66.0801 17.3398 65.5879 17.6328C65.0957 17.9258 64.7207 18.2949 64.4629 18.7402C64.2051 19.1738 64.0762 19.6836 64.0762 20.2695C64.0762 20.8672 64.2109 21.4121 64.4805 21.9043C64.75 22.3965 65.1543 22.7891 65.6934 23.082C66.2441 23.3633 66.918 23.5039 67.7148 23.5039C68.7109 23.5039 69.5898 23.293 70.3516 22.8711C71.1133 22.4492 71.7168 21.9336 72.1621 21.3242C72.6191 20.7148 72.8652 20.123 72.9004 19.5488L74.2891 21.1133C74.207 21.6055 73.9844 22.1504 73.6211 22.748C73.2578 23.3457 72.7715 23.9199 72.1621 24.4707C71.5645 25.0098 70.8496 25.4609 70.0176 25.8242C69.1973 26.1758 68.2715 26.3516 67.2402 26.3516C65.9512 26.3516 64.8203 26.0996 63.8477 25.5957C62.8867 25.0918 62.1367 24.418 61.5977 23.5742C61.0703 22.7188 60.8066 21.7637 60.8066 20.709C60.8066 19.6895 61.0059 18.793 61.4043 18.0195C61.8027 17.2344 62.377 16.584 63.127 16.0684C63.877 15.541 64.7793 15.1426 65.834 14.873C66.8887 14.6035 68.0664 14.4688 69.3672 14.4688H73.1465ZM93.6602 6.98047V9.66992H84.4668V6.98047H93.6602ZM96.5254 6.98047V26H93.2734V6.98047H96.5254ZM83.6758 6.98047H86.9453L86.4531 16.1562C86.3711 17.5742 86.2363 18.8281 86.0488 19.918C85.873 20.9961 85.627 21.9219 85.3105 22.6953C85.0059 23.4688 84.6191 24.1016 84.1504 24.5938C83.6934 25.0742 83.1426 25.4316 82.498 25.666C81.8535 25.8887 81.1094 26 80.2656 26H79.2461V23.1348L79.9492 23.082C80.4531 23.0469 80.8809 22.9297 81.2324 22.7305C81.5957 22.5312 81.9004 22.2383 82.1465 21.8516C82.3926 21.4531 82.5918 20.9434 82.7441 20.3223C82.9082 19.7012 83.0312 18.9629 83.1133 18.1074C83.207 17.252 83.2773 16.2559 83.3242 15.1191L83.6758 6.98047ZM105.279 20.8496L114.051 6.98047H117.32V26H114.051V12.1309L105.279 26H102.045V6.98047H105.279V20.8496ZM135.443 15.2246V17.8613H125.389V15.2246H135.443ZM126.074 6.98047V26H122.822V6.98047H126.074ZM138.08 6.98047V26H134.811V6.98047H138.08ZM159.016 13.7832V16.4551H150.438V13.7832H159.016ZM181.463 0.265625V26H178.211V4.32617L171.654 6.7168V3.78125L180.953 0.265625H181.463Z" fill="#0067B1"/>
</svg>
